<svg xmlns="http://www.w3.org/2000/svg" data-name="‘ëîé_1" viewBox="0 0 5000 4000"><path fill="none" stroke="#c8def4" stroke-miterlimit="10" stroke-width="20" d="M3912.8613,1351.677c-102.3462-276.7831-379.9217-475.2743-673.8643-406.9463-276.6407,64.306-475.5051,309.2987-739.4612,407.4475-276.7369,102.9012-516.7164,29.9883-766.0789-92.1401-214.9428-105.2709-471.869-189.6965-651.3585,40.9359-194.63592,250.0947-168.60922,633.0109-72.7666,911.2154,94.4934,274.2881,280.5361,500.6394,521.1694,647.5511,479.597,292.8043,1156.2636,316.7371,1664.8369,44.8921C3721.0822,2623.6095,4135.9731,1955.0555,3912.8613,1351.677Z"/><path fill="#c8def4" d="M3654.1463,887.9419c-187.493-227.8814-514.8278-324.3122-770.0802-163.3241-240.2279,151.5121-347.7016,448.1901-564.8433,627.5098-227.6556,188.0022-478.2734,197.8628-753.9022,164.3109-237.5836-28.9206-507.9872-24.3752-601.87022,252.3806-101.8053,300.1103,48.41542,653.2899,230.23142,884.648,179.2564,228.101,429.2662,380.8815,704.7805,440.7089,549.117,119.2397,1196.1777-80.1667,1587.4056-503.8261C3890.3047,2152.3868,4062.8759,1384.7162,3654.1463,887.9419Z"/><path fill="#211f44" d="M2448.2327,1227.0417,1606.337,1950.3431l15.669,327.2692c0,39.0371,47.0909,592.5016,91.8808,592.5016l786.1133-526.0756,708.3232,472.0699c44.7899,0,131.2609-514.3402,131.2609-553.3772l52.3562-313.1547-842.6492-722.5346C2519.7222,1206.5134,2477.8017,1206.5134,2448.2327,1227.0417Z"/><path fill="#fff" d="M1817.9705,1486.0858H3176.3109a65.5351,65.5351,0,0,1,65.5351,65.5351V2935.2373a65.5351,65.5351,0,0,1-65.5351,65.5351H1817.9704a65.535,65.535,0,0,1-65.535-65.535V1551.6209A65.5351,65.5351,0,0,1,1817.9705,1486.0858Z"/><path fill="#c8def4" d="M2202.3791,2368.4238h-315.701a22.1466,22.1466,0,0,1-22.1453-22.1453V2030.5797a22.14634,22.14634,0,0,1,22.1453-22.1453h315.701a22.14634,22.14634,0,0,1,22.1453,22.1453v315.6988A22.1466,22.1466,0,0,1,2202.3791,2368.4238Zm-293.5556-44.2907h271.4102v-271.408H1908.8235Z"/><path fill="#749dd3" d="M3168.3204,2282.0676H2380.3745a22.14535,22.14535,0,1,1,0-44.2907h787.9459a22.14535,22.14535,0,1,1,0,44.2907Z"/><path fill="#314982" d="M2022.9801,2296.8775c-.1794,0-.361-.0022-.5408-.0066a22.1454,22.1454,0,0,1-19.165-12.0307l-38.6184-75.2791a22.14526,22.14526,0,0,1,39.4076-20.2161l20.0411,39.068,79.12-137.3401a22.1458,22.1458,0,1,1,38.3779,22.1107l-99.4357,172.604A22.14927,22.14927,0,0,1,2022.9801,2296.8775Z"/><path fill="#c8def4" d="M2380.1843,2094.7902h396.2493a21.9553,21.9553,0,0,1,21.9553,21.9553v.0001a21.9552,21.9552,0,0,1-21.9552,21.9552H2380.1843a21.9552,21.9552,0,0,1-21.9552-21.9552v-.0002a21.9552,21.9552,0,0,1,21.9552-21.9552Z"/><path fill="#c8def4" d="M2202.3791,1958.0551h-315.701a22.1466,22.1466,0,0,1-22.1453-22.1453V1620.2111a22.14636,22.14636,0,0,1,22.1453-22.1454h315.701a22.14636,22.14636,0,0,1,22.1453,22.1454v315.6987A22.1466,22.1466,0,0,1,2202.3791,1958.0551Zm-293.5556-44.2907h271.4102v-271.408H1908.8235Z"/><path fill="#c8def4" d="M2980.02,1728.7122H2377.6314c-10.7151,0-19.4023-9.9154-19.4023-22.1454,0-12.2295,8.6872-22.1453,19.4023-22.1453H2980.02c10.7148,0,19.4023,9.9158,19.4023,22.1453C2999.4223,1718.7968,2990.7348,1728.7122,2980.02,1728.7122Z"/><path fill="#749dd3" d="M3120.9583,1871.6989H2379.0797c-11.5149,0-20.8506-9.9158-20.8506-22.1453s9.3357-22.1454,20.8506-22.1454h741.8786c11.5145,0,20.8506,9.9158,20.8506,22.1454S3132.4728,1871.6989,3120.9583,1871.6989Z"/><path fill="#314982" d="M2022.9801,1886.5088c-.1794,0-.361-.0022-.5408-.0066a22.1454,22.1454,0,0,1-19.165-12.0307l-38.6184-75.2791a22.14523,22.14523,0,0,1,39.4076-20.216l20.0411,39.0679,79.12-137.3401a22.14583,22.14583,0,1,1,38.3779,22.1108l-99.4357,172.6039A22.14906,22.14906,0,0,1,2022.9801,1886.5088Z"/><path fill="#262f5f" d="M2517.255,2497.3272l406.2396-399.7033c106.6884-104.972,258.9669-164.9499,418.7924-164.9499h.0002c37.5345,0,67.9623,23.8476,67.9623,53.2652V3054.2686c0,29.4175-50.7431,74.0859-88.2776,74.0859H3091.1417L2517.255,2563.7013C2498.0607,2544.8159,2498.0607,2516.2128,2517.255,2497.3272Z"/><path fill="#262f5f" d="M2482.745,2496.5976l-406.2396-399.7034c-106.6884-104.9719-258.9669-164.9499-418.7923-164.9499h-.0003c-37.5345,0-67.9623,23.8477-67.9623,53.2651V3059.947c0,29.4175,43.5649,68.4075,81.0995,68.4075l238.0083-.7296,573.8867-564.6533C2501.9393,2544.0861,2501.9393,2515.4831,2482.745,2496.5976Z"/><path fill="#2c447d" d="M3410.2479,2835.6067v230.3942c0,34.4357-36.3129,62.3486-81.0926,62.3486H1670.8447c-44.7797,0-81.0926-27.9129-81.0926-62.3486V2835.6067l859.7154-526.4868c13.9902-8.5618,30.7489-13.0854,47.6696-13.5448,18.8114-.5133,37.8118,4.0108,53.3954,13.5448Z"/><polygon fill="#211f44" points="2660.998 2355.166 3410.248 2737.595 3410.246 2835.607 2647.523 2368.424 2660.998 2355.166"/><polygon fill="#211f44" points="2339 2355.166 1589.751 2737.595 1589.752 2835.607 2352.475 2368.424 2339 2355.166"/><polygon fill="#2c447d" points="2071.904 1080.208 1896.189 1650.886 1868.033 1742.327 1787.761 1674.592 1577.954 1497.584 2071.904 1080.208"/><polygon fill="#262f5f" points="2071.896 1080.208 1461.414 1432.792 1183.725 1340.765 2071.896 1080.208"/><polygon fill="#211f44" points="2071.896 1080.208 1577.962 1497.588 1483.029 1687.395 1461.414 1432.792 2071.896 1080.208"/><path fill="#749dd3" d="M2256.3569,3011.5547a9.99929,9.99929,0,0,1-2.8564-.418c-20.3916-6.0693-40.8526-13.0273-60.8145-20.6816a9.99974,9.99974,0,1,1,7.1602-18.6738c19.4853,7.4707,39.457,14.2626,59.3594,20.1855a10.002,10.002,0,0,1-2.8487,19.5879Zm-137.4658-54.6777a9.9523,9.9523,0,0,1-4.4946-1.0733c-19.0244-9.5928-37.938-20.0381-56.2149-31.0449A10,10,0,1,1,2068.5,2907.626c17.8501,10.75,36.3218,20.9511,54.9014,30.3203a10.00123,10.00123,0,0,1-4.5103,18.9307Zm-125.7646-77.9014a9.95194,9.95194,0,0,1-5.9815-1.9932c-17.104-12.792-33.9067-26.3769-49.9414-40.3789a9.95,9.95,0,0,1-3.2329-5.5908,295.1777,295.1777,0,0,1-28.6079,8.4687,9.99965,9.99965,0,1,1-4.707-19.4375,267.58263,267.58263,0,0,0,57.3579-20.9384,9.99988,9.99988,0,1,1,8.998,17.8613q-6.99315,3.5229-14.2417,6.6699c14.9268,12.9307,30.5069,25.4785,46.3535,37.3301a10.00057,10.00057,0,0,1-5.997,18.0088Zm-174.1021-31.3193c-.1597,0-.3203-.004-.4819-.0108a365.25847,365.25847,0,0,1-64.5498-9.0508,10,10,0,0,1,4.4951-19.4883,345.15259,345.15259,0,0,0,61.0029,8.5606,10.00028,10.00028,0,0,1-.4663,19.9893Zm-142.7939-36.0225a9.9621,9.9621,0,0,1-4.0786-.875,561.14564,561.14564,0,0,1-57.293-29.8594,9.99971,9.99971,0,1,1,10.2226-17.1894,541.11562,541.11562,0,0,0,55.2393,28.7929,10.00194,10.00194,0,0,1-4.0903,19.1309Zm206.7632-31.4092a9.973,9.973,0,0,1-7.3711-3.2392,418.99191,418.99191,0,0,1-40.1617-51.0977,9.9998,9.9998,0,1,1,16.6563-11.0703,399.02254,399.02254,0,0,0,38.2427,48.6465,10.00022,10.00022,0,0,1-7.3662,16.7607Zm147.0292-12.4658a10.00026,10.00026,0,0,1-7.3471-16.7813,199.93791,199.93791,0,0,0,17.2124-21.4287,174.8137,174.8137,0,0,0,16.0063-28.4756,10,10,0,0,1,18.2647,8.1485,194.89282,194.89282,0,0,1-17.8462,31.7392,220.24479,220.24479,0,0,1-18.938,23.5791A9.97582,9.97582,0,0,1,2030.0229,2767.7588Zm-479.769-33.3672a9.95922,9.95922,0,0,1-6.167-2.1328c-16.7529-13.1484-33.1562-27.293-48.7539-42.043a9.9997,9.9997,0,1,1,13.7412-14.5312c15.1538,14.3291,31.0884,28.0703,47.3604,40.8398a10.00031,10.00031,0,0,1-6.1807,17.8672Zm256.4434-79.8184a10.0051,10.0051,0,0,1-9.5533-7.0576c-6.0214-19.5371-9.0747-38.5791-9.0742-56.5957,0-3.1914.0967-6.3984.2871-9.5342a9.99986,9.99986,0,1,1,19.9629,1.2129c-.166,2.7334-.25,5.5332-.25,8.3213-.0005,16.0176,2.7539,33.0781,8.187,50.7051a10.00754,10.00754,0,0,1-9.5595,12.9482Zm275.5625-21.6611a9.99941,9.99941,0,0,1-9.9991-9.96,174.66123,174.66123,0,0,0-10.1582-58.8876,10.0001,10.0001,0,0,1,18.8077-6.8028,194.61626,194.61626,0,0,1,11.3505,65.6104,10.00057,10.00057,0,0,1-9.9599,10.04Zm-637.9121-1.6689a9.9789,9.9789,0,0,1-7.6949-3.6075c-13.644-16.4111-26.7334-33.6543-38.9048-51.2519a10,10,0,0,1,16.4488-11.377c11.8374,17.1143,24.5669,33.8838,37.8349,49.8438a9.99978,9.99978,0,0,1-7.684,16.3926Zm385.1474-116.2461a10,10,0,0,1-7.4145-16.7071c14.7856-16.3525,34.4936-29.0546,56.9926-36.7324a9.99975,9.99975,0,1,1,6.459,18.9278c-19.292,6.5839-36.1035,17.3789-48.6167,31.2187A9.97611,9.97611,0,0,1,1829.4951,2514.9971Zm-467.4643-6.584a9.99879,9.99879,0,0,1-8.8438-5.3184c-10.0317-18.9248-19.313-38.4853-27.5859-58.1386a10.00015,10.00015,0,0,1,18.4336-7.7598c8.0434,19.1094,17.0678,38.1289,26.8232,56.5312a10.004,10.004,0,0,1-8.8271,14.6856Zm661.1132-5.8408a9.95624,9.95624,0,0,1-6.081-2.0684,134.63274,134.63274,0,0,0-53.3574-24.1865,9.99962,9.99962,0,1,1,4.2207-19.5488c22.7553,4.9121,43.957,14.5498,61.3134,27.8701a10.00072,10.00072,0,0,1-6.0957,17.9336Zm-716.3945-131.292a10.0053,10.0053,0,0,1-9.6133-7.2657c-5.8799-20.6572-10.8354-41.746-14.7295-62.6796a10.00025,10.00025,0,0,1,19.6631-3.6582c3.7803,20.3242,8.5923,40.8017,14.3023,60.8632a10.00848,10.00848,0,0,1-9.6226,12.7403Zm-24.709-145.7461a10.00029,10.00029,0,0,1-9.9736-9.418c-.7866-13.4892-1.1856-27.2119-1.1851-40.7871,0-7.8213.1324-15.7559.3931-23.583a9.99995,9.99995,0,0,1,19.9888.666c-.2534,7.6065-.3819,15.3164-.3819,22.917-.0005,13.1885.3868,26.5195,1.1509,39.623a10.00022,10.00022,0,0,1-9.4004,10.5655C1282.4341,2225.5283,1282.2368,2225.5342,1282.0405,2225.5342Zm7.1079-147.6797a10.00606,10.00606,0,0,1-9.896-11.5205c3.2452-21.1035,7.4781-42.334,12.5806-63.1026a10,10,0,1,1,19.4224,4.7715c-4.9629,20.1992-9.0791,40.8477-12.2354,61.3701A10.0021,10.0021,0,0,1,1289.1484,2077.8545Zm37.3726-143.0581a10.007,10.007,0,0,1-9.3623-13.5132c7.5205-20.0591,16.0161-39.9746,25.2515-59.1929a10,10,0,0,1,18.0263,8.6631c-8.9785,18.6836-17.2383,38.0464-24.5503,57.5503A10.0045,10.0045,0,0,1,1326.521,1934.7964Zm66.0811-132.2583a10.0022,10.0022,0,0,1-8.4112-15.3955c11.5908-18.0943,24.1192-35.771,37.2359-52.5405a9.99988,9.99988,0,1,1,15.7529,12.3222c-12.7319,16.2774-24.8936,33.4385-36.148,51.0064A9.99351,9.99351,0,0,1,1392.6021,1802.5381Z"/><path fill="#749dd3" d="M2775.5273,3001.1416a10.00874,10.00874,0,0,1-9.8603-11.7373,277.93591,277.93591,0,0,1,19.1963-62.8096,9.99977,9.99977,0,0,1,18.3281,8.0039,257.86327,257.86327,0,0,0-17.8271,58.2764A10.00475,10.00475,0,0,1,2775.5273,3001.1416Zm441.6514-80.0635q-.4395,0-.8848-.039a126.75183,126.75183,0,0,1-63.5751-24.5586,10.00029,10.00029,0,0,1,11.9355-16.0489,106.47732,106.47732,0,0,0,53.3857,20.6836,10.00057,10.00057,0,0,1-.8613,19.9629Zm74.5371-31.3906a10.00136,10.00136,0,0,1-7.9883-16.0059c10.2754-13.6826,15.7061-31.2216,15.7061-50.7207q0-1.3695-.0352-2.7412a10.00005,10.00005,0,0,1,19.9932-.5254q.04245,1.63335.042,3.2666c0,23.8653-6.8164,45.5567-19.7139,62.7305A9.98575,9.98575,0,0,1,3291.7158,2889.6875Zm-454.082-21.3721a9.99995,9.99995,0,0,1-7.875-16.1543,425.94165,425.94165,0,0,1,43.8603-47.9043,10.00021,10.00021,0,1,1,13.7012,14.5703,406.00692,406.00692,0,0,0-41.7978,45.6426A9.98228,9.98228,0,0,1,2837.6338,2868.3154Zm279.8857-40.9258a10.00147,10.00147,0,0,1-9.9277-8.9091,126.07676,126.07676,0,0,1-.7471-13.7227,140.80694,140.80694,0,0,1,10.8047-53.2637,10,10,0,0,1,18.5215,7.5469,120.90861,120.90861,0,0,0-9.3262,45.7168,105.961,105.961,0,0,0,.628,11.5391,10.00653,10.00653,0,0,1-9.9532,11.0927Zm-170.374-57.8593a10.00086,10.00086,0,0,1-5.4297-18.4053,481.96141,481.96141,0,0,1,56.6914-31.3945,10.00017,10.00017,0,0,1,8.4766,18.1152,461.79029,461.79029,0,0,0-54.3281,30.0879A9.96035,9.96035,0,0,1,2947.1455,2769.5303Zm332.4697-17.1114a9.97783,9.97783,0,0,1-7.5908-3.4843,99.5815,99.5815,0,0,0-11.1806-11.1231,138.555,138.555,0,0,0-36.6709-22.1094,10.00022,10.00022,0,1,1,7.6386-18.4843,158.57562,158.57562,0,0,1,41.9463,25.3213,119.69746,119.69746,0,0,1,13.4385,13.3642,9.99994,9.99994,0,0,1-7.5811,16.5156Zm-197.2812-41.7724a10.00112,10.00112,0,0,1-2.3096-19.7295c3.7774-.9004,7.5781-1.7441,11.2949-2.5078a296.26459,296.26459,0,0,1,53.6299-6.127,10,10,0,0,1,.3985,19.9961,276.234,276.234,0,0,0-49.9991,5.7207c-3.5166.7227-7.1123,1.5215-10.6875,2.3731A10.04242,10.04242,0,0,1,3082.334,2710.6465Zm95.6514-11.6611a10.0008,10.0008,0,0,1-6.0733-17.9512,161.75956,161.75956,0,0,1,26.7119-16.5811,210.73111,210.73111,0,0,1,33.2012-12.8261,10.00027,10.00027,0,1,1,5.6582,19.1835,190.58881,190.58881,0,0,0-30.041,11.5938,141.70177,141.70177,0,0,0-23.3994,14.5303A9.95806,9.95806,0,0,1,3177.9854,2698.9854Zm140.1865-40.2247a10.00015,10.00015,0,0,1-.5391-19.9853c11.7158-.6426,23.5488-1.0459,34.9932-1.4365l4.9707-.17c9.4277-.3261,16.6709-.6337,23.4834-.997a9.99958,9.99958,0,0,1,1.0664,19.9707c-6.9424.3711-14.3008.6836-23.8594,1.0146l-4.9795.1709c-11.3418.3867-23.0703.7862-34.5791,1.418Q3318.44875,2658.7608,3318.1719,2658.7607Zm147.0312-14.7236a10.00157,10.00157,0,0,1-2.7441-19.6172,178.57752,178.57752,0,0,0,43.4941-18.4863,87.56888,87.56888,0,0,0,9.8194-6.9941,9.99983,9.99983,0,0,1,12.5859,15.5429,107.55182,107.55182,0,0,1-12.1045,8.5957,198.30648,198.30648,0,0,1-48.2969,20.5703A10.00043,10.00043,0,0,1,3465.2031,2644.0371Zm109.8076-92.833a10.00309,10.00309,0,0,1-8.6914-14.9326,275.79987,275.79987,0,0,0,24.0918-56.1983,9.99986,9.99986,0,0,1,19.1465,5.7793,295.82971,295.82971,0,0,1-25.8379,60.2803A9.99675,9.99675,0,0,1,3575.0107,2551.2041Zm36.5332-141.7305a10.00044,10.00044,0,0,1-9.9941-9.7929,263.12663,263.12663,0,0,0-8.4228-60.4307,10,10,0,1,1,19.3613-5.0137,283.16494,283.16494,0,0,1,9.0576,65.0303,10.00054,10.00054,0,0,1-9.791,10.2051C3611.6846,2409.4727,3611.6133,2409.4736,3611.5439,2409.4736Z"/><circle cx="3472.832" cy="2074.741" r="209.591" fill="#749dd3"/><path fill="#fff" d="M3553.4491,2101.712v-47.3611a80.61438,80.61438,0,0,0-80.6144-80.6143h-.0047a80.6144,80.6144,0,0,0-80.6145,80.6143v47.3611c0,25.7575-7.0585,35.5974-20.4087,57.6252h202.0509C3560.5075,2137.3094,3553.4491,2127.4695,3553.4491,2101.712Z"/><path fill="#fff" d="M3472.8324,2200.4371h-.0001a30.42679,30.42679,0,0,1-30.4268-30.4267h60.8537A30.42679,30.42679,0,0,1,3472.8324,2200.4371Z"/><path fill="#fff" d="M3472.8324,1949.0447a24.692,24.692,0,1,0,24.6918,24.6919A24.692,24.692,0,0,0,3472.8324,1949.0447Zm0,39.5262a14.83435,14.83435,0,1,1,14.8344-14.8343A14.83442,14.83442,0,0,1,3472.8324,1988.5709Z"/><path fill="#749dd3" d="M3472.832,2331.043a256.30126,256.30126,0,1,1,181.2334-75.0684A254.62822,254.62822,0,0,1,3472.832,2331.043Zm0-492.6045a236.30335,236.30335,0,1,0,167.0909,69.2114A234.75229,234.75229,0,0,0,3472.832,1838.4385Z"/><path fill="#262f5f" d="M3284.1055,1446.1416a10.00025,10.00025,0,0,1-7.0713-17.0713l65.5312-65.5307a10.00029,10.00029,0,0,1,14.1426,14.1425l-65.5312,65.5308A9.97322,9.97322,0,0,1,3284.1055,1446.1416Z"/><path fill="#262f5f" d="M3284.1055,1448.6416a12.50009,12.50009,0,0,1-8.8389-21.3389l65.5313-65.5307a12.5,12.5,0,0,1,17.6777,17.6777l-65.5313,65.5308A12.42053,12.42053,0,0,1,3284.1055,1448.6416Zm65.5322-85.5264a7.48528,7.48528,0,0,0-5.3057,2.1929l-65.5302,65.5298a7.50039,7.50039,0,0,0,10.6074,10.6069l65.5312-65.5302a7.49615,7.49615,0,0,0-5.3027-12.7994Z"/><path fill="#262f5f" d="M3424.2324,1539.9199a10.07562,10.07562,0,0,1-1.498-.1123l-109.0586-16.3828a10.00008,10.00008,0,0,1,2.9707-19.7783l109.0586,16.3828a10.00087,10.00087,0,0,1-1.4727,19.8906Z"/><path fill="#262f5f" d="M3424.2324,1542.4199a12.57827,12.57827,0,0,1-1.8691-.1401l-109.0586-16.3828a12.5,12.5,0,1,1,3.7129-24.7227l109.0586,16.3828a12.50077,12.50077,0,0,1-1.8438,24.8628Zm-109.0742-36.3847a7.5004,7.5004,0,0,0-1.1113,14.9174l109.0586,16.3828a7.48991,7.48991,0,0,0,8.5302-6.3027,7.50875,7.50875,0,0,0-6.3017-8.5312l-109.0586-16.3828A7.54319,7.54319,0,0,0,3315.1582,1506.0352Z"/><path fill="#262f5f" d="M3206.6982,1415.0869a10.001,10.001,0,0,1-9.8759-8.5161l-16.3828-109.0581a9.99958,9.99958,0,1,1,19.7773-2.9707l16.3828,109.0581a10.0082,10.0082,0,0,1-9.9014,11.4868Z"/><path fill="#262f5f" d="M3206.6982,1417.5869a12.571,12.571,0,0,1-12.3486-10.645l-16.3828-109.0576a12.5,12.5,0,0,1,24.7227-3.7134l16.3828,109.0576a12.5003,12.5003,0,0,1-10.5049,14.2183A12.61327,12.61327,0,0,1,3206.6982,1417.5869Zm-16.3564-129.061a7.56042,7.56042,0,0,0-1.127.0845,7.49892,7.49892,0,0,0-6.3027,8.5307l16.3828,109.0581a7.48887,7.48887,0,0,0,8.5293,6.3032,7.4989,7.4989,0,0,0,6.3028-8.5307l-16.3829-109.0581a7.50789,7.50789,0,0,0-7.4023-6.3877Z"/></svg>