<svg xmlns="http://www.w3.org/2000/svg" enable-background="new 0 0 1200 1200" viewBox="0 0 1200 1200" width="550" height="550"><linearGradient id="a" x1="11611.949" x2="12204.887" y1="550.358" y2="1089.998" gradientTransform="matrix(-1 0 0 1 12409.272 -118.328)" gradientUnits="userSpaceOnUse"><stop offset="0" stop-color="#fde7eb" class="stopColorfde7eb svgShape"></stop><stop offset=".626" stop-color="#fae2e9" class="stopColorfae2e9 svgShape"></stop><stop offset="1" stop-color="#fde7eb" class="stopColorfde7eb svgShape"></stop></linearGradient><path fill="url(#a)" d="M534.018,978.174c-54.918,7.672-113.921-2.171-158.078-35.712
    c-51.554-39.16-76.992-109.766-62.259-172.807c3.971-16.99,17.538-30.516,15.344-48.535c-1.452-11.925-7.258-22.819-13.015-33.363
    c-19.111-35.005-39.125-70.069-66.654-98.926c-12.757-13.372-27.061-25.336-38.452-39.888
    c-11.392-14.553-19.858-32.53-18.339-50.949c1.788-21.687,16.944-40.005,33.829-53.732c39.288-31.941,89.796-46.561,132.217-74.207
    c21.846-14.237,42.92-34.768,44.511-60.795c0.706-11.559-2.563-22.933-4.839-34.287c-4.082-20.364-4.969-41.724,0.624-61.726
    c5.593-20.002,18.189-38.55,36.401-48.533c25.276-13.856,56.557-9.472,84.128-1.064c28.552,8.708,55.188,18.759,85.12,21.698
    c28.027,2.752,58.564,3.24,81.741,21.553c24.179,19.105,32.912,52.712,56.405,72.654c29.452,24.999,63.741,21.492,99.276,24.203
    c29.918,2.282,60.417,6.745,86.867,20.912c26.45,14.167,48.416,39.712,51.197,69.589c2.957,31.761-15.62,61.603-37.226,85.07
    c-21.606,23.466-47.218,43.742-63.932,70.91c-23.881,38.819-26.243,89.99-6.039,130.844c10.66,21.556,21.835,41.05,44.862,45.203
    c23.465,4.231,44.513,8.461,63.006,24.967c20.512,18.307,31.747,47.744,24.88,74.366c-7.956,30.845-36.917,51.576-66.083,64.384
    c-29.166,12.808-60.936,20.708-86.898,39.166c-36.971,26.285-57.94,71.04-95.9,95.876c-17.912,11.719-39.076,18.411-60.47,19.119
    c-8.874,0.294-18.097-0.513-25.86-4.822c-11.66-6.471-17.831-19.385-24.588-30.882c-7.981-13.579-18.012-26.42-31.489-34.572
    C587.75,957.82,561.644,974.314,534.018,978.174z"></path><ellipse cx="649.658" cy="913.622" fill="#c5d4e0" rx="339.958" ry="10.96" class="colorc5d4e0 svgShape"></ellipse><linearGradient id="b" x1="1521.748" x2="1522.677" y1="879.649" y2="874.341" gradientTransform="matrix(-1 0 0 1 2107.352 0)" gradientUnits="userSpaceOnUse"><stop offset="0" stop-color="#f5958f" class="stopColorf5958f svgShape"></stop><stop offset="1" stop-color="#f07d80" class="stopColorf07d80 svgShape"></stop></linearGradient><path fill="url(#b)" d="M591.117,852.427c0,0,4.659,45.841,0.826,47.89c-3.833,2.049-7.819,1.83-9.129,0.444
                c-1.31-1.386-12.64-43.547-11.374-45.51C572.705,853.289,591.117,852.427,591.117,852.427z"></path><path fill="#009ed3" d="M580.164,893.293c0,0,0.387,10.151-0.457,11.488c-0.844,1.337,0,4.856,0,4.856
                    s10.709,5.418,23.134,4.328c12.425-1.09,8.065-6.539,8.065-6.539l-15.325-13.109l-2.774-7.049c0,0-10.035-1.163-10.152,2.601
                    C582.41,897.806,580.164,893.293,580.164,893.293z" class="color009ed3 svgShape"></path><path fill="#c7e8f0" d="M586.244,895.857c-0.812,0-1.596-0.441-1.996-1.212c-0.571-1.101-0.143-2.457,0.959-3.029
                    c3.661-1.902,7.263-1.856,9.411-1.178c1.184,0.373,1.841,1.635,1.467,2.819c-0.371,1.182-1.627,1.843-2.819,1.466
                    c-0.272-0.086-2.762-0.794-5.988,0.881C586.948,895.776,586.594,895.857,586.244,895.857z" class="colorc7e8f0 svgShape"></path><path fill="#c7e8f0" d="M588.758,900.053c-0.771,0-1.522-0.397-1.941-1.11c-0.627-1.071-0.269-2.447,0.801-3.075
                    c3.563-2.091,7.523-2.07,9.699-1.167c1.146,0.477,1.688,1.792,1.212,2.938c-0.477,1.145-1.793,1.688-2.937,1.213
                    c-0.514-0.214-2.997-0.691-5.7,0.892C589.535,899.953,589.143,900.053,588.758,900.053z" class="colorc7e8f0 svgShape"></path><path fill="#c7e8f0" d="M591.641 903.534c-.717 0-1.422-.343-1.857-.979-.699-1.024-.437-2.422.588-3.123 2.702-1.847 6.203-2.332 9.604-1.331 1.19.35 1.87 1.6 1.52 2.79-.35 1.191-1.6 1.872-2.79 1.521-2.069-.609-4.238-.337-5.798.729C592.52 903.407 592.079 903.534 591.641 903.534zM579.386 907.658c-.158-.117-.124.802.007 1.653.173 1.125.911 2.08 1.958 2.526 3.029 1.291 9.617 3.88 14.371 4.179 4.262.268 9.028-.522 12.05-1.165 2.231-.475 4.02-2.227 4.38-4.479.116-.726.022-1.243-.522-1.162C606.647 913.723 582.952 912.384 579.386 907.658z" class="colorc7e8f0 svgShape"></path><linearGradient id="c" x1="1626.205" x2="1624.613" y1="881.205" y2="873.509" gradientTransform="matrix(-1 0 0 1 2107.352 0)" gradientUnits="userSpaceOnUse"><stop offset="0" stop-color="#f5958f" class="stopColorf5958f svgShape"></stop><stop offset="1" stop-color="#f07d80" class="stopColorf07d80 svgShape"></stop></linearGradient><path fill="url(#c)" d="M476.456,855.821c0,0-11.237,44.686-7.741,47.268c3.496,2.582,7.473,2.941,8.969,1.759
                c1.496-1.182,18.803-41.262,17.834-43.387C494.55,859.335,476.456,855.821,476.456,855.821z"></path><path fill="#009ed3" d="M482.005,897.179c0,0-0.754,10.131,0.04,11.497c0.795,1.367-0.176,4.853-0.176,4.853
                    s-10.898,5.027-23.275,3.488c-12.377-1.539-7.823-6.827-7.823-6.827l15.79-12.545l3.027-6.945c0,0,10.07-0.799,10.051,2.967
                    C479.597,901.608,482.005,897.179,482.005,897.179z" class="color009ed3 svgShape"></path><path fill="#c7e8f0" d="M475.916,899.523c-0.374,0-0.755-0.094-1.105-0.292c-3.163-1.79-5.676-1.173-5.954-1.097
                    c-1.194,0.331-2.432-0.373-2.763-1.569c-0.331-1.196,0.373-2.434,1.569-2.763c2.173-0.597,5.772-0.514,9.364,1.519
                    c1.08,0.612,1.46,1.983,0.848,3.062C477.461,899.113,476.699,899.523,475.916,899.523z" class="colorc7e8f0 svgShape"></path><path fill="#c7e8f0" d="M473.253,903.626c-0.412,0-0.83-0.113-1.203-0.352c-2.646-1.683-5.146-1.294-5.667-1.099
                    c-1.162,0.433-2.457-0.156-2.891-1.32c-0.434-1.162,0.156-2.457,1.318-2.891c2.206-0.823,6.164-0.7,9.65,1.518
                    c1.047,0.666,1.356,2.054,0.691,3.102C474.724,903.258,473.996,903.626,473.253,903.626z" class="colorc7e8f0 svgShape"></path><path fill="#c7e8f0" d="M470.246 907c-.464 0-.932-.143-1.333-.439-1.521-1.122-3.678-1.473-5.767-.939-1.2.311-2.424-.419-2.733-1.62-.307-1.202.418-2.426 1.62-2.733 3.43-.879 6.915-.267 9.549 1.677.998.737 1.211 2.144.473 3.142C471.614 906.683 470.934 907 470.246 907zM482.262 911.563c.163-.111.094.806-.067 1.651-.214 1.118-.986 2.046-2.048 2.454-3.074 1.181-9.751 3.53-14.513 3.656-4.269.113-9.003-.849-12-1.601-2.212-.555-3.937-2.371-4.215-4.635-.09-.73.023-1.243.564-1.142C454.799 916.638 478.528 916.157 482.262 911.563z" class="colorc7e8f0 svgShape"></path><path fill="#f5958f" d="M524.097,574.821c0,0-0.763,33.418-2.671,40.702c-1.908,7.284,9.482,25.278,26.302,22.707
            c16.82-2.571,22.853-30.064,22.853-30.064s-5.652-21.348-5.27-33.344C565.692,562.825,528.365,570.46,524.097,574.821z" class="colorf5958f svgShape"></path><path fill="#14426d" d="M533.592,548.874c6.314,0,11.891,1.164,23.101,1.164c29.153,0,34.594-11.341,34.594-25.964
            c0-29.472-28.566-31.778-28.566-62.199c0-1.987,0.066-3.311,0.066-6.664c0-0.587,0.001-1.194,0.001-1.819
            c0-11.855-4.536-32.905-24.839-32.905c-9.467,0-14.942,8.866-18.404,17.778c-1.727,4.444-2.03,9.729-2.03,15.511
            c0,3.127,0.089,6.398,0.089,9.76c0,31.099-10.266,26.217-10.266,49.051c0,21.797,19.515,27.269,25.274,27.269
            C535.655,539.856,529.733,548.874,533.592,548.874z" class="color14426d svgShape"></path><path fill="#f5958f" d="M559.832,510.101c0,0,8.337,4.995,15.715,11.69c6.006,5.45,7.707,53.171,8.674,70.707
            c0,0-7.48,3.932-12.02-12.947C568.417,572.297,563.108,535.996,559.832,510.101z" class="colorf5958f svgShape"></path><path fill="#e84a54" d="M540.028,499.613c2.274,0,4.339,0.475,6.089,1.568c0,0,13.916,6.337,14.936,11.133
            c2.889,13.588,15.688,23.292,15.688,31.375c0,7.249-9.12,17.042-9.12,33.464c0,7.69,2.973,10.821,2.973,18.728
            c0,0.507-40.542,4.283-48.869,2.255c0,0,1.025-6.657,1.06-9.595c0.365-29.942-11.27-33.453-11.27-56.453
            c0-5.993-0.772-19.7,1.746-21.232C518.38,507.741,526.173,499.613,540.028,499.613z" class="colore84a54 svgShape"></path><linearGradient id="d" x1="1545.694" x2="1607.017" y1="598.685" y2="536.323" gradientTransform="matrix(-1 0 0 1 2107.352 0)" gradientUnits="userSpaceOnUse"><stop offset="0" stop-color="#e84a54" class="stopColore84a54 svgShape"></stop><stop offset=".119" stop-color="#e34a55" class="stopColore34a55 svgShape"></stop><stop offset=".256" stop-color="#d54a58" class="stopColord54a58 svgShape"></stop><stop offset=".401" stop-color="#bf4a5d" class="stopColorbf4a5d svgShape"></stop><stop offset=".551" stop-color="#9e4b63" class="stopColor9e4b63 svgShape"></stop><stop offset=".707" stop-color="#754b6c" class="stopColor754b6c svgShape"></stop><stop offset=".863" stop-color="#444c76" class="stopColor444c76 svgShape"></stop><stop offset="1" stop-color="#124c80" class="stopColor124c80 svgShape"></stop></linearGradient><path fill="url(#d)" d="M517.311,530.682c3.858,0,6.433,2.148,6.862,5.713c0.609,5.063-2.037,11.513-1.476,17.652
            c0.564,6.166,3.219,12.271,11.878,12.271c8.261,0,23.029-4.915,28.489-4.915c1.697,0,2.044,0.56,2.408,1.538
            c0.034,0.09,0.05,0.189,0.05,0.297c0,2.509-8.834,9.544-8.834,16.379c0,4.998,4.991,12.959,8.038,17.053
            c-8.387,0.857-23.927,2.058-34.237,2.058c-3.883,0-7.024-0.17-8.762-0.593c0,0,1.069-6.462,1.069-10.965
            c0-28.685-11.278-32.439-11.278-55.084C513.893,531.11,515.794,530.682,517.311,530.682z"></path><linearGradient id="e" x1="3064.921" x2="3074.459" y1="575.048" y2="552.061" gradientTransform="matrix(-1 0 0 1 3604.318 0)" gradientUnits="userSpaceOnUse"><stop offset="0" stop-color="#f2d09f" class="stopColorf2d09f svgShape"></stop><stop offset=".389" stop-color="#f0b393" class="stopColorf0b393 svgShape"></stop><stop offset=".757" stop-color="#ef9e8b" class="stopColoref9e8b svgShape"></stop><stop offset="1" stop-color="#ef9688" class="stopColoref9688 svgShape"></stop></linearGradient><polygon fill="url(#e)" points="532.542 592.895 545.822 592.895 548.468 562.54 529.896 562.54"></polygon><g><polygon fill="#009ed3" points="529.051 562.942 549.312 562.942 548.42 561.013 529.944 561.013" class="color009ed3 svgShape"></polygon><rect width="15.298" height="1.53" x="531.533" y="560.383" fill="#009ed3" transform="rotate(-180 539.182 561.148)" class="color009ed3 svgShape"></rect></g><path fill="#f5958f" d="M535.435,568.383c2.12-0.856,12.723,2.458,12.723,2.458l9.716,12.483
            c10.092,0.97,9.75-2.384,14.426-3.585c-0.033-0.059,7.036-0.175,10.251,5.786c1.903,3.53,1.392,5.976,1.671,6.974
            c0,0-3.758,6.238-14.076,6.325c-10.318,0.087-16.859-7.917-16.859-7.917c-5.28,2.011-14.016,0.705-14.016,0.705l-6.774-5.158
            c0,0-1.574-5.202-0.354-8.502c1.22-3.3,8.778-4.761,8.778-4.761s-9.872-1.447-13.787-0.124
            C523.219,574.391,533.315,569.239,535.435,568.383z" class="colorf5958f svgShape"></path><g><linearGradient id="f" x1="3021.675" x2="3051.263" y1="584.524" y2="601.322" gradientTransform="matrix(-1 0 0 1 3604.318 0)" gradientUnits="userSpaceOnUse"><stop offset="0" stop-color="#f5958f" class="stopColorf5958f svgShape"></stop><stop offset="1" stop-color="#d96c71" class="stopColord96c71 svgShape"></stop></linearGradient><path fill="url(#f)" d="M580.807,590.334c1.276-0.035,2.425,0.501,3.3,1.092c0.022,0.451,0.041,0.812,0.114,1.072
                c0,0-3.758,6.238-14.076,6.325c-10.318,0.087-16.859-7.917-16.859-7.917C572.912,599.016,578.025,590.411,580.807,590.334z"></path><linearGradient id="g" x1="3051.032" x2="3068.215" y1="590.195" y2="590.195" gradientTransform="matrix(-1 0 0 1 3604.318 0)" gradientUnits="userSpaceOnUse"><stop offset="0" stop-color="#f07d80" class="stopColorf07d80 svgShape"></stop><stop offset="1" stop-color="#d96c71" class="stopColord96c71 svgShape"></stop></linearGradient><path fill="url(#g)" d="M546.089,588.361c2.765,0,7.197,2.546,7.197,2.546c-5.28,2.011-14.016,0.705-14.016,0.705
                l-3.167-2.412C540.109,590.603,543.324,588.361,546.089,588.361z"></path></g><path fill="#f5958f" d="M544.866,475.918c0,0,2.505,30.393,6.815,38.26c4.31,7.867-4.444,9.061-10.191,5.914
            c-5.747-3.147-15.211-17.5-15.211-17.5s5.404,1.513,3.968-25.234C528.81,450.612,544.866,475.918,544.866,475.918z" class="colorf5958f svgShape"></path><linearGradient id="h" x1="5381.699" x2="5383.197" y1="491.279" y2="486.256" gradientTransform="translate(-4843.845)" gradientUnits="userSpaceOnUse"><stop offset="0" stop-color="#f07d80" class="stopColorf07d80 svgShape"></stop><stop offset="1" stop-color="#d96c71" class="stopColord96c71 svgShape"></stop></linearGradient><path fill="url(#h)" d="M546.537,478.728l-14.238-2.633c-0.001,0.565,0.79,22.595,11.562,21.951
            c1.426-0.085,2.358-1.267,2.955-3.004C546.487,488.564,546.495,482.235,546.537,478.728z"></path><g><path fill="#87ced5" d="M570.359,605.565c2.355,15.851,16.65,22.298,19.145,52.019
                c2.496,32.277,1.019,56.359,1.608,66.278s0.033,33.861,2.36,50.924c0.477,3.498,4.974,95.113,4.974,95.113
                c-16.715,5.948-43.317,5.623-58.606,2.04l-4.125-200.646l-13.196-48.601l-1.302-10.432
                C521.217,612.261,562.083,624.006,570.359,605.565z" class="color87ced5 svgShape"></path><linearGradient id="i" x1="1532.851" x2="1576.155" y1="749.818" y2="727.847" gradientTransform="matrix(-1 0 0 1 2107.352 0)" gradientUnits="userSpaceOnUse"><stop offset="0" stop-color="#87ced5" class="stopColor87ced5 svgShape"></stop><stop offset=".742" stop-color="#24a2c4" class="stopColor24a2c4 svgShape"></stop><stop offset="1" stop-color="#0092be" class="stopColor0092be svgShape"></stop></linearGradient><path fill="url(#i)" d="M569.174,607.408c0,0-0.421,12.264-0.421,26.516c0,28.261-15.145,47.536-15.145,56.042
                c0,9.849,1.166,11.61,1.166,18.208c0,10.279-3.453,16.451-3.453,25.615c0,17.282,14.15,26.135,14.15,45.457
                c0,29.924-19.632,31.564-19.632,49.064c0,22.601,13.992,31.007,26.863,31.007c11.699,0,22.583-2.098,24.723-8.226
                c0.599,12.327,1.021,18.809,1.021,18.809c-8.957,3.188-21.115,4.624-32.903,4.624c-9.406,0-18.578-0.914-25.703-2.584
                l-4.125-200.646l-3.219-11.854L569.174,607.408z"></path></g><g><path fill="#009ed3" d="M522.04,605.994c-0.259,7.539-9.582,16.288-16.166,36.942
                c-4.648,14.579-8.598,46.432-10.807,76.356c-1.95,26.407-8.756,48.407-12.268,60.284c-3.512,11.877-19.82,85.318-19.82,85.318
                c9.092,9.387,28.295,10.446,55.489,9.211c4.386-0.199,12.793-1.835,15.54-2.949c0,0,3.764-132.643,14.466-172.412
                c4.246-15.777,25.676-39.263,24.326-68.975c-0.345-7.594-1.535-19.712-2.768-26.879
                C560.925,604.997,524.111,606.362,522.04,605.994z" class="color009ed3 svgShape"></path><linearGradient id="j" x1="2914.442" x2="3143.171" y1="657.082" y2="639.783" gradientTransform="matrix(-.999 .0454 .043 .9462 3414.152 37.453)" gradientUnits="userSpaceOnUse"><stop offset="0" stop-color="#009ed3" class="stopColor009ed3 svgShape"></stop><stop offset=".044" stop-color="#0197cb" class="stopColor0197cb svgShape"></stop><stop offset=".344" stop-color="#0a6d9c" class="stopColor0a6d9c svgShape"></stop><stop offset=".608" stop-color="#114e7a" class="stopColor114e7a svgShape"></stop><stop offset=".826" stop-color="#153c65" class="stopColor153c65 svgShape"></stop><stop offset=".969" stop-color="#16355d" class="stopColor16355d svgShape"></stop></linearGradient><path fill="url(#j)" d="M488.418,828.793c0.255,5.625,1.272,11.666,3.186,18.064
                    c2.305,7.706,17.881,9.525,32.291,8.87c3.718-0.169,7.359-0.502,10.674-0.942c-0.385,10.148-0.562,16.37-0.562,16.37
                    c-2.747,1.114-11.154,2.75-15.54,2.949c-27.194,1.235-46.397,0.176-55.489-9.211c0,0,16.308-73.442,19.82-85.318
                    c11.7-39.561,11.322-50.699,13.288-72.824c-0.257,5.022-0.667,10.413-0.108,15.652c2.817,26.39,30.777,50.757,30.954,54.663
                    c0.122,2.681-2.244,5.226-9.552,6.827C500.766,787.532,487.3,804.169,488.418,828.793z"></path><linearGradient id="k" x1="2941.707" x2="2941.709" y1="540.585" y2="540.585" gradientTransform="matrix(-.999 .0454 .043 .9462 3414.152 37.453)" gradientUnits="userSpaceOnUse"><stop offset="0" stop-color="#009ed3" class="stopColor009ed3 svgShape"></stop><stop offset="1" stop-color="#0092be" class="stopColor0092be svgShape"></stop></linearGradient><path fill="url(#k)" d="M498.632,682.501l-0.002,0.014L498.632,682.501z"></path></g><g><path fill="#f5958f" d="M516.571,538.383c3.972-4.228,1.098-19.852-3.779-27.049
                c-14.557,8.109-31.872,39.873-45.074,57.048c4.671,15.274,26.159,21.043,45.101,38.558c0.387,5.798,1.11,9.783,3.172,15.526
                l-4.588-3.934l-2.961,6.937l4.466,4.877c0,0,7.609,0.099,9.958-3.463c1.723-2.612,5.11-13.19,3.788-14.783
                c-0.971-1.17-5.559-7.236-9.798-12.155c-16.635-19.125-22.344-24.407-31.697-34.507
                C500.711,551.295,513.118,542.058,516.571,538.383z" class="colorf5958f svgShape"></path><linearGradient id="l" x1="3094.894" x2="3087.759" y1="620.337" y2="627.736" gradientTransform="matrix(-1 0 0 1 3604.318 0)" gradientUnits="userSpaceOnUse"><stop offset="0" stop-color="#f5958f" class="stopColorf5958f svgShape"></stop><stop offset=".494" stop-color="#e97e80" class="stopColore97e80 svgShape"></stop><stop offset="1" stop-color="#d96c71" class="stopColord96c71 svgShape"></stop></linearGradient><polygon fill="url(#l)" points="511.403 618.532 515.938 622.421 517.413 627.236 513.697 628.876 508.88 624.442"></polygon><linearGradient id="m" x1="3099.644" x2="3128.026" y1="567.668" y2="567.668" gradientTransform="matrix(-1 0 0 1 3604.318 0)" gradientUnits="userSpaceOnUse"><stop offset="0" stop-color="#f5958f" class="stopColorf5958f svgShape"></stop><stop offset="1" stop-color="#d96c71" class="stopColord96c71 svgShape"></stop></linearGradient><path fill="url(#m)" d="M476.859,566.417c5.555-1.258,27.184-17.303,27.184-17.303
                c-5.255,4.364-11.735,9.825-18.883,16.325c6.609,7.137,11.404,11.874,19.515,20.784
                C495.371,580.904,472.407,567.425,476.859,566.417z"></path></g><g><path fill="#f5958f" d="M549.699,433.77c1.218,0.694,7.697,14.022,7.945,17.22c0.248,3.198,2.267,17.038,2.185,19.25
                    c-0.298,8.029-6.855,22.816-14.6,21.832c-11.209-1.423-15.891-17.466-19.367-21.894c-3.476-4.428-3.724-21.156,0-28.044
                    C529.587,435.246,539.767,428.112,549.699,433.77z" class="colorf5958f svgShape"></path><linearGradient id="n" x1="5304.703" x2="5283.693" y1="449.138" y2="468.069" gradientTransform="translate(-4758.529)" gradientUnits="userSpaceOnUse"><stop offset="0" stop-color="#f07d80" class="stopColorf07d80 svgShape"></stop><stop offset="1" stop-color="#d96c71" class="stopColord96c71 svgShape"></stop></linearGradient><path fill="url(#n)" d="M553.572,440.475l-29.716,13.168l5.104,15.407c10.142-7.72,13.117-18.369,29.078-14.998
                    c-0.375-2.234-0.311-1.981-0.395-3.062C557.509,449.255,555.54,444.539,553.572,440.475z"></path><path fill="#14426d" d="M565.096,455.808c0,3.149,0.205,4.027,0.205,4.027c0-0.051-2.887-4.827-4.209-6.411
                c0,0-5.049-3.624-9.999-3.118c-9.472,0.969-11.911,8.243-17.04,8.325c-1.593-1.442-2.463-2.668-3.656-2.668
                c-0.739,0-1.631,0.767-1.631,4.759c0,4.073,1.828,8.978,1.631,8.978c-0.685,0-2.812-2.983-3.524-2.983
                c-1.132,0-1.708,0.931-1.708,2.681c0,4.007,0.652,12.97,6.965,24.234c4.741,8.46,11.931,11.681,11.931,35.083
                c0,22.784-14.582,30.421-29.746,30.421c-24.862,0-34.827-17.221-34.827-30.736c0-21.023,16.83-28.689,17.208-39.089
                c1.204-33.157,9.732-19.986,11.811-48.088c0.787-10.634,12.488-23.021,26.387-23.021
                C551.896,418.204,565.096,436.658,565.096,455.808z" class="color14426d svgShape"></path><path fill="#e84a54" d="M557.25,431.485c-0.695-0.83-21.532-14.133-33.765,15.995c0,0,18.22-28.415,36.346-12.026
                L557.25,431.485z" class="colore84a54 svgShape"></path></g><g><path fill="#f2d09f" d="M393.342,469.565l9.272-1.65l12.857,16.617l9.481,27.576l2.286,29.049l0.97,8.727l-1.454,28.516
                l4.133,15.859c0.947,4.414-0.358,6.417-1.308,6.784c-20.152,7.775-35.086,9.311-62.94,5.11l7.804-21.84
                c0,0,0.395-2.194-1.053-7.604c-1.448-5.409-5.424-20.031-8.406-23.794c-2.983-3.763-17.578-29.56-17.578-29.56l9.832-32.689
                l23.147-24.599L393.342,469.565z" class="colorf2d09f svgShape"></path><path fill="#124c80" d="M424.344,520.49c-1.624-22.852-9.143-26.091-15.641-39.584c-2.453-5.094-6.18-12.151-6.18-12.151
                l14.268,11.181l9.203,14.279c3.427,12.916,4.032,24.05,4.455,28.906c0.734,8.437-0.552,26.011-0.552,26.011
                c-0.001,1.069-2.023,15.646-1.799,16.928c-0.34,1.419-0.89,10.954-1.344,12.339c-0.344-1.612-0.348-23.297-0.667-25.079
                C424.197,536.87,425.299,533.93,424.344,520.49z" class="color124c80 svgShape"></path><linearGradient id="o" x1="12847.97" x2="12879.965" y1="551.042" y2="554.823" gradientTransform="translate(-12437.55)" gradientUnits="userSpaceOnUse"><stop offset="0" stop-color="#f2d09f" class="stopColorf2d09f svgShape"></stop><stop offset=".389" stop-color="#f0b393" class="stopColorf0b393 svgShape"></stop><stop offset=".757" stop-color="#ef9e8b" class="stopColoref9e8b svgShape"></stop><stop offset="1" stop-color="#ef9688" class="stopColoref9688 svgShape"></stop></linearGradient><path fill="url(#o)" d="M414.22,492.805c0,0,4.677,30.896,3.976,45.199c-0.701,14.303-2.094,20.568,3.414,28.356
                c5.508,7.788,7.23,26.81,0.396,32.862c-5.744,5.087-32.258,1.278-24.947,8.943c11.327-0.26,21.082-2.622,32.547-7.124
                c0.924-0.363,2.229-2.366,1.282-6.78l-4.133-15.859l1.454-28.516l-0.97-8.727l-2.286-29.049l-5.879-16.784
                C416.04,492.705,414.22,492.805,414.22,492.805z"></path><path fill="#153157" d="M433.947,888.187c0,0,3.404,8.56,6.118,10.095c2.713,1.535,14.658,9.552,14.658,9.552
            s-7.807,2.674-18.205,1.403c-6.031-0.737-8.657-1.341-11.928-1.343l-1.215-3.735c0,0-0.363,3.512-0.711,3.148
            c-0.348-0.364-7.363-1.089-7.363-1.089s-0.588-4.609-0.33-6.061c0.258-1.452,3.674-12.753,3.674-12.753L433.947,888.187z" class="color153157 svgShape"></path><linearGradient id="p" x1="1685.309" x2="1760.122" y1="746.376" y2="738.554" gradientTransform="matrix(-1 0 0 1 2110.147 0)" gradientUnits="userSpaceOnUse"><stop offset="0" stop-color="#124c80" class="stopColor124c80 svgShape"></stop><stop offset=".359" stop-color="#113b67" class="stopColor113b67 svgShape"></stop><stop offset=".745" stop-color="#102d52" class="stopColor102d52 svgShape"></stop><stop offset="1" stop-color="#10284a" class="stopColor10284a svgShape"></stop></linearGradient><path fill="url(#p)" d="M429.629,601.037c0,0,3.071,31.814,3.382,39.052c2.682,62.53-2.858,114.081-2.858,114.081
            l-0.166,17.986l5.655,117.369c-4.16,3.239-13.039,4.016-21.963-0.298c0,0-14.311-64.016-14.414-76.888
            c-0.103-12.872-0.617-35.042,0.432-53.313c0.596-10.39-3.264-54.694-3.264-54.694s9.45-42.2,2.279-56.531
            c-7.171-14.331-32.125-45.436-26.621-43.229C377.594,606.777,413.233,610.775,429.629,601.037z"></path><path fill="#153157" d="M346.471,890.229c0,0-5.286,12.467-6.912,14.363c-1.626,1.896-3.921,10.44-3.921,10.44
            s1.439,6.195,14.902,2.066c3.557-1.091,4.407-1.838,4.669-2.788l1.139-0.772c0,0-0.213,0.433,0,0
            c0.213-0.433,4.321-1.632,4.321-1.632s0.48-5.295,0.373-6.939c-0.107-1.645-1.92-14.737-1.92-14.737H346.471z" class="color153157 svgShape"></path><path fill="#124c80" d="M429.629,601.037c0,0-0.431,23.146-6.434,42.21c-1.533,4.868-6.633,10.165-7.335,11.913
                c-3.452,8.595-20.109,75.444-26.072,96.004c-5.963,20.561-27.959,145.286-27.959,145.286
                c-0.863,5.804-17.002,4.325-19.134-1.803c-2.634-83.84,10.329-149.112,13.109-167.57c1.498-12.865,1.865-47.987,9.057-83.106
                c1.569-7.664,1.231-42.502,1.231-42.502C394.332,606.474,415.006,606.328,429.629,601.037z" class="color124c80 svgShape"></path><linearGradient id="q" x1="1716.19" x2="1743.68" y1="629.724" y2="601.991" gradientTransform="matrix(-1 0 0 1 2110.147 0)" gradientUnits="userSpaceOnUse"><stop offset="0" stop-color="#124c80" class="stopColor124c80 svgShape"></stop><stop offset=".359" stop-color="#113b67" class="stopColor113b67 svgShape"></stop><stop offset=".745" stop-color="#102d52" class="stopColor102d52 svgShape"></stop><stop offset="1" stop-color="#10284a" class="stopColor10284a svgShape"></stop></linearGradient><path fill="url(#q)" d="M365.207,642.529c0.803-4.662,1.398-19.962,1.267-30.468
                c-0.073-5.866-0.383-10.592-0.383-10.592c11.222,1.747,21.416,2.761,30.452,3.092c10.046,0.725,18.384,0.417,25.934-1.219
                c-6.08,11.028-30.544,45.017-47.948,48.536c-6.51,1.316-4.86,7.362-8.392,4.934
                C367.174,653.441,366.058,647.767,365.207,642.529z"></path><path fill="#b25b70" d="M383.696,435.17c0,0-0.68,28.198-6.319,45.469l22.533,7.068l7.948-7.907
            c-5.397-8.21-10.68-36.409-7.948-40.047C399.205,427.768,383.696,435.17,383.696,435.17z" class="colorb25b70 svgShape"></path><path fill="#f2d09f" d="M380.383,466.069l3.209,5.999c0,0,6.761,11.385,16.318,15.639l-30.528-1.224L380.383,466.069z" class="colorf2d09f svgShape"></path><linearGradient id="r" x1="1707.91" x2="1728.617" y1="483.38" y2="483.38" gradientTransform="matrix(-1 0 0 1 2107.352 0)" gradientUnits="userSpaceOnUse"><stop offset="0" stop-color="#f2d09f" class="stopColorf2d09f svgShape"></stop><stop offset=".389" stop-color="#f0b393" class="stopColorf0b393 svgShape"></stop><stop offset=".757" stop-color="#ef9e8b" class="stopColoref9e8b svgShape"></stop><stop offset="1" stop-color="#ef9688" class="stopColoref9688 svgShape"></stop></linearGradient><path fill="url(#r)" d="M399.442,488.037c-4.145-2.055-8.072-4.657-13.476-9.995
            c-2.525,2.814-2.615,6.188-5.205,9.151c-1.35,0.514-1.963-0.332-1.963-0.332c-0.468,1.177,1.776,1.858,1.776,1.858
            c3.539-1.012,4.07-4.23,5.803-6.428C389.578,484.42,394.033,487.111,399.442,488.037z"></path><linearGradient id="s" x1="12823.317" x2="12830.944" y1="472.434" y2="452.095" gradientTransform="translate(-12437.55)" gradientUnits="userSpaceOnUse"><stop offset="0" stop-color="#b25b70" class="stopColorb25b70 svgShape"></stop><stop offset="1" stop-color="#953c59" class="stopColor953c59 svgShape"></stop></linearGradient><path fill="url(#s)" d="M401.5,461.27c-1.227-5.568-2.078-11.187-2.284-15.34
            c-0.252-1.271-0.276-2.032-0.034-2.702c0.035-0.993,0.13-1.827,0.295-2.463c-1.418-6.152-6.828-6.232-13.586-4.033
            c-1.07,1.617-1.836,3.724-2.167,6.414c0.005,0.212,0.009,0.428,0.014,0.65c0.416,1.706-0.025,1.456-0.014,3.868
            c2.08,18.492,9.06,22.584,15.26,22.761C401.084,470.424,401.55,466.049,401.5,461.27z"></path><g><path fill="#14426d" d="M407.381,440.223c0,0,4.645-5.561,5.316-6.653c10.116-13.078,15.672-30.523,6.988-45.743
                c-1.378-2.926-3.23-5.712-5.611-8.29c-2.014-1.888-10.274-9.386-13.011-8.95c-2.217,0.354-12.301-6.88-23.082-3.513
                c-10.781,3.367-18.07,9.603-18.446,12.98c0,0-10.22,4.051-10.806,22.347c-0.586,18.296,8.32,29.18,13.197,31.432
                c4.876,2.252,16.028,13.609,24.441,9.617C394.781,439.459,407.381,440.223,407.381,440.223z" class="color14426d svgShape"></path><path fill="#b25b70" d="M408.207,407.088c3.209,7.051,2.358,20.203,2.237,24.239
                c-0.258,8.615-6.782,25.638-12.326,27.182c-10.381,2.89-13.581-10.925-15.909-16.567c-2.328-5.642-5.505-12.261-5.891-17.985
                c-1.181-17.504-0.114-16.051,1.583-21.088C379.598,397.83,400.4,389.935,408.207,407.088z" class="colorb25b70 svgShape"></path><linearGradient id="t" x1="12844.866" x2="12799.73" y1="409.045" y2="417.452" gradientTransform="translate(-12437.55)" gradientUnits="userSpaceOnUse"><stop offset="0" stop-color="#b25b70" class="stopColorb25b70 svgShape"></stop><stop offset="1" stop-color="#953c59" class="stopColor953c59 svgShape"></stop></linearGradient><path fill="url(#t)" d="M395.215,396.82c5.036,0.764,9.98,3.651,12.992,10.268
                c0.49,1.077,0.884,2.297,1.202,3.604c-1.239,1.623-5.051,4.039-16.026,5.17c-9.753,1.005-14.16,8.441-16.046,13.485
                c-0.527-1.844-0.902-3.659-1.019-5.391c-0.748-11.085-0.594-14.567,0.05-16.91l8.984-8.147
                C385.352,398.899,389.975,397.142,395.215,396.82z"></path><path fill="#14426d" d="M366.437,384.82c8.758-10.846,28.012-10.387,35.818-7.255c6.432,2.581,15.411,8.759,11.203,23.57
                c-0.228,0.804-2.05,3.764-2.456,4.494c-4.8,8.624-20.922,7.131-30.434,4.317c-1.152-0.341-2.354,0.284-2.753,1.418
                c-2.264,6.432,8.262,14.837,1.988,13.986c-3.311-0.449-3.369-6.93-5.413-6.956c-2.044-0.026,0.74,6.535-1.039,7.199
                c-5.78,2.159-11.501-9.329-12.902-12.508C357.456,406.29,357.679,395.667,366.437,384.82z" class="color14426d svgShape"></path></g><g><path fill="#124c80" d="M380.383,466.069c0,0-22.419,18.709-35.839,29.528c-6.69,5.393-4.602,22.532,2.692,27.743
                c7.294,5.21,7.808,17.255,7.808,17.255s-0.977,15.924-0.977,23.218c0,7.294-10.567,30.437-13.556,51.799
                c11.719,11.766,12.74,9.558,28.003,11.392c13.349-20.603,15.355-32.65,13.964-75.206c-0.473-14.464-3.34-51.687-3.763-64.091
                C378.291,475.302,380.383,466.069,380.383,466.069z" class="color124c80 svgShape"></path><linearGradient id="u" x1="12804.647" x2="12759.824" y1="567.738" y2="565.737" gradientTransform="translate(-12437.55)" gradientUnits="userSpaceOnUse"><stop offset="0" stop-color="#124c80" class="stopColor124c80 svgShape"></stop><stop offset=".359" stop-color="#113b67" class="stopColor113b67 svgShape"></stop><stop offset=".745" stop-color="#102d52" class="stopColor102d52 svgShape"></stop><stop offset="1" stop-color="#10284a" class="stopColor10284a svgShape"></stop></linearGradient><path fill="url(#u)" d="M340.511,615.612c10.73,10.772,12.499,9.833,24.433,11.004
                c-2.189-1.293-4.247-2.474-4.907-3.259c-2.554-3.039-4.84-5.703-3.216-9.734c1.623-4.031-0.723-8.276-4.485-18.611
                c-3.762-10.335-0.441-10.976,3.125-15.779c3.566-4.803,9.041-14.108,5.707-25.802c-3.334-11.694,8.737-10.218,8.213-19.523
                c-0.524-9.305-10.582-15.609-10.582-15.609c-8.323-21.812-11.563-1.925-11.563-1.925s-0.844,1.314-2.598,4.338
                c0.771,1.045,1.638,1.941,2.598,2.626c7.295,5.21,7.808,17.255,7.808,17.255s-0.977,15.924-0.977,23.218
                C354.068,571.107,343.501,594.25,340.511,615.612z"></path><path fill="#15355b" d="M378.824,487.707c0.423,12.404,3.509,51.811,3.813,66.28c0.217,10.297,0.171,21.546,0.171,21.546
                c-0.185-14.538-14.932-50.171-16.006-54.77c-1.074-4.599,6.696-13.287,5.751-16.373c-0.945-3.086-7.158-9.434-7.158-9.434
                s-2.038-11.721,0.467-16.737c8.111-6.709,14.63-12.15,14.63-12.15S378.401,475.302,378.824,487.707z" class="color15355b svgShape"></path></g><g><path fill="#15355b" d="M291.844,682.196l91.312,5.032c2.394,0,4.31,1.987,4.222,4.38l-2.412,65.765
                    c-0.057,1.56-0.97,2.962-2.374,3.645l-5.497,2.674L291.844,682.196z" class="color15355b svgShape"></path><path fill="#15355b" d="M312.662,689.204l3.283,0.737l2.864-12.747c0.598-2.664,2.918-4.567,5.654-4.62l21.392-0.439
                    c3.091-0.064,5.673,2.208,6.006,5.284c0.807,7.452,1.743,14.556,1.983,14.968l2.905-1.694c0.083,0.142-0.63-6.525-0.63-6.525
                    c-0.054-0.189-0.28-1.26-0.914-7.11c-0.523-4.823-4.572-8.385-9.421-8.286l-21.392,0.439c-4.282,0.089-7.928,3.068-8.867,7.247
                    L312.662,689.204z" class="color15355b svgShape"></path><path fill="#e84a54" d="M381.635,694.533v62.982c0.026,3.933-3.178,7.007-7.087,6.573l-84.822-9.099
                    c-3.162-0.351-5.611-2.918-5.823-6.092v-59.693c-0.265-3.972,3.043-7.265,7.014-6.992l84.392,5.81
                    C378.737,688.258,381.612,691.096,381.635,694.533z" class="colore84a54 svgShape"></path><path fill="#b25b70" d="M341.268,646.376c0,0,7.211,18.68,4.517,22.395c-2.002,2.759-2.237,13.56-4.517,13.911
                    c-2.28,0.351-7.38-1.052-7.899-2.105c-0.519-1.052-1.922-3.683-1.922-3.683s-9.118-5.908-8.418-12.337
                    c0.701-6.429,7.892-18.632,7.892-23.141c0-4.51,2.449-14.331,2.449-14.331s8.776,0,8.601,0
                    C341.794,627.083,341.268,646.376,341.268,646.376z" class="colorb25b70 svgShape"></path><linearGradient id="v" x1="1766.515" x2="1774.657" y1="662.788" y2="632.709" gradientTransform="matrix(-1 0 0 1 2107.352 0)" gradientUnits="userSpaceOnUse"><stop offset="0" stop-color="#b25b70" class="stopColorb25b70 svgShape"></stop><stop offset="1" stop-color="#953c59" class="stopColor953c59 svgShape"></stop></linearGradient><path fill="url(#v)" d="M341.859,628.471c-0.186,3.651-0.492,14.253-0.591,17.905
                    c0,0.048,4.524,11.681,5.067,18.449c-0.272,2.139-1.056,4.087-2.625,5.578c-0.144,0.137-0.042,0.402-0.061,0.609
                    c-1.195-4.643-5.748-13.389-16.141-19.381c5.942-14.298,1.354-6.468,5.862-24.549c0,0,2.872,0,5.298,0
                    C338.719,627.106,341.859,628.421,341.859,628.471z"></path><g><path fill="#f2d09f" d="M341.542,636.993v9.767c-8.137,2.289-20.654-3.07-20.654-3.07s2.198-14.232,3.594-13.674
                    C325.877,630.574,341.542,636.993,341.542,636.993z" class="colorf2d09f svgShape"></path><linearGradient id="w" x1="1776.296" x2="1774.442" y1="642.317" y2="636.547" gradientTransform="matrix(-1 0 0 1 2107.352 0)" gradientUnits="userSpaceOnUse"><stop offset="0" stop-color="#f2d09f" class="stopColorf2d09f svgShape"></stop><stop offset=".389" stop-color="#f0b393" class="stopColorf0b393 svgShape"></stop><stop offset=".757" stop-color="#ef9e8b" class="stopColoref9e8b svgShape"></stop><stop offset="1" stop-color="#ef9688" class="stopColoref9688 svgShape"></stop></linearGradient><path fill="url(#w)" d="M331.228,643.005c-6.219-2.078-7.845-6.857-8.214-10.007
                    c0.357-1.313,0.722-2.346,1.061-2.778c0.487,0.1,1.117,0.23,1.856,0.384c4.219,1.718,15.612,6.388,15.612,6.388v7.129
                    C339.663,644.612,336.421,644.741,331.228,643.005z"></path></g><path fill="#124c80" d="M361.729,481.63c0,0-12.553,6.746-16.111,13.169c-3.559,6.423-8.12,14.799-8.252,18.056
                c-0.132,3.257-8.71,33.963-8.96,46.395c-0.037,1.847,0.909,8.851,0.711,11.193c-1.428,16.855-8.228,65.493-8.228,65.493
                s16.757,4.857,22.752,4.343c5.995-0.514,1.63-55.594,6.262-73.426c3.623-13.945,16.191-29.31,12.243-56.315
                C360.888,501.944,361.729,481.63,361.729,481.63z" class="color124c80 svgShape"></path></g><g><path fill="#14426d" d="M444.235,599.225c0,0-1.905,5.693-11.366-1.974c-3.819-3.094,1.932-17.531,3.269-18.977
                c0,0-0.421-7.405,2.694-2.794C445.782,585.765,444.235,599.225,444.235,599.225z" class="color14426d svgShape"></path><linearGradient id="x" x1="1671.513" x2="1667.228" y1="592.966" y2="589.652" gradientTransform="matrix(-1 0 0 1 2107.352 0)" gradientUnits="userSpaceOnUse"><stop offset="0" stop-color="#f2d09f" class="stopColorf2d09f svgShape"></stop><stop offset=".39" stop-color="#f0b393" class="stopColorf0b393 svgShape"></stop><stop offset=".758" stop-color="#ef9e8b" class="stopColoref9e8b svgShape"></stop><stop offset="1" stop-color="#ef9688" class="stopColoref9688 svgShape"></stop></linearGradient><path fill="url(#x)" d="M431.889,589.151l0.504-3.388c0,0,3.126-2.513,5.466,0
                c2.34,2.513,4.471,6.921,4.471,6.921s-0.545,4.044-3.574,7.896C438.756,600.579,430.414,598.126,431.889,589.151z"></path><path fill="#124c80" d="M414.703,479.3c0,0,13.7,11.598,19.428,20.169c1.858,2.78,4.279,10.597,4.358,12.076
                c0.078,1.478,7.621,35.789,9.368,40.779c1.747,4.99-2.417,39.801-3.435,46.752c0.162-3.986-6.926-17.64-14.197-11.891
                l-2.064,5.361c-1.783-12.832,3.806-30.955,1.157-44.97c-0.512-2.709-1.797-10.382-1.963-11.401
                C429.701,528.619,420.929,494.618,414.703,479.3z" class="color124c80 svgShape"></path><path fill="#15355b" d="M425.636,520.801c-1.624-22.852-9.826-25.132-16.324-38.625
                c-2.453-5.094-5.408-11.751-5.408-11.751l-0.134-1.184c4.341,0.651,1.073,1.578,6.88,6.676c0,0,9.571,8.118,10.825,15.468
                c0,0,1.13,8.36,2.18,10.149c1.654,2.817,7.433,10.15,7.837,15.828c0.341,4.792-3.327,44.793-3.327,44.793
                S426.387,531.372,425.636,520.801z" class="color15355b svgShape"></path><path fill="#f2d09f" d="M402.408,465.1c1.282,4.666,1.392,7.693,3.565,11.543c-1.187,2.871-3.544,8.709-6.063,11.063
                l9.939-2.767l0.588-12.298c0.074-1.548-0.698-3.013-2.017-3.828L402.408,465.1z" class="colorf2d09f svgShape"></path><linearGradient id="y" x1="1697.826" x2="1706.617" y1="481.618" y2="481.618" gradientTransform="matrix(-1 0 0 1 2107.352 0)" gradientUnits="userSpaceOnUse"><stop offset="0" stop-color="#f2d09f" class="stopColorf2d09f svgShape"></stop><stop offset=".389" stop-color="#f0b393" class="stopColorf0b393 svgShape"></stop><stop offset=".757" stop-color="#ef9e8b" class="stopColoref9e8b svgShape"></stop><stop offset="1" stop-color="#ef9688" class="stopColoref9688 svgShape"></stop></linearGradient><path fill="url(#y)" d="M409.526,475.2c-2.982,2.199-5.713,10.694-8.791,12.836
                c2.355-1.551,6.063-7.047,7.123-7.079c1.005,0.858,1.668,4.883,1.668,4.883V475.2z"></path><path fill="#b25b70" d="M432.475,588.024c-1.584-1.561-3.461-2.417-5.672-2.706l0.331,2.75l-5.879,5.221
                    c0,0-0.231,0.33,1.213,4.187c1.416,3.783,2.947,3.803,3.177,4.322c1.59,3.6,5.588,2.803,7.052,2.897
                    c1.91,0.123,2.947-1.785,2.947-1.785s4.02-2.167,4.446-4.368c0.603-3.117,1.011-4.815,1.011-4.815s-1.744-7.278-5.785-6.563
                    C432.762,587.614,432.475,588.024,432.475,588.024z" class="colorb25b70 svgShape"></path><linearGradient id="z" x1="1678.172" x2="1672.249" y1="595.545" y2="592.736" gradientTransform="matrix(-1 0 0 1 2110.147 0)" gradientUnits="userSpaceOnUse"><stop offset="0" stop-color="#b25b70" class="stopColorb25b70 svgShape"></stop><stop offset="1" stop-color="#953c59" class="stopColor953c59 svgShape"></stop></linearGradient><path fill="url(#z)" d="M435.314,587.162c0.408-0.017,0.852,0.003,1.332,0.079
                    c0.074,0.012,0.146,0.029,0.219,0.048c0.641,0.227,1.203,0.659,1.691,1.199c1.383,1.615,2.271,4.28,2.49,5.031
                    c0.035,0.13,0.054,0.206,0.054,0.206s-0.027,0.111-0.069,0.297c-0.14,0.611-0.485,2.156-0.942,4.518
                    c-0.426,2.201-6.303,6.584-6.303,6.584s-0.313,0.125-0.834,0.22l0.017-0.041c3.585-8.68-4.03-18.758-4.03-18.758l3.537,1.478
                    c0,0,0.128-0.094,0.361-0.218C433.2,587.644,433.916,587.409,435.314,587.162z"></path></g></g><g><polygon fill="#124c80" points="876.656 585.97 893.159 561.181 857.529 507.238 821.899 514.865" class="color124c80 svgShape"></polygon><linearGradient id="A" x1="-5629.617" x2="-5609.498" y1="544.624" y2="541.868" gradientTransform="translate(6499.68)" gradientUnits="userSpaceOnUse"><stop offset="0" stop-color="#f2d09f" class="stopColorf2d09f svgShape"></stop><stop offset=".389" stop-color="#f0b393" class="stopColorf0b393 svgShape"></stop><stop offset=".757" stop-color="#ef9e8b" class="stopColoref9e8b svgShape"></stop><stop offset="1" stop-color="#ef9688" class="stopColoref9688 svgShape"></stop></linearGradient><polygon fill="url(#A)" points="827.418 515.436 857.728 508.947 891.613 560.248 877.849 580.924"></polygon><path fill="#1abed4" d="M830.956,512.893c0.629,0.299,3.725,1.548,5.858,2.402c1.344,0.538,2.835,0.641,4.245,0.291
                l9.722-2.409c0.713-0.177,1.279-0.695,1.497-1.37l1.21-3.738L830.956,512.893z" class="color1abed4 svgShape"></path><path fill="#b25b70" d="M842.16,532.419h7.857c0,0-3.251,2.342-4.318,3.122c-1.068,0.781-1.912,5.831-1.912,5.831
                l7.044-2.449c0,0,2.709,7.285,3.867,8.412c1.158,1.127-3.325,5.638-3.325,5.638l3.325,4.48c0,0-13.078-6.041-13.62-6.822
                c-0.542-0.78,0-4.027,0-4.027s-0.813-2.998-1.964-5.232c-1.151-2.234-1.566-6.188-1.566-6.188l1.671,2.176L842.16,532.419z" class="colorb25b70 svgShape"></path><path fill="#1abed4" d="M952.539,506.151c-0.76-3.162-25.001-13.164-30.026-19.258
            c-5.025-6.094-27.287,12.06-29.603,14.927c-3.72,4.605-24.329,22.858-24.58,26.937c-0.643,10.418,3.473,13.883,7.694,22.498
            c4.222,8.615,4.071,33.416,9.348,42.031c-3.006,5.506,35.541,6.87,40.452-11.128c0.26,0.949-6.953-19.247-3.311-29.383
            C926.154,542.64,954.122,512.739,952.539,506.151z" class="color1abed4 svgShape"></path><linearGradient id="B" x1="1207.119" x2="1208.061" y1="589.134" y2="589.134" gradientTransform="matrix(-1 0 0 1 2107.352 0)" gradientUnits="userSpaceOnUse"><stop offset="0" stop-color="#124c80" class="stopColor124c80 svgShape"></stop><stop offset=".876" stop-color="#19afc9" class="stopColor19afc9 svgShape"></stop><stop offset="1" stop-color="#1abed4" class="stopColor1abed4 svgShape"></stop></linearGradient><path fill="url(#B)" d="M900.233,589.026c-0.589,0.161-0.942,0.215-0.942,0.215S899.63,589.164,900.233,589.026z
                "></path><linearGradient id="C" x1="1181.52" x2="1181.528" y1="582.171" y2="582.171" gradientTransform="matrix(-1 0 0 1 2107.352 0)" gradientUnits="userSpaceOnUse"><stop offset="0" stop-color="#124c80" class="stopColor124c80 svgShape"></stop><stop offset=".876" stop-color="#19afc9" class="stopColor19afc9 svgShape"></stop><stop offset="1" stop-color="#1abed4" class="stopColor1abed4 svgShape"></stop></linearGradient><path fill="url(#C)" d="M925.824,582.159L925.824,582.159C925.834,582.196,925.835,582.185,925.824,582.159z"></path><linearGradient id="D" x1="1211.396" x2="1136.222" y1="569.147" y2="527.645" gradientTransform="matrix(-1 0 0 1 2107.352 0)" gradientUnits="userSpaceOnUse"><stop offset="0" stop-color="#1abed4" class="stopColor1abed4 svgShape"></stop><stop offset="1" stop-color="#066b91" class="stopColor066b91 svgShape"></stop></linearGradient><path fill="url(#D)" d="M883.789,546.604c3.611-4.836,7.182,3.616,23.265,5.306
                c16.083,1.689,24.549-19.575,26.566-19.491h2.606c-6.208,8.152-12.163,16.044-13.713,20.357
                c-3.499,9.74,3.027,28.754,3.311,29.383c-0.026,0.093-0.059,0.189-0.086,0.281c-8.592,2.661-21.884,5.757-25.504,6.586
                c2.266-0.618,8.087-2.847,11.327-9.94C915.643,570.148,880.178,551.44,883.789,546.604z"></path><path fill="#b25b70" d="M924.773,449.811c0,0-5.312,32.341-0.693,38.625c3.42,4.653-12.245,18.802-20.428,17.953
                c-3.599-0.373,2.273-13.141,2.273-13.141c7.55-14.286-2.346-38.287-2.346-38.287L924.773,449.811z" class="colorb25b70 svgShape"></path><linearGradient id="E" x1="832.108" x2="831.777" y1="479.776" y2="467.579" gradientTransform="matrix(-1 0 0 1 1747.25 0)" gradientUnits="userSpaceOnUse"><stop offset="0" stop-color="#b25b70" class="stopColorb25b70 svgShape"></stop><stop offset="1" stop-color="#953c59" class="stopColor953c59 svgShape"></stop></linearGradient><path fill="url(#E)" d="M922.606,461.609c0,0-0.805,23.722-9.889,22.139c-5.907-1.029-3.897-22.139-3.897-22.139
                H922.606z"></path><path fill="#f2d09f" d="M907.617,393.386c-5.204,21.457,3.533,50.965,22.351,53.476
                    c18.819,2.511,39.452-17.028,44.657-38.485c5.204-21.457-8.172-35.458-26.676-39.598
                    C929.445,364.639,912.821,371.93,907.617,393.386z" class="colorf2d09f svgShape"></path><linearGradient id="F" x1="803.869" x2="842.459" y1="397.752" y2="467.132" gradientTransform="matrix(-1 0 0 1 1747.25 0)" gradientUnits="userSpaceOnUse"><stop offset="0" stop-color="#f2d09f" class="stopColorf2d09f svgShape"></stop><stop offset=".389" stop-color="#f0b393" class="stopColorf0b393 svgShape"></stop><stop offset=".757" stop-color="#ef9e8b" class="stopColoref9e8b svgShape"></stop><stop offset="1" stop-color="#ef9688" class="stopColoref9688 svgShape"></stop></linearGradient><path fill="url(#F)" d="M907.617,393.386c0.341-1.405,0.74-2.758,1.189-4.064
                    c12.426,16.848,17.383-0.894,33.695,8.451c17.758,10.173,5.464,18.665,19.795,22.854c1.691,0.494,7.612-2.774,8.69-2.133
                    c-8.158,17.052-25.227,30.475-41.019,28.367C911.149,444.352,902.412,414.843,907.617,393.386z"></path><g><path fill="#b25b70" d="M897.823,426.496c-4.682,9.768-8.18,31.372,1.477,45.509
                    c9.657,14.137,25.447-8.741,27.861-13.139c2.414-4.398,7.573-7.586,9.685-21.094c2.112-13.509-13.07-28.239-23.029-24.784
                    C903.859,416.444,901.215,419.42,897.823,426.496z" class="colorb25b70 svgShape"></path><linearGradient id="G" x1="848.032" x2="794.829" y1="422.985" y2="443.137" gradientTransform="matrix(-1 0 0 1 1747.25 0)" gradientUnits="userSpaceOnUse"><stop offset="0" stop-color="#b25b70" class="stopColorb25b70 svgShape"></stop><stop offset="1" stop-color="#953c59" class="stopColor953c59 svgShape"></stop></linearGradient><path fill="url(#G)" d="M894.065,439.012c0.862-4.971,2.247-9.362,3.758-12.515
                    c1.38-2.878,2.635-5.078,4.31-6.907c5.313-2.341,12.436-4.556,21.16-5.463c7.86,3.893,15.05,14.072,13.553,23.645
                    c-1.202,7.685-5.148,11.135-7.256,14.263c-0.116-0.037,1.908-8.16-5.788-8.418c-7.696-0.258-5.159-14.038-15.937-15.103
                    C897.11,427.449,894.077,438.966,894.065,439.012z"></path><path fill="#f2d09f" d="M927.161,458.866c0,0,10.421-16.27-1.376-18.001c-7.932-1.164-7.267-15.919-17.614-15.144
                    c-10.347,0.775-13.688,11.11-13.688,11.11s0.525-22.611,19.458-25.221c18.933-2.611,29.461,14.692,26.594,25.221
                    C937.666,447.36,927.161,458.866,927.161,458.866z" class="colorf2d09f svgShape"></path><path fill="#e84a54" d="M926.898,460.822c0,1.672,0.794,3.027,1.775,3.027c0.98,0,1.775-1.355,1.775-3.027
                    c0-1.672-0.795-11.54-1.775-11.54C927.692,449.282,926.898,459.149,926.898,460.822z" class="colore84a54 svgShape"></path></g><path fill="#efac88" d="M933.81,872.043c0,0-1.963,5.798-2.063,7.557c-0.1,1.759,3.558,8.723,2.949,12.899
            c-0.609,4.176,0.449,12.852,1.361,14.644c1.335,2.623,7.234,8.752,15.748,6.46c12.134-3.266-4.413-25.643-4.413-25.643
            s-2.173-15.278-4.634-15.918C940.297,871.403,935.276,869.955,933.81,872.043z" class="colorefac88 svgShape"></path><path fill="#b25b70" d="M946.79,748.296c-1.156,20-1.87,17.783-4.894,79.935c-2.549,52.382,14.761,70.833,9.096,73.825
            c-5.665,2.992-12.501-1.976-13.984-6.017c-0.426-1.159,0.163-4.67-0.62-9.599c-0.496-3.126-2.254-6.718-2.901-10.977
            c-1.887-12.436-4.425-29.07-7.676-46.211c-6.12-32.271-12.561-102.739-12.561-102.739s20.675-45.48,26.191-40.349
            C944.959,691.295,947.695,732.649,946.79,748.296z" class="colorb25b70 svgShape"></path><linearGradient id="H" x1="1171.759" x2="1174.281" y1="744.11" y2="739.524" gradientTransform="matrix(-1 0 0 1 2107.352 0)" gradientUnits="userSpaceOnUse"><stop offset="0" stop-color="#b25b70" class="stopColorb25b70 svgShape"></stop><stop offset="1" stop-color="#953c59" class="stopColor953c59 svgShape"></stop></linearGradient><path fill="url(#H)" d="M913.423,728.362l12.461-22.374l19.835,9.385c0.839,9.329,1.265,19.115,1.24,26.538
            c-13.561,3.413-21.305,8.085-30.779,14.046C914.801,742.887,913.805,732.437,913.423,728.362z"></path><g><path fill="#efac88" d="M878.923,870.544c0,0,2.297,6.421,2.298,8.201c0.007,8.23-2.447,8.34-2.725,12.601
                c-0.29,4.448,0.373,14.058-0.193,15.913c-0.753,2.469-6.336,8.822-14.33,6.512c-11.391-3.292,3.002-25.847,3.002-25.847
                s1.366-15.4,3.621-16.044C872.851,871.235,877.475,868.439,878.923,870.544z" class="colorefac88 svgShape"></path><path fill="#b25b70" d="M870.7,749.153c0,0-2.519,30.154,0.298,82.524c2.817,52.369-12.924,67.234-7.349,70.38
                c5.574,3.146,11.086-1.441,12.689-5.44c0.396-0.989,0.086-3.459,0.544-8.692c0.302-3.443,2.622-6.828,3.105-11.51
                c1.753-16.989,3.562-40.782,7.738-59.72c7.076-32.09,19.018-88.99,19.018-88.99s-19.316-46.027-24.983-41.049
                C876.093,691.633,870.7,749.153,870.7,749.153z" class="colorb25b70 svgShape"></path><linearGradient id="I" x1="1229.925" x2="1223.073" y1="742.594" y2="734.567" gradientTransform="matrix(-1 0 0 1 2107.352 0)" gradientUnits="userSpaceOnUse"><stop offset="0" stop-color="#b25b70" class="stopColorb25b70 svgShape"></stop><stop offset="1" stop-color="#953c59" class="stopColor953c59 svgShape"></stop></linearGradient><path fill="url(#I)" d="M871.186,744.286c1.446-13.978,5.917-53.54,10.574-57.631
                c5.667-4.978,24.983,41.049,24.983,41.049s-4.057,19.331-8.843,41.811C889.666,754.68,876.123,746.787,871.186,744.286z"></path></g><g><path fill="#f2d09f" d="M924.365,577.537c0,0,32.273,34.984,32.837,56.285c0.563,21.301-11.832,75.211-9.589,105.201
                c-29.842,13.323-47.662,13.733-78.307,4.369c0,0,14.119-78.092,16.123-104.409c0.868-11.393-0.058-45.695-0.058-45.695
                S908.277,588.16,924.365,577.537z" class="colorf2d09f svgShape"></path><linearGradient id="J" x1="-5592.362" x2="-5471.336" y1="665.525" y2="663.844" gradientTransform="translate(6499.68)" gradientUnits="userSpaceOnUse"><stop offset="0" stop-color="#f2d09f" class="stopColorf2d09f svgShape"></stop><stop offset=".389" stop-color="#f0b393" class="stopColorf0b393 svgShape"></stop><stop offset=".757" stop-color="#ef9e8b" class="stopColoref9e8b svgShape"></stop><stop offset="1" stop-color="#ef9688" class="stopColoref9688 svgShape"></stop></linearGradient><path fill="url(#J)" d="M957.201,633.821c-0.456-17.256-21.72-43.488-29.781-52.831
                c-5.885,9.281-1.233,14.517-8.654,24.004c-10.11,12.924,3.601,21.763,7.379,33.476c3.778,11.713-13.316,34.178-17.655,46.669
                c-4.339,12.49,18.842,33.38,12.82,41.054c-6.009,7.659-29.651,22.845-44.995,19.22c26.51,7.189,43.806,5.881,71.297-6.392
                C945.369,709.032,957.765,655.122,957.201,633.821z"></path><path fill="#e84a54" d="M924.365,575.502c0,0-23.85,18.119-40.576,14.325c1.424,3.234,1.467,5.861,1.593,9.128
                c8.882,3.282,43.169-10.281,42.297-19.699L924.365,575.502z" class="colore84a54 svgShape"></path></g><path fill="#b25b70" d="M938.56,589.617c0,0,1.562,20.401,1.759,26.508c0.168,5.212,3.149,13.622,3.172,28.784
            c0.006,4.358-1.148,13.12-0.449,17.425c0.588,3.623,4.192,11.277,8.147,12.407c1.933,0.552,5.882-12.649,5.007-14.538
            c-4.058-8.76-5.648-11.926-5.9-16.213c-0.913-15.495,7.655-60.935,5.526-61.854C953.693,581.219,938.56,589.617,938.56,589.617z" class="colorb25b70 svgShape"></path><path fill="#e84a54" d="M939.952,609.262l0.297-5.129l12.929,6.037c-0.233,1.792-0.466,3.604-0.693,5.417
            c-1.062,0.108-9.004,0.836-12.231-1.031C940.185,613.106,940.079,611.273,939.952,609.262z" class="colore84a54 svgShape"></path><path fill="#1abed4" d="M948.317,502.75c1.175,0.758,11.48,3.753,12.582,8.401c1.785,7.531-0.46,9.393,3.223,30.74
            c5.026,29.137,20.888,46.893,16.228,54.252c-4.66,7.359-13.875,15.53-28.46,15.999c-14.585,0.468-24.358-7.361-20.655-20.667
            c3.703-13.306,4.442-51.012,1.635-63.69C930.061,515.106,944.348,500.193,948.317,502.75z" class="color1abed4 svgShape"></path><linearGradient id="K" x1="1152.46" x2="1155.607" y1="595.39" y2="635.016" gradientTransform="matrix(-1 0 0 1 2107.352 0)" gradientUnits="userSpaceOnUse"><stop offset="0" stop-color="#1abed4" class="stopColor1abed4 svgShape"></stop><stop offset="1" stop-color="#066b91" class="stopColor066b91 svgShape"></stop></linearGradient><path fill="url(#K)" d="M946.987,608.304c3.301-2.1-4.96-10.628,3.177-10.978c4.015-0.173,1.848,7.232,4.7,8.093
            c5.35,1.616,11.006-10.406,15.356-12.342c0.565-0.252,1.074-0.362,1.493-0.225c2.183,0.716,1.799,5.977,0.689,7.729
            c-3.37,5.321-11.402,11.539-21.956,11.58c-8.207,0.032-17.807-3.919-14.221-6.458
            C939.128,603.65,943.686,610.404,946.987,608.304z"></path></g><g><path fill="#1abed4" d="M686.371,483.649l-0.068,0.004c0,0-13.194,6.271-14.121,8.386c0,0-11.985,2.428-11.985,21.867
                c0,7.361,0.778,10.124,0.778,11.925c0,2.983-6.189,9.202-6.894,16.315c-0.187,1.89-1.702,9.468-1.702,12.015
                c0,0.35,0.02,0.386,0.02,0.494c0,1.741-4.551,8.426-4.551,11.547c0,3.142,0.682,1.002,7.311,6.525
                c6.824,5.686,14.535,4.146,18.463,9.889c1.205,1.761,3.174,2.404,5.385,2.404c5,0,11.241-3.281,12.709-4.333
                c1.841-1.318,5.751-11.209,5.751-17.103c0-0.887-0.089-1.683-0.286-2.346c-1.51-5.069-3.068-28.774-3.068-28.774l7.345-20.019
                C701.459,512.445,689.804,483.649,686.371,483.649z" class="color1abed4 svgShape"></path><linearGradient id="L" x1="799.977" x2="921.909" y1="89.799" y2="164.877" gradientTransform="rotate(-6.085 4898.679 1617.689)" gradientUnits="userSpaceOnUse"><stop offset="0" stop-color="#009ed3" class="stopColor009ed3 svgShape"></stop><stop offset=".044" stop-color="#0197cb" class="stopColor0197cb svgShape"></stop><stop offset=".344" stop-color="#0a6d9c" class="stopColor0a6d9c svgShape"></stop><stop offset=".608" stop-color="#114e7a" class="stopColor114e7a svgShape"></stop><stop offset=".826" stop-color="#153c65" class="stopColor153c65 svgShape"></stop><stop offset=".969" stop-color="#16355d" class="stopColor16355d svgShape"></stop></linearGradient><path fill="url(#L)" d="M688.283,497.394c-4.246,3.359-4.695-10.096-10.253-1.52
                c-5.557,8.577-11.187,22.002-9.415,30.785c1.772,8.783-1.662,10.055,0.161,18.146c1.822,8.091-2.415,4.867-1.638,10.62
                c0.777,5.753,8.965,10.844,2.776,12.114c-6.188,1.27-1.119,12.69,3.708,15.079c4.827,2.389,2.826,11.263,12.543,10.151
                c9.717-1.112,21.757,24.381,18.988-13.513c-2.769-37.894-6.098-25.031-4.896-45.921
                C701.459,512.445,688.283,497.394,688.283,497.394z"></path><path fill="#00b0c7" d="M635.915,579.396c0.46-1.549,4.201-13.981,6.625-15.829c2.424-1.848,13.9,2.582,18.775,5.392
                c4.875,2.81,6.079,2.682,9.403,5.952c3.324,3.27,10.707,6.288,10.707,6.288s4.562,5.45,3.349,10.253
                c-1.213,4.803-4.438,12.679-4.438,12.679s-8.227,3.003-16.929-1.502C654.703,598.124,634.73,583.388,635.915,579.396z" class="color00b0c7 svgShape"></path><path fill="#f48c87" d="M643.571,577.188c-3.948,2.969-17.542,36.167-21.04,46.422
                c-7.06,6.585-10.368,6.716-18.181,19.346c-6.617,10.698-8.918,18.321-14.76,23.018c7.907,3.514,23.017,3.148,30.925-1.581
                c7.908-4.73,8.701-16.874,8.951-24.04s-0.132-8.02-0.625-13.938c10.938-4.034,19.979-8.855,29.743-15.424
                c9.764-6.569,15.202-15.451,3.62-25.97C650.622,574.502,647.029,574.587,643.571,577.188z" class="colorf48c87 svgShape"></path><linearGradient id="M" x1="517.007" x2="520.816" y1="592.018" y2="625.978" gradientTransform="translate(129.357)" gradientUnits="userSpaceOnUse"><stop offset="0" stop-color="#f5958f" class="stopColorf5958f svgShape"></stop><stop offset="1" stop-color="#d96c71" class="stopColord96c71 svgShape"></stop></linearGradient><path fill="url(#M)" d="M665.864,589.015c-3.273,11.688-25.946,35.132-37.676,36.254
                c0.237,0.993,0.486,1.614,0.743,2.19c-0.03-0.33-0.09-1.044-0.09-1.044c1.942-0.716,3.826-1.46,5.663-2.232
                c0.252-0.109,0.505-0.214,0.757-0.322c8.2-3.504,15.532-7.63,23.322-12.871C667.086,605.271,672.303,597.796,665.864,589.015z"></path><linearGradient id="N" x1="9360.854" x2="9407.339" y1="266.848" y2="319.529" gradientTransform="scale(-1 1) rotate(3.979 -967.614 -143040.22)" gradientUnits="userSpaceOnUse"><stop offset="0" stop-color="#f07d80" class="stopColorf07d80 svgShape"></stop><stop offset="1" stop-color="#d96c71" class="stopColord96c71 svgShape"></stop></linearGradient><path fill="url(#N)" d="M590.884,649.318c-1.162-1.122-2.718-1.786-3.469-3.292
                c6.664,1.753,17.223-3.594,20.311-7.938c4.31-6.063,8.941-11.036,13.66-12.815c4.719-1.779,2.766,1.158,6.218-0.083
                c0.514,4.874-0.972,10.85-3.416,14.515c-3.593,5.387-7.531,4.676-12.531,4.791c-4.999,0.115-6.463,2.791-10.461,4.727
                c-1.672,0.165-3.48,0.444-5.205,0.45C594.268,649.679,592.604,649.38,590.884,649.318z"></path><path fill="#1abed4" d="M789.581,514.839c-6.272-15.447-6.936-17.801-19.547-26.152c-8.26-5.47-8.877-7.418-14.04-8.73
            c-1.482-0.376-6.793-1.13-8.675-1.608c0.036-5.831-0.315-11.562-1.784-14.837c0,0,0.213-1.006-10.985-1.638
            c-0.726-0.041-20.379-1.076-20.379-1.076c-11.613,5.425-23.051,6.545-28.646,10.984c-0.171,2.654,1.308,6.36,3.103,9.717
            l-8.646,4.794c0,0-11.97,19.826-14.061,29.34c-2.091,9.514,5.863,31.9,5.863,37.907s0.712,25.7,0.712,25.7
            s2.091,36.009,2.091,38.584s5.464,4.05,5.464,4.05l17.552,7.927l33.406-1.132l6.002-0.877l11.435-11.211l-2.79-25.605
            c0,0,5.547-23.937,10.991-29.266c5.445-5.329,11.328-23.697,11.328-23.697s11.848-11.528,16.726-17.35
            C789.581,514.839,795.853,530.286,789.581,514.839z" class="color1abed4 svgShape"></path><linearGradient id="O" x1="622.848" x2="623.38" y1="500.009" y2="500.009" gradientTransform="translate(129.357)" gradientUnits="userSpaceOnUse"><stop offset="0" stop-color="#009ed3" class="stopColor009ed3 svgShape"></stop><stop offset=".044" stop-color="#0197cb" class="stopColor0197cb svgShape"></stop><stop offset=".344" stop-color="#0a6d9c" class="stopColor0a6d9c svgShape"></stop><stop offset=".608" stop-color="#114e7a" class="stopColor114e7a svgShape"></stop><stop offset=".826" stop-color="#153c65" class="stopColor153c65 svgShape"></stop><stop offset=".969" stop-color="#16355d" class="stopColor16355d svgShape"></stop></linearGradient><path fill="url(#O)" d="M752.205,501.213C753.292,497.013,752.409,499.17,752.205,501.213L752.205,501.213z"></path><linearGradient id="P" x1="601.133" x2="700.182" y1="555.267" y2="547.343" gradientTransform="translate(129.357)" gradientUnits="userSpaceOnUse"><stop offset="0" stop-color="#1abed4" class="stopColor1abed4 svgShape"></stop><stop offset=".968" stop-color="#354a9a" class="stopColor354a9a svgShape"></stop></linearGradient><path fill="url(#P)" d="M762.192,552.797v-18.127l-7.826-10.48v-21.894c-1.768,1.742-2.4,7.566-2.16,5.179
                c-4.624,11.747-11.202,7.915-11.202,19.282c0,10.307,5.414,6.32,5.414,21.751c0,5.005,1.72,8.074,1.72,10.745
                c0,1.216-0.9,2.833-4.623,7.052c-6.601,7.482-10.733,3.521-10.656,8.35c0.051,3.192,6.347,5.513,4.373,9.82
                c-3.247,7.085-14.755,19.114-14.755,19.473c0.216,0,13.797,0.866,24.709,1.042l-1.527-14.018c0,0,5.546-23.937,10.991-29.266
                C758.531,559.864,760.465,556.46,762.192,552.797z"></path><path fill="#f5958f" d="M729.761,425.194l5.655,43.305l-17.262,8.696c-4.676,6.763-7.452,15.862-14.471,21.522
            c-0.929-9.566-6.11-14.675-5.12-18.637c0,0,7.995-15.45,8.237-38.522C707.041,418.487,729.761,425.194,729.761,425.194z" class="colorf5958f svgShape"></path><path fill="#153157" d="M658.053,888.063c0,0-7.492,10.606-10.952,12.336c-3.459,1.73-20.342,9.399-20.342,9.399
            s13.805,5.101,26.77,4.187c7.52-0.53,10.813-1.112,14.867-0.907l1.743-4.552c0,0,0.227,4.375,0.681,3.946
            c0.454-0.428,9.192-0.882,9.192-0.882s1.021-5.674,0.794-7.49c-0.227-1.816-4.086-10.1-4.086-10.1L658.053,888.063z" class="color153157 svgShape"></path><linearGradient id="Q" x1="504.949" x2="927.936" y1="808.47" y2="227.284" gradientTransform="translate(129.357)" gradientUnits="userSpaceOnUse"><stop offset="0" stop-color="#124c80" class="stopColor124c80 svgShape"></stop><stop offset=".359" stop-color="#113b67" class="stopColor113b67 svgShape"></stop><stop offset=".745" stop-color="#102d52" class="stopColor102d52 svgShape"></stop><stop offset="1" stop-color="#10284a" class="stopColor10284a svgShape"></stop></linearGradient><path fill="url(#Q)" d="M673.56,599.719c0,0-2.491,17.837-2.491,32.509c0,14.672-5.498,35.49-5.498,35.49
            s-3.332,56.181-5.467,70.693c-2.135,14.513,1.315,23.22,0,29.025c-1.315,5.805-4.595,124.809-6.236,126.986
            c-1.64,2.177,26.185,6.005,26.185,6.005s18.921-69.135,22.201-84.373c3.28-15.238,0-31.928,0-35.556
            c0-3.628,10.185-52.971,10.833-57.325c0.648-4.354,10.363-0.726,12.477-27.574c2.113-26.849,15.154-58.051,16.425-66.033
            c1.271-7.982,5.328-30.946,5.328-30.946S717.855,606.88,673.56,599.719z"></path><path fill="#153157" d="M790.886,888.063c0,0,7.576,13.596,9.906,15.663c2.331,2.068,5.62,11.385,5.62,11.385
            s-9.3,3.753-18.034,1.572c-5.066-1.265-7.284-2.168-10.015-2.359l-1.633-0.842c0,0,0.306,0.473,0,0
            c-0.306-0.473-6.192-1.78-6.192-1.78s-0.688-5.774-0.535-7.568c0.153-1.794,2.752-16.072,2.752-16.072H790.886z" class="color153157 svgShape"></path><path fill="#124c80" d="M673.56,599.719c-3.07,10.605-3.64,34.054-2.865,39.872l27.867,20.068
            c0,0,28.786,106.183,32.666,115.108c3.879,8.924,7.982,7.914,5.199,12.357c-0.801,1.28-1.566,7.435,2.313,13.613
            c3.879,6.178,5.553,12.474,9.107,28.95c3.553,16.476,18.975,65.556,18.975,65.556s27.889,3.464,31.768-1.066
            c3.879-4.53-10.664-62.571-9.951-76.871c0.693-13.898-9.048-16.979-6.721-23.158c2.328-6.178,5.878-0.62,3.741-17.783
            c-2.137-17.162-4.417-8.758-6.328-28.824c-5.339-56.072-22.497-82.395-24.729-106.127c-2.398-25.499-7.284-42.792-7.284-42.792
            S722.716,604.307,673.56,599.719z" class="color124c80 svgShape"></path><linearGradient id="R" x1="574.325" x2="603.95" y1="490.673" y2="490.673" gradientTransform="translate(129.357)" gradientUnits="userSpaceOnUse"><stop offset="0" stop-color="#009ed3" class="stopColor009ed3 svgShape"></stop><stop offset=".044" stop-color="#0197cb" class="stopColor0197cb svgShape"></stop><stop offset=".344" stop-color="#0a6d9c" class="stopColor0a6d9c svgShape"></stop><stop offset=".608" stop-color="#114e7a" class="stopColor114e7a svgShape"></stop><stop offset=".826" stop-color="#153c65" class="stopColor153c65 svgShape"></stop><stop offset=".969" stop-color="#16355d" class="stopColor16355d svgShape"></stop></linearGradient><path fill="url(#R)" d="M703.682,498.716l17.996-17.996l11.628,11.643l-6.492,8.263l-8.24-11.233
            c-0.855-1.166-2.524-1.356-3.618-0.41L703.682,498.716z"></path><path fill="#1abed4" d="M745.335,463.776c-5.317,4.81-18.125,6.9-27.182,13.419l8.851,21.522l20.315-20.478
            L745.335,463.776z" class="color1abed4 svgShape"></path><linearGradient id="S" x1="596.255" x2="586.282" y1="463.67" y2="447.442" gradientTransform="translate(129.357)" gradientUnits="userSpaceOnUse"><stop offset="0" stop-color="#f5958f" class="stopColorf5958f svgShape"></stop><stop offset="1" stop-color="#d96c71" class="stopColord96c71 svgShape"></stop></linearGradient><path fill="url(#S)" d="M727.271,460.797l2.49-35.604c0,0-22.72-6.707-22.961,16.364
            c-0.118,11.226-2.071,20.64-4.046,27.355C703.477,480.22,715.717,482.334,727.271,460.797z"></path><linearGradient id="T" x1="557.078" x2="571.928" y1="485.099" y2="485.099" gradientTransform="translate(129.357)" gradientUnits="userSpaceOnUse"><stop offset="0" stop-color="#009ed3" class="stopColor009ed3 svgShape"></stop><stop offset=".044" stop-color="#0197cb" class="stopColor0197cb svgShape"></stop><stop offset=".344" stop-color="#0a6d9c" class="stopColor0a6d9c svgShape"></stop><stop offset=".608" stop-color="#114e7a" class="stopColor114e7a svgShape"></stop><stop offset=".826" stop-color="#153c65" class="stopColor153c65 svgShape"></stop><stop offset=".969" stop-color="#16355d" class="stopColor16355d svgShape"></stop></linearGradient><path fill="url(#T)" d="M686.436,472.713c4.615,7.166,12.002,15.121,14.849,24.771
            c-2.847-9.198-6.545-10.604-10.138-16.426l-2.519,0.328L686.436,472.713z"></path><g><path fill="#f5958f" d="M699.712,400.328c-4.761,10.343-8.318,33.218,1.502,48.186
                c9.82,14.968,25.876-9.256,28.331-13.912c2.455-4.657,7.701-8.032,9.849-22.335c2.148-14.303-13.291-29.9-23.418-26.241
                C705.849,389.684,703.161,392.835,699.712,400.328z" class="colorf5958f svgShape"></path><linearGradient id="U" x1="572.29" x2="610.009" y1="407.721" y2="407.721" gradientTransform="translate(129.357)" gradientUnits="userSpaceOnUse"><stop offset="0" stop-color="#f5958f" class="stopColorf5958f svgShape"></stop><stop offset="1" stop-color="#f07d80" class="stopColorf07d80 svgShape"></stop></linearGradient><path fill="url(#U)" d="M725.013,386.933c-11.296-0.212-16.999,2.722-18.852,4.098
                c-0.192,0.156-7.156,8.54-3.408,5.028c0.043,0.009,25.518,4.663,29.244,21.874c1.561,7.213,1.246,11.791,2.055,10.307
                c0.265-0.792,3.897-9.139,4.136-10.042c0.59-3.041,0.869-7.559,0.932-9.947c0.013-0.505,0.105-1.074,0.247-1.693
                C738.112,398.076,731.734,390.104,725.013,386.933z"></path><path fill="#14426d" d="M701.51,396.747c0,0-4.735-8.232-1.59-13.435c3.145-5.202,11.555-10.711,17.231-11.629
                c5.677-0.918,15.011,2.142,14.296,5.202c-0.715,3.06,1.261,2.834,6.625,8.608c5.364,5.775,6.828,9.753,6.828,9.753
                s4.465-0.918,4.465,3.366c0,4.284-9.341,22.003-12.704,27.29c-3.364,5.287-6.068,8.319-6.068,8.319s4.657-13.882,5.221-16.637
                c0.565-2.754,1.291-6.12-1.895-0.612c-3.186,5.508-0.484-7.344,0-11.629C734.403,401.062,715.199,388.455,701.51,396.747z" class="color14426d svgShape"></path><path fill="#14426d" d="M694.968,429.526c0.276-3.508,7.276-5.961,10.632-5.239c3.355,0.722,7.207,10.344,12.709,8.97
                c5.502-1.375,14.192-7.039,13.665-4.469c-0.527,2.57,0.901,37.146-26.277,31.707c-27.178-5.44-24.823-13.599-19.569-17.865
                C691.382,438.363,694.858,430.935,694.968,429.526z" class="color14426d svgShape"></path></g><g><path fill="#1abed4" d="M804.786,536.294l10.36,4.156l5.115,3.418l2.22,7.818c-3.834-0.724-4.873-4.166-9.435-5.075
                c-10.917,0.238-18.34,19.46-15.43,27.113c1.583,4.164,7.977,9.509,7.977,9.509l-5.788,6.334c0,0-18.957-4.509-18.957-6.78
                s-3.318-5.728-3.846-7.847c-0.653-2.617,0.527-4.557-8.209-7.004c-7.093-1.986-9.218-5.053-9.218-6.948
                c0-20.5-10.124-29.234-10.124-57.1c0-4.412-3.034-3.385-1.373-5.531c5.28-6.822,0.736-10.26,10.307-16.633
                c0.946-0.63,10.398,5.076,14.771,8.416c6.982,5.335,12.156,10.047,15.013,17.048c9.337,22.875,14.478,18.339,15.981,26.607
                C804.902,537.931,804.786,536.294,804.786,536.294z" class="color1abed4 svgShape"></path><path fill="#f5958f" d="M810.423,544.389c0,0,16.773,10.542,19.602,11.147c18.731,4.004,24.736,3.107,24.736,3.107
                    s5.424-7.91,18.243-8.619c9.184-0.508,19.246-12.419,19.246-12.419l0.166,4.691l-2.723,4.011l-3.58,3.701l25.059-9.301
                    c0,0-11.847,8.562-18.495,17.881c-6.649,9.319-12.887,14.964-29.252,13.43c-16.365-1.534-10.119-2.392-10.119-2.392
                    s-18.336,16.181-38.281,14.647c-19.945-1.534-30.944-5.626-25.445-16.877C795.08,556.144,797.985,541.502,810.423,544.389z" class="colorf5958f svgShape"></path><linearGradient id="V" x1="760.141" x2="698.181" y1="557.855" y2="584.679" gradientTransform="translate(129.357)" gradientUnits="userSpaceOnUse"><stop offset="0" stop-color="#f07d80" class="stopColorf07d80 svgShape"></stop><stop offset="1" stop-color="#d96c71" class="stopColord96c71 svgShape"></stop></linearGradient><path fill="url(#V)" d="M888.43,557.632c-2.017,2.767-8.961,13.036-19.792,11.936
                    c-10.831-1.1-8.011-8.288-13.18-4.694c-3.099,2.154-3.548,4.365-3.412,5.791c0.136-0.108,0.259-0.208,0.374-0.301
                    c0.814,0.401,3.587,0.957,11.004,1.652c16.365,1.534,22.603-4.111,29.252-13.43c6.648-9.319,18.495-17.881,18.495-17.881
                    l-7.398,2.746C899.763,547.3,890.053,555.405,888.43,557.632z"></path><linearGradient id="W" x1="695.756" x2="637.413" y1="565.91" y2="591.168" gradientTransform="translate(129.357)" gradientUnits="userSpaceOnUse"><stop offset="0" stop-color="#f5958f" class="stopColorf5958f svgShape"></stop><stop offset="1" stop-color="#d96c71" class="stopColord96c71 svgShape"></stop></linearGradient><path fill="url(#W)" d="M854.695,570.952c-0.835-0.846-1.389-1.328-1.389-1.328
                    c-49.286,21.846-60.886-8.635-60.886-8.635c-0.909,2.163-1.831,4.341-2.84,6.406c-5.499,11.251,5.499,15.343,25.445,16.877
                    c17.371,1.336,33.516-10.762,37.396-13.907C852.764,570.533,853.456,570.729,854.695,570.952z"></path><linearGradient id="X" x1="746.071" x2="765.268" y1="550.377" y2="572.134" gradientTransform="translate(129.357)" gradientUnits="userSpaceOnUse"><stop offset="0" stop-color="#f07d80" class="stopColorf07d80 svgShape"></stop><stop offset="1" stop-color="#d96c71" class="stopColord96c71 svgShape"></stop></linearGradient><path fill="url(#X)" d="M892.416,542.295l-0.166-4.691c0,0-10.062,11.912-19.246,12.419
                    c-12.819,0.708-15.019,4.074-15.019,4.074s-1.56,3.512-2.526,3.682c1.307,4.73,5.17,8.117,10.76,7.987
                    c8.218-0.191,9.938-5.925,10.894-9.938c0.956-4.014,8.999-5.822,8.999-5.822l3.58-3.701L892.416,542.295z"></path><path fill="#00b0c7" d="M813.047,546.612c4.562,0.909,5.601,4.35,9.435,5.075l-2.22-7.818l-5.115-3.418l-10.734-4.305
                c0,0,0.057-0.13-0.062-1.026c-5.493,0.522-24.779,5.004-26.209,42.145c1.151,1.857,2.707,3.969,2.707,5.524
                c0,2.271,18.957,6.78,18.957,6.78l5.788-6.334c0,0-6.394-5.345-7.977-9.509C794.707,566.072,802.13,546.849,813.047,546.612z" class="color00b0c7 svgShape"></path></g><g><path fill="#bc3b43" d="M695.894,487.25c3.011,4.109,13.333,4.763,17.105,3.423c0.485,3.061-2.844,10.226-7.025,17.628
                c0,0-7.411-0.685-7.199-3.254C698.987,502.477,695.894,487.25,695.894,487.25z" class="colorbc3b43 svgShape"></path><path fill="#bc3b43" d="M699.638,504.649c0,0-14.601,65.828-13.203,73.74c1.398,7.912,9.719,14.672,9.719,14.672
                l2.686-12.376l7.133-72.385L699.638,504.649z" class="colorbc3b43 svgShape"></path><path fill="#e84a54" d="M693.562,564.809c13.052,15.987-0.066-25.519,5.08-13.903l2.564,5.787l4.768-48.393l-6.336-3.652
                C693.3,543.518,684.971,554.286,693.562,564.809z" class="colore84a54 svgShape"></path></g></g></svg>