<svg id="SvgjsSvg4160" width="550" height="550" xmlns="http://www.w3.org/2000/svg" version="1.1"
    xmlns:xlink="http://www.w3.org/1999/xlink" xmlns:svgjs="http://svgjs.com/svgjs">
    <defs id="SvgjsDefs4161"></defs>
    <g id="SvgjsG4162">
        <svg xmlns="http://www.w3.org/2000/svg" enable-background="new 0 0 3270.658 1875.898"
            viewBox="0 0 3270.658 1875.898" width="550" height="550">
            <path fill="#e25761"
                d="M661.306,1359.864c-35.654-14.302-53.947-61.112-37.436-95.799
    c20.838-43.777,86.057-69.785,76.596-117.336c-8.1-40.709-64.211-47.872-104.237-36.884
    c-40.026,10.989-84.589,29.995-120.42,9.043c-42.758-25.003-40.131-88.441-21.084-134.163
    c19.047-45.722,49.459-90.634,44.055-139.87c-3.751-34.17-24.382-63.746-37.764-95.409
    c-13.382-31.664-17.984-72.408,6.066-96.969c35.592-36.349,98.661-6.682,130.626,32.894
    c31.965,39.576,57.045,91.087,105.527,106.5c36.807,11.701,76.3-1.439,114.825-4.176c38.525-2.737,85.776,12.991,92.226,51.071
    c4.84,28.574-16.233,56.628-12.154,85.32c6.129,43.109,61.519,58.195,104.859,53.994c43.34-4.2,91.065-16.67,127.547,7.101
    c31.152,20.299,42.56,62.005,37.262,98.808s-24.187,70.039-42.718,102.273c-25.71,44.72-51.42,89.441-77.13,134.162
    c-17.195,29.91-34.806,60.344-60.353,83.531s-60.799,38.362-94.619,31.539c-53.99-10.894-68.603-70.457-113.706-88.596
    C735.875,1329.443,706.945,1378.171,661.306,1359.864z"
                class="colore25761 svgShape"></path>
            <path fill="#edca97"
                d="M1062.585,1285.087c-2.462-1.964-246.993-196.859-316.195-234.541
    c-16.119-8.777-40.164-35.465-71.468-79.322c-24.988-35.007-54.665-81.005-88.208-136.714
    C529.612,739.674,480.44,648.326,479.95,647.414l1.756-0.944c0.49,0.911,49.642,92.223,106.719,187.018
    c52.625,87.401,122.914,195.702,158.918,215.307c69.354,37.766,314.021,232.769,316.485,234.734L1062.585,1285.087z"
                class="coloredca97 svgShape"></path>
            <rect width="277.927" height="1.994" x="667.252" y="924.474" fill="#edca97"
                transform="rotate(-57.649 806.242 925.468)" class="coloredca97 svgShape"></rect>
            <rect width="255.844" height="1.994" x="439.81" y="1035.94" fill="#edca97"
                transform="rotate(-22.256 567.702 1036.805)" class="coloredca97 svgShape"></rect>
            <path fill="#edca97"
                d="M634.831 1337.603l-.737-1.853c.471-.187 47.766-19.079 104.91-49.306 52.705-27.878 124.803-71.373 168.974-120.264l1.479 1.337c-44.37 49.11-116.687 92.744-169.541 120.7C682.681 1318.491 635.303 1337.415 634.831 1337.603zM974.456 1217.472l-.647-1.886c23.354-8.012 58.584-49.246 101.88-119.245 32.786-53.007 58.872-104.264 59.131-104.776l1.778.902c-.26.512-26.378 51.834-59.207 104.911C1033.225 1168.787 998.593 1209.192 974.456 1217.472z"
                class="coloredca97 svgShape"></path>
            <path fill="#0cb7ce"
                d="M1222.189,1015.264c-5.662,2.94-13.853,10.57-18.311,15.189
c-13.814,14.286-25.896,32.99-35.323,50.758c0.844-6.843,1.823-26.798,0.924-41.947c-0.804-14.727-2.522-26.898-5.583-41.624
c22.556-17.259,34.776-50.271,26.62-85.479c-2.452,2.742-5.738,8.396-7.475,11.657c-10.585,19.902-16.76,46.709-20.234,69.135
c-6.505-26.693-18.034-54.168-33.011-76.814c16.851-27.099,12.887-64.131-4.653-89.412c-3.919,9.891-4.312,28.65-3.941,39.294
c0.4,14.519,3.266,33.519,5.947,46.101c-15.472-22.958-34.725-43.406-56.91-59.998c-1.935-1.43,0.096,0.998,0.484-12.605
c0.64-23.517-9.582-49.151-32.29-69.862c-1.499,11.486,3.203,29.418,7.666,41.174c6.43,16.96,16.036,32.121,19.458,37.833
c-22.835-16.488-48.629-29.13-73.176-40.323c-0.183-12.337-3.717-27.565-10.688-41.703c-6.841-14.02-15.352-24.21-25.221-33.691
c-2.547,16.366,5.258,45.725,31.548,73.44c-31.559-13.872-56.584-24.287-75.947-34.049c0.59-23.58-7.148-53.766-23.585-77.12
c-6.585,18.005-2.529,49.336,19.346,74.982c-14.912-7.245-40.768-23.161-47.256-27.876c-14.012-9.807-9.221-6.325-22.568-16.406
c5.517-24.615,3.162-56.236-8.168-80.412c-2.391,3.982-5.826,13.066-7.15,23.73c-2.113,19.004,2.472,36.767,11.586,53.753
c-24.439-19.888-43.82-38.536-59.935-57.141c9.355-21.239,13.83-51.556,6.826-80.659c-1.595,1.8-4.519,6.044-6.966,11.031
c-10.081,20.561-10.107,44.202-2.966,66.041c-18.76-21.673-33.854-43.298-48.336-67.153
c13.426-19.854,23.232-50.245,21.306-78.113c-3.244,2.543-9.142,9.021-13.909,17.32c-9.787,17.483-12.205,36.45-9.845,56.727
c-13.625-24.256-26.046-48.791-35.393-74.896c15.579-15.724,31.877-43.838,35.283-72.734c-9.532,4.928-22.164,17.876-29.61,35.352
c-4.469,10.49-6.672,21.62-7.274,32.914c-10.014-28.664-15.734-49.483-20.972-80.012c19.981-13.766,39.836-38.175,48.632-64.315
c-10.282,2.905-26.134,13.672-35.978,28.75c-7.011,10.52-11.749,23.069-13.458,30.888c-1.011-5.328-1.982-12.178-2.805-20.346
c6.389-24.771,2.466-55.576-15.252-82.711c-8.802,21.52,3.121,62.767,10.35,79.301c2.091,20.253,5.548,38.268,8.991,54.779
c0.924,4.148,0.829,0.762-10.392-12.21c-3.048-3.441-9.148-11.034-20.685-20.667c-7.748-6.477-22.545-16.484-32.361-18.816
c12.502,32.314,38.045,52.484,64.992,58.054c6.935,28.248,14.962,52.219,26.756,79.224c-10.169-9.765-22.723-19.654-34.916-26.611
c-10.2-5.82-26.143-13.147-37.913-13.647c14.478,24.218,43.144,44.026,74.747,44.648c9.439,22.601,27.193,52.332,40.679,72.956
c-15.282-10.36-34.938-19.827-53.177-23.913c-7.381-1.61-18.485-3.395-25.586-2.338c23.581,25.185,54.606,34.642,81.504,30.18
c15.996,22.765,31.351,42.29,53.333,64.404c-12.671-5.351-21.297-7.683-29.31-9.786c-14.923-3.743-38.921-6.59-53.064-1.783
c23.552,18.3,57.093,25.346,85.752,14.968c2.66,2.79,6.001,5.859,15.093,14.391c17.472,15.331,24.817,21.683,49.306,38.823
c-18.285-3.996-39.768-5.65-58.379-2.873c-14.199,1.916-23.003,5.987-24.751,7.002c31.743,15.233,63.889,12.637,87.108-1.456
c27.506,17.778,43.994,26.291,73.566,39.72c-34.556-0.793-67.607,9.034-80.633,20.193c31.949,8.646,63.215,0.554,85-18.253
c22.027,9.886,49.856,21.09,75.818,34.083c-19.416-1.338-38.43,2.385-55.143,10.962c-12.324,6.392-18.951,13.198-20.237,14.725
c28.893,3.006,58.261-6.92,79.626-23.563c30.621,15.624,51.632,30.952,68.115,46.385c-27.619-11.014-59.399-3.344-74.829,12.163
c25.828,4.197,57.136-0.862,78.24-8.895c21.923,20.992,36.219,43.176,48.366,66.339c-8.674-7.191-16.344-11.9-27.466-15.65
c-15.181-5.244-34.408-4.058-46.417,1.959c22.027,11.593,52.764,18.147,75.907,17.961c12.949,27.328,19.456,53.122,22.21,79.099
c-16.907-30.646-45.79-40.737-64.365-38.56c19.539,20.594,44.841,36.031,64.845,43.262c1.669,22.8,1.449,47.437-3.534,74.416
c-3.406,18.239,1.873,1.75-13.137-21.845c-10.177-15.874-25.391-25.993-36.912-28.788c9.375,23.981,28.43,48.503,47.619,63.015
c-5.561,25.949-14.49,52.374-26.546,78.274c1.251-33.45-14.655-60.102-31.762-70.183c2.048,26.318,13.673,54.941,29.759,74.481
c-14.357,29.244-24.086,44.564-42.632,70.884c3.217-14.49,4.17-29.311,0.331-44.777c-3.453-13.84-10.863-25.706-16.506-31.108
c-3.716,26.63,0.473,56.052,13.358,79.708c-19.556,26.055-41.455,51.17-53.444,63.516c12.414-31.884,6.96-63.664-3.835-78.602
c-9.776,27.777-8.632,58.521,0.553,82.046c-17.402,18.259-37.995,38.447-59.393,58.095c15.117-32.763,12.288-64.175,3.953-79.404
c-13.777,28.451-15.098,58.446-7.452,82.636c-13.851,12.76-27.852,25.368-41.874,37.964l3.045,3.389l0.745-0.67
c23.645,9.964,55.246,11.055,84.419-2.954c-13.952-7.986-45.386-12.648-80.872-0.235c14.228-12.812,45.899-41.341,61.346-56.362
c24.053,9.283,55.782,8.971,85.015-8.088c-14.324-6.596-46.297-8.974-81.568,4.781c19.708-18.911,39.286-38.811,57.978-60.09
c28.995,8.222,61.734,0.334,84.365-18.339c-13.223-3.983-45.364-3.208-81.208,14.745c13.731-15.472,32.048-38.59,50.431-66.537
c27.476,3.672,58.594-7.304,80.597-33.63c-3.712-0.335-9.903,0.361-13.603,0.97c-22.934,3.771-45.361,15.294-64.366,28.655
c16.137-25.997,26.579-46.387,37.649-74.699c27.663-2.007,55.987-19.953,71.275-51.572c-11.389,1.854-28.544,11.95-37.983,18.759
c-9.527,6.776-20.599,16.386-31.616,28.318c9.424-26.386,16.458-52.148,19.559-81.266
C1194.88,1076.688,1217.51,1050.798,1222.189,1015.264z"
                class="color0cb7ce svgShape"></path>
            <linearGradient id="a" x1="1919.608" x2="2821.565" y1="-2611.205" y2="-2611.205"
                gradientTransform="rotate(75.634 -742.77 -1757.903)" gradientUnits="userSpaceOnUse">
                <stop offset="0" stop-color="#edca97" class="stopColoredca97 svgShape"></stop>
                <stop offset=".339" stop-color="#edc796" class="stopColoredc796 svgShape"></stop>
                <stop offset=".56" stop-color="#ecbf92" class="stopColorecbf92 svgShape"></stop>
                <stop offset=".748" stop-color="#ecb08d" class="stopColorecb08d svgShape"></stop>
                <stop offset=".915" stop-color="#eb9b84" class="stopColoreb9b84 svgShape"></stop>
                <stop offset="1" stop-color="#ea8d7f" class="stopColorea8d7f svgShape"></stop>
            </linearGradient>
            <path fill="url(#a)"
                d="M846.938,1269.492c-1.675-37.455-7.198-77.762-33.084-104.884
    c-34.045-35.669-90.588-36.219-133.523-60.467c-38.334-21.649-64.424-63.556-66.933-107.509
    c-2.509-43.953,18.643-88.557,54.264-114.428c23.403-16.998,52.468-26.415,72.236-47.531
    c22.996-24.564,29.074-60.304,30.712-93.913c1.638-33.609,0.046-68.219,11.604-99.82c11.559-31.601,41.037-59.929,74.557-56.989
    c33.858,2.97,57.987,36.555,63.812,70.04c5.824,33.486-1.772,67.623-5.284,101.429c-3.513,33.806-2.034,70.752,18.699,97.685
    c24.998,32.474,70.543,41.27,101.011,68.677c36.387,32.731,45.193,85.467,51.838,133.956
    c10.44,76.167,20.879,152.335,31.319,228.503c4.6,33.563,9.182,67.891,2.443,101.091c-16.814,82.838-91.791,93.491-160.241,64.85
    C874.823,1414.389,850.929,1358.73,846.938,1269.492z"></path>
            <path fill="#e25761"
                d="M1051.051,1460.726c-1.504-3.017-150.865-302.738-190.909-395.564
    c-16.863-39.089-24.134-132.697-21.608-278.221c1.879-108.305,8.796-206.403,8.865-207.381l2.438,0.174
    c-0.07,0.978-6.982,99.02-8.859,207.26c-1.732,99.805,0.577,228.913,21.408,277.201
    c40.019,92.764,189.349,392.425,190.853,395.442L1051.051,1460.726z"
                class="colore25761 svgShape"></path>
            <rect width="232.448" height="2.782" x="613.394" y="995.41" fill="#e25761"
                class="colore25761 svgShape"></rect>
            <rect width="268.087" height="2.444" x="858.739" y="1070.01" fill="#e25761"
                transform="rotate(-59.889 992.766 1071.19)" class="colore25761 svgShape"></rect>
            <g>
                <path fill="#0cb7ce"
                    d="M815.585,1503.168c-38.342-5.609-73.782-45.722-59.358-81.687
    c11.951-29.8,50.428-42.107,62.588-71.822c13.461-32.894-12.505-69.569-43.111-87.635
    c-30.607-18.067-66.888-25.942-95.316-47.273c-28.428-21.332-45.773-65.441-22.34-92.163
    c22.13-25.235,62.471-17.768,94.638-8.184c27.309,8.136,54.618,16.272,81.927,24.408c19.963,5.948,42.621,14.356,49.459,34.032
    c5.651,16.259-1.108,37.01,10.653,49.578c14.203,15.178,40.009,3.534,59.946,9.416c15.252,4.499,25.608,19.395,29.251,34.874
    c3.643,15.479,1.76,31.657-0.142,47.454c-4.939,41.023,1.903,143.18-37.768,168.546c-13.337,8.528-36.506,4.396-51.538,7.308
    C867.161,1495.312,844.536,1507.403,815.585,1503.168z"
                    class="color0cb7ce svgShape"></path>
                <path fill="#145689"
                    d="M907.58,1487.396l-1.561-0.659c0.089-0.211,8.947-21.518,11.063-55.217
    c1.242-19.786-0.049-39.911-3.836-59.817c-4.735-24.881-13.407-49.49-25.776-73.142c-12.36-23.635-32.284-46.331-59.22-67.456
    c-21.578-16.923-47.674-32.88-77.563-47.425c-50.91-24.776-95.742-37.007-96.188-37.128l0.441-1.636
    c0.449,0.121,45.435,12.395,96.489,37.24c29.997,14.598,56.195,30.618,77.867,47.616c27.126,21.275,47.204,44.155,59.676,68.004
    c12.454,23.816,21.185,48.6,25.948,73.662c3.812,20.055,5.106,40.331,3.848,60.266
    C916.625,1465.669,907.67,1487.183,907.58,1487.396z"
                    class="color145689 svgShape"></path>
                <path fill="#145689"
                    d="M783.981 1445.058c-16.285 6.252-27.496 9.855-27.696 9.919l-.516-1.614c.357-.114 36.129-11.613 72.995-29.339 33.902-16.302 75.688-41.334 82.23-68.019l1.646.403c-2.971 12.118-13.084 24.848-30.058 37.835-13.499 10.329-31.365 20.865-53.1 31.315C813.103 1433.434 796.936 1440.085 783.981 1445.058zM857.908 1255.162l-1.577-.621c7.194-18.257 10.466-101.608 10.498-102.448l1.694.065c-.008.211-.827 21.313-2.531 44.418C863.699 1227.656 860.979 1247.368 857.908 1255.162zM896.961 1316.719l-1.099-1.29c16.637-14.181 73.588-69.987 74.161-70.549l1.186 1.21C970.636 1246.653 913.642 1302.501 896.961 1316.719z"
                    class="color145689 svgShape"></path>
            </g>
            <g opacity=".3">
                <linearGradient id="b" x1="1650.989" x2="1648.719" y1="1418.526" y2="1574.489"
                    gradientUnits="userSpaceOnUse">
                    <stop offset="0" stop-color="#ef6069" class="stopColoref6069 svgShape"></stop>
                    <stop offset=".509" stop-color="#f9b5b9" class="stopColorf9b5b9 svgShape"></stop>
                    <stop offset=".892" stop-color="#f9f7f8" class="stopColorf9f7f8 svgShape"></stop>
                    <stop offset="1" stop-color="#ffffff" class="stopColorfff svgShape"></stop>
                </linearGradient>
                <ellipse cx="1649.603" cy="1513.733" fill="url(#b)" rx="878.707" ry="66.259"></ellipse>
            </g>
            <g>
                <linearGradient id="c" x1="-6822.141" x2="-5749.304" y1="-7251.805" y2="-7251.805"
                    gradientTransform="scale(-1) rotate(-65.97 513.983 -7078.525)"
                    gradientUnits="userSpaceOnUse">
                    <stop offset="0" stop-color="#edca97" class="stopColoredca97 svgShape"></stop>
                    <stop offset=".339" stop-color="#edc796" class="stopColoredc796 svgShape"></stop>
                    <stop offset=".56" stop-color="#ecbf92" class="stopColorecbf92 svgShape"></stop>
                    <stop offset=".748" stop-color="#ecb08d" class="stopColorecb08d svgShape"></stop>
                    <stop offset=".915" stop-color="#eb9b84" class="stopColoreb9b84 svgShape"></stop>
                    <stop offset="1" stop-color="#ea8d7f" class="stopColorea8d7f svgShape"></stop>
                </linearGradient>
                <path fill="url(#c)"
                    d="M2183.567,1231.023c28.232-30.618,57.862-63.05,66.874-103.711
c22.987-103.715-96.441-196.299-81.821-301.52c9.462-68.094,84.313-119.316,151.212-103.478
c66.899,15.839,24.709,135.324,88.763,160.293c103.36,40.291,89.763-202.902,134.644-304.353
c24.479-55.334,66.613-120.838,126.217-110.426c46.657,8.15,72.125,63.836,64.555,110.59
c-7.57,46.755-84.125,78.113-68.195,122.718c10.719,30.014,66.769,2.269,93.614,19.446c54.561,34.911-0.3,127.918-52.134,166.763
c-51.835,38.845-117.143,61.354-157.801,111.779c-53.634,66.517-49.396,161.706-81.145,241.035
c-39.936,99.784-128.349,149.068-227.789,172.412C2090.687,1447.755,2100.81,1320.773,2183.567,1231.023z"></path>
                <path fill="#e25761"
                    d="M2156.648,1410.034l-1.128-1.947c71.474-41.411,143.827-116.248,215.049-222.433
c57.019-85.009,113.433-190.172,167.674-312.567c92.373-208.436,147.103-397.088,147.645-398.969l2.162,0.623
c-0.542,1.882-55.307,190.66-147.739,399.233c-54.295,122.518-110.773,227.8-167.866,312.922
C2301.028,1293.374,2228.423,1368.449,2156.648,1410.034z"
                    class="colore25761 svgShape"></path>
                <path fill="#e25761"
                    d="M2410.236 1114.856c-18.467-15.053-38.138-44.688-58.466-88.082-16.224-34.632-32.92-78.086-49.624-129.153-28.432-86.92-47.282-166.865-47.469-167.662l2.19-.514c.187.797 19.019 80.661 47.422 167.492 16.675 50.977 33.337 94.342 49.521 128.89 20.182 43.081 39.645 72.448 57.847 87.286L2410.236 1114.856zM2535.871 892.02l-.737-2.126c42.581-14.763 240.366-148.358 242.359-149.706l1.26 1.864C2776.759 743.401 2578.728 877.161 2535.871 892.02z"
                    class="colore25761 svgShape"></path>
            </g>
            <g>
                <path fill="#0cb7ce"
                    d="M2241.929,1183.128c24.306-34.325,50.625-68.472,62.865-108.712
c12.798-42.078,9.087-87.09,8.728-131.069c-0.359-43.979,3.609-90.507,28.865-126.514c25.256-36.007,78.232-55.777,114.924-31.527
c41.055,27.133,38.861,89.269,18.77,134.192c-20.091,44.923-53.307,85.06-60.97,133.67c-4.849,30.76,1.101,62.077,1.79,93.209
c1.874,84.719-48.503,213.738-139.304,239.594C2143.884,1424.047,2203.494,1237.406,2241.929,1183.128z"
                    class="color0cb7ce svgShape"></path>
                <path fill="#145689"
                    d="M2233.443,1387.908l-1.026-1.233c19.344-16.098,41.867-58.291,66.944-125.407
c20.093-53.776,41.837-123.544,64.629-207.366c38.812-142.737,67.576-278.55,67.862-279.906l1.569,0.331
c-0.286,1.356-29.06,137.214-67.884,279.995c-22.805,83.87-44.564,153.685-64.674,207.507
C2275.688,1329.211,2253.004,1371.63,2233.443,1387.908z"
                    class="color145689 svgShape"></path>
                <rect width="1.604" height="98.745" x="2343.836" y="927.399" fill="#145689"
                    transform="rotate(-36.908 2344.543 976.844)" class="color145689 svgShape"></rect>
                <rect width="137.059" height="1.604" x="2292.371" y="1206.217" fill="#145689"
                    transform="rotate(-34.269 2360.732 1206.946)" class="color145689 svgShape"></rect>
            </g>
            <path fill="#e25761"
                d="M2202.646,1490.456l0.15,0.801l3.466-0.677c-3.175-17.002-4.111-21.471-7.799-45.172
c17.137-11.898,30.849-32.56,35.533-55.743c-3.193,1.354-7.412,4.401-10.151,6.702c-13.465,11.308-22.027,28.284-25.967,45.219
c-2.117-12.995-6.023-45.024-7.829-67.016c17.282-10.412,32.731-30.04,39.031-53.444c-13.601,4.767-31.621,23.371-39.367,49.593
c-1.3-13.415-3.121-45.486-3.533-67.457c18.425-9.564,34.727-28.33,42.315-50.83c-13.485,3.811-32.63,20.713-42.406,46.965
c-0.402-12.106-0.306-44.256,0.702-67.473c18.912-8.371,36.398-26.147,45.379-48.211c-13.491,2.926-33.924,18.537-45.23,44.348
c0.333-11.4,2.374-43.646,4.862-67.379c19.154-7.111,37.767-23.498,48.219-45.304c-13.612,2.106-34.752,16.318-47.835,41.456
c0.897-9.896,4.839-42.277,8.931-66.887c19.236-5.85,39.016-21.058,50.868-42.408c-13.764,1.289-35.902,14.348-50.253,38.591
c1.735-11.41,7.672-43.238,12.94-66.306c20.598-4.942,40.718-19.456,53.288-39.237c-13.425,0.461-36.175,11.677-52.445,35.464
c2.43-11.357,10.267-42.807,16.844-65.347c10.203-1.816,23.91-7.171,35.474-15.759c-6.151-1.912-7.512-2.335-0.072-0.023
c8.142-5.905,14.947-13.113,20.141-20.298c-13.444-0.378-37.127,9.716-54.478,32.364c5.145-18.391,14.025-45.168,20.711-64.304
c20.398-2.394,42.359-14.035,57.558-32.651c-13.893-1.176-37.764,7.837-56.274,29.004c3.847-11.245,15.354-41.513,24.463-62.892
c20.469-1.176,43.103-11.506,59.427-29.226c-13.406-1.952-38.07,5.288-57.929,25.662c3.664-8.936,16.926-38.783,28.2-61.389
c20.318,0.052,43.529-8.693,61.037-25.529c-12.76-2.649-37.554,2.407-59.327,22.061c4.201-8.72,19.257-37.759,31.808-59.513
c20.283,1.28,44.041-6.126,62.506-21.821c-13.11-3.578-38.472,0.656-60.59,18.463c5.732-10.263,22.367-37.816,35.414-57.526
c21.073,2.639,45.012-3.883,63.682-17.843c-12.801-4.362-38.024-1.868-61.564,14.609c6.092-9.492,24.851-36.621,38.865-55.159
c20.548,3.889,45.02-0.988,64.711-13.845c-13.276-5.495-39.086-3.678-62.395,10.749c8.415-11.474,28.426-36.53,42.314-52.653
c19.49,4.995,44.184,2.372,65.402-9.592c-11.942-5.867-37.125-6.92-62.894,6.65c1.715-2.052,14.256-16.94,37.241-41.006
c9.412-4.119,41.814-26.682,46.917-46.083c-21.883,7.911-37.906,23.291-46.187,40.073c-7.857,8.184-15.588,16.488-23.188,24.91
c10.779-28.685,8.328-53.876,2.815-64.672c-12.497,23.171-13.036,48.477-5.426,67.541c-18.693,21.157-26.303,30.093-43.611,51.766
c9.113-29.977,4.542-54.758-1.386-64.703c-10.969,23.967-9.83,49.248-1.034,67.733c-15.601,20.099-23.681,30.794-40.277,54.492
c7.047-29.838,1.358-54.481-5.498-64.469c-9.459,24.738-6.599,49.878,3.273,67.645c-15.985,23.544-22.279,33.162-36.759,56.833
c5.243-30.536-2.174-54.629-9.503-63.987c-7.865,25.201-3.5,50.126,7.479,67.296c-12.806,21.598-19.594,33.329-33.243,59.043
c3.33-30.421-5.332-54.178-13.407-63.273c-6.323,25.736-0.334,50.339,11.589,66.698c-11.194,21.829-16.817,32.894-29.581,60.876
c1.504-30.731-8.663-53.823-17.203-62.339c-4.737,25.998,2.661,50.197,15.594,65.867c-9.723,22.107-15.138,34.668-25.916,62.604
c-0.333-30.961-11.959-53.287-20.901-61.193c-3.182,26.348,5.753,50.038,19.505,64.811c-9.81,26.509-13.613,37.284-22.126,63.962
c-2.181-31.094-15.283-52.627-24.497-59.841c-1.604,26.417,8.654,49.545,23.319,63.535c-4.871,15.268-12.27,41.122-18.316,65.233
c-3.959-30.432-18.005-51.367-28.003-58.283c-0.035,26.465,11.576,48.946,27.046,62.041c-6.586,27.374-9.136,38.788-14.394,66.133
c-5.784-30.262-21.133-50.278-31.416-56.521c1.543,26.546,14.564,48.252,30.684,60.329c-4.427,24.74-6.691,38.34-10.427,66.95
c-7.536-29.652-23.983-48.862-34.741-54.547c3.11,26.292,17.311,47.232,34.239,58.392c-3.268,27.935-4.449,39.823-6.359,67.384
c-9.387-29.349-27.019-47.386-37.974-52.358c4.688,26.069,20.125,46.112,37.707,56.227c-1.409,25.104-2.01,39.032-2.224,67.723
c-11.105-28.523-29.79-45.615-41.116-49.943c6.258,25.696,22.869,44.787,41.087,53.821c0.184,28.241,0.463,39.932,1.995,67.657
c-12.956-27.952-32.672-43.707-44.152-47.298c7.859,25.337,25.682,43.326,44.366,51.171c1.738,25.089,2.865,38.851,6.292,67.47
c-14.598-26.84-35.229-41.51-47.075-44.411c9.406,24.699,28.257,41.584,47.536,48.262c3.758,27.828,5.524,39.462,10.64,66.848
c-16.639-26.334-38.282-39.222-49.863-41.28C2163.021,1469.352,2182.896,1485.035,2202.646,1490.456z M2261.511,932.981
C2262.232,933.205,2262.212,933.199,2261.511,932.981C2261.425,932.954,2261.425,932.954,2261.511,932.981z"
                class="colore25761 svgShape"></path>
            <g>
                <path fill="#e25761"
                    d="M2317.319,1165.981c27.682-3.459,57.252-9.941,75.837-30.746
c24.442-27.363,21.504-69.336,36.948-102.616c13.79-29.714,43.329-51.547,75.782-56.009c32.453-4.462,66.789,8.587,88.086,33.478
c13.992,16.353,22.698,37.354,39.53,50.767c19.581,15.603,46.45,17.996,71.476,17.222c25.026-0.774,50.603-4.003,74.727,2.7
c24.124,6.703,46.88,26.892,46.683,51.929c-0.199,25.29-23.682,45.174-48.175,51.476s-50.263,2.688-75.546,2.083
c-25.283-0.605-52.6,2.679-71.349,19.651c-22.607,20.464-26.437,54.766-44.962,78.987c-22.125,28.927-60.719,38.578-96.292,46.378
c-55.878,12.251-111.756,24.502-167.634,36.752c-24.623,5.398-49.814,10.828-74.838,7.795
c-62.438-7.569-74.777-62.552-57.584-115.018C2211.494,1195.239,2251.364,1174.222,2317.319,1165.981z"
                    class="colore25761 svgShape"></path>
                <path fill="#edca97"
                    d="M2187.554,1328.695c2.149-1.294,215.623-129.817,282.104-165.012
c27.996-14.821,96.997-25.753,205.087-32.492c80.444-5.016,153.624-5.691,154.353-5.697v1.819
c-0.729,0.006-73.851,0.681-154.247,5.694c-74.131,4.622-169.757,13.975-204.342,32.284
c-66.438,35.173-279.869,163.669-282.017,164.963L2187.554,1328.695z"
                    class="coloredca97 svgShape"></path>
                <rect width="1.819" height="172.96" x="2511.604" y="976.355" fill="#edca97"
                    transform="rotate(-4.393 2513.903 1063.356)" class="coloredca97 svgShape"></rect>
                <rect width="1.819" height="199.48" x="2472.095" y="1162.685" fill="#edca97"
                    transform="rotate(-64.45 2473.117 1262.435)" class="coloredca97 svgShape"></rect>
            </g>
            <linearGradient id="d" x1="1275.783" x2="2470.925" y1="519.15" y2="1714.292"
                gradientUnits="userSpaceOnUse">
                <stop offset="0" stop-color="#f9e3ee" class="stopColorf9e3ee svgShape"></stop>
                <stop offset=".189" stop-color="#f9eaf2" class="stopColorf9eaf2 svgShape"></stop>
                <stop offset=".503" stop-color="#f9f1f6" class="stopColorf9f1f6 svgShape"></stop>
                <stop offset=".554" stop-color="#f9ecf4" class="stopColorf9ecf4 svgShape"></stop>
                <stop offset=".818" stop-color="#f9d9ea" class="stopColorf9d9ea svgShape"></stop>
                <stop offset="1" stop-color="#f9d2e6" class="stopColorf9d2e6 svgShape"></stop>
            </linearGradient>
            <path fill="url(#d)"
                d="M1162.69,1488.028c-66.481,7.489-155.875-25.094-149.191-105.298
c3.342-40.938,25.064-75.191,35.925-114.458c5.013-18.38,7.519-35.925,3.687-53.947c-0.915-5.665-2.324-11.379-4.308-17.152
c-1.683-5.807-3.719-11.531-6.069-17.162c-18.795-45.051-57.646-84.19-98.893-112.591
c-61.87-42.601-133.743-72.705-184.551-128.033c-50.809-55.329-71.709-149.958-18.433-202.914
c24.646-24.498,58.187-34.029,93.488-36.167c5.883-0.356,11.816-0.507,17.764-0.488c35.344,1.343,69.598,5.52,104.687,10.533
c59.318,8.355,133.673-3.342,151.218-71.014c16.709-64.33,12.532-132.838,57.647-184.636
c51.799-59.317,139.521-66.001,211.371-44.279c27.57,7.519,49.292,25.064,65.166,50.128
c28.406,45.95,62.659,84.381,112.787,103.597c69.343,26.735,154.56,20.886,203.852-40.937
c67.672-82.71,136.18-162.079,236.072-199.716c5.829-2.38,11.713-4.615,17.648-6.702c41.52-14.604,85.564-21.923,129.59-20.764
c57.626,1.517,121.705,22.344,146.168,74.542c23.244,49.597,2.126,108.788-27.66,154.754
c-29.786,45.966-68.699,87.453-85.333,139.64c-26.222,82.268,9.235,172.192,59.286,242.552
c50.05,70.36,114.893,129.882,159.411,203.866c44.518,73.984,65.675,171.4,21.398,245.529
c-8.437,14.126-18.691,26.584-30.325,37.639c-3.878,3.685-7.909,7.214-12.075,10.597c-25.956,17.998-53.778,33.115-82.855,45.563
c-5.816,2.49-11.681,4.872-17.592,7.15c-265.711,92.8-552.274,26.799-828.272,38.252c-6.412,0.054-12.818,0.109-19.224,0.152
c-83.226,0.63-166.378-0.893-249.393-7.708C1171.318,1488.355,1166.989,1488.18,1162.69,1488.028z"></path>
            <g>
                <linearGradient id="e" x1="2037.271" x2="1514.887" y1="541.359" y2="901.487"
                    gradientUnits="userSpaceOnUse">
                    <stop offset="0" stop-color="#f9d6a1" class="stopColorf9d6a1 svgShape"></stop>
                    <stop offset=".338" stop-color="#f9d3a0" class="stopColorf9d3a0 svgShape"></stop>
                    <stop offset=".557" stop-color="#f9cb9d" class="stopColorf9cb9d svgShape"></stop>
                    <stop offset=".743" stop-color="#f9bc97" class="stopColorf9bc97 svgShape"></stop>
                    <stop offset=".91" stop-color="#f8a78f" class="stopColorf8a78f svgShape"></stop>
                    <stop offset="1" stop-color="#f89889" class="stopColorf89889 svgShape"></stop>
                </linearGradient>
                <path fill="url(#e)"
                    d="M2007.58,652.193c0,81.172-33.086,154.61-86.503,207.575
    c-54.999,54.53-89.233,126.562-98.933,203.399L1818,1096.01h-102.741c0,0,0.008-171.208,0.008-197.665h-23.57
    c-3.055,0-6.068-0.167-9.031-0.485c-5.005-0.536-9.868-1.523-14.555-2.913c-34.493-10.17-59.544-42.101-59.544-79.732
    c0-31.555,17.568-58.991,43.465-73.078c4.319-2.352,8.872-4.327,13.618-5.884l-0.201-1.95h7.098
    c6.143-1.448,12.555-2.218,19.15-2.218h47.106c17.158,0,33.078-5.189,46.302-14.07c14.438-9.709,25.654-23.812,31.739-40.377
    c1.799-4.896,3.156-10.002,4.001-15.275c0.72-4.369,1.088-8.847,1.088-13.409c0-45.918-37.221-83.139-83.13-83.139h-23.528
    c0-69.63,0-175.56-0.017-205.951h1.005C1877.251,360.416,2007.58,491.088,2007.58,652.193z"></path>
                <path fill="#f9ebbe"
                    d="M1665.651,736.252c-4.746,1.557-9.299,3.532-13.618,5.884l16.079,152.811
    c4.687,1.389,9.55,2.377,14.555,2.913L1665.651,736.252z M1833.418,679.68c-1.95-7.198-6.387-13.291-12.572-17.318
    c-0.846,5.273-2.202,10.379-4.001,15.275c1.331,1.666,2.31,3.616,2.888,5.742c1.121,4.126,0.561,8.437-1.573,12.137l-9.6,16.631
    c-2.838,4.922-8.127,7.977-13.819,7.977h-9.86l0.226-2.109c-13.224,8.881-29.144,14.07-46.302,14.07h-47.106
    c-6.595,0-13.007,0.77-19.15,2.218h96.589l-43.072,409.216c-0.15,1.448,0.142,2.846,0.778,4.042
    c1.054,2.026,3.08,3.49,5.524,3.75c0.259,0.025,0.502,0.042,0.753,0.042c3.038,0,5.708-1.95,6.671-4.754
    c0.193-0.502,0.31-1.038,0.368-1.59l43.231-410.706h11.349c10.739,0,20.733-5.775,26.098-15.074l9.592-16.631
    C1834.464,695.608,1835.527,687.472,1833.418,679.68z"
                    class="colorf9ebbe svgShape"></path>
                <linearGradient id="f" x1="1749.906" x2="1747.469" y1="1239.749" y2="1029.528"
                    gradientUnits="userSpaceOnUse">
                    <stop offset="0" stop-color="#f9bc97" class="stopColorf9bc97 svgShape"></stop>
                    <stop offset=".371" stop-color="#f9bf99" class="stopColorf9bf99 svgShape"></stop>
                    <stop offset=".613" stop-color="#f9c7a0" class="stopColorf9c7a0 svgShape"></stop>
                    <stop offset=".817" stop-color="#f9d6ad" class="stopColorf9d6ad svgShape"></stop>
                    <stop offset="1" stop-color="#f9ebbe" class="stopColorf9ebbe svgShape"></stop>
                </linearGradient>
                <path fill="url(#f)"
                    d="M1784.068,1218.848h-68.809V997.061c0.963-0.05,1.933-0.075,2.913-0.075
    c8.127,0,15.853,1.825,22.775,5.106c4.888,2.319,9.374,5.357,13.308,8.989c0.05,0.042,0.092,0.084,0.142,0.125
    c9.525,8.847,15.828,21.168,16.857,35.07L1784.068,1218.848z"></path>
                <linearGradient id="g" x1="1727.228" x2="1729.009" y1="1350.843" y2="1301.23"
                    gradientUnits="userSpaceOnUse">
                    <stop offset="0" stop-color="#3bc8e0" class="stopColor3bc8e0 svgShape"></stop>
                    <stop offset="1" stop-color="#96c6c9" class="stopColor96c6c9 svgShape"></stop>
                </linearGradient>
                <path fill="url(#g)"
                    d="M1742.42,1319.079c0,0.402-0.008,0.803-0.025,1.205
    c-0.636,14.112-12.271,25.361-26.533,25.361c-0.201,0-0.41,0-0.611-0.008v-53.116c0.201-0.008,0.41-0.008,0.611-0.008
    C1730.526,1292.512,1742.42,1304.406,1742.42,1319.079z"></path>
                <linearGradient id="h" x1="1693.329" x2="1792.997" y1="1216.37" y2="1187.157"
                    gradientUnits="userSpaceOnUse">
                    <stop offset="0" stop-color="#3bc8e0" class="stopColor3bc8e0 svgShape"></stop>
                    <stop offset="1" stop-color="#96c6c9" class="stopColor96c6c9 svgShape"></stop>
                </linearGradient>
                <path fill="url(#h)"
                    d="M1820.804,1091.616v126.428c0,5.231-0.376,10.37-1.121,15.401
    c-6.119,42.034-36.953,76.049-77.288,86.838c-8.663,2.31-17.757,3.557-27.14,3.582v-232.25H1820.804z"></path>
                <linearGradient id="i" x1="1772.485" x2="1771.955" y1="1120.292" y2="1149.454"
                    gradientUnits="userSpaceOnUse">
                    <stop offset="0" stop-color="#f6e4bf" class="stopColorf6e4bf svgShape"></stop>
                    <stop offset=".546" stop-color="#78cacb" class="stopColor78cacb svgShape"></stop>
                    <stop offset="1" stop-color="#13b5d5" class="stopColor13b5d5 svgShape"></stop>
                </linearGradient>
                <path fill="url(#i)"
                    d="M1820.804,1140.564c-0.159,0.025-0.309,0.042-0.469,0.05l-105.077,7.809v-19.535
        l103.637-7.709c0.653-0.05,1.289-0.033,1.908,0.05c4.52,0.553,8.178,4.235,8.529,8.948
        C1829.718,1135.383,1825.936,1139.944,1820.804,1140.564z"></path>
                <linearGradient id="j" x1="1772.485" x2="1771.955" y1="1166.686" y2="1195.841"
                    gradientUnits="userSpaceOnUse">
                    <stop offset="0" stop-color="#f6e4bf" class="stopColorf6e4bf svgShape"></stop>
                    <stop offset=".546" stop-color="#78cacb" class="stopColor78cacb svgShape"></stop>
                    <stop offset="1" stop-color="#13b5d5" class="stopColor13b5d5 svgShape"></stop>
                </linearGradient>
                <path fill="url(#j)"
                    d="M1820.804,1186.95c-0.159,0.025-0.309,0.042-0.469,0.05l-105.077,7.809v-19.536
        l103.637-7.7c0.653-0.05,1.289-0.034,1.908,0.042c4.52,0.544,8.178,4.235,8.529,8.948
        C1829.718,1181.769,1825.936,1186.331,1820.804,1186.95z"></path>
                <linearGradient id="k" x1="1772.485" x2="1771.955" y1="1213.073" y2="1242.235"
                    gradientUnits="userSpaceOnUse">
                    <stop offset="0" stop-color="#f6e4bf" class="stopColorf6e4bf svgShape"></stop>
                    <stop offset=".546" stop-color="#78cacb" class="stopColor78cacb svgShape"></stop>
                    <stop offset="1" stop-color="#13b5d5" class="stopColor13b5d5 svgShape"></stop>
                </linearGradient>
                <path fill="url(#k)"
                    d="M1820.336,1233.395l-105.077,7.809c-0.008-6.403-0.008-12.923,0-19.544l103.637-7.7
        c0.644-0.05,1.289-0.033,1.908,0.05c4.52,0.544,8.178,4.227,8.529,8.948C1829.727,1228.323,1825.701,1232.993,1820.336,1233.395
        z"></path>
                <g>
                    <linearGradient id="l" x1="1769.954" x2="1287.713" y1="569.501" y2="901.955"
                        gradientUnits="userSpaceOnUse">
                        <stop offset="0" stop-color="#f9d6a1" class="stopColorf9d6a1 svgShape"></stop>
                        <stop offset=".338" stop-color="#f9d3a0" class="stopColorf9d3a0 svgShape"></stop>
                        <stop offset=".557" stop-color="#f9cb9d" class="stopColorf9cb9d svgShape"></stop>
                        <stop offset=".743" stop-color="#f9bc97" class="stopColorf9bc97 svgShape"></stop>
                        <stop offset=".91" stop-color="#f8a78f" class="stopColorf8a78f svgShape"></stop>
                        <stop offset="1" stop-color="#f89889" class="stopColorf89889 svgShape"></stop>
                    </linearGradient>
                    <path fill="url(#l)"
                        d="M1692.104,648.954c0,4.562-0.369,9.04-1.088,13.409
    c-0.845,5.273-2.201,10.387-4.001,15.284c-6.094,16.564-17.317,30.676-31.755,40.368c-13.216,8.889-29.128,14.07-46.286,14.07
    h-47.106c-6.595,0-13.007,0.77-19.15,2.218c-2.344,0.552-4.637,1.197-6.897,1.95c-4.746,1.557-9.308,3.541-13.626,5.893
    c-25.889,14.086-43.457,41.523-43.457,73.07c0,37.631,25.051,69.554,59.536,79.732c4.687,1.389,9.558,2.377,14.564,2.913
    c2.963,0.318,5.976,0.485,9.031,0.485h23.57c0,26.458-0.008,197.665-0.008,197.665H1482.67l-4.151-32.844
    c-9.81-77.715-45.616-149.588-100.749-205.223c-52.346-52.823-84.687-125.499-84.687-205.742
    c0-160.963,131.517-292.338,292.346-292.338c0.017,30.391,0.017,136.322,0.017,205.951h23.528
    C1654.882,565.815,1692.104,603.036,1692.104,648.954z"></path>
                    <path fill="#f9ebbe"
                        d="M1689.45,661.391c-9.048-5.173-19.938-5.332-29.136-0.418
    c-9.157,4.88-15.075,13.961-15.853,24.306l-3.666,34.844h-106.667l-3.674-34.844c-0.778-10.345-6.696-19.427-15.853-24.306
    c-9.19-4.913-20.079-4.754-29.127,0.418c-7.014,4.001-12.028,10.496-14.137,18.288c-2.109,7.792-1.046,15.928,2.988,22.917
    l9.592,16.631c5.365,9.299,15.359,15.074,26.089,15.074h11.358l0.829,7.843c4.318-2.352,8.88-4.336,13.626-5.893l-0.201-1.95
    h7.098c6.143-1.448,12.555-2.218,19.15-2.218h47.106c17.158,0,33.07-5.181,46.286-14.07c0,0,3.323-31.521,3.331-31.597
    c0.393-5.591,3.457-10.312,8.403-12.948c4.938-2.636,10.563-2.553,15.426,0.226c1.8,1.029,3.357,2.369,4.595,3.951
    c1.8-4.896,3.156-10.01,4.001-15.284C1690.505,662.019,1689.986,661.693,1689.45,661.391z M1510.007,720.123
    c-5.683,0-10.973-3.055-13.819-7.977l-9.592-16.631c-2.134-3.7-2.695-8.01-1.581-12.137c1.121-4.126,3.774-7.566,7.491-9.684
    c2.494-1.431,5.198-2.143,7.901-2.143c2.561,0,5.122,0.636,7.525,1.917c4.938,2.636,8.002,7.357,8.404,12.948
    c0,0.075,0.008,0.159,0.017,0.234l3.524,33.471H1510.007z M1578.691,1143.519l-25.855-245.659
    c-5.005-0.536-9.877-1.523-14.564-2.913l26.323,250.061c0.209,1.958,1.189,3.641,2.612,4.771
    c1.406,1.138,3.239,1.733,5.173,1.532c1.783-0.193,3.339-1.021,4.469-2.243C1578.18,1147.62,1578.917,1145.628,1578.691,1143.519
    z"
                        class="colorf9ebbe svgShape"></path>
                    <linearGradient id="m" x1="1555.459" x2="1553.031" y1="1239.623" y2="1030.198"
                        gradientUnits="userSpaceOnUse">
                        <stop offset="0" stop-color="#f9bc97" class="stopColorf9bc97 svgShape"></stop>
                        <stop offset=".371" stop-color="#f9bf99" class="stopColorf9bf99 svgShape"></stop>
                        <stop offset=".613" stop-color="#f9c7a0" class="stopColorf9c7a0 svgShape"></stop>
                        <stop offset=".817" stop-color="#f9d6ad" class="stopColorf9d6ad svgShape"></stop>
                        <stop offset="1" stop-color="#f9ebbe" class="stopColorf9ebbe svgShape"></stop>
                    </linearGradient>
                    <path fill="url(#m)"
                        d="M1563.892,1002.928c6.52-3.382,13.819-5.449,21.536-5.867v221.787h-62.992l12.814-172.572
    c0.98-13.183,6.696-24.943,15.409-33.664C1554.535,1008.737,1558.996,1005.456,1563.892,1002.928z"></path>
                    <linearGradient id="n" x1="1571.799" x2="1573.579" y1="1349.923" y2="1300.351"
                        gradientUnits="userSpaceOnUse">
                        <stop offset="0" stop-color="#3bc8e0" class="stopColor3bc8e0 svgShape"></stop>
                        <stop offset="1" stop-color="#96c6c9" class="stopColor96c6c9 svgShape"></stop>
                    </linearGradient>
                    <path fill="url(#n)"
                        d="M1585.42,1292.521v53.116c-13.844-0.31-25.076-11.199-25.913-24.909
    c-0.034-0.544-0.05-1.097-0.05-1.649C1559.457,1304.607,1571.024,1292.839,1585.42,1292.521z"></path>
                    <linearGradient id="o" x1="1484.118" x2="1568.869" y1="1221.886" y2="1197.045"
                        gradientUnits="userSpaceOnUse">
                        <stop offset="0" stop-color="#3bc8e0" class="stopColor3bc8e0 svgShape"></stop>
                        <stop offset="1" stop-color="#96c6c9" class="stopColor96c6c9 svgShape"></stop>
                    </linearGradient>
                    <path fill="url(#o)"
                        d="M1585.424,1091.616v232.25h-0.272c-8.839,0-17.426-1.088-25.645-3.139
    c-36.083-8.989-64.926-36.51-75.656-71.973c-1.875-6.194-3.198-12.639-3.909-19.259c-0.402-3.758-0.611-7.583-0.611-11.45
    v-126.428H1585.424z"></path>
                    <linearGradient id="p" x1="1527.993" x2="1527.461" y1="1127.835" y2="1157.138"
                        gradientUnits="userSpaceOnUse">
                        <stop offset="0" stop-color="#f6e4bf" class="stopColorf6e4bf svgShape"></stop>
                        <stop offset=".546" stop-color="#78cacb" class="stopColor78cacb svgShape"></stop>
                        <stop offset="1" stop-color="#13b5d5" class="stopColor13b5d5 svgShape"></stop>
                    </linearGradient>
                    <path fill="url(#p)"
                        d="M1577.217,1129.49l8.211-0.611v19.544c0,0-105.604,7.843-105.847,7.843
        c-0.084,0-0.167,0-0.251-0.008c-4.947-0.125-9.081-3.976-9.458-9.014c-0.393-5.365,3.633-10.044,8.998-10.437L1577.217,1129.49z
        "></path>
                    <linearGradient id="q" x1="1527.993" x2="1527.461" y1="1174.23" y2="1203.524"
                        gradientUnits="userSpaceOnUse">
                        <stop offset="0" stop-color="#f6e4bf" class="stopColorf6e4bf svgShape"></stop>
                        <stop offset=".546" stop-color="#78cacb" class="stopColor78cacb svgShape"></stop>
                        <stop offset="1" stop-color="#13b5d5" class="stopColor13b5d5 svgShape"></stop>
                    </linearGradient>
                    <path fill="url(#q)"
                        d="M1525.34,1179.735l60.088-4.461v19.536c0,0-105.604,7.843-105.847,7.843
        c-0.084,0-0.167,0-0.251-0.008c-4.947-0.125-9.081-3.976-9.458-9.014c-0.393-5.365,3.633-10.036,8.998-10.437L1525.34,1179.735z
        "></path>
                    <linearGradient id="r" x1="1527.993" x2="1527.461" y1="1220.616" y2="1249.911"
                        gradientUnits="userSpaceOnUse">
                        <stop offset="0" stop-color="#f6e4bf" class="stopColorf6e4bf svgShape"></stop>
                        <stop offset=".546" stop-color="#78cacb" class="stopColor78cacb svgShape"></stop>
                        <stop offset="1" stop-color="#13b5d5" class="stopColor13b5d5 svgShape"></stop>
                    </linearGradient>
                    <path fill="url(#r)"
                        d="M1585.428,1221.66c-0.008,6.621-0.008,13.141,0,19.544c0,0-105.604,7.834-105.847,7.834
        c-5.055,0-9.324-3.901-9.709-9.014c-0.393-5.374,3.633-10.044,8.998-10.446L1585.428,1221.66z"></path>
                </g>
                <g>
                    <linearGradient id="s" x1="2016.564" x2="1989.17" y1="1059.036" y2="1059.797"
                        gradientUnits="userSpaceOnUse">
                        <stop offset="0" stop-color="#f99790" class="stopColorf99790 svgShape"></stop>
                        <stop offset="1" stop-color="#e06a70" class="stopColore06a70 svgShape"></stop>
                    </linearGradient>
                    <path fill="url(#s)"
                        d="M2050.631,1046.79c-11.965,3.6-68.817,18.02-100.92,19.534
        c-23.99-8.134-50.945-3.056-105.499-9.556c0,0-5.295-7.37-7.097-19.228c-0.538-3.544-5.347-22.112-5.347-22.112
        s-7.494-15.738-7.743,22.169c-1.64,6.36-6.795,29.206,8.319,32.775c1.845,0.436,5.688-0.08,7.584-0.081
        c26.98-0.027,63.819,27.974,81.883,31.361c8.185,1.131,17.356-0.313,26.1-1.327c13.1,3.729,32.236,10.324,51.942,11.108
        c27.28,1.085,69.29-17.061,76.402-26.926C2083.366,1074.641,2057.52,1045.514,2050.631,1046.79z"></path>
                    <linearGradient id="t" x1="-9484.042" x2="-9361.591" y1="-2179.623"
                        y2="-2179.623"
                        gradientTransform="scale(-1 1) rotate(-18.21 4395.501 -23738.99)"
                        gradientUnits="userSpaceOnUse">
                        <stop offset="0" stop-color="#12c3db" class="stopColor12c3db svgShape"></stop>
                        <stop offset=".968" stop-color="#2f469c" class="stopColor2f469c svgShape"></stop>
                    </linearGradient>
                    <path fill="url(#t)"
                        d="M1987.312,1060.347c20.614-6.16,47.265-16.165,82.944-25.31
        c9.177-2.682,18.578,0.684,25.909,6.82c7.331,6.136,11.906,15.113,14.039,24.432c1.312,5.73,1.494,12.483-2.62,16.683
        c-2.768,2.827-7.139,3.013-10.7,4.738c-28.283,13.696-60.413,17.123-89.255,29.454
        C2007.147,1109.079,1996.05,1064.51,1987.312,1060.347z"></path>
                    <linearGradient id="u" x1="-9268.701" x2="-9256.83" y1="558.992" y2="567.334"
                        gradientTransform="scale(-1 1) rotate(-2.229 5849.05 -184585.26)"
                        gradientUnits="userSpaceOnUse">
                        <stop offset="0" stop-color="#f99790" class="stopColorf99790 svgShape"></stop>
                        <stop offset="1" stop-color="#e06a70" class="stopColore06a70 svgShape"></stop>
                    </linearGradient>
                    <path fill="url(#u)"
                        d="M2081.161,997.815c0.947,0.527,1.963,1.104,2.417,2.087
    c0.502,1.087,0.179,2.359-0.171,3.505c-4.894,15.997-13.789,30.752-25.65,42.549c-3.09-1.818-4.75-5.279-6.25-8.535
    c-7.834-17.019-17.219-35.114-34.16-43.116c6.252,2.953,22.08-24.176,31.295-22.344c4.325,0.86,11.206,10.768,14.776,13.723
    C2068.944,990.257,2074.891,994.328,2081.161,997.815z"></path>
                    <path fill="#12c3db"
                        d="M2043.89,1073.536c6.307,49.88,38.877,61.424,44.726,108.155
        c13.419-6.328,66.443-1.389,79.862-7.717c2.2-1.038,4.534-2.195,5.744-4.305c1.377-2.4,0.943-5.388,0.444-8.109
        c-7.334-39.983-10.985-71.864-21.561-110.643c-13.762-50.462-71.945-53.102-71.945-53.102
        c-7.333,16.531-17.517,24.915-31.923,34.771C2049.238,1032.585,2042.032,1058.838,2043.89,1073.536z"
                        class="color12c3db svgShape"></path>
                    <linearGradient id="v" x1="-9308.894" x2="-9250.481" y1="636.432" y2="587.123"
                        gradientTransform="scale(-1 1) rotate(-2.229 5849.05 -184585.26)"
                        gradientUnits="userSpaceOnUse">
                        <stop offset="0" stop-color="#12c3db" class="stopColor12c3db svgShape"></stop>
                        <stop offset=".968" stop-color="#2f469c" class="stopColor2f469c svgShape"></stop>
                    </linearGradient>
                    <path fill="url(#v)"
                        d="M2045.911,1047.317c6.332-6.285,20.665-13.764,28.827-17.391
        c10.858-4.825,17.676-1.598,26.807,4.932c4.92,3.518,11.328,6.543,15.169,11.335c11.067,13.808-0.685,37.51-4.372,51.966
        c-7.042,27.609-0.547,38.074-7.254,43.598c-4.098,3.375-10.214,1.367-15.028-0.871c-5.012-2.331-10.065-4.86-14.923-7.687
        c-13.645-16.729-27.93-33.415-31.248-59.662C2042.952,1066.118,2044.323,1055.76,2045.911,1047.317z"></path>
                    <g>
                        <path fill="#f99790"
                            d="M2006.956,966.559c-3.085,11.423-2.817,35.514,9.713,49.234
            c12.53,13.72,24.744-13.859,26.45-19.054c1.706-5.196,6.468-9.544,6.222-24.595c-0.245-15.05-18.597-28.472-28.274-23.01
            C2011.39,954.595,2009.192,958.284,2006.956,966.559z"
                            class="colorf99790 svgShape"></path>
                        <linearGradient id="w" x1="-9138.946" x2="-9215.443" y1="1013.63"
                            y2="1049.56" gradientTransform="matrix(-1 0 0 1 -7131.389 0)"
                            gradientUnits="userSpaceOnUse">
                            <stop offset="0" stop-color="#1f6b97" class="stopColor1f6b97 svgShape"></stop>
                            <stop offset=".368" stop-color="#1e557d"
                                class="stopColor1e557d svgShape"></stop>
                            <stop offset=".749" stop-color="#1d4468"
                                class="stopColor1d4468 svgShape"></stop>
                            <stop offset="1" stop-color="#1d3e60" class="stopColor1d3e60 svgShape"></stop>
                        </linearGradient>
                        <path fill="url(#w)"
                            d="M2042.128,984.744c0,0-1.026,1.641-2.612,3.801c-3.967,8.086-11.012,8.434-19.334,9.144
            c-4.686-0.535-8.307,0.555-11.033,2.683c-4.26,3.336-2.968,7.147-10.596,16.613c-8.931,11.086-19.994,19.907-12.081,28.875
            c12.752,16.185,40.46,12.454,52.471-12.253c3.415-7.076,5.164-16.476,5.973-24.305c2.624-9.131,2.127-10.014,0.949-14.59
            C2044.412,989.105,2042.128,984.744,2042.128,984.744z"></path>
                        <linearGradient id="x" x1="-9226.891" x2="-9244.446" y1="540.866"
                            y2="521.65"
                            gradientTransform="scale(-1 1) rotate(-2.229 5849.05 -184585.26)"
                            gradientUnits="userSpaceOnUse">
                            <stop offset="0" stop-color="#f99790" class="stopColorf99790 svgShape"></stop>
                            <stop offset="1" stop-color="#e06a70" class="stopColore06a70 svgShape"></stop>
                        </linearGradient>
                        <path fill="url(#x)"
                            d="M2006.956,966.559c1.908-7.063,3.793-10.786,10.321-15.12
            c10.872,1.661,21.865,5.447,30.205,12.553c1.135,2.586,1.814,5.34,1.86,8.153c0.097,5.953-0.591,10.228-1.561,13.547
            c-12.735-5.127-28.802-5.592-42.456-5.773C2005.387,974.722,2006.014,970.048,2006.956,966.559z"></path>
                        <linearGradient id="y" x1="-9116.156" x2="-9214.033" y1="936.715"
                            y2="973.971" gradientTransform="matrix(-1 0 0 1 -7131.389 0)"
                            gradientUnits="userSpaceOnUse">
                            <stop offset="0" stop-color="#1f6b97" class="stopColor1f6b97 svgShape"></stop>
                            <stop offset=".368" stop-color="#1e557d"
                                class="stopColor1e557d svgShape"></stop>
                            <stop offset=".749" stop-color="#1d4468"
                                class="stopColor1d4468 svgShape"></stop>
                            <stop offset="1" stop-color="#1d3e60" class="stopColor1d3e60 svgShape"></stop>
                        </linearGradient>
                        <path fill="url(#y)"
                            d="M2003.466,971.254c-10.6-2.104-26.048-4.767-27.114-16.487
        c-0.533-11.72,1.065-24.504,7.467-35.164c1.69-2.12,3.767-3.919,6.19-5.365c8.184-5.816,19.37-3.685,25.763,3.773
        c3.05,4.575,3.383,11.899,9.056,13.318c7.458,1.065,16.514-4.794,22.274,1.896c3.929,4.013,7.021,9.49,11.259,13.072
        c1.236,1.082,2.513,2.079,3.757,3.144c15.081,15.081,1.067,34.714-14.383,37.289c-3.729,0.533-6.925-3.729-10.654-5.327
        c-4.427-2.656-9.984-0.43-12.252,3.729c-0.349-3.487,1.409-7.656,0.767-12.115c0.149-1.667-0.442-2.767-1.335-3.585
        c-2.68-1.722-3.383-2.51-6.984-1.984c-3.101,1.17-6.298,1.703-9.677,3.283C2005.516,970.945,2004.039,971.06,2003.466,971.254z"></path>
                    </g>
                    <g>
                        <path fill="#f99790"
                            d="M1939.058,1027.986c0,0-58.507,1.344-61.548,1.609c-20.132,1.758-32.19-1.421-32.19-1.421
            s-6.179-6.646-9.457-18.183c-0.98-3.448-8.085-21.264-8.085-21.264s-9.413-14.671-4.895,22.966
            c-0.828,6.516-3.07,29.828,12.373,31.469c1.885,0.2,7.514-1.034,7.514-1.034s37.792,15.267,60.021,20.076
            c13.486,6.454,66.969-1.125,80.131,0.219C1982.922,1062.423,1952.449,1026.565,1939.058,1027.986z"
                            class="colorf99790 svgShape"></path>
                        <linearGradient id="z" x1="1992.9" x2="2024.202" y1="1021.854" y2="1042.35"
                            gradientUnits="userSpaceOnUse">
                            <stop offset="0" stop-color="#f99790" class="stopColorf99790 svgShape"></stop>
                            <stop offset="1" stop-color="#e06a70" class="stopColore06a70 svgShape"></stop>
                        </linearGradient>
                        <path fill="url(#z)"
                            d="M1939.058,1027.986c28.501,4.917,122.631-5.765,136.222-8.2
            c6.99-0.476,29.322,31.424,21.125,40.409c-8.197,8.984-41.719,19.542-68.695,15.333c-26.975-4.209-35.436-13.993-55.831-14.319
            C1951.484,1060.882,1939.058,1027.986,1939.058,1027.986z"></path>
                        <path fill="#12c3db"
                            d="M2010.823,1025.986c21.185-3.753,48.122-18.231,84.615-23.221
        c9.424-1.611,19.063,10.41,25.641,17.347c6.578,6.937,10.093,16.379,11.142,25.882c0.645,5.843,0.051,12.572-4.517,16.272
        c-3.074,2.49-7.438,2.174-11.173,3.478c-29.668,10.359-61.979,10.075-92.046,19.014
        C2024.933,1076.673,2019.026,1031.124,2010.823,1025.986z"
                            class="color12c3db svgShape"></path>
                    </g>
                    <g>
                        <linearGradient id="A" x1="-9515.189" x2="-9262.809" y1="890.945"
                            y2="751.472"
                            gradientTransform="scale(-1 1) rotate(-2.229 5849.05 -184585.26)"
                            gradientUnits="userSpaceOnUse">
                            <stop offset="0" stop-color="#f9d6a1" class="stopColorf9d6a1 svgShape"></stop>
                            <stop offset=".417" stop-color="#f8b594"
                                class="stopColorf8b594 svgShape"></stop>
                            <stop offset=".768" stop-color="#f8a08c"
                                class="stopColorf8a08c svgShape"></stop>
                            <stop offset="1" stop-color="#f89889" class="stopColorf89889 svgShape"></stop>
                        </linearGradient>
                        <path fill="url(#A)"
                            d="M2192.277,1207.124c6.079,34.8,11.943,46.693,31.892,99.264
            c84.94,42.134,80.202,103.987,123.713,163.503c-6.045,6.776-25.55,5.535-31.596,12.31
            c-57.136-51.782-90.552-90.587-140.504-118.417c-13.452-7.495-56.938-123.7-62.276-146.038
            c-4.776-1.288-13.879-44.02-13.879-44.02s70.142-15.059,73.223-12.213C2182.833,1170.737,2187.351,1178.925,2192.277,1207.124z
            "></path>
                        <linearGradient id="B" x1="2287.592" x2="2358.087" y1="1492.172"
                            y2="1492.172" gradientUnits="userSpaceOnUse">
                            <stop offset="0" stop-color="#12c3db" class="stopColor12c3db svgShape"></stop>
                            <stop offset=".968" stop-color="#2f469c"
                                class="stopColor2f469c svgShape"></stop>
                        </linearGradient>
                        <path fill="url(#B)"
                            d="M2316.253,1475.37c0,0-1.125,17.474-3.88,21.902s-24.782,17.287-24.782,17.287
            s27.502,3.987,41.755-6.213c8.267-5.916,11.64-8.908,16.443-11.533l-1.209-6.46c0,0,3.348,4.867,3.567,4.054
            c0.219-0.812,9.94-7.5,9.94-7.5s-2.83-7.241-4.372-9.167s-11.822-8.723-11.822-8.723L2316.253,1475.37z"></path>
                        <g>
                            <path fill="#f9d6a1"
                                d="M2192.232,1208.266c-1.46,37.516-83.286,42.405-157.613,98.122
            c13.171,47.159-22.918,90.629-19.327,175.761c-9.195,0.648-24.164-2.107-33.359-1.459
            c-2.959-77.866-21.855-199.16-14.477-213.264c7.176-13.717,98.283-77.731,120.502-85.406
            c0.811-4.886-1.316-10.855-1.316-10.855s67.915-10.388,88.024-9.606C2174.667,1161.56,2193.527,1174.989,2192.232,1208.266z"
                                class="colorf9d6a1 svgShape"></path>
                            <linearGradient id="C" x1="1940.828" x2="2013.76" y1="1494.074"
                                y2="1494.074" gradientUnits="userSpaceOnUse">
                                <stop offset="0" stop-color="#12c3db"
                                    class="stopColor12c3db svgShape"></stop>
                                <stop offset=".968" stop-color="#2f469c"
                                    class="stopColor2f469c svgShape"></stop>
                            </linearGradient>
                            <path fill="url(#C)"
                                d="M1983.063,1477.164c0,0-10.121,13.772-14.789,16.014
            c-4.668,2.242-27.446,12.179-27.446,12.179s18.606,6.656,36.09,5.491c10.141-0.676,14.582-1.426,20.048-1.152l2.358-5.913
            c0,0,0.298,5.687,0.911,5.131c0.613-0.556,12.397-1.13,12.397-1.13s1.387-7.374,1.084-9.734
            c-0.303-2.361-3.105-17.701-3.105-17.701L1983.063,1477.164z"></path>
                        </g>
                    </g>
                </g>
                <g>
                    <linearGradient id="D" x1="1229.133" x2="1484.771" y1="1099.534" y2="1099.534"
                        gradientUnits="userSpaceOnUse">
                        <stop offset="0" stop-color="#f99790" class="stopColorf99790 svgShape"></stop>
                        <stop offset="1" stop-color="#e06a70" class="stopColore06a70 svgShape"></stop>
                    </linearGradient>
                    <path fill="url(#D)"
                        d="M1482.589,1080.639c-0.249-37.907-7.743-22.169-7.743-22.169s-4.809,18.568-5.348,22.112
        c-1.802,11.858-7.097,19.228-7.097,19.228c-54.907,6.542-81.359,1.37-105.499,9.556c-32.103-1.514-88.955-15.934-100.92-19.534
        c-6.889-1.276-32.735,27.851-25.624,37.717c7.111,9.866,48.448,17.268,75.728,16.183c19.706-0.784,38.842-7.378,51.942-11.108
        c8.744,1.014,17.916,2.458,26.1,1.327c18.064-3.387,55.576-20.645,82.556-20.618c1.896,0.002,5.739,0.517,7.584,0.082
        C1489.384,1109.844,1484.229,1086.998,1482.589,1080.639z"></path>
                    <linearGradient id="E" x1="2056.379" x2="2178.83" y1="1662.279" y2="1662.279"
                        gradientTransform="rotate(-18.213 -32.891 3891.212)"
                        gradientUnits="userSpaceOnUse">
                        <stop offset="0" stop-color="#f9d6a1" class="stopColorf9d6a1 svgShape"></stop>
                        <stop offset=".417" stop-color="#f8b594" class="stopColorf8b594 svgShape"></stop>
                        <stop offset=".768" stop-color="#f8a08c" class="stopColorf8a08c svgShape"></stop>
                        <stop offset="1" stop-color="#f89889" class="stopColorf89889 svgShape"></stop>
                    </linearGradient>
                    <path fill="url(#E)"
                        d="M1319.302,1103.388c-20.614-6.16-47.265-16.165-82.944-25.311
        c-9.177-2.682-18.578,0.684-25.909,6.82c-7.331,6.136-11.906,15.113-14.039,24.432c-1.312,5.73-1.494,12.483,2.62,16.683
        c2.768,2.827,7.139,3.013,10.7,4.737c28.283,13.696,60.413,17.123,89.255,29.454
        C1299.467,1152.12,1310.563,1107.551,1319.302,1103.388z"></path>
                    <linearGradient id="F" x1="2882.808" x2="2894.679" y1="1079.221" y2="1087.563"
                        gradientTransform="rotate(-2.229 1420.746 42995.064)"
                        gradientUnits="userSpaceOnUse">
                        <stop offset="0" stop-color="#f99790" class="stopColorf99790 svgShape"></stop>
                        <stop offset="1" stop-color="#e06a70" class="stopColore06a70 svgShape"></stop>
                    </linearGradient>
                    <path fill="url(#F)"
                        d="M1224.637,1044.934c-0.947,0.526-1.963,1.103-2.417,2.087
    c-0.502,1.087-0.179,2.359,0.171,3.505c4.894,15.997,13.789,30.752,25.65,42.549c3.09-1.817,4.751-5.279,6.25-8.535
    c7.834-17.019,17.219-35.115,34.16-43.116c-6.252,2.953-22.08-24.176-31.295-22.344c-4.325,0.86-11.206,10.769-14.776,13.723
    C1236.854,1037.376,1230.907,1041.448,1224.637,1044.934z"></path>
                    <path fill="#f9d6a1"
                        d="M1238.817,1128.064c-24.693,43.795-73.006,40.652-96.086,81.704
        c-10.031-10.931-47.194-24.883-57.225-35.814c-1.645-1.792-12.048,10.708-13.258,12.818
        c-9.665,16.85,10.73-24.319,12.221-26.651c21.904-34.244,34.395-62.393,64.887-89.276
        c39.233-34.591,83.578-26.973,83.578-26.973c0.54,18.077,6.799,29.688,16.411,44.258
        C1249.345,1088.13,1246.093,1115.159,1238.817,1128.064z"
                        class="colorf9d6a1 svgShape"></path>
                    <linearGradient id="G" x1="4046.572" x2="4104.982" y1="-465.429" y2="-514.736"
                        gradientTransform="rotate(19.982 -1885.946 -7780.956)"
                        gradientUnits="userSpaceOnUse">
                        <stop offset="0" stop-color="#f9d6a1" class="stopColorf9d6a1 svgShape"></stop>
                        <stop offset=".417" stop-color="#f8b594" class="stopColorf8b594 svgShape"></stop>
                        <stop offset=".768" stop-color="#f8a08c" class="stopColorf8a08c svgShape"></stop>
                        <stop offset="1" stop-color="#f89889" class="stopColorf89889 svgShape"></stop>
                    </linearGradient>
                    <path fill="url(#G)"
                        d="M1246.856,1103.026c-3.487-8.212-13.929-20.555-20.114-26.998
        c-8.229-8.572-15.761-8.161-26.683-5.568c-5.885,1.398-12.961,1.775-18.328,4.76c-15.466,8.6-13.545,34.986-15.596,49.763
        c-3.917,28.223-13.886,35.456-9.765,43.105c2.518,4.674,8.939,5.127,14.242,4.874c5.521-0.263,11.155-0.695,16.721-1.475
        c18.956-10.33,38.489-20.378,51.483-43.423C1242.489,1121.551,1245.135,1111.443,1246.856,1103.026z"></path>
                    <g>
                        <path fill="#f99790"
                            d="M1297.632,1005.591c4.74,11.639,7.595,37.069-3.825,53.164
            c-11.421,16.095-27.889-11.385-30.363-16.64c-2.475-5.254-8.06-9.218-9.763-25.115c-1.702-15.897,15.894-32.435,26.807-27.939
            C1291.401,993.557,1294.198,997.159,1297.632,1005.591z"
                            class="colorf99790 svgShape"></path>
                        <linearGradient id="H" x1="2420.391" x2="2401.746" y1="1449.18"
                            y2="1428.771" gradientTransform="rotate(-9.271 -738.962 8189.085)"
                            gradientUnits="userSpaceOnUse">
                            <stop offset="0" stop-color="#f99790" class="stopColorf99790 svgShape"></stop>
                            <stop offset="1" stop-color="#e06a70" class="stopColore06a70 svgShape"></stop>
                        </linearGradient>
                        <path fill="url(#H)"
                            d="M1297.632,1005.591c-2.931-7.197-5.403-10.875-12.849-14.594
            c-11.243,3.167-22.339,8.59-30.204,17.167c-0.86,2.874-1.216,5.866-0.898,8.836c0.673,6.288,1.955,10.704,3.41,14.076
            c12.756-7.063,29.632-9.646,44.001-11.616C1300.349,1013.991,1299.08,1009.146,1297.632,1005.591z"></path>
                        <linearGradient id="I" x1="1279.487" x2="1283.081" y1="993.597" y2="1100.83"
                            gradientUnits="userSpaceOnUse">
                            <stop offset="0" stop-color="#f04650" class="stopColorf04650 svgShape"></stop>
                            <stop offset=".508" stop-color="#734968"
                                class="stopColor734968 svgShape"></stop>
                            <stop offset=".931" stop-color="#074d7d"
                                class="stopColor074d7d svgShape"></stop>
                            <stop offset="1" stop-color="#064d80" class="stopColor064d80 svgShape"></stop>
                        </linearGradient>
                        <path fill="url(#I)"
                            d="M1327.017,973.58c-0.898-3.842-3.006-10.261-5.696-14.814
        c-9.19-16.129-31.612-20.966-41.405-8.425c-0.382,1.978-0.811,3.972-1.314,5.925c-4.772,16.678-24.575,22.901-38.72,29.125
        c-2.263,0.566-4.526,2.829-6.221,5.658c-9.618,12.447,7.356,20.936,11.882,31.119c0.566,2.263-0.566,4.526-1.589,5.943
        c5.434,4.72,11.515,10.129,16.982,3.899c1.116-1.271,2.549-3.674,4.71-5.938c1.963-2.772,4.792-2.772,7.873-3.706
        c2.844,0.302,6.099,8.722,7.708,6.888c2.14-2.439-2.277-11.245,0.028-13.874c0.634-0.723,1.764-1.451,3.137-2.119
        c3.453-0.685,6.524-2.431,9.706-3.074c1.568-0.248,2.796-0.266,3.321,0.029c13.155-1.106,24.212-9.281,29.032-20.299
        C1328.431,984.543,1328.29,979.026,1327.017,973.58z"></path>
                    </g>
                    <g>
                        <path fill="#f99790"
                            d="M1366.74,1075.106c0,0,58.507,1.344,61.548,1.609c20.132,1.758,32.19-1.421,32.19-1.421
        s6.179-6.645,9.457-18.183c0.98-3.448,8.085-21.264,8.085-21.264s9.413-14.671,4.895,22.966
        c0.828,6.516,3.07,29.828-12.373,31.469c-1.885,0.2-7.513-1.034-7.513-1.034s-29.402,7.318-51.63,12.127
        c-13.486,6.454-66.969-1.126-80.132,0.219C1331.266,1101.594,1353.349,1073.684,1366.74,1075.106z"
                            class="colorf99790 svgShape"></path>
                        <path fill="#f99790"
                            d="M1366.74,1075.106c-28.501,4.917-122.63-5.765-136.222-8.2
            c-6.989-0.476-29.322,31.424-21.125,40.408c8.197,8.984,50.11,11.593,77.085,7.384c26.975-4.209,35.436-13.993,55.831-14.319
            C1362.704,1100.052,1366.74,1075.106,1366.74,1075.106z"
                            class="colorf99790 svgShape"></path>
                        <linearGradient id="J" x1="2919.258" x2="2910.37" y1="1118.721"
                            y2="1119.632" gradientTransform="rotate(-2.229 1420.746 42995.064)"
                            gradientUnits="userSpaceOnUse">
                            <stop offset="0" stop-color="#f99790" class="stopColorf99790 svgShape"></stop>
                            <stop offset="1" stop-color="#e06a70" class="stopColore06a70 svgShape"></stop>
                        </linearGradient>
                        <path fill="url(#J)"
                            d="M1230.386,1114.725c18.473,2.853,45.663,2.839,65.594-1.885
            c-7.784-36.247-3.985-33.546-4.365-39.196c-6.151-0.512-12.201-1.063-17.974-1.625
            C1256.618,1082.838,1236.663,1095.757,1230.386,1114.725z"></path>
                        <path fill="#f9d6a1"
                            d="M1294.975,1073.105c-21.185-3.753-48.808-10.633-85.301-15.623
        c-9.424-1.611-18.377,2.812-24.955,9.749c-6.578,6.937-10.093,16.379-11.142,25.882c-0.645,5.843-0.051,12.572,4.517,16.272
        c3.074,2.49,7.438,2.174,11.173,3.478c29.668,10.359,61.979,10.075,92.046,19.014
        C1280.864,1123.792,1286.772,1078.244,1294.975,1073.105z"
                            class="colorf9d6a1 svgShape"></path>
                    </g>
                    <g>
                        <linearGradient id="K" x1="3341.545" x2="3593.91" y1="389.904" y2="250.44"
                            gradientTransform="rotate(10.865 -2818.839 -11826.437)"
                            gradientUnits="userSpaceOnUse">
                            <stop offset="0" stop-color="#0c6990" class="stopColor0c6990 svgShape"></stop>
                            <stop offset=".003" stop-color="#0c6990"
                                class="stopColor0c6990 svgShape"></stop>
                            <stop offset=".424" stop-color="#0b4d6e"
                                class="stopColor0b4d6e svgShape"></stop>
                            <stop offset=".771" stop-color="#0a3b59"
                                class="stopColor0a3b59 svgShape"></stop>
                            <stop offset="1" stop-color="#0a3551" class="stopColor0a3551 svgShape"></stop>
                        </linearGradient>
                        <path fill="url(#K)"
                            d="M1053.737,1216.477c-13.806,32.518-17.569,57.18-48.91,103.864
        c-92.277,21.792-106.322,68.703-162.186,116.812c4.353,7.969,23.632,11.18,27.985,19.149
        c67.383-37.49,108.723-67.714,163.681-83.501c14.801-4.252,83.486-107.581,93.746-128.129
        c4.944-0.173,23.492-39.731,23.492-39.731s-64.905-30.561-68.551-28.486C1071.18,1183.177,1064.924,1190.128,1053.737,1216.477z
        "></path>
                        <linearGradient id="L" x1="828.629" x2="891.026" y1="1466.152" y2="1466.152"
                            gradientUnits="userSpaceOnUse">
                            <stop offset="0" stop-color="#e8c38e" class="stopColore8c38e svgShape"></stop>
                            <stop offset=".417" stop-color="#e6a281"
                                class="stopColore6a281 svgShape"></stop>
                            <stop offset=".768" stop-color="#e58d79"
                                class="stopColore58d79 svgShape"></stop>
                            <stop offset="1" stop-color="#e58576" class="stopColore58576 svgShape"></stop>
                        </linearGradient>
                        <path fill="url(#L)"
                            d="M871.989,1449.818c0,0-2.863,17.274-1.184,22.212
        c1.68,4.938,20.221,22.453,20.221,22.453s-27.691-2.349-39.261-15.512c-6.711-7.635-9.319-11.313-13.402-14.958l2.642-6.018
        c0,0-4.363,3.982-4.393,3.141c-0.03-0.841-7.982-9.557-7.982-9.557s4.397-6.411,6.336-7.938
        c1.938-1.527,13.491-5.818,13.491-5.818L871.989,1449.818z"></path>
                    </g>
                    <g>
                        <linearGradient id="M" x1="1202.824" x2="1275.44" y1="1472.836"
                            y2="1472.836" gradientUnits="userSpaceOnUse">
                            <stop offset="0" stop-color="#e8c38e" class="stopColore8c38e svgShape"></stop>
                            <stop offset=".417" stop-color="#e6a281"
                                class="stopColore6a281 svgShape"></stop>
                            <stop offset=".768" stop-color="#e58d79"
                                class="stopColore58d79 svgShape"></stop>
                            <stop offset="1" stop-color="#e58576" class="stopColore58576 svgShape"></stop>
                        </linearGradient>
                        <path fill="url(#M)"
                            d="M1234.398,1455.696c0,0,9.547,14.176,14.119,16.608
        c4.572,2.432,26.923,13.296,26.923,13.296s-18.864,5.886-36.286,4.005c-10.104-1.092-14.511-2.024-19.984-1.974l-2.113-6.005
        c0,0-0.532,5.67-1.121,5.089c-0.59-0.581-12.34-1.638-12.34-1.638s-1.083-7.425-0.684-9.771c0.4-2.346,6.026-12.9,6.026-12.9
        L1234.398,1455.696z"></path>
                        <path fill="#0c6990"
                            d="M1065.869,1219.343c2.845,61.332,81.76,27.212,161.364,75.086
        c-28.244,60.029-8.691,88.649-21.764,165.366c8.643,3.206,25.69-1.044,34.333,2.162c24.72-73.897,47.271-196.57,39.893-210.674
        c-7.175-13.716-101.336-47.033-123.556-54.708c-0.342-3.212,1.224-5.213,1.224-5.213s-59.276-19.297-79.385-18.514
        C1077.978,1172.849,1064.325,1186.077,1065.869,1219.343z"
                            class="color0c6990 svgShape"></path>
                    </g>
                </g>
            </g>
        </svg>
    </g>
</svg>