<svg id="SvgjsSvg3782" width="550" height="550" xmlns="http://www.w3.org/2000/svg" version="1.1"
    xmlns:xlink="http://www.w3.org/1999/xlink" xmlns:svgjs="http://svgjs.com/svgjs">
    <defs id="SvgjsDefs3783"></defs>
    <g id="SvgjsG3784">
        <svg xmlns="http://www.w3.org/2000/svg" enable-background="new 0 0 3973.958 2802.207"
            viewBox="0 0 3973.958 2802.207" width="550" height="550">
            <g opacity=".3">
                <linearGradient id="a" x1="2161.032" x2="2158.472" y1="2140.706" y2="2316.602"
                    gradientUnits="userSpaceOnUse">
                    <stop offset="0" stop-color="#ef6069" class="stopColoref6069 svgShape"></stop>
                    <stop offset=".509" stop-color="#f9b5b9" class="stopColorf9b5b9 svgShape"></stop>
                    <stop offset=".892" stop-color="#f9f7f8" class="stopColorf9f7f8 svgShape"></stop>
                    <stop offset="1" stop-color="#ffffff" class="stopColorfff svgShape"></stop>
                </linearGradient>
                <ellipse cx="2159.469" cy="2248.081" fill="url(#a)" rx="1164.016" ry="74.195"></ellipse>
            </g>
            <path fill="#ef6069"
                d="M3108.475,1140.619c3.39,5.053,6.643,10.345,9.843,15.995c-1.881-1.424-7.386-4.788-11.508-6.541
    c-12.202-5.172-24.218-6.1-36.162-3.141c-3.948,0.98-7.754,2.479-9.568,3.451c17.884,8.49,41.376,11.018,58.834,9.2
    c6.936,11.945,17.094,36.72,21.572,54.613c-9.604-11.18-21.751-18.839-36.702-21.29c-5.864-0.994-13.358-0.818-17.229,0.012
    c13.893,12.982,37.447,22.107,54.823,24.531c5.525,21.663,8.47,46.691,8.755,58.237c-11.848-22.05-32.908-32.763-48.068-33.198
    c11.46,17.087,31.553,30.487,48.201,36.573c0.736,12.01,0.302,36.293-2.795,58.812c-6.81-22.363-24.714-38.309-40.748-42.173
    c7.113,18.356,24.117,35.913,40.287,45.52c-1.167,10.498-6.122,34.257-12.172,53.255c-2.623,8.234-0.003,3.637-4.172-8.866
    c-4.098-12.69-11.441-23.036-20.896-30.417c-2.306-1.795-6.048-4.348-8.671-5.524c3.884,20.316,17.899,40.317,31.353,52.15
    c-7.493,21.534-13.315,35.03-22.855,54.373c0.334-13.366-2.655-26.339-9.607-37.947c-4.494-7.463-10.709-13.717-14.246-16.136
    c0.07,20.493,9.879,42.592,22.323,57.1c-5.684,11.553-17.438,32.188-29.943,50.961c3.914-27.44-7.149-48.496-16.454-57.098
    c-2.912,21.124,3.951,43.796,14.578,59.916c-16.704,24.504-31.063,42.513-35.207,47.471c5.929-24.163-0.38-47.291-10.237-58.836
    c-5.531,21.296-0.909,44.683,8.095,61.462c-12.247,15.022-26.159,30.825-38.99,44.572c5.818-18.233,4.361-33.273,1.557-43.614
    c-1.939-7.16-5.067-13.458-6.967-16.141c-7.419,20.364-5.131,44.04,3.103,62.239c-15.971,16.889-21.884,22.957-41.458,42.257
    c7.772-20.951,6.609-40.931,0.204-55.874c-1.21-2.833-2.141-4.348-2.141-4.348c-8.994,20.464-7.741,44.408-0.5,62.585
    c-12.409,12-14.236,13.925-42.902,40.959c9.907-25.05,6.657-48.814,0.137-60.547c-10,20.054-9.667,44.244-2.612,62.873
    c-23.957,22.506-28.187,26.456-43.154,40.66c5.424-13.994,7.764-28.945,5.558-43.791c-1.593-10.741-4.947-17.032-4.947-17.032
    c-10.538,20.413-10.266,44.396-3.073,63.165c-9.999,9.412-26.789,25.728-42.484,41.513c9.332-26.129,5.621-49.961-0.422-61.095
    c-10.468,20.705-9.873,44.624-1.976,63.506c-24.703,25.128-35.689,37.887-40.631,43.292c4.24-14.078,5.602-29.739,2.704-44.392
    c-1.04-5.226-3.218-12.686-5.699-16.898c-9.766,20.853-8.348,45.261,0.732,63.831c-20.39,23.657-22.505,26.551-36.543,44.615
    c-1.901,2.588-0.955,2.262,0.173-5.398c3.506-22.955-1.801-44.545-8.415-54.382c-8.679,21.508-5.507,46.051,5.157,63.981
    c-16.426,22.368-24.036,34.34-33.233,49.264c3.064-26.745-4.73-50.497-12.737-60.477c-6.73,22.815-1.646,46.074,10.952,63.378
    c-3.072,4.992-6.896,11.56-11.029,18.987l3.495,2.98c19.547,2.025,42.196-2.66,59.266-15.052c-8.607-2.969-23.667-3.461-38.818,1.7
    c6.552,3.947,6.614,3.985,0.065,0.04c-5.506,1.819-12.618,5.267-19.814,10.268c11.28-19.484,18.503-31.577,31.377-50.157
    c19.76,4.222,43.7,1.526,61.312-9.186c-8.09-3.587-22.933-5.481-37.259-2.274c-8.528,1.908-15.432,4.812-22.125,8.676
    c13.971-20.169,24.281-32.802,35.901-46.954c19.942,6.098,42.865,5.213,62.203-4.477c-6.68-3.58-19.599-6.639-34.018-5.304
    c-7.753,0.705-15.865,2.909-23.238,5.935c-3.385,1.378-3.228,1.752-2.011,0.273c19.551-22.686,20.409-23.514,38.758-43.135
    c19.654,7.554,43.222,7.752,62.668-1.16c-12.31-7.296-36.387-10.371-60.313-1.28c19.661-20.337,35.323-35.733,41.81-41.925
    c19.339,8.33,42.98,9.209,63.02,0.458c-11.343-7-35.404-11.365-60.578-2.814c17.52-16.88,20.915-20.012,43.021-40.844
    c19.381,8.685,42.958,9.679,63.276,0.623c-10.187-6.209-34.269-11.585-60.8-2.947c9.201-8.64,34.025-31.934,43.106-40.722
    c19.667,8.602,43.544,8.935,63.662-0.902c-11.45-6.476-36.104-9.947-61.205-1.446c4.866-4.607,27.571-26.602,42.25-41.764
    c20.016,7.93,43.923,7.155,63.768-4.015c-1.43-0.709-8.388-3.575-19.18-4.6c-10.786-1.012-25.351-0.23-42.215,6.179
    c16.697-17.309,27.783-29.507,40.145-43.752c20.475,6.616,44.277,4.305,63.637-8.698c-12.374-4.859-37.22-4.812-61.425,6.113
    c13.198-15.424,25.355-30.638,36.968-46.593c22.563,5.351,46.11-0.671,62.772-14.857c-0.774-0.214-3-0.695-6.409-1.003
    c-15.246-1.405-34.713,2.195-54.359,13.107c14.822-20.736,21.967-32.255,32.28-49.918c21.636,2.672,44.468-4.922,60.757-22.719
    c-12.18-1.65-36.814,3.769-59.089,19.747c8.822-15.413,18.663-35.595,25.899-53.614c24.483-0.284,46.077-14.016,56.958-31.938
    c-8.605,0.278-22.403,5.631-31.957,11.099c-9.301,5.276-16.13,10.683-23.729,17.674c6.153-14.838,13.135-37.109,17.406-56.91
    c21.542-3.95,41.23-19.197,50.322-41.805c-3.495,0.753-11.096,3.669-20.205,9.791c-9.053,6.13-19.549,15.36-29.422,28.671
    c3.559-17.036,6.348-38.63,6.884-59.19c20.534-7.948,36.756-25.916,41.667-50.622c-11.305,4.922-25.168,20.313-32.201,30.899
    c-10.571,15.76-9.464,19.57-9.342,13.687c0.315-15.412-0.986-35.975-4.457-56.75c18.545-11.792,31.034-33.331,30.073-58.726
    c-11.613,8.647-25.056,32.813-30.637,55.356c-3.856-19.253-8.995-39.045-16.958-57.168c15.733-16.188,22.13-39.847,14.642-64.751
    c-4.738,5.987-9.354,18.841-11.441,27.003c-2.683,10.489-4.294,22.001-4.578,34.617c-4.047-9.656-9.985-21.06-17.691-32.985
    c-1.884-10.047-17.701-48.351-36.37-57.859C3081.004,1108.881,3093.178,1128.57,3108.475,1140.619z"
                class="coloref6069 svgShape"></path>
            <linearGradient id="b" x1="-2968.933" x2="-2789.135" y1="-1561.765" y2="-1099.428"
                gradientTransform="scale(-1 1) rotate(30.16 -8370.793 72.255)"
                gradientUnits="userSpaceOnUse">
                <stop offset="0" stop-color="#f9d6a1" class="stopColorf9d6a1 svgShape"></stop>
                <stop offset=".417" stop-color="#f8b594" class="stopColorf8b594 svgShape"></stop>
                <stop offset=".768" stop-color="#f8a08c" class="stopColorf8a08c svgShape"></stop>
                <stop offset="1" stop-color="#f89889" class="stopColorf89889 svgShape"></stop>
            </linearGradient>
            <path fill="url(#b)"
                d="M2993.338,2056.175c-22.183-62.82-9.29-160.773-15.178-228.022
            c-7.215-82.396-16.298-164.627-27.237-246.612c-21.3-159.631-45.513-322.082-86.026-478.071
            c-3.978,61.467-26.045,119.187-27.923,180.308c-2.607,84.858,14.383,175.188,27.285,258.814
            C2891.214,1717.3,2934.427,1889.501,2993.338,2056.175z"></path>
            <linearGradient id="c" x1="-2904.969" x2="-2675.365" y1="-1211.394" y2="-934.932"
                gradientTransform="scale(-1 1) rotate(31.743 -8156.11 97.826)"
                gradientUnits="userSpaceOnUse">
                <stop offset="0" stop-color="#f9d6a1" class="stopColorf9d6a1 svgShape"></stop>
                <stop offset=".417" stop-color="#f8b594" class="stopColorf8b594 svgShape"></stop>
                <stop offset=".768" stop-color="#f8a08c" class="stopColorf8a08c svgShape"></stop>
                <stop offset="1" stop-color="#f89889" class="stopColorf89889 svgShape"></stop>
            </linearGradient>
            <path fill="url(#c)"
                d="M3038.165,1234.162c6.082,54.715-38.189,144.796-48.07,201.219
            c-12.187,69.592-20.03,139.938-23.539,210.501c-5.75,115.621-22.292,305.073,32.988,409.639
            C3077.061,1802.839,3067.049,1494.024,3038.165,1234.162z"></path>
            <linearGradient id="d" x1="2837.742" x2="3039.906" y1="1402.159" y2="1871.467"
                gradientTransform="rotate(-7.65 4421.7 1818.132)" gradientUnits="userSpaceOnUse">
                <stop offset="0" stop-color="#f9d6a1" class="stopColorf9d6a1 svgShape"></stop>
                <stop offset=".417" stop-color="#f8b594" class="stopColorf8b594 svgShape"></stop>
                <stop offset=".768" stop-color="#f8a08c" class="stopColorf8a08c svgShape"></stop>
                <stop offset="1" stop-color="#f89889" class="stopColorf89889 svgShape"></stop>
            </linearGradient>
            <path fill="url(#d)"
                d="M2674.81,1363.995c113.13,79.042,186.754,203.973,234.041,333.626
            c21.852,59.914,38.701,121.462,54.115,183.299c12.277,49.253,44.529,125.09,36.265,173.039
            c-56.436,6.663-154.312-270.428-177.344-322.463c-27.106-61.242-53.094-122.978-77.945-185.17
            C2729.561,1510.335,2704.662,1384.852,2674.81,1363.995z"></path>
            <linearGradient id="e" x1="-2925.052" x2="-2735.074" y1="-1192.402" y2="-994.043"
                gradientTransform="scale(-1 1) rotate(18.156 -12303.939 -290.777)"
                gradientUnits="userSpaceOnUse">
                <stop offset="0" stop-color="#f9d6a1" class="stopColorf9d6a1 svgShape"></stop>
                <stop offset=".417" stop-color="#f8b594" class="stopColorf8b594 svgShape"></stop>
                <stop offset=".768" stop-color="#f8a08c" class="stopColorf8a08c svgShape"></stop>
                <stop offset="1" stop-color="#f89889" class="stopColorf89889 svgShape"></stop>
            </linearGradient>
            <path fill="url(#e)"
                d="M3107.869,1708.124c-57.244,101.982-108.356,213.035-106.096,329.963
            c58.5-108.691,117.001-217.382,175.502-326.073c29.764-55.3,59.853-111.449,73.839-172.673
            c7.914-34.644,22.154-110.959,30.948-153.049c-18.25,10.955-45.467,79.905-53.504,98.365
            c-10.976,25.209-23.261,49.828-36.138,74.113C3165.612,1609.32,3135.87,1658.238,3107.869,1708.124z"></path>
            <linearGradient id="f" x1="-2567.192" x2="-2703.416" y1="-1223.092" y2="-640.736"
                gradientTransform="scale(-1 1) rotate(23.961 -9478.157 -95.833)"
                gradientUnits="userSpaceOnUse">
                <stop offset="0" stop-color="#f9d6a1" class="stopColorf9d6a1 svgShape"></stop>
                <stop offset=".417" stop-color="#f8b594" class="stopColorf8b594 svgShape"></stop>
                <stop offset=".768" stop-color="#f8a08c" class="stopColorf8a08c svgShape"></stop>
                <stop offset="1" stop-color="#f89889" class="stopColorf89889 svgShape"></stop>
            </linearGradient>
            <path fill="url(#f)"
                d="M2699.635,1743.593c-87.36-104.595-167.966-218.819-206.09-349.657
            c5.252,18.024,54.495,48.119,69.008,61.889c24.284,23.041,47.87,46.819,70.722,71.281
            c46.587,49.869,90.116,102.589,130.305,157.744c74.135,101.74,161.227,226.941,194.457,349.705
            C2933.259,2045.92,2729.565,1779.428,2699.635,1743.593z"></path>
            <linearGradient id="g" x1="-2790.654" x2="-2450.448" y1="-542.321" y2="-452.331"
                gradientTransform="scale(-1 1) rotate(32.876 -7051.276 83.51)"
                gradientUnits="userSpaceOnUse">
                <stop offset="0" stop-color="#f9d6a1" class="stopColorf9d6a1 svgShape"></stop>
                <stop offset=".417" stop-color="#f8b594" class="stopColorf8b594 svgShape"></stop>
                <stop offset=".768" stop-color="#f8a08c" class="stopColorf8a08c svgShape"></stop>
                <stop offset="1" stop-color="#f89889" class="stopColorf89889 svgShape"></stop>
            </linearGradient>
            <path fill="url(#g)"
                d="M3292.124,1673.63c-51.287,65.781-117.951,117.602-177.09,176.424
            c-35.111,34.922-148.686,152.351-120.343,207.092c60.106-47.227,110.308-121.757,156.984-182.164
            C3201.729,1810.201,3248.625,1742.983,3292.124,1673.63z"></path>
            <linearGradient id="h" x1="-2389.326" x2="-2606.614" y1="-1246.781" y2="-871.466"
                gradientTransform="scale(-1 1) rotate(23.961 -9478.157 -95.833)"
                gradientUnits="userSpaceOnUse">
                <stop offset="0" stop-color="#f9d6a1" class="stopColorf9d6a1 svgShape"></stop>
                <stop offset=".417" stop-color="#f8b594" class="stopColorf8b594 svgShape"></stop>
                <stop offset=".768" stop-color="#f8a08c" class="stopColorf8a08c svgShape"></stop>
                <stop offset="1" stop-color="#f89889" class="stopColorf89889 svgShape"></stop>
            </linearGradient>
            <path fill="url(#h)"
                d="M2436.161,1666.685c27.183,9.104,69.22,77.118,91.035,98.695
            c31.832,31.484,65.101,61.516,99.656,89.986c70.929,58.438,147.285,110.298,227.79,154.627
            c17.152,9.444,96.376,62.201,112.297,48.545c20.441-17.533-51.349-81.615-63.586-94.429
            c-60.084-62.921-127.325-118.987-199.929-166.915C2620.456,1742.425,2530.445,1698.263,2436.161,1666.685z"></path>
            <g>
                <path fill="#12c3db"
                    d="M2902.615,2053.555c0,0-50.561-483.496,528.903-799.164
            C3431.519,1254.391,3534.148,1981.507,2902.615,2053.555z"
                    class="color12c3db svgShape"></path>
                <path fill="#f9d6a1"
                    d="M2904.045,2054.954l-2.859-2.798c91.469-93.447,176.438-203.43,267.403-346.123
                c81.996-128.623,161.405-272.208,245.478-424.223l15.702-28.388l3.5,1.937l-15.702,28.387
                c-84.103,152.071-163.542,295.708-245.604,424.437C3080.844,1851.116,2995.711,1961.306,2904.045,2054.954z"
                    class="colorf9d6a1 svgShape"></path>
                <path fill="#f9d6a1"
                    d="M3253.864 1569.05c-23.167-50.542-40.994-103.716-52.988-158.044l3.906-.862c11.933 54.052 29.67 106.955 52.719 157.24L3253.864 1569.05zM3271.415 1716.338c-34.118 0-65.636-8.114-91.736-23.702l2.051-3.434c28.308 16.907 63.204 24.801 100.901 22.843 36.381-1.895 71.141-12.369 100.345-22.365l1.295 3.784c-29.465 10.086-64.559 20.655-101.432 22.575C3279.001 1716.239 3275.192 1716.338 3271.415 1716.338zM3084.167 1827.781c-47.813-35.383-82.323-90.245-94.686-150.519l3.918-.804c12.167 59.321 46.117 113.304 93.146 148.107L3084.167 1827.781z"
                    class="colorf9d6a1 svgShape"></path>
            </g>
            <g>
                <path fill="#ef6069"
                    d="M3158.935,2032.474c138.267-186.89,447.177-124.695,390.152-303.529
            c-14.176-44.456-62.688-75.137-108.93-68.892c-48.916,6.607-143.382,57.986-192.695,55.832
            c-36.051-1.575-131.152-136.67-208.031-30.967c-57.603,79.2-15.343,132.109-90.496,196.902
            C2752.581,2011.798,3023.658,2215.322,3158.935,2032.474z"
                    class="coloref6069 svgShape"></path>
                <path fill="#f9d6a1"
                    d="M2947.172,2084.451l-2.496-1.663c60.155-90.326,141.39-167.161,234.92-222.201
            c111.952-65.88,238.961-100.2,361.787-133.391l0.783,2.896c-122.635,33.138-249.445,67.405-361.049,133.08
            C3087.974,1917.983,3007.078,1994.5,2947.172,2084.451z"
                    class="colorf9d6a1 svgShape"></path>
                <path fill="#f9d6a1"
                    d="M3138.142 1884.963c-22.148-77.626-35.103-157.881-38.502-238.536l2.998-.126c3.39 80.419 16.305 160.44 38.389 237.839L3138.142 1884.963zM3437.915 1873.977c-56.972-12.119-109.505-31.601-160.601-59.559l1.439-2.632c50.837 27.816 103.103 47.2 159.786 59.256L3437.915 1873.977z"
                    class="colorf9d6a1 svgShape"></path>
            </g>
            <linearGradient id="i" x1="2953.639" x2="3064.696" y1="2194.139" y2="1846.405"
                gradientUnits="userSpaceOnUse">
                <stop offset="0" stop-color="#c65d62" class="stopColorc65d62 svgShape"></stop>
                <stop offset=".356" stop-color="#5f6289" class="stopColor5f6289 svgShape"></stop>
                <stop offset=".771" stop-color="#0965a9" class="stopColor0965a9 svgShape"></stop>
                <stop offset=".968" stop-color="#0666b0" class="stopColor0666b0 svgShape"></stop>
            </linearGradient>
            <path fill="url(#i)"
                d="M3137.115,2090.927c2.026-18.177-61.558-40.181-142.017-49.147
        c-77.5-8.636-142.379-2.024-148.858,14.717l-0.253-0.03c-0.07,1.789-0.558,2.464-0.099,4.573
        c-0.557,69.935,48.995,132.354,120.148,145.624c79.126,14.757,155.251-36.805,171.15-115.425
        C3136.998,2091.216,3137.075,2091.286,3137.115,2090.927z"></path>
            <g>
                <path fill="#12c3db"
                    d="M1275.526,2146.611c0,0-209.608-465.078-901.761-445.127
            C373.765,1701.484,664.878,2414.951,1275.526,2146.611z"
                    class="color12c3db svgShape"></path>
                <path fill="#f04650"
                    d="M1275.129,2148.057c-132.547-36.465-267.912-91.375-426.003-172.805
                c-142.398-73.346-290.302-161.6-446.89-255.035l-29.24-17.445l1.537-2.576l29.24,17.445
                c156.547,93.411,304.411,181.641,446.725,254.945c157.902,81.332,293.084,136.17,425.425,172.579L1275.129,2148.057z"
                    class="colorf04650 svgShape"></path>
                <path fill="#f04650"
                    d="M697.5 1893.261c-5.674-57.813-17.552-115.191-35.304-170.541l2.857-.916c17.815 55.552 29.737 113.14 35.433 171.164L697.5 1893.261zM648.463 2074.022l-.59-2.941c31.801-6.375 68.901-15.257 102.952-32.794 35.325-18.194 62.872-43.874 79.663-74.263l2.625 1.451c-17.078 30.911-45.059 57.011-80.915 75.479C717.819 2058.659 680.467 2067.606 648.463 2074.022zM991.086 2037.594l-2.756-1.185c11.854-27.566 18.685-58.871 19.757-90.53 1.071-31.666-3.609-63.961-13.537-93.393l2.842-.959c10.042 29.77 14.777 62.432 13.693 94.454C1010.001 1978.01 1003.085 2009.689 991.086 2037.594z"
                    class="colorf04650 svgShape"></path>
                <g>
                    <path fill="#ef6069"
                        d="M768.183,1896.895c6.183-48.261,30.638-93.368,32.259-141.996
            c3.86-115.786-119.662-206.364-116.667-322.177c1.944-75.19,66.536-143.592,141.491-149.837
            c74.956-6.245,149.976,50.524,164.337,124.355c12.793,65.773-14.651,144.792,30.555,194.251
            c61.551,67.341,206.74,17.24,242.441,101.198c27.041,63.593-46.671,129.315-41.014,198.186
            c3.403,41.438,34.971,74.783,67.681,100.448c48.519,38.068,171.729,141.192,72.188,196.062
            c-42.312,23.323-176.631,16.354-228.971,12.888C973.023,2199.716,743.681,2088.735,768.183,1896.895z"
                        class="coloref6069 svgShape"></path>
                    <path fill="#195f94"
                        d="M1237.957,2198.269c-52.159-30.754-107.999-97.727-165.967-199.058
            c-46.307-80.945-94.099-183.91-142.051-306.035c-81.627-207.89-136.134-401.878-136.675-403.813l2.889-0.808
            c0.541,1.934,55.014,195.795,136.588,403.546c47.897,121.985,95.625,224.814,141.858,305.629
            c57.704,100.867,113.179,167.469,164.881,197.954L1237.957,2198.269z"
                        class="color195f94 svgShape"></path>
                    <path fill="#195f94"
                        d="M1004.271 1846.412l-1.74-2.443c38.126-27.158 82.058-54.016 124.542-79.989 42.439-25.946 86.323-52.775 124.363-79.87l1.74 2.443c-38.125 27.157-82.055 54.014-124.538 79.986C1086.198 1792.486 1042.312 1819.315 1004.271 1846.412zM1108.943 2069.654c-55.985-5.222-117.232-25.458-182.036-60.146-54.258-29.042-109.485-67.593-159.712-111.484l1.975-2.259c50.058 43.744 105.092 82.161 159.153 111.098 64.45 34.498 125.313 54.619 180.899 59.804L1108.943 2069.654zM876.478 1541.099l-2.822-1.02c20.938-57.931 46.635-160.689 58.435-222.672l2.947.562C923.217 1380.064 897.466 1483.03 876.478 1541.099z"
                        class="color195f94 svgShape"></path>
                </g>
                <g>
                    <path fill="#12c3db"
                        d="M725.102 1208.695c-16.36 10.692-20.741 29.44-20.741 29.44s22.143 1.413 38.503-9.279c16.36-10.692 20.741-29.44 20.741-29.44S741.462 1198.003 725.102 1208.695zM689.313 1202.157c14.016 16.241 15.048 35.977 15.048 35.977s-21.692-6.595-35.708-22.835c-14.016-16.241-15.048-35.978-15.048-35.978S675.297 1185.917 689.313 1202.157zM734.475 1264.339c-16.452 10.749-21.009 29.547-21.009 29.547s22.118 1.37 38.57-9.38c16.452-10.749 21.009-29.547 21.009-29.547S750.927 1253.59 734.475 1264.339zM698.767 1257.862c13.854 16.247 14.699 36.024 14.699 36.024s-21.618-6.564-35.473-22.81c-13.854-16.247-14.699-36.024-14.699-36.024S684.913 1241.615 698.767 1257.862zM738.669 1325.422c-17.598 8.992-24.301 27.231-24.301 27.231s21.828 3.66 39.426-5.332c17.598-8.992 24.301-27.231 24.301-27.231S756.266 1316.43 738.669 1325.422z"
                        class="color12c3db svgShape"></path>
                    <path fill="#12c3db"
                        d="M703.922 1315.266c11.893 17.612 10.446 37.387 10.446 37.387s-20.731-8.779-32.624-26.39c-11.893-17.612-10.446-37.387-10.446-37.387S692.029 1297.654 703.922 1315.266zM731.386 1388.247c-19.308 4.696-30.234 20.874-30.234 20.874s20.379 8.565 39.688 3.87c19.308-4.696 30.234-20.874 30.234-20.874S750.695 1383.551 731.386 1388.247z"
                        class="color12c3db svgShape"></path>
                    <path fill="#12c3db"
                        d="M699.99 1370.407c7.34 19.837 1.163 38.713 1.163 38.713s-18.077-13.285-25.416-33.122c-7.34-19.837-1.163-38.713-1.163-38.713S692.65 1350.571 699.99 1370.407zM710.207 1444.515c-19.978.327-34.372 13.649-34.372 13.649s17.997 12.792 37.975 12.465c19.978-.327 34.371-13.649 34.371-13.649S730.185 1444.188 710.207 1444.515z"
                        class="color12c3db svgShape"></path>
                    <path fill="#12c3db"
                        d="M683.541 1420.296c2.655 20.883-7.705 37.868-7.705 37.868s-14.664-16.873-17.319-37.755c-2.655-20.883 7.705-37.868 7.705-37.868S680.886 1399.413 683.541 1420.296zM697.067 1491.189c-19.417 5.159-30.354 21.548-30.354 21.548s20.543 8.024 39.96 2.865c19.417-5.159 30.354-21.548 30.354-21.548S716.483 1486.031 697.067 1491.189zM665.401 1474.201c7.46 19.578 1.312 38.536 1.312 38.536s-18.243-12.783-25.702-32.361c-7.46-19.578-1.312-38.536-1.312-38.536S657.941 1454.623 665.401 1474.201zM697.977 1537.099c-17.749 9.645-24.688 28.184-24.688 28.184s21.838 2.901 39.587-6.744c17.749-9.645 24.688-28.184 24.688-28.184S715.726 1527.455 697.977 1537.099zM663.266 1528.138c11.711 17.251 10.022 37.146 10.022 37.146s-20.676-8.076-32.387-25.327c-11.711-17.251-10.022-37.146-10.022-37.146S651.555 1510.886 663.266 1528.138zM711.92 1580.547c-15.099 13.584-17.696 33.3-17.696 33.3s21.884-2.308 36.984-15.892c15.099-13.584 17.696-33.3 17.696-33.3S727.02 1566.963 711.92 1580.547z"
                        class="color12c3db svgShape"></path>
                    <path fill="#12c3db"
                        d="M676.162 1579.971c15.25 14.073 18.062 33.876 18.062 33.876s-21.913-3.013-37.163-17.086-18.062-33.876-18.062-33.876S660.912 1565.898 676.162 1579.971zM737.43 1633.355c-11.593 16.811-9.678 36.698-9.678 36.698s20.71-7.37 32.303-24.181c11.593-16.811 9.678-36.698 9.678-36.698S749.022 1616.544 737.43 1633.355zM702.613 1641.146c17.958 10.199 25.138 28.907 25.138 28.907s-21.935 2.173-39.892-8.025c-17.958-10.199-25.138-28.907-25.138-28.907S684.655 1630.948 702.613 1641.146zM770.709 1678.272c-7.711 19.028-1.643 38.16-1.643 38.16s18.571-11.719 26.282-30.747c7.711-19.028 1.643-38.16 1.643-38.16S778.42 1659.243 770.709 1678.272z"
                        class="color12c3db svgShape"></path>
                    <path fill="#12c3db"
                        d="M738.516 1693.454c19.613 6.142 30.551 22.978 30.551 22.978s-20.86 6.876-40.473.734c-19.613-6.143-30.551-22.978-30.551-22.978S718.904 1687.311 738.516 1693.454zM809.078 1713.791c-4.079 20.235 5.336 38.066 5.336 38.066s16.029-14.977 20.108-35.212c4.079-20.235-5.336-38.066-5.336-38.066S813.157 1693.556 809.078 1713.791zM780.356 1734.673c20.298 2.512 34.058 17.184 34.058 17.184s-19.15 10.6-39.448 8.089-34.058-17.184-34.058-17.184S760.058 1732.161 780.356 1734.673zM853.106 1742.197c-.615 20.744 11.608 36.898 11.608 36.898s13.221-17.479 13.836-38.222c.615-20.744-11.609-36.898-11.609-36.898S853.721 1721.453 853.106 1742.197zM828.42 1767.608c20.337-.824 36.294 11.487 36.294 11.487s-17.015 13.646-37.352 14.47c-20.337.824-36.294-11.487-36.294-11.487S808.083 1768.432 828.42 1767.608zM901.471 1762.906c2.725 20.685 17.34 34.848 17.34 34.848s10.197-19.375 7.472-40.06c-2.725-20.685-17.34-34.848-17.34-34.848S898.746 1742.221 901.471 1762.906zM881.271 1791.912c19.869-3.933 37.539 5.842 37.539 5.842s-14.544 16.152-34.413 20.085c-19.869 3.933-37.539-5.842-37.539-5.842S861.403 1795.845 881.271 1791.912zM952.471 1775.086c6.009 20.096 22.681 31.931 22.681 31.931s6.929-20.748.92-40.844c-6.009-20.096-22.681-31.931-22.681-31.931S946.462 1754.99 952.471 1775.086zM937.238 1806.892c18.938-6.899 37.914.125 37.914.125s-11.729 18.209-30.667 25.107c-18.938 6.899-37.914-.125-37.914-.125S918.299 1813.791 937.238 1806.892z"
                        class="color12c3db svgShape"></path>
                    <g>
                        <path fill="#12c3db"
                            d="M1003.781,1777.973c9.116,19.014,27.448,28.279,27.448,28.279s3.551-21.564-5.565-40.578
                c-9.116-19.014-27.448-28.279-27.448-28.279S994.665,1758.958,1003.781,1777.973z"
                            class="color12c3db svgShape"></path>
                        <path fill="#12c3db"
                            d="M993.786,1811.708c17.6-9.619,37.444-5.457,37.444-5.457s-8.691,19.756-26.291,29.375
                c-17.6,9.619-37.444,5.457-37.444,5.457S976.186,1821.327,993.786,1811.708z"
                            class="color12c3db svgShape"></path>
                    </g>
                    <g>
                        <path fill="#12c3db"
                            d="M1056.165,1774.969c10.64,18.335,29.676,26.299,29.676,26.299s1.785-21.763-8.855-40.097
                c-10.64-18.335-29.676-26.298-29.676-26.298S1045.525,1756.634,1056.165,1774.969z"
                            class="color12c3db svgShape"></path>
                        <path fill="#12c3db"
                            d="M1048.945,1809.325c16.768-10.825,36.896-8.058,36.896-8.058s-7.058,20.318-23.826,31.143
                c-16.768,10.825-36.896,8.057-36.896,8.057S1032.177,1820.15,1048.945,1809.325z"
                            class="color12c3db svgShape"></path>
                    </g>
                    <g>
                        <path fill="#12c3db"
                            d="M1112.331,1771.699c10.497,18.545,29.476,26.884,29.476,26.884s1.959-21.729-8.538-40.275
                c-10.497-18.545-29.476-26.884-29.476-26.884S1101.833,1753.154,1112.331,1771.699z"
                            class="color12c3db svgShape"></path>
                        <path fill="#12c3db"
                            d="M1104.835,1805.916c16.86-10.496,36.972-7.333,36.972-7.333s-7.223,20.181-24.082,30.677
                c-16.86,10.496-36.972,7.333-36.972,7.333S1087.975,1816.412,1104.835,1805.916z"
                            class="color12c3db svgShape"></path>
                    </g>
                    <g>
                        <path fill="#12c3db"
                            d="M1171.849,1773.051c8.606,19.618,26.652,30.012,26.652,30.012s4.093-21.412-4.513-41.03
                c-8.606-19.617-26.652-30.012-26.652-30.012S1163.243,1753.433,1171.849,1773.051z"
                            class="color12c3db svgShape"></path>
                        <path fill="#12c3db"
                            d="M1161.017,1806.281c17.799-8.587,37.483-3.219,37.483-3.219s-9.173,19.29-26.972,27.876
                c-17.799,8.587-37.483,3.219-37.483,3.219S1143.219,1814.868,1161.017,1806.281z"
                            class="color12c3db svgShape"></path>
                    </g>
                    <g>
                        <path fill="#12c3db"
                            d="M1234.362,1783.755c4.592,21.039,20.21,34.959,20.21,34.959s8.174-20.191,3.582-41.23
                c-4.592-21.039-20.21-34.959-20.21-34.959S1229.771,1762.715,1234.362,1783.755z"
                            class="color12c3db svgShape"></path>
                        <path fill="#12c3db"
                            d="M1217.298,1814.169c19.075-4.775,37.274,4.544,37.274,4.544s-12.727,17.062-31.802,21.837
                c-19.075,4.775-37.274-4.544-37.274-4.544S1198.223,1818.945,1217.298,1814.169z"
                            class="color12c3db svgShape"></path>
                    </g>
                    <g>
                        <path fill="#12c3db"
                            d="M1293.895,1806.711c-0.375,21.643,11.559,38.944,11.559,38.944s12.542-17.79,12.917-39.433
                s-11.559-38.944-11.559-38.944S1294.27,1785.068,1293.895,1806.711z"
                            class="color12c3db svgShape"></path>
                        <path fill="#12c3db"
                            d="M1270.402,1832.383c19.565-0.146,35.053,13.272,35.053,13.272s-16.234,13.654-35.799,13.799
                c-19.565,0.146-35.052-13.272-35.052-13.272S1250.837,1832.528,1270.402,1832.383z"
                            class="color12c3db svgShape"></path>
                    </g>
                    <g>
                        <path fill="#12c3db"
                            d="M1343.085 1839.516c-5.229 21.121 2.44 40.793 2.44 40.793s16.148-14.572 21.377-35.693c5.229-21.121-2.44-40.793-2.44-40.793S1348.314 1818.395 1343.085 1839.516zM1314.557 1859.315c18.983 4.317 30.967 20.995 30.967 20.995s-18.794 9.678-37.777 5.361c-18.983-4.317-30.967-20.995-30.967-20.995S1295.574 1854.998 1314.557 1859.315z"
                            class="color12c3db svgShape"></path>
                    </g>
                    <g>
                        <path fill="#12c3db"
                            d="M1379.595,1879.562c-9.989,19.457-7.167,40.48-7.167,40.48s19.018-10.524,29.008-29.981
                c9.989-19.457,7.167-40.479,7.167-40.479S1389.585,1860.105,1379.595,1879.562z"
                            class="color12c3db svgShape"></path>
                        <path fill="#12c3db"
                            d="M1347.385,1892.336c17.349,8.615,25.044,27.705,25.044,27.705s-20.434,5.123-37.783-3.492
                c-17.349-8.615-25.044-27.705-25.044-27.705S1330.036,1883.721,1347.385,1892.336z"
                            class="color12c3db svgShape"></path>
                    </g>
                    <g>
                        <path fill="#12c3db"
                            d="M1401.122 1923.873c-14.636 16.405-17.341 37.541-17.341 37.541s21.024-5.461 35.659-21.866 17.341-37.541 17.341-37.541S1415.757 1907.469 1401.122 1923.873zM1366.817 1928.216c14.48 12.719 16.964 33.198 16.964 33.198s-20.994-.142-35.474-12.86c-14.48-12.719-16.964-33.198-16.964-33.198S1352.337 1915.498 1366.817 1928.216z"
                            class="color12c3db svgShape"></path>
                    </g>
                    <g>
                        <path fill="#12c3db"
                            d="M1409.303 1982.137c-18.408 12.225-26.544 32.024-26.544 32.024s21.708-.021 40.115-12.247c18.408-12.225 26.544-32.024 26.544-32.024S1427.71 1969.912 1409.303 1982.137zM1375.076 1977.746c10.642 15.952 7.682 36.415 7.682 36.415s-20.214-5.4-30.856-21.351c-10.642-15.952-7.682-36.415-7.682-36.415S1364.434 1961.794 1375.076 1977.746z"
                            class="color12c3db svgShape"></path>
                    </g>
                    <g>
                        <path fill="#12c3db"
                            d="M1405.061 2046.858c-20.869 7.602-33.595 24.936-33.595 24.936s21.109 5.009 41.978-2.594 33.595-24.936 33.595-24.936S1425.93 2039.256 1405.061 2046.858zM1372.856 2034.666c6.465 17.95-1.39 37.128-1.39 37.128s-18.338-9.925-24.803-27.874c-6.466-17.95 1.389-37.128 1.389-37.128S1366.39 2016.717 1372.856 2034.666z"
                            class="color12c3db svgShape"></path>
                    </g>
                    <g>
                        <path fill="#12c3db"
                            d="M1389.403 2107.502c-22.135 2.892-38.494 17.001-38.494 17.001s19.53 9.419 41.665 6.526 38.494-17.001 38.494-17.001S1411.539 2104.609 1389.403 2107.502zM1360.631 2088.708c2.285 18.844-9.722 35.795-9.722 35.795s-15.711-13.601-17.995-32.444c-2.285-18.844 9.722-35.795 9.722-35.795S1358.347 2069.864 1360.631 2088.708z"
                            class="color12c3db svgShape"></path>
                    </g>
                    <g>
                        <path fill="#12c3db"
                            d="M1362.832 2162.402c-22.367-1.77-41.448 8.565-41.448 8.565s17.183 13.206 39.549 14.976c22.367 1.77 41.448-8.565 41.448-8.565S1385.199 2164.173 1362.832 2162.402zM1338.566 2138.164c-1.772 18.802-17.183 32.803-17.183 32.803s-12.538-16.482-10.767-35.284c1.772-18.802 17.183-32.803 17.183-32.803S1340.338 2119.362 1338.566 2138.164z"
                            class="color12c3db svgShape"></path>
                    </g>
                </g>
                <g>
                    <linearGradient id="j" x1="-1067.917" x2="-1109.601" y1="1767.227" y2="2681.677"
                        gradientTransform="matrix(-1 0 0 1 138.658 0)"
                        gradientUnits="userSpaceOnUse">
                        <stop offset="0" stop-color="#f9d6a1" class="stopColorf9d6a1 svgShape"></stop>
                        <stop offset=".417" stop-color="#f8b594" class="stopColorf8b594 svgShape"></stop>
                        <stop offset=".768" stop-color="#f8a08c" class="stopColorf8a08c svgShape"></stop>
                        <stop offset="1" stop-color="#f89889" class="stopColorf89889 svgShape"></stop>
                    </linearGradient>
                    <path fill="url(#j)"
                        d="M1164.843,2172.805c-33.105-30.309-53.456-74.13-55.255-118.978
            c-1.095-27.294,4.338-55.028-1.369-81.741c-13.832-64.744-88.414-105.669-94.992-171.547
            c-4.029-40.347,19.052-77.868,41.203-111.83c27.852-42.703,55.704-85.405,83.556-128.108
            c18.509-28.379,42.558-59.962,76.438-60.264c33.969-0.303,59.938,33.236,65.589,66.734c5.651,33.497-3.107,67.49-7.331,101.197
            c-4.224,33.707-2.793,71.165,19.206,97.051c31.923,37.563,99.8,42.655,112.472,90.294c13.827,51.98-55.614,98.69-42.964,150.969
            c5.395,22.297,24.535,38.183,36.756,57.596c20.802,33.044,19.89,78.434-2.222,110.616
            C1346.424,2246.844,1220.583,2223.837,1164.843,2172.805z"></path>
                    <path fill="#ef6069"
                        d="M1242.736,2203.309c-42.048-110.349-65.378-227.217-69.343-347.359
                c-3.965-120.142,11.609-238.294,46.289-351.175l2.867,0.881c-34.582,112.563-50.111,230.386-46.157,350.195
                c3.954,119.81,27.218,236.351,69.146,346.39L1242.736,2203.309z"
                        class="coloref6069 svgShape"></path>
                    <path fill="#ef6069"
                        d="M1172.371,1872.655c-56.537-35.061-104.92-83.499-139.918-140.077l2.551-1.578
                c34.756,56.186,82.804,104.288,138.949,139.106L1172.371,1872.655z"
                        class="coloref6069 svgShape"></path>
                    <rect width="249.663" height="3" x="1170.296" y="1923.076" fill="#ef6069"
                        transform="rotate(-29.865 1295.285 1924.594)" class="coloref6069 svgShape"></rect>
                </g>
            </g>
            <linearGradient id="k" x1="1381.709" x2="2363.929" y1="780.095" y2="1762.315"
                gradientUnits="userSpaceOnUse">
                <stop offset="0" stop-color="#96d5f6" class="stopColor96d5f6 svgShape"></stop>
                <stop offset=".5" stop-color="#baf6f1" class="stopColorbaf6f1 svgShape"></stop>
                <stop offset="1" stop-color="#dcf6f3" class="stopColordcf6f3 svgShape"></stop>
            </linearGradient>
            <path fill="url(#k)"
                d="M1762.555,688.93c4.288-27.967,44.839-65.222,69.195-82.198l117.584,46.284
    c6.25,29.023,10.526,83.923-5.399,107.309l94.223,90.944c22.808-16.744,77.825-14.413,107.051-9.195l50.417,115.872
    c-16.103,24.942-51.899,66.786-79.697,72.061l2.318,130.933c27.967,4.288,65.222,44.839,82.198,69.195l-46.283,117.584
    c-29.023,6.25-83.923,10.527-107.31-5.399l-90.944,94.223c16.744,22.808,14.413,77.825,9.195,107.051l-115.872,50.417
    c-24.942-16.103-66.786-51.899-72.062-79.697l-130.933,2.318c-4.288,27.967-44.839,65.222-69.195,82.198l-117.584-46.284
    c-6.25-29.023-10.527-83.923,5.399-107.31l-94.223-90.944c-22.808,16.744-77.825,14.413-107.051,9.194l-50.417-115.872
    c16.103-24.942,51.899-66.786,79.697-72.061l-2.318-130.933c-27.967-4.288-65.222-44.839-82.198-69.195l46.284-117.584
    c29.023-6.25,83.923-10.527,107.309,5.399l90.944-94.223c-16.744-22.808-14.413-77.825-9.195-107.051l115.872-50.417
    c24.942,16.103,66.786,51.899,72.062,79.697L1762.555,688.93z M1613.933,894.875c-114.824,49.961-167.406,183.546-117.445,298.37
    c49.961,114.824,183.546,167.406,298.37,117.445c114.824-49.961,167.406-183.546,117.445-298.37
    C1862.342,897.495,1728.757,844.913,1613.933,894.875z"></path>
            <linearGradient id="l" x1="1398.229" x2="2911.141" y1="1170.099" y2="2683.011"
                gradientTransform="rotate(-.94 7700.6 -1225.786)" gradientUnits="userSpaceOnUse">
                <stop offset="0" stop-color="#f9d6e8" class="stopColorf9d6e8 svgShape"></stop>
                <stop offset=".21" stop-color="#f9ddea" class="stopColorf9ddea svgShape"></stop>
                <stop offset=".497" stop-color="#f9efef" class="stopColorf9efef svgShape"></stop>
                <stop offset=".663" stop-color="#f9e8eb" class="stopColorf9e8eb svgShape"></stop>
                <stop offset=".905" stop-color="#f9d5de" class="stopColorf9d5de svgShape"></stop>
                <stop offset="1" stop-color="#f9cbd8" class="stopColorf9cbd8 svgShape"></stop>
            </linearGradient>
            <path fill="url(#l)"
                d="M1156.671,2227.022h1822.945c49.557-30.457,83.254-81.926,67.415-130.918
    c-15.424-47.707-69.793-77.504-115.632-108.612c-45.839-31.107-89.963-77.902-73.34-125.325
    c20.757-59.214,115.338-70.863,167.143-114.733c72.96-61.785,37.68-173.093-41.145-229.594
    c-78.824-56.501-185.231-75.089-284.47-100.386c-99.24-25.298-203.559-65.189-249.316-143.195
    c-53.68-91.514-21.399-224.475-124.005-279.302c-76.469-40.86-180.79-5.215-244.203,49.115
    c-15.854,13.582-30.305,28.201-44.099,43.299c-13.796,15.099-26.934,30.678-40.168,46.184
    c-64.28,92.537-180.892,168.29-293.925,139.625c-22.607-5.733-45.07-15.642-66.951-30.417
    c-36.04-22.65-68.847-47.607-101.771-73.371c-16.462-12.882-32.953-25.966-49.899-39.08
    c-44.254-34.512-91.389-72.404-150.538-70.556c-48.059,0.924-89.648,22.181-129.389,50.831
    c-51.756,38.817-89.648,92.421-97.042,155.267c-17.56,154.343,80.406,296.671,188.127,394.35
    c17.316,13.625,36.286,27.349,54.782,41.527c55.486,42.509,106.698,89.098,95.885,147.982
    c-13.096,71.321-109.745,105.238-192.129,126.256c-82.384,21.018-178.982,55.309-191.513,126.701
    C1048.495,2167.381,1094.402,2205.221,1156.671,2227.022z"></path>
            <linearGradient id="m" x1="2733.166" x2="2277.794" y1="1462.44" y2="1007.068"
                gradientUnits="userSpaceOnUse">
                <stop offset="0" stop-color="#96d5f6" class="stopColor96d5f6 svgShape"></stop>
                <stop offset=".5" stop-color="#baf6f1" class="stopColorbaf6f1 svgShape"></stop>
                <stop offset="1" stop-color="#dcf6f3" class="stopColordcf6f3 svgShape"></stop>
            </linearGradient>
            <path fill="url(#m)"
                d="M2567.555,1190.434c-3.543-10.928,4.376-31.836,10.118-42.435l51.096-4.645
    c7.559,9.39,19.118,28.527,17.604,39.915l50.762,15.816c5.222-10.232,25.606-19.417,37.16-22.852l39.415,32.845
    c-1.295,11.984-6.653,33.691-15.776,40.672l24.711,47.078c10.928-3.543,31.836,4.377,42.435,10.118l4.645,51.096
    c-9.39,7.559-28.527,19.119-39.915,17.604l-15.816,50.762c10.232,5.222,19.417,25.606,22.852,37.161l-32.845,39.415
    c-11.984-1.295-33.691-6.653-40.672-15.776l-47.078,24.711c3.543,10.928-4.377,31.836-10.118,42.435l-51.095,4.645
    c-7.559-9.39-19.119-28.527-17.604-39.915l-50.762-15.816c-5.222,10.232-25.606,19.417-37.161,22.852l-39.415-32.845
    c1.295-11.984,6.653-33.691,15.776-40.672l-24.711-47.078c-10.928,3.543-31.836-4.377-42.435-10.118l-4.645-51.096
    c9.39-7.559,28.527-19.119,39.915-17.604l15.816-50.762c-10.232-5.222-19.417-25.606-22.852-37.161l32.845-39.415
    c11.984,1.295,33.691,6.653,40.672,15.776L2567.555,1190.434z M2551.181,1292.243c-32.548,39.058-27.271,97.107,11.787,129.656
    c39.058,32.549,97.107,27.271,129.656-11.787c32.549-39.058,27.271-97.107-11.787-129.656
    C2641.779,1247.907,2583.73,1253.184,2551.181,1292.243z"></path>
            <g>
                <linearGradient id="n" x1="2289.003" x2="2133.483" y1="853.909" y2="1110.948"
                    gradientUnits="userSpaceOnUse">
                    <stop offset="0" stop-color="#f9d6a1" class="stopColorf9d6a1 svgShape"></stop>
                    <stop offset=".338" stop-color="#f9d3a0" class="stopColorf9d3a0 svgShape"></stop>
                    <stop offset=".557" stop-color="#f9cb9d" class="stopColorf9cb9d svgShape"></stop>
                    <stop offset=".743" stop-color="#f9bc97" class="stopColorf9bc97 svgShape"></stop>
                    <stop offset=".91" stop-color="#f8a78f" class="stopColorf8a78f svgShape"></stop>
                    <stop offset="1" stop-color="#f89889" class="stopColorf89889 svgShape"></stop>
                </linearGradient>
                <path fill="url(#n)"
                    d="M2414.983,905.26c0-91.207-73.782-165.181-164.917-165.491
                c-91.31-0.311-166.069,74.182-166.068,165.493c0,45.426,18.305,86.573,47.939,116.476
                c31.214,31.497,51.486,72.182,57.039,116.177l2.347,18.595h116.334l2.347-18.593c5.491-43.498,24.871-84.276,56.006-115.145
                C2396.252,992.787,2414.983,951.212,2414.983,905.26z"></path>
                <path fill="#f9ebbe"
                    d="M2259.606,1186.131c-0.081,0-0.162-0.004-0.245-0.013c-1.266-0.133-2.184-1.267-2.051-2.534
                l24.581-233.55h-62.489l24.582,233.55c0.133,1.266-0.785,2.401-2.051,2.534c-1.258,0.132-2.401-0.785-2.534-2.051
                l-24.632-234.033h-7.966c-5.469,0-10.563-2.943-13.294-7.679l-5.43-9.412c-2.055-3.561-2.595-7.708-1.521-11.677
                c1.073-3.969,3.63-7.279,7.2-9.319c4.61-2.633,10.157-2.715,14.842-0.214c4.685,2.5,7.706,7.155,8.084,12.45l2.235,21.24h63.459
                l2.244-21.318c0.369-5.218,3.39-9.872,8.075-12.372c4.685-2.501,10.234-2.421,14.843,0.213c3.57,2.04,6.127,5.35,7.2,9.319
                c1.074,3.969,0.534,8.116-1.521,11.677l-5.43,9.412c-2.733,4.736-7.828,7.679-13.295,7.679h-7.967l-24.63,234.033
                C2261.77,1185.25,2260.77,1186.131,2259.606,1186.131z M2287.011,945.423h7.481c3.826,0,7.389-2.058,9.302-5.372l5.43-9.412
                c1.438-2.491,1.816-5.393,1.065-8.17c-0.752-2.777-2.541-5.093-5.039-6.52c-3.226-1.844-7.108-1.898-10.385-0.149
                c-3.277,1.75-5.391,5.006-5.654,8.711L2287.011,945.423z M2201.369,914.526c-1.834,0-3.667,0.475-5.325,1.423
                c-2.497,1.427-4.287,3.743-5.039,6.52c-0.75,2.777-0.373,5.678,1.065,8.17l5.43,9.412c1.911,3.314,5.475,5.372,9.301,5.372
                h7.481l-2.193-20.835c-0.271-3.783-2.385-7.039-5.662-8.789C2204.836,914.95,2203.102,914.526,2201.369,914.526z"
                    class="colorf9ebbe svgShape"></path>
                <linearGradient id="o" x1="2251.284" x2="2249.905" y1="1238.087" y2="1119.08"
                    gradientUnits="userSpaceOnUse">
                    <stop offset="0" stop-color="#f9bc97" class="stopColorf9bc97 svgShape"></stop>
                    <stop offset=".371" stop-color="#f9bf99" class="stopColorf9bf99 svgShape"></stop>
                    <stop offset=".613" stop-color="#f9c7a0" class="stopColorf9c7a0 svgShape"></stop>
                    <stop offset=".817" stop-color="#f9d6ad" class="stopColorf9d6ad svgShape"></stop>
                    <stop offset="1" stop-color="#f9ebbe" class="stopColorf9ebbe svgShape"></stop>
                </linearGradient>
                <path fill="url(#o)"
                    d="M2288.451,1226.048h-74.613l7.255-97.695c1.168-15.734,14.275-27.903,30.052-27.903
                c15.777,0,28.883,12.169,30.052,27.903L2288.451,1226.048z"></path>
                <linearGradient id="p" x1="2249.198" x2="2250.206" y1="1300.52" y2="1272.434"
                    gradientUnits="userSpaceOnUse">
                    <stop offset="0" stop-color="#3bc8e0" class="stopColor3bc8e0 svgShape"></stop>
                    <stop offset=".764" stop-color="#9eaec5" class="stopColor9eaec5 svgShape"></stop>
                    <stop offset="1" stop-color="#bea6bc" class="stopColorbea6bc svgShape"></stop>
                </linearGradient>
                <circle cx="2249.834" cy="1282.791" r="15.038" fill="url(#p)"></circle>
                <linearGradient id="q" x1="2195.518" x2="2277.796" y1="1228.025" y2="1203.91"
                    gradientUnits="userSpaceOnUse">
                    <stop offset="0" stop-color="#3bc8e0" class="stopColor3bc8e0 svgShape"></stop>
                    <stop offset="1" stop-color="#96c6c9" class="stopColor96c6c9 svgShape"></stop>
                </linearGradient>
                <path fill="url(#q)"
                    d="M2249.341,1285.499c-32.993,0-59.906-26.73-59.906-59.906v-71.569h119.812v71.569
                C2309.247,1258.678,2282.426,1285.499,2249.341,1285.499z"></path>
                <linearGradient id="r" x1="2257.614" x2="2257.212" y1="1026.106" y2="1048.22"
                    gradientTransform="matrix(.9977 .0399 0 1 -3.143 53.449)"
                    gradientUnits="userSpaceOnUse">
                    <stop offset="0" stop-color="#f6e4bf" class="stopColorf6e4bf svgShape"></stop>
                    <stop offset=".546" stop-color="#78cacb" class="stopColor78cacb svgShape"></stop>
                    <stop offset="1" stop-color="#13b5d5" class="stopColor13b5d5 svgShape"></stop>
                </linearGradient>
                <path fill="url(#r)"
                    d="M2189.58,1188.274c-1.644,0-3.034-1.269-3.157-2.935
                    c-0.13-1.745,1.179-3.266,2.925-3.396l118.99-8.844c1.75-0.125,3.266,1.18,3.396,2.926c0.13,1.745-1.179,3.266-2.925,3.396
                    C2308.808,1179.421,2189.659,1188.274,2189.58,1188.274z"></path>
                <linearGradient id="s" x1="2257.614" x2="2257.212" y1="1052.368" y2="1074.481"
                    gradientTransform="matrix(.9977 .0399 0 1 -3.143 53.449)"
                    gradientUnits="userSpaceOnUse">
                    <stop offset="0" stop-color="#f6e4bf" class="stopColorf6e4bf svgShape"></stop>
                    <stop offset=".546" stop-color="#78cacb" class="stopColor78cacb svgShape"></stop>
                    <stop offset="1" stop-color="#13b5d5" class="stopColor13b5d5 svgShape"></stop>
                </linearGradient>
                <path fill="url(#s)"
                    d="M2189.58,1214.535c-1.644,0-3.034-1.269-3.157-2.935
                    c-0.13-1.745,1.179-3.266,2.925-3.396l118.99-8.844c1.75-0.122,3.266,1.18,3.396,2.926c0.13,1.745-1.179,3.266-2.925,3.396
                    C2308.808,1205.682,2189.659,1214.535,2189.58,1214.535z"></path>
                <linearGradient id="t" x1="2257.614" x2="2257.212" y1="1078.629" y2="1100.742"
                    gradientTransform="matrix(.9977 .0399 0 1 -3.143 53.449)"
                    gradientUnits="userSpaceOnUse">
                    <stop offset="0" stop-color="#f6e4bf" class="stopColorf6e4bf svgShape"></stop>
                    <stop offset=".546" stop-color="#78cacb" class="stopColor78cacb svgShape"></stop>
                    <stop offset="1" stop-color="#13b5d5" class="stopColor13b5d5 svgShape"></stop>
                </linearGradient>
                <path fill="url(#t)"
                    d="M2189.58,1240.795c-1.644,0-3.034-1.269-3.157-2.935
                    c-0.13-1.745,1.179-3.266,2.925-3.396l118.99-8.843c1.75-0.12,3.266,1.18,3.396,2.926c0.13,1.745-1.179,3.266-2.925,3.396
                    C2308.808,1231.943,2189.659,1240.795,2189.58,1240.795z"></path>
                <g>
                    <linearGradient id="u" x1="-10510.602" x2="-10454.781" y1="879.607" y2="879.607"
                        gradientTransform="matrix(-1 0 0 1 -8025.192 0)"
                        gradientUnits="userSpaceOnUse">
                        <stop offset=".001" stop-color="#f89889" class="stopColorf89889 svgShape"></stop>
                        <stop offset=".407" stop-color="#f8ae92" class="stopColorf8ae92 svgShape"></stop>
                        <stop offset="1" stop-color="#f9d6a1" class="stopColorf9d6a1 svgShape"></stop>
                    </linearGradient>
                    <path fill="url(#u)"
                        d="M2482.005,883.012h-49.01c-1.88,0-3.405-1.525-3.405-3.405
                c0-1.881,1.525-3.405,3.405-3.405h49.01c1.88,0,3.405,1.525,3.405,3.405C2485.41,881.488,2483.885,883.012,2482.005,883.012z"></path>
                    <linearGradient id="v" x1="-11998.679" x2="-11942.858" y1="-1893.488"
                        y2="-1893.488"
                        gradientTransform="scale(-1 1) rotate(-22.5 -34.126 -24415.831)"
                        gradientUnits="userSpaceOnUse">
                        <stop offset=".001" stop-color="#f89889" class="stopColorf89889 svgShape"></stop>
                        <stop offset=".407" stop-color="#f8ae92" class="stopColorf8ae92 svgShape"></stop>
                        <stop offset="1" stop-color="#f9d6a1" class="stopColorf9d6a1 svgShape"></stop>
                    </linearGradient>
                    <path fill="url(#v)"
                        d="M2465.73,972.882c-0.434,0-0.875-0.084-1.302-0.26l-45.28-18.755
                c-1.738-0.72-2.562-2.711-1.843-4.449c0.719-1.738,2.71-2.563,4.449-1.843l45.281,18.756c1.738,0.72,2.562,2.711,1.843,4.449
                C2468.333,972.09,2467.066,972.882,2465.73,972.882z"></path>
                    <linearGradient id="w" x1="-494.571" x2="-438.752" y1="-11367.214"
                        y2="-11367.214"
                        gradientTransform="scale(1 -1) rotate(22.5 -25346.294 173.334)"
                        gradientUnits="userSpaceOnUse">
                        <stop offset=".001" stop-color="#f89889" class="stopColorf89889 svgShape"></stop>
                        <stop offset=".407" stop-color="#f8ae92" class="stopColorf8ae92 svgShape"></stop>
                        <stop offset="1" stop-color="#f9d6a1" class="stopColorf9d6a1 svgShape"></stop>
                    </linearGradient>
                    <path fill="url(#w)"
                        d="M2033.287,980.322c-1.336,0-2.604-0.792-3.147-2.104
                c-0.719-1.737,0.105-3.729,1.843-4.449l45.28-18.755c1.739-0.72,3.728,0.105,4.449,1.843c0.719,1.737-0.105,3.729-1.843,4.449
                l-45.28,18.755C2034.163,980.239,2033.721,980.322,2033.287,980.322z"></path>
                    <linearGradient id="x" x1="1941.666" x2="1997.486" y1="-9374.939" y2="-9374.939"
                        gradientTransform="matrix(1 0 0 -1 68.86 -8487.278)"
                        gradientUnits="userSpaceOnUse">
                        <stop offset=".001" stop-color="#f89889" class="stopColorf89889 svgShape"></stop>
                        <stop offset=".407" stop-color="#f8ae92" class="stopColorf8ae92 svgShape"></stop>
                        <stop offset="1" stop-color="#f9d6a1" class="stopColorf9d6a1 svgShape"></stop>
                    </linearGradient>
                    <path fill="url(#x)"
                        d="M2062.94,891.065h-49.009c-1.88,0-3.405-1.525-3.405-3.405
                c0-1.881,1.525-3.405,3.405-3.405h49.009c1.88,0,3.405,1.525,3.405,3.405C2066.346,889.541,2064.821,891.065,2062.94,891.065z"></path>
                    <linearGradient id="y" x1="3429.607" x2="3485.426" y1="-6601.942" y2="-6601.942"
                        gradientTransform="scale(1 -1) rotate(-22.5 17321.068 -173.601)"
                        gradientUnits="userSpaceOnUse">
                        <stop offset=".001" stop-color="#f89889" class="stopColorf89889 svgShape"></stop>
                        <stop offset=".407" stop-color="#f8ae92" class="stopColorf8ae92 svgShape"></stop>
                        <stop offset="1" stop-color="#f9d6a1" class="stopColorf9d6a1 svgShape"></stop>
                    </linearGradient>
                    <path fill="url(#y)"
                        d="M2075.483,819.953c-0.434,0-0.875-0.084-1.302-0.26l-45.279-18.755
                c-1.738-0.72-2.562-2.711-1.843-4.449c0.719-1.738,2.709-2.563,4.449-1.843l45.279,18.755c1.738,0.72,2.562,2.711,1.843,4.449
                C2078.087,819.161,2076.819,819.953,2075.483,819.953z"></path>
                    <linearGradient id="z" x1="3743.698" x2="3799.52" y1="-3470.622" y2="-3470.622"
                        gradientTransform="scale(1 -1) rotate(-45 6232.466 -83.017)"
                        gradientUnits="userSpaceOnUse">
                        <stop offset=".001" stop-color="#f89889" class="stopColorf89889 svgShape"></stop>
                        <stop offset=".407" stop-color="#f8ae92" class="stopColorf8ae92 svgShape"></stop>
                        <stop offset="1" stop-color="#f9d6a1" class="stopColorf9d6a1 svgShape"></stop>
                    </linearGradient>
                    <path fill="url(#z)"
                        d="M2114.287,759.052c-0.871,0-1.743-0.333-2.408-0.997l-34.656-34.655
                c-1.329-1.33-1.329-3.486,0-4.816c1.331-1.329,3.486-1.329,4.816,0l34.656,34.655c1.33,1.33,1.33,3.486,0,4.816
                C2116.03,758.72,2115.158,759.052,2114.287,759.052z"></path>
                    <linearGradient id="A" x1="2834.971" x2="2890.791" y1="-457.818" y2="-457.818"
                        gradientTransform="scale(1 -1) rotate(-67.5 2338.523 -51.724)"
                        gradientUnits="userSpaceOnUse">
                        <stop offset=".001" stop-color="#f89889" class="stopColorf89889 svgShape"></stop>
                        <stop offset=".407" stop-color="#f8ae92" class="stopColorf8ae92 svgShape"></stop>
                        <stop offset="1" stop-color="#f9d6a1" class="stopColorf9d6a1 svgShape"></stop>
                    </linearGradient>
                    <path fill="url(#A)"
                        d="M2173.442,717.638c-1.336,0-2.604-0.792-3.147-2.103l-18.756-45.28
                c-0.719-1.737,0.105-3.729,1.843-4.449c1.737-0.72,3.729,0.105,4.449,1.843l18.756,45.28c0.719,1.737-0.105,3.729-1.843,4.449
                C2174.318,717.555,2173.876,717.638,2173.442,717.638z"></path>
                    <linearGradient id="B" x1="842.805" x2="898.626" y1="1978.468" y2="1978.468"
                        gradientTransform="matrix(0 1 1 0 265.473 -196.613)"
                        gradientUnits="userSpaceOnUse">
                        <stop offset=".001" stop-color="#f89889" class="stopColorf89889 svgShape"></stop>
                        <stop offset=".407" stop-color="#f8ae92" class="stopColorf8ae92 svgShape"></stop>
                        <stop offset="1" stop-color="#f9d6a1" class="stopColorf9d6a1 svgShape"></stop>
                    </linearGradient>
                    <path fill="url(#B)"
                        d="M2243.941,702.012c-1.88,0-3.405-1.525-3.405-3.405v-49.01
                c0-1.881,1.525-3.405,3.405-3.405c1.88,0,3.405,1.525,3.405,3.405v49.01C2247.346,700.488,2245.821,702.012,2243.941,702.012z"></path>
                    <linearGradient id="C" x1="-1930.309" x2="-1874.489" y1="3466.427" y2="3466.427"
                        gradientTransform="scale(-1 1) rotate(67.5 -34.633 1761.693)"
                        gradientUnits="userSpaceOnUse">
                        <stop offset=".001" stop-color="#f89889" class="stopColorf89889 svgShape"></stop>
                        <stop offset=".407" stop-color="#f8ae92" class="stopColorf8ae92 svgShape"></stop>
                        <stop offset="1" stop-color="#f9d6a1" class="stopColorf9d6a1 svgShape"></stop>
                    </linearGradient>
                    <path fill="url(#C)"
                        d="M2315.053,714.556c-0.434,0-0.875-0.084-1.302-0.26c-1.738-0.72-2.562-2.712-1.843-4.449
                l18.755-45.279c0.719-1.738,2.708-2.563,4.449-1.843c1.738,0.72,2.562,2.712,1.843,4.449l-18.756,45.279
                C2317.656,713.765,2316.389,714.556,2315.053,714.556z"></path>
                    <linearGradient id="D" x1="-5061.469" x2="-5005.648" y1="3780.506" y2="3780.506"
                        gradientTransform="scale(-1 1) rotate(45 -34.322 5443.638)"
                        gradientUnits="userSpaceOnUse">
                        <stop offset=".001" stop-color="#f89889" class="stopColorf89889 svgShape"></stop>
                        <stop offset=".407" stop-color="#f8ae92" class="stopColorf8ae92 svgShape"></stop>
                        <stop offset="1" stop-color="#f9d6a1" class="stopColorf9d6a1 svgShape"></stop>
                    </linearGradient>
                    <path fill="url(#D)"
                        d="M2375.954,753.358c-0.871,0-1.743-0.333-2.408-0.997c-1.329-1.33-1.329-3.486,0-4.816
                l34.656-34.655c1.33-1.329,3.485-1.329,4.816,0c1.329,1.33,1.329,3.486,0,4.816l-34.656,34.655
                C2377.697,753.025,2376.825,753.358,2375.954,753.358z"></path>
                    <linearGradient id="E" x1="-8074.423" x2="-8018.605" y1="2871.725" y2="2871.725"
                        gradientTransform="scale(-1 1) rotate(22.5 -34.97 15928.5)"
                        gradientUnits="userSpaceOnUse">
                        <stop offset=".001" stop-color="#f89889" class="stopColorf89889 svgShape"></stop>
                        <stop offset=".407" stop-color="#f8ae92" class="stopColorf8ae92 svgShape"></stop>
                        <stop offset="1" stop-color="#f9d6a1" class="stopColorf9d6a1 svgShape"></stop>
                    </linearGradient>
                    <path fill="url(#E)"
                        d="M2417.37,812.513c-1.336,0-2.604-0.792-3.147-2.103
                c-0.719-1.737,0.105-3.729,1.843-4.449l45.279-18.755c1.738-0.72,3.729,0.105,4.449,1.843c0.719,1.737-0.105,3.729-1.843,4.449
                l-45.279,18.755C2418.246,812.429,2417.804,812.513,2417.37,812.513z"></path>
                </g>
                <g>
                    <path fill="#0678a2"
                        d="M2043.138,2193.373c2.932-0.549,4.478-1.342,4.478-2.442c0-7.386-69.551-26.019-160.816-28.256
                l-8.284-140.424c-0.477-8.087-0.477-52.95,0-61.036l4.996-84.689c31.109-8.351,53.803-38.726,53.803-51.434
                c0-12.283-21.199-4.189-50.705-1.074l0.433-7.346c0.343-5.818-8.885-10.628-20.389-10.628c-11.536,0-20.776,4.836-20.386,10.669
                l0.477,7.145c-29.14-3.222-50.753-10.839-50.753,1.234c0,12.552,23.361,42.35,54.255,51.128l5.575,83.378
                c0.612,9.164,0.612,55.107,0,64.271l-9.29,138.924c-89.717,2.7-160.841,20.867-160.841,28.138c0,1.27,2.181,2.127,6.239,2.676
                c-3.833,3.609-6.239,8.715-6.239,14.395c0,10.929,8.86,19.789,19.789,19.789c10.929,0,19.788-8.86,19.788-19.789
                c0-5.297-2.093-10.097-5.484-13.649c3.498-0.052,7.231-0.131,11.177-0.231c-3.518,3.572-5.693,8.47-5.693,13.88
                c0,10.929,8.86,19.789,19.789,19.789c10.929,0,19.789-8.86,19.789-19.789c0-5.848-2.552-11.087-6.585-14.71
                c30.885-1.021,69.3-2.362,110.577-2.362c40.955,0,78.36,1.32,108.254,2.338c-4.048,3.623-6.611,8.873-6.611,14.734
                c0,10.929,8.86,19.789,19.788,19.789c10.929,0,19.789-8.86,19.789-19.789c0-5.408-2.174-10.304-5.69-13.876
                c3.962,0.103,7.686,0.183,11.167,0.234c-3.386,3.551-5.477,8.348-5.477,13.642c0,10.929,8.86,19.789,19.788,19.789
                s19.789-8.86,19.789-19.789C2049.635,2202.198,2047.12,2196.993,2043.138,2193.373z"
                        class="color0678a2 svgShape"></path>
                    <linearGradient id="F" x1="1837.202" x2="1861.723" y1="2022.96" y2="1858.319"
                        gradientUnits="userSpaceOnUse">
                        <stop offset="0" stop-color="#066992" class="stopColor066992 svgShape"></stop>
                        <stop offset=".303" stop-color="#0a7696" class="stopColor0a7696 svgShape"></stop>
                        <stop offset="1" stop-color="#12909e" class="stopColor12909e svgShape"></stop>
                    </linearGradient>
                    <path fill="url(#F)"
                        d="M1883.512,1876.526c31.109-8.351,53.803-38.726,53.803-51.434
                c0-12.283-21.199-4.189-50.705-1.074l0.433-7.346c0.343-5.818-8.885-10.628-20.389-10.628c-11.536,0-20.776,4.836-20.386,10.669
                l0.477,7.145c-29.14-3.222-50.753-10.839-50.753,1.234c0,12.552,23.361,42.35,54.255,51.128l5.08,75.967
                c7.864,2.344,15.605,5.112,23.238,8.199L1883.512,1876.526z"></path>
                    <g>
                        <linearGradient id="G" x1="1719.507" x2="1973.984" y1="1341.066"
                            y2="1960.238" gradientUnits="userSpaceOnUse">
                            <stop offset="0" stop-color="#f9d6a1" class="stopColorf9d6a1 svgShape"></stop>
                            <stop offset=".417" stop-color="#f8b594"
                                class="stopColorf8b594 svgShape"></stop>
                            <stop offset=".768" stop-color="#f8a08c"
                                class="stopColorf8a08c svgShape"></stop>
                            <stop offset="1" stop-color="#f89889" class="stopColorf89889 svgShape"></stop>
                        </linearGradient>
                        <path fill="url(#G)"
                            d="M2097.075,1794.898c1.675-63.896-142.663-59.711-154.582-94.908
                c-26.626-78.63-69.981-261.645-86.844-340.324c-17.324-80.83-57.28-165.092-199.118-164.594
                c-63.66,0.223-85.469,5.212-80.139,153.561c2.374,66.079,74.906,325.367,128.985,424.069
                c28.783,52.534,108.859,72.493,253.235,72.493C2070.275,1845.195,2096.687,1809.708,2097.075,1794.898z"></path>
                        <linearGradient id="H" x1="1805.456" x2="1793.135" y1="1780.078"
                            y2="1918.69" gradientTransform="matrix(1 0 .1592 .9883 -189.56 12.654)"
                            gradientUnits="userSpaceOnUse">
                            <stop offset="0" stop-color="#f9d6a1" class="stopColorf9d6a1 svgShape"></stop>
                            <stop offset=".417" stop-color="#f8b594"
                                class="stopColorf8b594 svgShape"></stop>
                            <stop offset=".768" stop-color="#f8a08c"
                                class="stopColorf8a08c svgShape"></stop>
                            <stop offset="1" stop-color="#f89889" class="stopColorf89889 svgShape"></stop>
                        </linearGradient>
                        <path fill="url(#H)"
                            d="M1958.613,1845.195c111.663,0,138.074-35.487,138.463-50.297
                c0.174-6.636-0.413-12.528-1.601-17.815c-75.428,22.155-213.658,21.677-289.877,11.366c-44.386-6.005-78.498-13.991-103.21-21.4
                c0.994,1.931,1.99,3.827,2.991,5.653C1734.161,1825.235,1814.237,1845.195,1958.613,1845.195z"></path>
                    </g>
                </g>
                <g>
                    <path fill="#f99790"
                        d="M1878.817 1573.63c1.248-.587 9.604 13.451 8.688 31.492-.453 8.94-19.898 27.641-39.665 30.79-12.499 1.991-49.147-7.006-67.615-20.574-18.468-13.568-19.552-19.808-19.552-19.808l13.543-22.614C1774.216 1572.915 1845.575 1577.022 1878.817 1573.63zM1947.313 1527.173c23.344-10.863 41.878-2.789 74.319 4.281 27.338 5.958 140.914 9.717 143.579 11.903 7.293 5.982 42.548 28.557 41.307 37.465-.822 5.902-33.817 2.91-33.817 2.91s-25.021-4.733-25.818-8.337c-.075-.338-23.229-6.706-36.061-6.012-36.957 1.998-117.858 4.795-129.52 1.298-35.52-10.651-41.11-18.952-46.874-25.572C1930.394 1540.478 1943.572 1528.914 1947.313 1527.173z"
                        class="colorf99790 svgShape"></path>
                    <linearGradient id="I" x1="2298.133" x2="2407.536" y1="1980.506" y2="2117.098"
                        gradientTransform="rotate(17.446 4041.58 584.343)"
                        gradientUnits="userSpaceOnUse">
                        <stop offset="0" stop-color="#f97d80" class="stopColorf97d80 svgShape"></stop>
                        <stop offset="1" stop-color="#e06a70" class="stopColore06a70 svgShape"></stop>
                    </linearGradient>
                    <path fill="url(#I)"
                        d="M2111.904,1551.399c-78.064-17.748-45.88-10.276-105.705-31.982
                c-60.651-15.989-30.411-92.413-32.603-113.637c-4.498-43.54-66.795-33.669-76.171,12.515c-0.062,8.126-1.82,16.059-4.047,23.932
                c-11.376,32.653-17.631,74.248,1.395,103.875c29.599,46.092,106.263,26.887,143.969,24.804
                c25.299-1.403,24.683,0.674,44.759,0.083c28.94-0.852,29.691-3.592,35.643,1.5c7.04,6.023,27.684,2.654,27.74,2.907
                c0.358,1.616,5.594,3.46,11.256,5.002C2146.059,1547.623,2128.58,1559.841,2111.904,1551.399z"></path>
                    <linearGradient id="J" x1="1932.728" x2="1848.421" y1="1292.761" y2="1336.557"
                        gradientTransform="rotate(-1.725 4098.806 681.807)"
                        gradientUnits="userSpaceOnUse">
                        <stop offset="0" stop-color="#f04650" class="stopColorf04650 svgShape"></stop>
                        <stop offset=".446" stop-color="#8b4765" class="stopColor8b4765 svgShape"></stop>
                        <stop offset="1" stop-color="#094880" class="stopColor094880 svgShape"></stop>
                    </linearGradient>
                    <path fill="url(#J)"
                        d="M1912.628,1292.29c8.557-0.237,29.627,10.088,32.215,16.561
                c25.275,30.794,37.811,72.972,45.034,115.068c0,0-79.904,26.206-80,23.3C1909.782,1444.313,1903.135,1292.552,1912.628,1292.29z
                "></path>
                    <path fill="#f9b2b0"
                        d="M1892.362,1458.697c0.588,3.945-0.505,10.774,2.633,17.443
                c30.486-10.529,66.188-22.124,101.027-41.555c-0.838-2.146-7.706-20.192-7.572-20.137
                C1965.147,1431.004,1945.96,1436.159,1892.362,1458.697z"
                        class="colorf9b2b0 svgShape"></path>
                    <path fill="#0678a2"
                        d="M2539.894,1345.678h-276.797c-13.849,0-26.329,8.358-34.08,21.164l-89.171,216.57h329.773
                l87.373-212.203C2562.003,1359.039,2553.055,1345.678,2539.894,1345.678z"
                        class="color0678a2 svgShape"></path>
                    <path fill="#12c3db"
                        d="M2544.85,1345.678h-276.797c-13.849,0-26.329,8.358-31.601,21.164l-89.171,216.57h327.295
                l87.373-212.203C2566.959,1359.039,2558.011,1345.678,2544.85,1345.678z"
                        class="color12c3db svgShape"></path>
                    <path fill="#0694c3"
                        d="M2125.218,1583.412c-4.399,0-4.405,6.51,0,6.51h343.099c3.368,0,6.385-2.652,6.385-6.51H2125.218
                z"
                        class="color0694c3 svgShape"></path>
                    <path fill="#0678a2"
                        d="M1965.82,1583.412c-4.303,0-4.31,6.51,0,6.51h170.17c1.798,0,3.255-1.457,3.255-3.255
                s-1.458-3.255-3.255-3.255H1965.82z"
                        class="color0678a2 svgShape"></path>
                    <linearGradient id="K" x1="1858.289" x2="1616.685" y1="1382.634" y2="1711.54"
                        gradientUnits="userSpaceOnUse">
                        <stop offset="0" stop-color="#f04650" class="stopColorf04650 svgShape"></stop>
                        <stop offset=".446" stop-color="#8b4765" class="stopColor8b4765 svgShape"></stop>
                        <stop offset="1" stop-color="#094880" class="stopColor094880 svgShape"></stop>
                    </linearGradient>
                    <path fill="url(#K)"
                        d="M1737.153,1265.744c2.835-2.705,5.796-5.25,8.967-7.695
            c3.172-2.441,6.555-4.784,10.245-7.054c3.947-2.109,39.461-21.135,43.706-22.124c3.071-14.749,96.208,6.105,96.208,6.105
            c27.485,13.722,59.166,42.471,59.166,42.471s20.602,50.15,20.916,74.215c0.314,24.065-32.679,80.69-35.94,95.885
            c-10.755,50.118-39.707,150.802-42.239,162.601c-1.398,6.512-16.516,10.244-16.516,10.244l-50.293,20.05
            c-101.071-3.331-81.84-2.127-102.165-5.081l-23.878-28.358l21.21-64.767c0,0-1.539-60.548-12.913-74.028
            c-8.05-9.54-13.004-35.483-14.985-47.396c-4.723-8.311-6.522-16.467-6.473-24.567c0.025-4.05,0.52-8.076,1.392-12.017
            C1692.57,1368.618,1719.555,1281.879,1737.153,1265.744z"></path>
                    <g>
                        <linearGradient id="L" x1="3869.506" x2="3870.265" y1="2333.763"
                            y2="2314.774"
                            gradientTransform="scale(-1 1) rotate(-17.812 417.608 20338.309)"
                            gradientUnits="userSpaceOnUse">
                            <stop offset="0" stop-color="#f99790" class="stopColorf99790 svgShape"></stop>
                            <stop offset="1" stop-color="#e06a70" class="stopColore06a70 svgShape"></stop>
                        </linearGradient>
                        <path fill="url(#L)"
                            d="M1781.649,2090.16c0,0,3.774,69.757,9.501,78.148
                    c5.727,8.391,31.843,15.716,39.352,2.87c7.51-12.846,3.828-97.362,3.828-97.362L1781.649,2090.16z"></path>
                        <path fill="#cdeef9"
                            d="M1781.445,2148.843c0,0-2.531,31.574-6.417,35.728c-3.887,4.153-3.526,15.579-3.526,15.579
                        s33.075,19.119,76.804,17.638c43.729-1.482,32.62-19.672,32.62-19.672l-43.443-44.542l-4.468-23.067
                        c0,0-33.835-5.357-36.971,6.699C1789.433,2162.631,1781.445,2148.843,1781.445,2148.843z"
                            class="colorcdeef9 svgShape"></path>
                        <path fill="#06a9cd"
                            d="M1882.134 2203.956c-3.372 2.249-1.671-8.396-15.118-5.987-13.292 2.381-15.57 12.999-24.956 12.932-24.394-.176-52.057-4.845-64.427-12.009-1.544-.894-2.451-2.455-2.378-4.243.128-3.143-.362-6.948 1.548-13.44-.619 1.579-1.219 2.768-1.775 3.362-3.887 4.153-4.376 14.48-4.376 14.48-.22 3.638 1.638 6.821 4.933 8.422 34.005 16.532 52.19 19.28 89.12 13.955C1880.091 2219.209 1886.872 2203.533 1882.134 2203.956zM1781.445 2148.843c0 0 .375 2.565.851 6.333.995 2.068 2.52 1.94 4.839 1.122 9.689-3.418 8.661-13.836 14.999-20.116 5.432-5.383 26.323-2.696 31.643-1.747l-.761-3.928c0 0-33.835-5.357-36.971 6.699C1789.433 2162.631 1781.445 2148.843 1781.445 2148.843zM1805.726 2150.859c-.426 0-.829-.257-.994-.678-.215-.55.055-1.169.604-1.385 11.984-4.702 22.38-4.149 28.114-2.065.554.202.84.814.639 1.369-.202.554-.816.841-1.369.639-1.854-.674-11.849-3.742-26.604 2.046C1805.988 2150.835 1805.856 2150.859 1805.726 2150.859zM1811.362 2164.728c-.41 0-.8-.237-.977-.636-.239-.539.004-1.17.544-1.409 12.349-5.469 23.658-4.219 28.249-2.044.533.252.76.889.508 1.423-.252.532-.887.761-1.423.508-4.233-2.006-14.775-3.112-26.469 2.067C1811.653 2164.698 1811.507 2164.728 1811.362 2164.728zM1818.803 2176.362c-.387 0-.761-.212-.951-.58-.27-.524-.063-1.168.462-1.438 8.598-4.418 19.135-5.209 28.193-2.115.557.19.856.798.665 1.356-.192.559-.796.855-1.357.666-8.516-2.91-18.433-2.164-26.525 1.994C1819.134 2176.324 1818.968 2176.362 1818.803 2176.362z"
                            class="color06a9cd svgShape"></path>
                        <g>
                            <linearGradient id="M" x1="1307.114" x2="1307.887" y1="30.422"
                                y2="11.104" gradientTransform="rotate(-33.602 5241.297 -351.744)"
                                gradientUnits="userSpaceOnUse">
                                <stop offset="0" stop-color="#f99790"
                                    class="stopColorf99790 svgShape"></stop>
                                <stop offset="1" stop-color="#e06a70"
                                    class="stopColore06a70 svgShape"></stop>
                            </linearGradient>
                            <path fill="url(#M)"
                                d="M2182.175,2089.462c0,0,17.036,68.068,14.012,77.574s-25.985,23.08-37.017,12.595
                        c-11.032-10.484-32.531-92.732-32.531-92.732L2182.175,2089.462z"></path>
                            <path fill="#cdeef9"
                                d="M2277.682,2177.894c-18.805-3.318-33.635-5.765-49.537-16.622
                            c-9.022-6.159-20.15-12.225-28.518-20.174c-6.954,12.256-19.431,16.276-34.137,15.664
                            c-8.945-0.372-17.072-3.925-24.035-9.088c-2.251,10.04-8.23,16.922-14.1,25.416c-1.063,6.057-2.092,11.763-1.519,17.917
                            c0.618,1.422,1.237,2.844,1.856,4.265c16.281,1.099,32.58,2.154,48.822,3.677c0.802-0.964,1.582-1.929,2.394-2.894
                            c2.398,1.278,5.435,2.589,7.451,3.804c15.97,1.303,19.77,0.977,38.639,2.314s48.26-2.174,68.608-9.692
                            C2294.219,2183.709,2286.116,2179.382,2277.682,2177.894z"
                                class="colorcdeef9 svgShape"></path>
                            <path fill="#06a9cd"
                                d="M2203.008 2163.802c-1.219.234-2.443-.439-2.781-1.557-.352-1.165.39-2.371 1.658-2.694 5.593-1.427 10.927-3.048 14.729-7.16.851-.921 2.354-1.035 3.359-.251 1.003.782 1.126 2.163.274 3.085-4.673 5.054-11.003 6.991-17.086 8.543C2203.11 2163.781 2203.059 2163.793 2203.008 2163.802zM2216.377 2170.009c-1.234.237-2.467-.455-2.79-1.587-.334-1.169.427-2.365 1.701-2.672 5.183-1.248 9.328-2.725 12.71-5.88.923-.864 2.432-.872 3.37-.024.938.848.949 2.233.026 3.094-4.389 4.094-9.754 5.805-14.898 7.043C2216.457 2169.993 2216.417 2170.001 2216.377 2170.009zM2229.896 2176.42c-1.208.231-2.424-.428-2.773-1.534-.366-1.161.361-2.375 1.625-2.712 3.924-1.045 7.985-2.434 11.094-5.508.895-.886 2.404-.936 3.368-.114.964.823 1.019 2.208.123 3.093-3.908 3.864-8.896 5.572-13.258 6.734C2230.015 2176.396 2229.955 2176.409 2229.896 2176.42z"
                                class="color06a9cd svgShape"></path>
                            <path fill="#06a9cd"
                                d="M2277.494 2177.798c-1.434-.314-1.65-.098-3.445-.478-2.707.697-3.103 1.986-2.075 3.324 2.053 2.675 1.251 5.308-.701 7.904-34.863 12.17-90.007 3.374-126.442-3.112-.451-1.48-.887-3.085-1.695-4.422-3.294-5.449-7.596-9.094-14.459-9.903-.462.736-.878 1.16-1.334 2.102-.437 1.843-1.541 9.038-1.673 10.339-.133 1.305.096-.942 0 0-.095.941-.01.107-.01.107-.04.474-.026.402-.049.754s-.054.994-.062 1.354c-.008.36-.006.451-.006.815 0 .364.012 1.048.032 1.402.021.354.006.434.037.741.093.934-.046 1.265.257 2.364.302 1.099 1.345 2.981 1.707 4.16 6.9.497 39.46 2.753 48.827 3.69 1.048-.947 1.621-1.926 2.505-2.886 2.39 1.277 5.437 2.589 7.451 3.804 15.97 1.306 19.77.972 38.639 2.314 18.868 1.343 48.259-2.192 68.609-9.675C2294.173 2183.477 2286.26 2179.716 2277.494 2177.798zM2165.161 2161.115c16.126.595 29.244-3.962 38.027-16.623-1.23-1.149-2.448-2.29-3.611-3.422-6.85 12.313-19.394 16.292-34.086 15.691-8.938-.365-17.075-3.928-24.035-9.088-.282 1.611-.644 3.232-1.114 4.89C2147.821 2157.29 2156.012 2160.778 2165.161 2161.115z"
                                class="color06a9cd svgShape"></path>
                            <linearGradient id="N" x1="1842.378" x2="1950.96" y1="1743.026"
                                y2="1811.205" gradientUnits="userSpaceOnUse">
                                <stop offset="0" stop-color="#117daf"
                                    class="stopColor117daf svgShape"></stop>
                                <stop offset=".407" stop-color="#129dc4"
                                    class="stopColor129dc4 svgShape"></stop>
                                <stop offset=".764" stop-color="#12b1d2"
                                    class="stopColor12b1d2 svgShape"></stop>
                                <stop offset="1" stop-color="#12b9d7"
                                    class="stopColor12b9d7 svgShape"></stop>
                            </linearGradient>
                            <path fill="url(#N)"
                                d="M1725.703,1538.981l-15.673,32.52c0,0-23.532,84.336,11.608,129.02
                    c35.141,44.684,114.093,51.54,114.093,51.54s200.031,79.439,218.953,79.439c-9.006,87.823,16.979,127.62,44.774,239.11
                    c20.552,39.072,36.77,49.002,36.77,49.002h56.766c0,0-28.373-318.963-22.967-328.893c1.482-2.721-11.779-29.651-40.078-49.374
                    c-74.971-52.251-221.233-128.301-221.233-128.301l-4.133-23.035C1827.014,1588.528,1790.068,1577.784,1725.703,1538.981z"></path>
                            <path fill="#88d5dc"
                                d="M2125.858,2130.983c27.334-1.512,49.076-0.78,71.215-9.195
                    c-3.557-8.838,2.772-19.213-0.526-27.763c-0.458-1.188-0.906-2.364-1.36-3.546l-74.802,11.101
                    C2118.501,2107.253,2123.552,2121.737,2125.858,2130.983z"
                                class="color88d5dc svgShape"></path>
                        </g>
                        <linearGradient id="O" x1="1796.893" x2="1800.863" y1="1853.403"
                            y2="1438.543" gradientUnits="userSpaceOnUse">
                            <stop offset="0" stop-color="#12b9d7" class="stopColor12b9d7 svgShape"></stop>
                            <stop offset=".236" stop-color="#12b1d2"
                                class="stopColor12b1d2 svgShape"></stop>
                            <stop offset=".593" stop-color="#129dc4"
                                class="stopColor129dc4 svgShape"></stop>
                            <stop offset="1" stop-color="#117daf" class="stopColor117daf svgShape"></stop>
                        </linearGradient>
                        <path fill="url(#O)"
                            d="M1710.03,1571.502c-34.325,43.826-24.225,107.203-11.809,137.292
                c8.982,21.766,40.29,41.143,78.679,69.5c5.268,72.563-26.994,90.51-23.094,139.008c0.957,36.358,31.924,204.522,31.924,204.522
                l67.306-12.232l35.971-153.59l13.704-124.271c0,0,7.315-60.42,7.315-66.805s-31.767-104.442-31.767-104.442
                c10.083-10.806,20.436-50.418,26.904-71.008c-75.58-4.158-122.629-14.861-179.459-50.495L1710.03,1571.502z"></path>
                        <path fill="#88d5dc"
                            d="M1716.133 1559.083c89.443 51.654 121.071 54.215 191.867 50.409l-2.313-23.146c-77.697 9.358-180.158-47.245-180.158-47.245L1716.133 1559.083zM1863.616 2095.833c-3.933 9.682 1.6 11.871-1.929 22.929-29.54 1.809-56.211 7.907-81.091 2.236 2.645-9.203-5.526-18.735-3.12-27.62.334-1.235.658-2.456.989-3.684l86.291 3.375C1864.373 2093.986 1863.993 2094.906 1863.616 2095.833z"
                            class="color88d5dc svgShape"></path>
                    </g>
                    <path fill="#f9b2b0"
                        d="M1800.072,1228.87c3.071-14.749,96.208,6.105,96.208,6.105c1.021,0.509,2.047,1.04,3.077,1.589
            c11.914,6.347,19.068,17.441,19.857,30.401c1.202,19.763-3.386,46.612-38.449,44.722c-56.102-3.024-67.956-32.54-89.339-51.45
            C1781.276,1251.261,1797.03,1229.578,1800.072,1228.87z"
                        class="colorf9b2b0 svgShape"></path>
                    <linearGradient id="P" x1="8782.014" x2="8783.431" y1="1336.381" y2="1336.381"
                        gradientTransform="matrix(-1 0 -.1896 .9622 10779.332 26.28)"
                        gradientUnits="userSpaceOnUse">
                        <stop offset="0" stop-color="#f9ebbe" class="stopColorf9ebbe svgShape"></stop>
                        <stop offset=".093" stop-color="#f5e9be" class="stopColorf5e9be svgShape"></stop>
                        <stop offset=".621" stop-color="#e0ddc0" class="stopColore0ddc0 svgShape"></stop>
                        <stop offset=".969" stop-color="#d8d9c1" class="stopColord8d9c1 svgShape"></stop>
                    </linearGradient>
                    <path fill="url(#P)"
                        d="M1743.34,1315.19C1742.508,1304.567,1743.864,1310.024,1743.34,1315.19L1743.34,1315.19z"></path>
                    <g>
                        <path fill="#f99790"
                            d="M1846.348,1126.722c-8.943,47.042-25.069,68.537-37.358,104.123
                c-3.584,10.379-1.879,20.982,4.734,28.867c3.735,4.453,7.55,9.136,9.537,11.967c11.623,16.565,44.245,36.843,69.448,28
                c26.867-9.427,17.082-20.973,15.848-31.005c0,0-11.696-42.082-3.082-100.509
                C1914.087,1109.737,1846.348,1126.722,1846.348,1126.722z"
                            class="colorf99790 svgShape"></path>
                        <linearGradient id="Q" x1="8372.754" x2="8359.055" y1="1270.511"
                            y2="1240.257"
                            gradientTransform="matrix(-1 0 -.1409 .9634 10396.147 16.166)"
                            gradientUnits="userSpaceOnUse">
                            <stop offset="0" stop-color="#f99790" class="stopColorf99790 svgShape"></stop>
                            <stop offset="1" stop-color="#e06a70" class="stopColore06a70 svgShape"></stop>
                        </linearGradient>
                        <path fill="url(#Q)"
                            d="M1902.962,1252.215c-0.73-12.96-0.956-28.224-0.082-45.219
                c0.283-8.141,1.089-17.679,2.593-29.95c8.614-70.291-59.125-49.858-59.125-49.858l-4.194,52.302
                C1839.568,1288.641,1881.141,1306.769,1902.962,1252.215z"></path>
                    </g>
                    <g>
                        <path fill="#f99790"
                            d="M1930.826,1102.774c9.851,26.401,9.515,69.479-20.259,103.728
                c-29.775,34.249-62.024-15.087-67.279-27.048c-5.255-11.961-18.198-21.452-20.131-56.911
                c-1.934-35.459,42.812-69.914,68.542-58.574C1917.427,1075.31,1923.689,1083.648,1930.826,1102.774z"
                            class="colorf99790 svgShape"></path>
                        <linearGradient id="R" x1="-49.66" x2="-83.318" y1="1305.449" y2="1283.643"
                            gradientTransform="rotate(5.595 2868.996 20808.255)"
                            gradientUnits="userSpaceOnUse">
                            <stop offset="0" stop-color="#f97d80" class="stopColorf97d80 svgShape"></stop>
                            <stop offset="1" stop-color="#e06a70" class="stopColore06a70 svgShape"></stop>
                        </linearGradient>
                        <path fill="url(#R)"
                            d="M1867.648,1064.048c29.82,2.159,44.083,10.679,48.606,14.48
                c0.466,0.427,16.629,22.565,7.67,13.093c-0.117,0.012-68.453,5.346-82.754,46.521c-5.993,17.256-6.355,28.516-8.099,24.698
                c-0.492-1.999-7.887-23.255-8.283-25.519c-0.762-7.571-0.319-18.677,0.137-24.528c0.096-1.237,0.002-2.65-0.21-4.194
                C1830.232,1088.171,1849.113,1070.204,1867.648,1064.048z"></path>
                        <path fill="#0f487a"
                            d="M1927.022,1093.598c0,0,17.675-2.567,20.767-31.565c3.831-35.932-30.399-40.78-45.555-42.143
                c-75.587-6.797-80.521,48.719-80.521,48.719s-17.245,22.132-18.361,32.6c-1.116,10.469,15.966,41.589,23.452,55.304
                c7.486,13.715,13.822,21.767,13.822,21.767s-8.653-35.026-9.423-41.89c-0.77-6.864-1.807-15.261,5.154-1.046
                c6.961,14.215-0.293-18.283,3.03-28.415C1847.621,1081.819,1931.319,1094.763,1927.022,1093.598z"
                            class="color0f487a svgShape"></path>
                    </g>
                    <g>
                        <linearGradient id="S" x1="2556.685" x2="2623.606" y1="-1348.486"
                            y2="-1348.486"
                            gradientTransform="scale(-1) rotate(42.309 579.291 -7400.85)"
                            gradientUnits="userSpaceOnUse">
                            <stop offset="0" stop-color="#f97d80" class="stopColorf97d80 svgShape"></stop>
                            <stop offset="1" stop-color="#e06a70" class="stopColore06a70 svgShape"></stop>
                        </linearGradient>
                        <path fill="url(#S)"
                            d="M2040.004,1585.384c1.193-0.758-10.378-14.505-10.378-14.505
                    s-47.364-20.85-54.169-13.984c-4.739,4.781,22.025,24.792,22.025,24.792S2033.047,1589.806,2040.004,1585.384z"></path>
                        <path fill="#f99790"
                            d="M1751.437,1504.137c-1.401-8.58-25.473-65.307-11.338-92.322
                    c14.135-27.015,8.747-76.647,38.474-67.267c29.727,9.38,46.972,75.064,48.438,83.807c0,0,3.815,36.983,3.352,53.832
                    c1.196,0.239,13.51,9.869,14.401,10.62c13.078,11.028,31.831,41.713,36.94,44.284c4.228,2.128,17.678,8.601,20.271,9.779
                    c8.879,5.041,19.673,9.998,29.118,3.802c3.71-2.168,7.505-3.892,11.35-5.208s7.741-2.226,11.652-2.767
                    c33.666-5.655,84.939-0.699,91.685,37.714c-24.287-9.913-47.225,1.239-71.511,6.196c-5.397,1.239-9.445-2.478-14.801-1.409
                    c-3.542-0.466-7.075-1.008-10.597-1.653c-10.566-1.935-21.025-4.799-31.271-9.33c-6.746-2.478-17.54,0-26.372,0.454
                    c-5.23-0.18-10.984-0.548-17.033-1.206c-12.096-1.315-25.365-3.789-37.957-8.249c-36.078-12.778-74.625-37.846-78.019-48.804
                    C1756.393,1513.371,1752.838,1512.717,1751.437,1504.137z"
                            class="colorf99790 svgShape"></path>
                        <linearGradient id="T" x1="8734.264" x2="8698.791" y1="34.442" y2="20.607"
                            gradientTransform="scale(-1 1) rotate(36.771 1346.131 -15084.824)"
                            gradientUnits="userSpaceOnUse">
                            <stop offset="0" stop-color="#f99790" class="stopColorf99790 svgShape"></stop>
                            <stop offset="1" stop-color="#e06a70" class="stopColore06a70 svgShape"></stop>
                        </linearGradient>
                        <path fill="url(#T)"
                            d="M1825.647,1422.313c0.715,2.806,1.173,4.906,1.363,6.041c0,0,3.886,36.524,3.363,53.515
                    c-4.732,0.555-9.785,1.87-13.991,3.186c-6.39,2-11.879,5.588-17.7,2.447c-26.281-14.183-41.704-31.452-61.892-61.295
                    C1741.325,1408.166,1776.663,1407.174,1825.647,1422.313z"></path>
                        <linearGradient id="U" x1="8820.167" x2="8662.732" y1="910.468" y2="978.626"
                            gradientTransform="scale(-1 1) rotate(15.879 1294.899 -36709.39)"
                            gradientUnits="userSpaceOnUse">
                            <stop offset="0" stop-color="#f99790" class="stopColorf99790 svgShape"></stop>
                            <stop offset="1" stop-color="#e06a70" class="stopColore06a70 svgShape"></stop>
                        </linearGradient>
                        <path fill="url(#U)"
                            d="M1757.524,1515.441c17.979,0.121,30.499-9.23,47.695,5.716
                    c21.818,18.963,21.15,38.546,96.705,49.841c0,0,18.911,0.87,17.239,3.949c-3.641-2.436-44.495,5.898-91.399-12.945
                    c-50.497-20.269-64.679-40.044-67.164-41.477C1758.146,1517.37,1758.781,1516.961,1757.524,1515.441z"></path>
                        <g>
                            <path fill="#f04650"
                                d="M1725.94,1437.035c-3.451-17.094-8.661-38.456-14.219-65.933
                    c-4.202-20.77-9.779-25.008-5.459-49.233c2.705-15.169,26.614-49.688,26.614-49.688c34.21-5.347,64.218,13.253,85.733,38.35
                    c30.236,35.27,14.037,49.454,9.537,96.976c-0.335,3.537,6.684,9.713,7.864,18.713
                    C1798.857,1418.491,1760.054,1421.683,1725.94,1437.035z"
                                class="colorf04650 svgShape"></path>
                            <path fill="#f9b2b0"
                                d="M1828.72,1409.932c1.655,3.681,6.343,9.075,7.289,16.288
                    c-37.152-7.729-75.954-4.536-110.069,10.815c-0.453-2.242-4.413-21.008-4.499-20.899
                    C1721.441,1416.136,1782.22,1389.755,1828.72,1409.932z"
                                class="colorf9b2b0 svgShape"></path>
                        </g>
                    </g>
                </g>
                <g>
                    <path fill="#d8807f"
                        d="M1736.681,2225.044c-7.949,0-13.927-6.451-13.914-14.401v-577.698h28.755v577.744
                C1751.509,2218.621,1744.613,2225.044,1736.681,2225.044z"
                        class="colord8807f svgShape"></path>
                    <linearGradient id="V" x1="-11916.428" x2="-11911.4" y1="1617.094" y2="1744.449"
                        gradientTransform="translate(13651.023)" gradientUnits="userSpaceOnUse">
                        <stop offset="0" stop-color="#9d6167" class="stopColor9d6167 svgShape"></stop>
                        <stop offset="1" stop-color="#d8807f" class="stopColord8807f svgShape"></stop>
                    </linearGradient>
                    <rect width="28.755" height="97.403" x="1722.766" y="1632.945" fill="url(#V)"></rect>
                    <path fill="#f88a89"
                        d="M2139.055,2225.044c-7.95,0-13.927-6.451-13.915-14.401v-577.698h29.219v577.744
            C2154.346,2218.621,2146.987,2225.044,2139.055,2225.044z"
                        class="colorf88a89 svgShape"></path>
                    <path fill="#d8907f"
                        d="M2366.382,2225.044c-7.949,0-13.927-6.451-13.915-14.401v-577.698h28.755v577.744
                C2381.21,2218.621,2374.314,2225.044,2366.382,2225.044z"
                        class="colord8907f svgShape"></path>
                    <linearGradient id="W" x1="-11284.178" x2="-11284.178" y1="1635.203"
                        y2="1729.966" gradientTransform="translate(13651.023)"
                        gradientUnits="userSpaceOnUse">
                        <stop offset="0" stop-color="#b16d6b" class="stopColorb16d6b svgShape"></stop>
                        <stop offset=".196" stop-color="#bb7570" class="stopColorbb7570 svgShape"></stop>
                        <stop offset=".68" stop-color="#d0847b" class="stopColord0847b svgShape"></stop>
                        <stop offset="1" stop-color="#d8897f" class="stopColord8897f svgShape"></stop>
                    </linearGradient>
                    <rect width="28.755" height="97.403" x="2352.468" y="1632.945" fill="url(#W)"></rect>
                    <path fill="#f8a289"
                        d="M2671.615,2225.044c-7.949,0-13.927-6.451-13.915-14.401v-577.698h28.755v577.744
            C2686.443,2218.621,2679.546,2225.044,2671.615,2225.044z"
                        class="colorf8a289 svgShape"></path>
                    <linearGradient id="X" x1="2755.651" x2="1711.429" y1="1617.335" y2="1604.068"
                        gradientUnits="userSpaceOnUse">
                        <stop offset="0" stop-color="#f9d6a1" class="stopColorf9d6a1 svgShape"></stop>
                        <stop offset=".417" stop-color="#f8b594" class="stopColorf8b594 svgShape"></stop>
                        <stop offset=".768" stop-color="#f8a08c" class="stopColorf8a08c svgShape"></stop>
                        <stop offset="1" stop-color="#f89889" class="stopColorf89889 svgShape"></stop>
                    </linearGradient>
                    <path fill="url(#X)"
                        d="M2740.203,1632.997H1665.01c-10.112,0-18.31-8.198-18.31-18.31v-8.757
            c0-10.112,8.198-18.31,18.31-18.31h1075.193c10.112,0,18.31,8.198,18.31,18.31v8.757
            C2758.513,1624.799,2750.316,1632.997,2740.203,1632.997z"></path>
                </g>
                <g>
                    <linearGradient id="Y" x1="9717.341" x2="9746.677" y1="1532.526" y2="1461.82"
                        gradientTransform="matrix(-1 0 0 1 11826.265 0)"
                        gradientUnits="userSpaceOnUse">
                        <stop offset="0" stop-color="#f9d6a1" class="stopColorf9d6a1 svgShape"></stop>
                        <stop offset=".417" stop-color="#f8b594" class="stopColorf8b594 svgShape"></stop>
                        <stop offset=".768" stop-color="#f8a08c" class="stopColorf8a08c svgShape"></stop>
                        <stop offset="1" stop-color="#f89889" class="stopColorf89889 svgShape"></stop>
                    </linearGradient>
                    <polygon fill="url(#Y)"
                        points="2087.837 1587.421 2128.687 1587.421 2136.823 1494.051 2079.7 1494.051"></polygon>
                    <polygon fill="#06a0d9"
                        points="2077.102 1495.288 2139.422 1495.288 2136.676 1489.356 2079.847 1489.356"
                        class="color06a0d9 svgShape"></polygon>
                    <rect width="47.054" height="4.707" x="2084.735" y="1487.417" fill="#06a0d9"
                        class="color06a0d9 svgShape"></rect>
                </g>
            </g>
        </svg>
    </g>
</svg>