<svg id="SvgjsSvg3489" width="550" height="550" xmlns="http://www.w3.org/2000/svg" version="1.1"
    xmlns:xlink="http://www.w3.org/1999/xlink" xmlns:svgjs="http://svgjs.com/svgjs">
    <defs id="SvgjsDefs3490"></defs>
    <g id="SvgjsG3491">
        <svg xmlns="http://www.w3.org/2000/svg" enable-background="new 0 0 3270.658 2673.92"
            viewBox="0 0 3270.658 2673.92" width="550" height="550">
            <g opacity=".3">
                <linearGradient id="a" x1="1725.309" x2="1722.07" y1="2003.024" y2="2225.564"
                    gradientUnits="userSpaceOnUse">
                    <stop offset="0" stop-color="#ef6069" class="stopColoref6069 svgShape"></stop>
                    <stop offset=".509" stop-color="#f9b5b9" class="stopColorf9b5b9 svgShape"></stop>
                    <stop offset=".892" stop-color="#f9f7f8" class="stopColorf9f7f8 svgShape"></stop>
                    <stop offset="1" stop-color="#ffffff" class="stopColorfff svgShape"></stop>
                </linearGradient>
                <ellipse cx="1723.331" cy="2138.871" fill="url(#a)" rx="1253.806" ry="94.543"></ellipse>
            </g>
            <path fill="#10b9d0"
                d="M1535.782 1768.306c-2.567-17.333-2.741-34.358 3.194-51.034 5.9 10.024 9.636 20.247 11.94 31.64C1545.872 1755.377 1540.827 1761.841 1535.782 1768.306zM1729.587 1885.026c-1.805-6.727-4.351-13.37-7.686-19.885-2.958 8.779-4.383 11.6-5.487 19.885H1729.587z"
                class="color10b9d0 svgShape"></path>
            <path fill="#10b9d0"
                d="M1442.895 1795.712c27.439 7.117 55.075 2.013 79.593-11.789 19.085 15.11 38.624 30.168 57.246 45.569-16.12-4.126-41.251-1.854-54.241 2.413-12.99 4.268-12.802 5.272-22.229 10.744 27.851 7.377 55 2.934 79.959-10.59 18.803 15.379 38.093 30.752 56.485 46.366-16.052-4.315-41.258-2.397-54.31 1.621-6.972 2.146-10.161 3.436-13.068 4.979h62.626c2.76-1.217 5.495-2.542 8.2-3.988 1.578 1.331 3.161 2.658 4.741 3.988h7.445c-15.559-13.004-31.222-25.88-46.886-38.756 8.07-27.436 6.278-55.394-7.732-80.608-5.768 16.216-6.606 31.799-4.178 49.155 1.286 9.192 4.964 19.855 8.647 28.753-18.859-15.39-38.009-30.694-57.183-45.775 4.566-16.298 5.092-32.213 2.971-48.965-5.045 6.466-10.091 12.93-15.136 19.396 1.971 9.387 4.936 18.226 8.859 26.977-19.252-15.089-38.538-30.112-57.97-44.968 7.255-27.677 4.596-55.59-10.227-80.315-9.293 25.389-3.923 53.784 6.892 77.764-19.402-14.848-38.984-29.444-58.565-44.056 6.812-27.776 3.559-55.688-11.549-80.188-8.974 25.681-2.929 53.689 8.186 77.676-19.635-14.562-39.455-28.935-59.352-43.115 6.319-27.918 2.878-55.616-12.736-80.137-2.583 10.97-3.734 12.941-3.695 26.615.038 13.673 5.062 36.818 12.997 50.909-20.992-14.46-43.938-27.279-66.418-39.649 6.566-27.278 2.776-55.817-12.306-79.64-8.484 25.164-3.744 54.326 8.317 77.41-23.788-13.775-48.299-25.411-72.927-37.699 5.603-25.859 1.509-54.597-12.056-77.432-6.992 19.911-5.761 41.358.252 61.639 1.161 3.915 5.172 9.834 7.437 13.603-24.864-12.315-49.862-25.324-74.468-38.342 5.959-24.798 3.515-52.889-8.366-75.607-10.048 23.117-8.412 51.714 4.049 73.331-23.53-13.692-47.539-27.444-70.175-42.585 6.88-24.374 7.83-50.125-2.022-73.889-11.475 21.159-12.67 49.813-1.891 71.271-21.131-14.571-41.873-31.879-60.506-49.351 6.082-13.891 8.807-27.487 10.188-42.548-.026.021-.048.038-.073.059.349-10.475-.935-20.248-3.947-30.289-13.606 20.018-16.255 46.879-9.442 69.707-18.021-16.83-34.178-37.438-48.46-57.435 12.861-22.258 19.788-46.117 15.076-72.068-5.893 8.341-7.481 9.403-12.122 20.952-4.641 11.549-8.553 32.797-5.456 47.391-14.109-20.073-25.904-43.258-35.958-65.81 16.431-20.717 26.273-44.88 24.304-71.595-18.25 17.162-25.537 43.148-26.099 67.514-10.142-23.628-17.954-48.254-23.968-73.25 18.874-20.088 31.881-43.23 32.414-71.335-12.296 10.536-20.129 22.447-26.386 37.859-3.321 8.179-5.838 19.688-7.107 28.917-6.407-26.303-10.781-53.044-14.063-80.002 21.378-18.91 37.048-42.33 39.747-71.253-22.458 14.987-33.933 41.123-40.341 66.433-3.85-27.227-6.771-54.551-8.844-81.978 23.177-18.34 40.342-41.549 44.665-71.281-23.889 14.302-36.932 40.802-45.03 66.436-2.347-27.187-4.929-54.373-7.407-81.553 23.913-17.736 41.264-41.147 46.514-70.843-24.62 14.092-38.522 40.378-47.141 66.45-3.641-24.886-8.585-49.625-13.984-74.176 23.196-17.054 39.013-40.055 43.433-69.005-9.18 6.575-11.311 7.266-20.308 17.614-8.998 10.349-20.498 31.267-23.914 47.074-3.837-15.533-7.289-31.681-11.282-47.384 5.727-26.559 9.064-60.479-4.685-85.059-11.521 29.833-12.424 61.722 1.194 91.021 1.117 4.852 2.523 9.871 3.388 14.631-11.22-13.584-30.26-25.987-44.937-31.282-11.531-4.159-13.596-3.694-23.717-4.926 17.376 22.79 41.895 35.858 69.788 40.362 5.32 24.072 10.793 48.424 15.285 72.486-9.453-13.663-30.124-28.164-42.852-33.094s-13.322-3.8-24.056-5.478c16.949 22.765 40.559 37.043 67.957 42.857 4.522 26.343 6.478 53.169 8.85 79.632-7.991-14.918-28.531-29.209-41.171-34.327-12.64-5.118-13.06-3.744-23.694-5.515 17.1 22.822 39.281 35.933 65.688 44.411 2.854 27.447 3.236 55.538 7.515 82.773-5.317-8.708-13.356-16.991-21.479-22.198-14.177-9.087-26.994-13.748-43.31-14.713 16.665 21.102 39.775 34.82 65.545 41.399 3.977 27.188 6.156 55.045 11.326 81.903-8.734-13.915-29.837-25.272-42.539-28.606-12.701-3.334-12.731-2.273-23.105-2.771 17.76 19.216 41.47 31.294 66.838 35.798 5.898 25.637 12.186 51.633 20.23 76.502-10.554-11.802-32.136-20.926-44.703-23.232-12.568-2.306-12.515-1.117-22.598-.774 19.784 17.851 43.081 26.024 69.033 28.021 9.259 23.542 19.377 47.328 31.663 69.362-13.227-9.855-33.134-16.322-47.582-17.434-11.326-.871-12.622.187-21.869 1.591 20.862 15.498 46.15 21.479 71.674 19.505 13.401 21.232 28.566 41.613 44.352 60.857-13.715-7.245-37.106-12.013-49.824-11.396-12.719.617-12.242 1.555-21.955 4.078 23.006 13.284 49.147 15.923 74.705 10.534 16.23 19.512 37.733 36.322 56.724 52.513-14.916-5.054-39.437-7.457-52.26-5.494-12.823 1.963-12.117 2.841-21.668 6.411 25.057 11.029 51.964 10.669 77.45 1.884 21.842 16.223 45.145 30.188 67.791 44.982-9.97-1.326-23.15-3.44-32.548-3.087-16.438.618-29.213 3.849-43.026 11.508 26.583 9.236 54.139 5.233 79.488-5.919 24.098 14.24 49.754 26.393 74.068 39.735-16.316-2.366-42.158-.837-55.076 3.488-12.918 4.325-12.088 5.104-21.356 10.496 28.278 7.344 55.423 1.506 80.733-11.781 24.037 13.598 49.997 24.877 74.257 37.586-16.439-2.048-42.111.693-54.904 5.541-12.794 4.849-12.048 5.694-21.138 11.517 28.635 6.191 55.615-.316 80.32-14.938 22.801 13.037 46.333 25.034 68.524 39.142-26.216-2.34-53.6.305-74.721 17.5 27.643 6.075 54.556-.521 78.417-15.167 20.981 12.944 41.062 27.644 60.65 42.284-16.295-3.367-41.293.08-54.069 4.951-12.776 4.871-12.542 5.865-21.702 11.773 28.167 6.065 55.078.355 79.376-14.324 19.531 14.487 39.536 28.964 58.662 43.715-16.236-3.557-41.326-.46-54.174 4.165-12.849 4.625-12.598 5.63-21.839 11.365 27.98 6.366 55.226 1.446 79.58-13.082 19.357 14.83 38.853 29.542 58.045 44.606C1493.135 1776.949 1464.699 1779.596 1442.895 1795.712zM1007.526 1396.115C1004.555 1398.503 1004.444 1398.592 1007.526 1396.115L1007.526 1396.115zM1670.997 1885.026c5.129-23.871 2.513-47.927-9.346-70.007-9.361 22.299-7.103 47.433.381 70.007H1670.997z"
                class="color10b9d0 svgShape"></path>
            <path fill="#10b9d0"
                d="M1002.685 1400.018c.217-.175.433-.351.65-.526C1003.119 1399.668 1002.902 1399.843 1002.685 1400.018zM1001.565 1400.925c.151-.122.315-.255.464-.376C1003.083 1399.697 1001.874 1400.676 1001.565 1400.925z"
                class="color10b9d0 svgShape"></path>
            <path fill="#2bacc8"
                d="M1406.6,1889.732c-94.125-247.25-382.205-500.034-631.877-593.514
				c-106.829-39.698-194.402-60.439-286.355-106.884c12.16,118.589,91.792,238.627,166.056,332.171
				c165.194,206.24,375.009,356.379,639.107,364.675L1406.6,1889.732z"
                class="color2bacc8 svgShape"></path>
            <path fill="#eecb99"
                d="M1406.028,1890.948l1.145-2.432c-98.941-46.567-208.755-112.343-326.392-195.502
				c-94.129-66.541-193.445-144.295-295.19-231.101c-173.25-147.814-295.051-272.278-296.262-273.517l-1.923,1.877
				c1.211,1.241,123.082,125.777,296.42,273.668c101.809,86.863,201.193,164.67,295.391,231.26
				C1196.986,1778.454,1306.942,1844.313,1406.028,1890.948z"
                class="coloreecb99 svgShape"></path>
            <rect width="2.688" height="194.405" x="791.157" y="1294.578" fill="#eecb99"
                transform="rotate(-10.539 792.5 1391.786)" class="coloreecb99 svgShape"></rect>
            <path fill="#eecb99"
                d="M939.233 1589.457l-.49-2.643c-66.628 12.363-135.525 25.146-204.351 19.768l-.21 2.68C803.36 1614.668 872.434 1601.852 939.233 1589.457zM1107.401 1712.029c18.673-64.013 23.647-123.033 16.633-197.35l-2.676.253c6.98 73.958 2.034 132.678-16.537 196.344L1107.401 1712.029zM1172.348 1758.481l-1.523-2.215c-16.405 11.279-36.744 18.936-60.454 22.759-22.405 3.612-45.583 3.428-65.3 2.771-38.143-1.271-74.026-4.869-116.349-11.665l-.426 2.654c42.439 6.815 78.426 10.423 116.685 11.698 19.847.661 43.187.845 65.818-2.804C1134.905 1777.792 1155.613 1769.987 1172.348 1758.481z"
                class="coloreecb99 svgShape"></path>
            <g>
                <path fill="#eecb99"
                    d="M1286.986,1853.209c-40.841-10.988-118.597-48.952-181.321-105.125
				c-158.134-141.634-188.534-350.017-198.442-564.766c65.815,12.254,157.927,48.318,233.827,100.416
				C1339.786,1420.146,1415.378,1638.615,1286.986,1853.209z"
                    class="coloreecb99 svgShape"></path>
                <path fill="#e4414c"
                    d="M1288.755,1852.923l-3.538,0.572c-4.38-27.077-23.895-103.941-66.407-201.046
				c-31.204-71.275-69.889-143.03-114.98-213.272c-56.364-87.804-122.956-173.478-197.923-254.643l2.633-2.432
				c75.136,81.348,141.877,167.221,198.367,255.234c45.198,70.419,83.974,142.359,115.251,213.823
				C1264.788,1748.564,1284.361,1825.729,1288.755,1852.923z"
                    class="colore4414c svgShape"></path>
                <path fill="#e4414c"
                    d="M1222.414 1656.694l-2.531-2.536c41.041-40.96 74.24-88.392 98.673-140.977l3.25 1.51C1297.195 1567.658 1263.755 1615.435 1222.414 1656.694zM1229.953 1678.904c-30.238 17.581-61.404 22.932-104.211 17.891-38.542-4.539-75.244-21.78-103.345-48.548l2.472-2.595c27.543 26.236 63.516 43.135 101.293 47.584 42.535 5.009 72.083-.041 101.99-17.429L1229.953 1678.904zM1161.542 1538.305c-96.223-34.608-159.714-75.005-234.26-149.048l2.525-2.543c74.135 73.635 137.27 113.806 232.947 148.219L1161.542 1538.305zM1072.734 1387.406l-2.665-2.396c27.156-30.199 45.473-67.26 52.972-107.174l3.522.661C1118.943 1319.058 1100.329 1356.718 1072.734 1387.406z"
                    class="colore4414c svgShape"></path>
            </g>
            <g>
                <path fill="#ee6c74"
                    d="M1203.179,1874.789c-14.777,25.438-47.957,64.678-90.453,97.552
				c-175.244,135.092-449.509,112.312-673.635-152.504c27.666-19.389,88.218-55.404,161.941-89.398
				C859.112,1611.972,1038.833,1656.393,1203.179,1874.789z"
                    class="coloree6c74 svgShape"></path>
                <path fill="#eecb99"
                    d="M1204.702,1874.862c-0.038,0.807-0.703,1.451-1.521,1.452
				c-278.675,0.478-759.442-54.407-764.266-54.961c-0.837-0.096-1.44-0.843-1.341-1.689c0.096-0.837,0.852-1.437,1.689-1.341
				c4.822,0.554,485.415,55.42,763.912,54.942c0.842-0.001,1.526,0.68,1.528,1.522
				C1204.704,1874.812,1204.703,1874.837,1204.702,1874.862z"
                    class="coloreecb99 svgShape"></path>
                <path fill="#eecb99"
                    d="M772.233 1850.38c-.026.546-.344 1.06-.872 1.309-.762.359-1.671.034-2.03-.728-27.585-58.414-66.951-106.145-117.006-141.866-.685-.488-.845-1.442-.355-2.127.489-.685 1.442-.845 2.127-.355 50.484 36.027 90.182 84.155 117.992 143.046C772.199 1849.892 772.245 1850.139 772.233 1850.38zM987.856 1869.801c-.007.143-.034.288-.083.43-17.112 49.191-42.842 89.331-76.476 119.302-35.579 31.705-78.392 50.441-127.249 55.686-.837.09-1.589-.516-1.679-1.354-.089-.836.516-1.589 1.354-1.679 48.212-5.176 90.451-23.657 125.546-54.93 33.241-29.622 58.685-69.332 75.624-118.027.277-.796 1.146-1.216 1.941-.939C987.486 1868.517 987.887 1869.143 987.856 1869.801z"
                    class="coloreecb99 svgShape"></path>
            </g>
            <g>
                <path fill="#2bacc8"
                    d="M2170.292,1647.694c0,0,464.074-89.048,366.21-744.565
				C2536.502,903.129,1933.546,1152.53,2170.292,1647.694z"
                    class="color2bacc8 svgShape"></path>
                <path fill="#eecb99"
                    d="M2168.875,1647.694h2.831c0.582-93.182,362.374-737.375,366.029-743.871l-2.468-1.388
				c-0.914,1.625-92.461,164.496-182.903,336.834C2230.857,1470.802,2169.123,1608.222,2168.875,1647.694z"
                    class="coloreecb99 svgShape"></path>
                <path fill="#eecb99"
                    d="M2311.691 1315.936l2.427-1.457c-37.556-62.517-60.533-133.984-66.449-206.675l-2.821.23C2250.798 1181.155 2273.913 1253.047 2311.691 1315.936zM2360.955 1228.478c37.834-7.463 73.053-20.789 104.68-39.609 31.952-19.013 60.334-43.694 84.358-73.358l-2.201-1.782c-23.812 29.403-51.94 53.866-83.604 72.708-31.349 18.654-66.266 31.865-103.78 39.265L2360.955 1228.478zM2241.451 1466.633c66.19 26.366 143.309 22.225 206.296-11.075l-1.322-2.502c-62.263 32.917-138.497 37.009-203.926 10.947L2241.451 1466.633z"
                    class="coloreecb99 svgShape"></path>
                <g>
                    <path fill="#eec489"
                        d="M2031.907,1885.204c21.292-53.659,126.903-232.466,369.486-301.996
				c152.191-44.063,321.743-35.302,478.845-6.812c-37.655,67.996-125.086,182.766-234.604,265.709
				C2455.838,1986.188,2240.01,2013.464,2031.907,1885.204z"
                        class="coloreec489 svgShape"></path>
                    <path fill="#e35a63"
                        d="M2030.632,1885.818c-0.04-0.082-0.072-0.169-0.095-0.261c-0.195-0.757,0.26-1.529,1.017-1.724
				c1.257-0.324,127.603-33.012,294.525-87.171c154.038-49.979,375.105-128.98,553.508-221.523c0.694-0.36,1.548-0.089,1.908,0.604
				c0.366,0.697,0.089,1.548-0.605,1.908c-98.567,51.13-274.685,131.099-553.957,221.709c-167,54.184-293.415,86.889-294.673,87.213
				C2031.595,1886.746,2030.918,1886.415,2030.632,1885.818z"
                        class="colore35a63 svgShape"></path>
                    <path fill="#e35a63"
                        d="M2558.676 1715.678c-.033-.069-.061-.142-.083-.218-7.243-24.833-6.534-55.077 1.996-85.161 8.211-28.958 22.939-55.814 41.472-75.621.534-.571 1.43-.601 2.001-.067.571.534.601 1.43.066 2.001-18.23 19.483-32.725 45.927-40.815 74.459-8.387 29.579-9.098 59.267-2.002 83.596.219.75-.212 1.536-.962 1.755C2559.673 1716.619 2558.97 1716.291 2558.676 1715.678zM2424.594 1765.256c-.235-.489-.176-1.093.199-1.532.507-.595 1.4-.666 1.995-.159 57.792 49.289 137.079 74.571 199.697 91.09.755.199 1.207.974 1.007 1.73-.199.756-.974 1.207-1.729 1.008-62.908-16.596-142.584-42.014-200.811-91.673C2424.797 1765.586 2424.677 1765.428 2424.594 1765.256zM2240.04 1824.335c-.021-.043-.04-.088-.057-.135-10.837-30.086-13.159-64.227-6.715-98.731 6.149-32.92 19.883-64.729 39.716-91.987.46-.632 1.345-.772 1.977-.312.633.46.772 1.345.312 1.977-19.587 26.92-33.15 58.332-39.222 90.842-6.353 34.01-4.072 67.639 6.595 97.252.265.735-.116 1.546-.852 1.811C2241.105 1825.301 2240.35 1824.981 2240.04 1824.335zM2146.078 1854.369c-.276-.575-.136-1.284.379-1.707.604-.495 1.496-.407 1.992.197 31.513 38.429 72.154 77.415 114.436 109.775.621.475.739 1.363.264 1.984-.475.621-1.363.739-1.984.264-42.45-32.489-83.258-71.635-114.905-110.228C2146.187 1854.565 2146.126 1854.469 2146.078 1854.369z"
                        class="colore35a63 svgShape"></path>
                </g>
                <g>
                    <path fill="#ee6c74"
                        d="M2030.104,1799.657c2.537-23.34,13.047-61.479,21.399-86.43
				c67.324-202.741,237.674-411.399,550.795-556.95c75.985-35.343,162.301-68.118,260.676-97.384
				c-20.716,88.937-75.669,228.095-150.772,348.705C2554.945,1657.624,2323.511,1821.167,2030.104,1799.657z"
                        class="coloree6c74 svgShape"></path>
                    <path fill="#eecb99"
                        d="M2029.089,1800.645c-0.167-0.171-0.292-0.387-0.356-0.635c-0.195-0.757,0.261-1.529,1.018-1.723
				c43.689-11.243,114.6-57.119,210.764-136.354c77.031-63.469,170.291-148.333,277.188-252.235
				c182.033-176.928,342.631-350.04,344.232-351.767c0.531-0.573,1.427-0.607,2-0.076c0.592,0.543,0.608,1.427,0.076,2
				c-1.602,1.728-162.243,174.886-344.327,351.865c-106.955,103.957-200.274,188.874-277.365,252.394
				c-96.488,79.502-167.77,125.566-211.862,136.913C2029.948,1801.159,2029.431,1800.996,2029.089,1800.645z"
                        class="coloreecb99 svgShape"></path>
                    <path fill="#eecb99"
                        d="M2429.571 1497.326c-.294-.302-.45-.73-.389-1.179.105-.775.819-1.317 1.593-1.212 70.515 9.602 141.944 9.065 212.303-1.597.774-.117 1.495.416 1.612 1.188.117.772-.415 1.494-1.187 1.612-70.627 10.701-142.327 11.24-213.109 1.602C2430.068 1497.696 2429.783 1497.545 2429.571 1497.326zM2641.997 1287.828c-.233-.24-.383-.563-.399-.924-.034-.781.571-1.442 1.351-1.477 51.358-2.27 103.318-14.545 150.261-35.497.714-.318 1.551.001 1.87.716.318.714-.002 1.551-.716 1.87-47.266 21.096-99.581 33.455-151.29 35.74C2642.655 1288.274 2642.269 1288.108 2641.997 1287.828zM2164.897 1723.921c-.335-.344-.487-.853-.354-1.353.201-.755.977-1.204 1.732-1.003l141.361 37.646c.755.201 1.205.976 1.004 1.732-.201.755-.976 1.204-1.732 1.003l-141.361-37.646C2165.29 1724.233 2165.069 1724.098 2164.897 1723.921zM2278.033 1629.716c-.045-.046-.088-.096-.127-.149-22.257-30.219-38.766-65.98-47.742-103.419-8.977-37.439-10.479-76.799-4.344-113.824.128-.771.856-1.293 1.628-1.165.772.128 1.292.856 1.165 1.627-6.074 36.655-4.585 75.627 4.303 112.702 8.889 37.074 25.234 72.484 47.269 102.4.464.63.33 1.516-.3 1.98C2279.309 1630.291 2278.518 1630.215 2278.033 1629.716zM2544.131 1376.332c-.165-.169-.289-.381-.354-.626-9.071-34.342-11.004-71.559-5.59-107.627 5.413-36.068 18.186-71.078 36.939-101.244.413-.664 1.286-.867 1.949-.455.667.415.868 1.286.455 1.949-18.551 29.842-31.187 64.48-36.543 100.169-5.357 35.69-3.445 72.512 5.528 106.484.2.756-.251 1.53-1.007 1.73C2544.996 1376.849 2544.476 1376.686 2544.131 1376.332z"
                        class="coloreecb99 svgShape"></path>
                </g>
            </g>
            <path fill="#eecb99"
                d="M2139.247,2098.088h5.656c4.988-8.159,8.632-14.396,10.103-17.16
		c27.51,3.427,57.696-5.227,79.764-27.44c-17.147-3.049-49.442,3.508-77.572,23.542c12.712-22.601,21.706-39.405,35.671-69.398
		c27.57,1.02,57.807-10.754,77.039-34.47c-12.864-1.094-37.907,4.427-60.98,19.707c-3.704,2.451-8.28,5.768-14.171,10.709
		c11.462-24.635,26.858-64.708,29.335-72.4c27.135-1.524,55.485-15.008,73.562-41.345c-16.863,0.092-47.362,11.734-72.1,37.119
		c9.207-26.605,14.752-44.521,22.619-74.682c27.917-4.128,55.577-21.761,69.497-47.963c-9.311,0.93-28.003,7.717-44.375,20.309
		c-8.859,6.731-15.962,13.525-23.994,23.327c7.066-28.416,12.948-58.608,15.639-76.542c27.297-6.706,52.091-25.753,64.65-54.355
		c-16.487,3.24-44.42,20.488-63.986,49.932c3.402-22.768,5.897-41.23,8.342-77.592c25.885-8.973,49.847-30.927,59.342-59.868
		c-14.968,4.277-38.573,21.458-54.486,47.472c-5.353,8.646-4.679,9.773-4.397,5.566c1.199-30.019,1.527-34.715,1.083-75.727
		c24.837-10.957,46.924-34.259,54.773-63.462c-6.055,2.128-14.558,7.774-20.026,12.14c-15.315,12.256-27.205,29.133-34.867,46.856
		c-0.385-9.609-0.614-31.719-4.141-77.86c23.914-12.27,44.76-35.78,51.78-65.429c-15.492,6.062-39.394,26.846-52.146,60.978
		c-2.394-29.135-5.437-59.729-7.507-77.642c23.11-12.752,43.687-36.6,50.389-66.015c0,0-8.694,3.476-19.385,12.911
		c-14.783,13.037-25.091,30.028-31.492,48.669c-3.002-26.931-3.905-34.478-8.902-77.354c22.853-12.729,43.667-36.733,50.605-65.332
		c-16.478,6.261-39.86,27.367-51.121,60.902c-5.892-51.408-6.097-54.888-8.396-77.44c22.658-12.118,44.187-35.095,52.481-63.254
		c0,0-2.217,0.734-5.83,2.553c-19.08,9.58-37.163,28.654-47.097,56.267c-3.311-35.947-4.11-47.045-5.847-77.521
		c23.674-11.3,46.015-33.132,55.806-59.857c-4.179,1.085-12.652,4.76-20.66,10.306c-11.569,8.007-25.764,21.874-35.36,45.103
		c-1.244-24.663-1.832-52.307-1.41-77.756c23.244-9.221,47.684-28.787,60.16-54.85c-19.669,3.244-45.583,21.123-60.087,50.401
		c0.037-8.486,0.868-38.722,4.843-77.463c24.316-7.186,50.4-24.138,65.358-47.81c-16.623,0.758-45.555,12.532-64.856,43.393
		c3.337-29.433,9.006-60.101,13.081-76.511c24.776-4.03,53.333-17.912,70.751-38.426c-5.6-0.566-17.133,0.451-27.963,4.139
		c-16.806,5.767-30.79,16.262-41.77,29.963c6.799-27.496,12.379-45.974,23.087-73.936c23.525-0.489,54.528-8.705,75.626-25.812
		c-3.629-1.04-9.547-1.645-13.382-1.796c-15.742-0.595-31.872,3.576-46.729,12.846c-14.769,9.022-16.031,15.856-11.694,5.369
		c10.008-24.194,25.148-52.242,32.864-63.769c24.367,4.044,56.302,0.814,78.982-11.593c-19.369-9.694-50.843-8.844-76.611,7.843
		c15.955-25.228,36.076-49.974,46.983-61.409c21.866,7.984,53.382,11.542,79.353,4.089c-15.588-12.397-45.801-19.471-76.362-7.365
		c10.06-11.349,34.205-33.982,58.092-51.054c19.496,12.276,50.868,23.055,75.806,21.784c-3.182-4.111-10.557-10.631-17.286-14.598
		c-17.084-10.197-35.763-12.791-54.871-9.698c19.644-14.172,50.815-30.445,67.891-36.566c15.988,16.605,41.712,33.954,66.854,40.571
		c-0.999-2.512-3.55-7.239-6.685-11.565c-9.486-13.082-22.335-22.323-38.964-27.46c-5.622-1.729-13.996-3.013-17.091-3.176
		c7.995-2.963,15.742-5.523,23.423-7.725c25.557,0.854,54.448-8.606,78.022-30.011c-26.792-6.259-75.1,18.806-85.496,27.297
		c-17.831,5.448-33.448,11.87-45.685,18.138c10.395-12.906,18.523-25.827,24.71-38.629c4.814-9.961,11.062-26.773,11.374-36.794
		c-28.602,18.663-42.207,47.83-40.118,77.401c-23.336,11.453-45.252,26.971-65.422,43.036
		c13.481-27.357,20.443-62.998,16.105-81.511c-22.464,24.682-28.16,56.879-19.524,84.417
		c-21.072,17.919-39.787,37.462-52.518,53.201c-4.858,6.009-0.521,3.12,2.208-21.65c1.902-16.582,1.014-43.77-6.169-58.281
		c-15.986,28.961-14.911,60.733-1.024,86.096c-16.867,21.095-32.348,45.135-43.198,65.251c1.357-21.722-1.366-39.874-5.265-53.693
		c-3.963-13.858-9.125-23.22-11.996-26.935c-10.011,30.394-3.154,62.369,15.129,84.571c-12.475,23.494-24.321,51.765-30.705,71.869
		c-1.71-13.452-3.989-24.662-8.86-37.833c-4.962-13.577-14.283-30.632-22.686-38.197c-4.25,27.203,5.804,59.271,30.144,80.283
		c-7.99,24.215-15.196,52.809-19.388,75.75c-8.836-34.898-28.979-61.194-42.604-69.848c1.287,31.657,17.78,58.61,41.763,74.244
		c-4.6,26.465-7.178,44.077-9.853,77.443c-10.486-27.587-26.981-47.681-43.477-59.178c-3.684-2.576-6.325-3.978-7.284-4.418
		c4.718,28.347,23.26,54.328,50.442,68.057c-1.848,25.848-2.524,51.414-2.331,78.073c-15.051-31.458-39.955-52.541-56.491-58.138
		c8.427,29.445,30.367,51.916,56.524,62.607c0.35,24.766,1.154,46.398,3.263,77.91c-11.504-20.71-25.464-33.826-37.149-41.941
		c-11.703-8.107-21.115-11.12-23.151-11.619c10.467,28.014,33.812,49.032,60.62,58.015c1.9,27.649,6.074,68.951,7.06,77.696
		c-18.003-29.785-45.693-47.171-62.669-50.363c11.87,26.906,36.122,46.786,63.149,54.8c1.677,16.511,6.879,60.912,8.801,77.375
		c-19.324-31.132-48.052-46.123-63.535-48.514c12.731,26.292,37.242,45.254,64.052,52.943c4.557,39.63,5.314,45.648,8.612,77.426
		c-18.033-29.896-45.885-45.883-63.198-48.459c12.711,25.751,37.19,44.882,63.656,52.892c1.271,11.708,3.96,40.423,6.481,77.486
		c-16.323-29.382-43.1-46.677-61.634-49.774c11.978,25.409,35.806,45.163,61.932,54.218c1.81,35.233,1.971,36.791,2.393,76.117
		c-0.031,2.515,0.444,2.274-1.787-1.976c-4.841-9.28-11.119-18.359-18.305-25.631c-13.346-13.548-28.905-21.413-38.643-23.475
		c11.21,26.099,33.475,46.394,58.657,57.154c-0.314,24.044-0.659,45.456-3.708,77.531c-3.447-9.546-7.92-18.306-14.867-27.441
		c-11.667-15.348-28.172-26.012-39.33-29.26c8.613,25.665,30.364,48.638,53.777,61.128c-2.805,29.552-5.792,47.807-10.962,76.917
		c-2.991-11.113-7.212-20.595-11.199-27.082c-3.584-0.573-5.853-0.935-6.83-1.091c0.989,0.158,3.297,0.527,6.929,1.106
		c-10.842-18.008-26.377-30.263-37.532-34.57c6.753,27.327,26.021,51.563,47.786,66.002c-5.999,29.227-9.551,45.023-18.193,75.452
		c-4.889-32.034-25.128-56.956-42.573-65.847c3.408,25,19.119,52.226,41.338,70.12c-8.131,28.15-15.725,48.975-24.959,73.589
		c-0.718-8.998-2.357-17.457-4.861-25.355c-6.692-20.451-20.142-37.136-31.587-44.257c1.491,27.614,15.638,55.178,34.802,73.743
		c-12.851,31.759-24.024,56.205-31.554,70.919c0.213-10.365-0.805-20.082-3.936-30.985c-5.378-18.726-16.93-34.555-26.019-41.527
		c-1.187,25.42,9.353,54.917,27.976,76.495C2160.611,2062.589,2147.438,2084.321,2139.247,2098.088z M2237.276,1767.936
		C2237.177,1767.92,2237.177,1767.92,2237.276,1767.936L2237.276,1767.936z"
                class="coloreecb99 svgShape"></path>
            <path fill="#eecb99"
                d="M2270.767 2020.823c.831-10.818.233-20.914-1.066-27.945-3.931-22.181-14.512-40.095-23.967-48.679-3.148 24.351 3.052 52.81 17.7 76.624H2270.767zM2209.172 2020.823c-1.594-2.371-3.271-4.528-5.006-6.44-.484 2.107-.886 4.259-1.224 6.44H2209.172z"
                class="coloreecb99 svgShape"></path>
            <linearGradient id="b" x1="1161.944" x2="2407.851" y1="1081.639" y2="2327.545"
                gradientUnits="userSpaceOnUse">
                <stop offset="0" stop-color="#f9d9e8" class="stopColorf9d9e8 svgShape"></stop>
                <stop offset=".503" stop-color="#f9efef" class="stopColorf9efef svgShape"></stop>
                <stop offset=".581" stop-color="#f9e7ed" class="stopColorf9e7ed svgShape"></stop>
                <stop offset=".829" stop-color="#f9d4e6" class="stopColorf9d4e6 svgShape"></stop>
                <stop offset="1" stop-color="#f9cde4" class="stopColorf9cde4 svgShape"></stop>
            </linearGradient>
            <path fill="url(#b)"
                d="M1004.124,1778.229c32.551-87.199,156.616-112.934,187.589-200.706
		c19.111-54.157-4.893-114.695-39.689-160.383c-34.797-45.688-80.197-82.667-113.427-129.508
		c-85.059-119.898-73.702-293.001,9.856-413.949s228.271-191.264,374.599-205.355c112.92-10.874,244.881,20.617,295.504,122.137
		c46.761,93.775,10.309,220.676,78.817,299.965c43.496,50.341,115.97,63.562,182.494,64.394s134.852-7.288,198.279,12.791
		c100.334,31.764,165.728,125.736,223.476,213.719c63.169,96.24,129.099,203.699,113.932,317.815
		c-16.317,122.77-122.006,224.586-209.511,303.688c-125.751,113.676-228.792,91.648-386.747,83.095
		c-216.11-11.702-410.42,44.018-626.453-19.137C1179.907,2033.779,944.283,1938.536,1004.124,1778.229z"></path>
            <g>
                <linearGradient id="c" x1="1860.19" x2="1860.19" y1="2144.167" y2="2183.479"
                    gradientUnits="userSpaceOnUse">
                    <stop offset="0" stop-color="#10a9cf" class="stopColor10a9cf svgShape"></stop>
                    <stop offset="1" stop-color="#205f91" class="stopColor205f91 svgShape"></stop>
                </linearGradient>
                <ellipse cx="1860.19" cy="2162.983" fill="url(#c)" rx="200.197" ry="19.072"></ellipse>
                <path fill="#ef879f"
                    d="M1733.314,2072.629c2.624,23.634,7.331,104.29,7.331,105.665
				c73.103,5.239,184.36,5.254,257.89-1.522c0.001-0.034,0.549,2.518-65.622-301.594c0,0-55.199-247.185-120.772-260.886
				c-65.573-13.702-75.928-45.33-102.144-68.275c-25.022-21.9-262.082-131.552-333.232-131.552
				c-30.427,0-30.941,25.716-30.941,29.048c0,61.002,239.67,125.808,239.67,146.728c0,14.521-119.287-0.223-133.627-2.099
				c0,0,88.677,368.355,184.872,416.104C1698.401,2034.853,1730.087,2043.563,1733.314,2072.629z"
                    class="coloref879f svgShape"></path>
                <linearGradient id="d" x1="1817.638" x2="1817.638" y1="2041.328" y2="2170.584"
                    gradientUnits="userSpaceOnUse">
                    <stop offset="0" stop-color="#ef879f" class="stopColoref879f svgShape"></stop>
                    <stop offset="1" stop-color="#d17696" class="stopColord17696 svgShape"></stop>
                    <stop offset="1" stop-color="#a25e87" class="stopColora25e87 svgShape"></stop>
                </linearGradient>
                <path fill="url(#d)"
                    d="M1940.365,1909.428c-66.651-5.991-289.571,81.055-303.626,94.817
				c61.662,30.608,93.347,39.318,96.574,68.384c2.624,23.634,7.331,104.29,7.331,105.665c73.103,5.239,184.36,5.254,257.89-1.522
				C1998.538,2176.738,1996.442,2167.146,1940.365,1909.428z"></path>
                <linearGradient id="e" x1="1791.151" x2="1617.707" y1="1875.141" y2="1829.195"
                    gradientUnits="userSpaceOnUse">
                    <stop offset="0" stop-color="#ef879f" class="stopColoref879f svgShape"></stop>
                    <stop offset="1" stop-color="#a25e87" class="stopColora25e87 svgShape"></stop>
                </linearGradient>
                <path fill="url(#e)"
                    d="M1668.897,1697.944c-49.863-12.466-121.227,240.259-45.092,295.863
					c25.419,29.161,104.58,43.604,147.129,3.652s133.29-4.185,92.159-110.465
					C1821.963,1780.713,1721.485,1620.848,1668.897,1697.944z"></path>
                <linearGradient id="f" x1="1396.59" x2="1485.602" y1="1435.946" y2="1486.097"
                    gradientUnits="userSpaceOnUse">
                    <stop offset="0" stop-color="#ef879f" class="stopColoref879f svgShape"></stop>
                    <stop offset="1" stop-color="#a25e87" class="stopColora25e87 svgShape"></stop>
                </linearGradient>
                <path fill="url(#f)"
                    d="M1371.711,1480.94c48.742,37.909,153.039,73.494,195.364,95.063
					c17.323-28.777,37.988-76.875,35.833-85.516c-0.364-0.045-122.62-56.507-196.852-72.243L1371.711,1480.94z"></path>
                <g>
                    <linearGradient id="g" x1="1994.327" x2="1275.096" y1="1004.672" y2="1500.505"
                        gradientUnits="userSpaceOnUse">
                        <stop offset="0" stop-color="#f9d093" class="stopColorf9d093 svgShape"></stop>
                        <stop offset=".322" stop-color="#f9cd92" class="stopColorf9cd92 svgShape"></stop>
                        <stop offset=".532" stop-color="#f9c58f" class="stopColorf9c58f svgShape"></stop>
                        <stop offset=".709" stop-color="#f9b689" class="stopColorf9b689 svgShape"></stop>
                        <stop offset=".868" stop-color="#f8a181" class="stopColorf8a181 svgShape"></stop>
                        <stop offset="1" stop-color="#f88978" class="stopColorf88978 svgShape"></stop>
                    </linearGradient>
                    <path fill="url(#g)"
                        d="M1970.894,1165.718c0-191.979-155.303-347.685-347.128-348.338
				c-192.196-0.654-349.553,156.145-349.551,348.342c0.001,95.615,38.53,182.226,100.906,245.166
				c65.702,66.296,108.37,151.934,120.059,244.537l4.941,39.14h244.868l4.94-39.136c11.558-91.558,52.351-177.389,117.885-242.365
				C1931.468,1349.95,1970.894,1262.441,1970.894,1165.718z"></path>
                    <path fill="#f9e8b2"
                        d="M1643.844,1756.295c-0.148,0-0.298-0.008-0.449-0.024c-2.325-0.245-4.012-2.328-3.767-4.653
				l51.812-492.276h-132.902l51.812,492.276c0.245,2.325-1.442,4.409-3.767,4.653c-2.323,0.248-4.409-1.441-4.654-3.767
				l-51.906-493.162h-17.324c-11.289,0-21.807-6.074-27.448-15.853l-11.43-19.812c-4.242-7.353-5.358-15.915-3.141-24.109
				c2.216-8.195,7.496-15.027,14.867-19.239c9.518-5.438,20.973-5.604,30.644-0.442c9.648,5.15,15.88,14.728,16.681,25.632
				l4.774,45.355h134.685l4.774-45.355c0.801-10.904,7.032-20.482,16.681-25.632c9.67-5.162,21.126-4.997,30.643,0.442
				c7.371,4.212,12.651,11.044,14.867,19.239c2.217,8.194,1.101,16.756-3.141,24.109l-11.43,19.812
				c-5.641,9.778-16.159,15.853-27.448,15.853h-17.323l-51.906,493.162C1647.821,1754.679,1645.983,1756.295,1643.844,1756.295z
				 M1700.846,1250.874h16.432c8.272,0,15.979-4.451,20.113-11.616l11.43-19.812c3.109-5.388,3.926-11.662,2.302-17.667
				c-1.624-6.005-5.494-11.012-10.894-14.098c-6.974-3.985-15.368-4.106-22.455-0.324c-7.086,3.783-11.657,10.825-12.228,18.837
				c-0.003,0.048-0.008,0.095-0.012,0.143L1700.846,1250.874z M1521.267,1184.604c-3.967,0-7.93,1.028-11.517,3.077
				c-5.401,3.086-9.27,8.093-10.894,14.098c-1.624,6.005-0.807,12.279,2.302,17.667l11.43,19.812
				c4.134,7.165,11.841,11.616,20.113,11.616h16.432c0,0-4.697-44.633-4.7-44.681c-0.57-8.012-5.141-15.054-12.228-18.837
				C1528.764,1185.52,1525.013,1184.604,1521.267,1184.604z"
                        class="colorf9e8b2 svgShape"></path>
                    <linearGradient id="h" x1="1626.33" x2="1623.426" y1="1866.276" y2="1615.782"
                        gradientUnits="userSpaceOnUse">
                        <stop offset="0" stop-color="#f9b088" class="stopColorf9b088 svgShape"></stop>
                        <stop offset=".35" stop-color="#f9b38a" class="stopColorf9b38a svgShape"></stop>
                        <stop offset=".577" stop-color="#f9bb91" class="stopColorf9bb91 svgShape"></stop>
                        <stop offset=".77" stop-color="#f9ca9c" class="stopColorf9ca9c svgShape"></stop>
                        <stop offset=".942" stop-color="#f9dfab" class="stopColorf9dfab svgShape"></stop>
                        <stop offset="1" stop-color="#f9e8b2" class="stopColorf9e8b2 svgShape"></stop>
                    </linearGradient>
                    <path fill="url(#h)"
                        d="M1704.561,1840.936h-157.049l15.27-205.635c2.459-33.117,30.046-58.732,63.255-58.732
				s60.796,25.614,63.255,58.732L1704.561,1840.936z"></path>
                    <linearGradient id="i" x1="1621.938" x2="1624.061" y1="1997.689" y2="1938.572"
                        gradientUnits="userSpaceOnUse">
                        <stop offset="0" stop-color="#31bfdb" class="stopColor31bfdb svgShape"></stop>
                        <stop offset=".776" stop-color="#94a1ba" class="stopColor94a1ba svgShape"></stop>
                        <stop offset="1" stop-color="#b298b0" class="stopColorb298b0 svgShape"></stop>
                    </linearGradient>
                    <circle cx="1623.278" cy="1960.372" r="31.653" fill="url(#i)"></circle>
                    <linearGradient id="j" x1="1508.949" x2="1682.134" y1="1845.097" y2="1794.337"
                        gradientUnits="userSpaceOnUse">
                        <stop offset="0" stop-color="#31bfdb" class="stopColor31bfdb svgShape"></stop>
                        <stop offset="1" stop-color="#87bdc0" class="stopColor87bdc0 svgShape"></stop>
                    </linearGradient>
                    <path fill="url(#j)"
                        d="M1622.239,1966.071c-69.446,0-126.095-56.263-126.095-126.094v-150.644h252.189v150.644
				C1748.334,1909.617,1691.879,1966.071,1622.239,1966.071z"></path>
                    <linearGradient id="k" x1="1629.793" x2="1628.978" y1="1590.516" y2="1635.361"
                        gradientTransform="matrix(.9977 .0399 0 1 -3.953 67.493)"
                        gradientUnits="userSpaceOnUse">
                        <stop offset="0" stop-color="#f5e0b4" class="stopColorf5e0b4 svgShape"></stop>
                        <stop offset=".491" stop-color="#75c4c1" class="stopColor75c4c1 svgShape"></stop>
                        <stop offset="1" stop-color="#10a9cf" class="stopColor10a9cf svgShape"></stop>
                    </linearGradient>
                    <path fill="url(#k)"
                        d="M1496.449,1760.574c-3.019,0-5.572-2.331-5.799-5.391
					c-0.238-3.206,2.168-5.998,5.374-6.236l250.459-18.614c3.204-0.244,5.999,2.168,6.237,5.374
					c0.238,3.206-2.168,5.998-5.374,6.237C1747.346,1741.943,1496.594,1760.574,1496.449,1760.574z"></path>
                    <linearGradient id="l" x1="1629.793" x2="1628.978" y1="1645.792" y2="1690.638"
                        gradientTransform="matrix(.9977 .0399 0 1 -3.953 67.493)"
                        gradientUnits="userSpaceOnUse">
                        <stop offset="0" stop-color="#f5e0b4" class="stopColorf5e0b4 svgShape"></stop>
                        <stop offset=".491" stop-color="#75c4c1" class="stopColor75c4c1 svgShape"></stop>
                        <stop offset="1" stop-color="#10a9cf" class="stopColor10a9cf svgShape"></stop>
                    </linearGradient>
                    <path fill="url(#l)"
                        d="M1496.449,1815.85c-3.019,0-5.572-2.331-5.799-5.391
					c-0.238-3.206,2.168-5.998,5.374-6.237l250.459-18.615c3.204-0.245,5.999,2.167,6.237,5.374
					c0.238,3.206-2.168,5.998-5.374,6.236C1747.346,1797.219,1496.594,1815.85,1496.449,1815.85z"></path>
                    <linearGradient id="m" x1="1629.793" x2="1628.978" y1="1701.068" y2="1745.914"
                        gradientTransform="matrix(.9977 .0399 0 1 -3.953 67.493)"
                        gradientUnits="userSpaceOnUse">
                        <stop offset="0" stop-color="#f5e0b4" class="stopColorf5e0b4 svgShape"></stop>
                        <stop offset=".491" stop-color="#75c4c1" class="stopColor75c4c1 svgShape"></stop>
                        <stop offset="1" stop-color="#10a9cf" class="stopColor10a9cf svgShape"></stop>
                    </linearGradient>
                    <path fill="url(#m)"
                        d="M1496.449,1871.126c-3.019,0-5.572-2.331-5.799-5.391
					c-0.238-3.206,2.168-5.998,5.374-6.237l250.459-18.614c3.204-0.246,5.999,2.167,6.237,5.374
					c0.238,3.206-2.168,5.998-5.374,6.236C1747.346,1852.495,1496.594,1871.126,1496.449,1871.126z"></path>
                </g>
                <g>
                    <linearGradient id="n" x1="1097.622" x2="1217.281" y1="1149.988" y2="1149.988"
                        gradientUnits="userSpaceOnUse">
                        <stop offset=".001" stop-color="#f88978" class="stopColorf88978 svgShape"></stop>
                        <stop offset=".361" stop-color="#f89f81" class="stopColorf89f81 svgShape"></stop>
                        <stop offset="1" stop-color="#f9d093" class="stopColorf9d093 svgShape"></stop>
                    </linearGradient>
                    <path fill="url(#n)"
                        d="M1210.811,1156.458h-106.719c-3.573,0-6.47-2.897-6.47-6.47c0-3.573,2.897-6.47,6.47-6.47
				h106.719c3.573,0,6.47,2.897,6.47,6.47C1217.281,1153.561,1214.384,1156.458,1210.811,1156.458z"></path>
                    <linearGradient id="o" x1="-1452.171" x2="-1332.515" y1="3034.644" y2="3034.644"
                        gradientTransform="rotate(-22.5 -4398.612 -4308.073)"
                        gradientUnits="userSpaceOnUse">
                        <stop offset=".001" stop-color="#f88978" class="stopColorf88978 svgShape"></stop>
                        <stop offset=".361" stop-color="#f89f81" class="stopColorf89f81 svgShape"></stop>
                        <stop offset="1" stop-color="#f9d093" class="stopColorf9d093 svgShape"></stop>
                    </linearGradient>
                    <path fill="url(#o)"
                        d="M1139.531,1352.147c-2.539,0-4.948-1.504-5.98-3.995c-1.367-3.301,0.2-7.086,3.502-8.453
				l98.596-40.84c3.299-1.368,7.085,0.2,8.453,3.501c1.367,3.301-0.2,7.086-3.502,8.453l-98.596,40.84
				C1141.195,1351.988,1140.356,1352.147,1139.531,1352.147z"></path>
                    <linearGradient id="p" x1="-12561.896" x2="-12442.239" y1="-7065.675"
                        y2="-7065.675"
                        gradientTransform="scale(-1) rotate(22.5 -21655.542 22114.679)"
                        gradientUnits="userSpaceOnUse">
                        <stop offset=".001" stop-color="#f88978" class="stopColorf88978 svgShape"></stop>
                        <stop offset=".361" stop-color="#f89f81" class="stopColorf89f81 svgShape"></stop>
                        <stop offset="1" stop-color="#f9d093" class="stopColorf9d093 svgShape"></stop>
                    </linearGradient>
                    <path fill="url(#p)"
                        d="M2081.167,1368.348c-0.825,0-1.664-0.159-2.473-0.494l-98.596-40.84
				c-3.301-1.367-4.869-5.152-3.502-8.453c1.368-3.301,5.153-4.868,8.453-3.501l98.596,40.84c3.302,1.367,4.869,5.152,3.502,8.453
				C2086.115,1366.843,2083.706,1368.348,2081.167,1368.348z"></path>
                    <linearGradient id="q" x1="-10927.838" x2="-10808.18" y1="-9782.802"
                        y2="-9782.802" gradientTransform="rotate(180 -4399.026 -4307.64)"
                        gradientUnits="userSpaceOnUse">
                        <stop offset=".001" stop-color="#f88978" class="stopColorf88978 svgShape"></stop>
                        <stop offset=".361" stop-color="#f89f81" class="stopColorf89f81 svgShape"></stop>
                        <stop offset="1" stop-color="#f9d093" class="stopColorf9d093 svgShape"></stop>
                    </linearGradient>
                    <path fill="url(#q)"
                        d="M2123.317,1173.993h-106.719c-3.573,0-6.47-2.897-6.47-6.47c0-3.573,2.897-6.47,6.47-6.47
				h106.719c3.573,0,6.47,2.897,6.47,6.47C2129.787,1171.096,2126.89,1173.993,2123.317,1173.993z"></path>
                    <linearGradient id="r" x1="-8378.166" x2="-8258.51" y1="-11667.56"
                        y2="-11667.56"
                        gradientTransform="scale(-1) rotate(-22.5 21655.297 -22114.948)"
                        gradientUnits="userSpaceOnUse">
                        <stop offset=".001" stop-color="#f88978" class="stopColorf88978 svgShape"></stop>
                        <stop offset=".361" stop-color="#f89f81" class="stopColorf89f81 svgShape"></stop>
                        <stop offset="1" stop-color="#f9d093" class="stopColorf9d093 svgShape"></stop>
                    </linearGradient>
                    <path fill="url(#r)"
                        d="M1989.287,1019.147c-2.539,0-4.948-1.504-5.98-3.996c-1.367-3.301,0.2-7.086,3.502-8.453
				l98.596-40.84c3.3-1.367,7.085,0.2,8.453,3.502c1.367,3.301-0.2,7.086-3.502,8.453l-98.596,40.84
				C1990.951,1018.988,1990.112,1019.147,1989.287,1019.147z"></path>
                    <linearGradient id="s" x1="-5301.414" x2="-5181.753" y1="-12433.428"
                        y2="-12433.428" gradientTransform="rotate(134.999 -4399.01 -4307.631)"
                        gradientUnits="userSpaceOnUse">
                        <stop offset=".001" stop-color="#f88978" class="stopColorf88978 svgShape"></stop>
                        <stop offset=".361" stop-color="#f89f81" class="stopColorf89f81 svgShape"></stop>
                        <stop offset="1" stop-color="#f9d093" class="stopColorf9d093 svgShape"></stop>
                    </linearGradient>
                    <path fill="url(#s)"
                        d="M1904.793,886.536c-1.656,0-3.312-0.631-4.575-1.895c-2.527-2.527-2.527-6.623,0-9.15
				l75.462-75.462c2.526-2.527,6.623-2.527,9.15,0c2.527,2.527,2.527,6.623,0,9.15l-75.462,75.462
				C1908.104,885.905,1906.449,886.536,1904.793,886.536z"></path>
                    <linearGradient id="t" x1="-2165.939" x2="-2046.283" y1="-11963.248"
                        y2="-11963.248"
                        gradientTransform="scale(-1) rotate(-67.5 6446.795 -6583.698)"
                        gradientUnits="userSpaceOnUse">
                        <stop offset=".001" stop-color="#f88978" class="stopColorf88978 svgShape"></stop>
                        <stop offset=".361" stop-color="#f89f81" class="stopColorf89f81 svgShape"></stop>
                        <stop offset="1" stop-color="#f9d093" class="stopColorf9d093 svgShape"></stop>
                    </linearGradient>
                    <path fill="url(#t)"
                        d="M1775.983,796.357c-0.825,0-1.664-0.159-2.473-0.494
				c-3.301-1.367-4.869-5.152-3.502-8.453l40.84-98.596c1.368-3.301,5.153-4.868,8.453-3.502c3.301,1.367,4.869,5.152,3.502,8.453
				l-40.84,98.596C1780.931,794.853,1778.521,796.357,1775.983,796.357z"></path>
                    <linearGradient id="u" x1="551.287" x2="670.945" y1="-10329.137" y2="-10329.137"
                        gradientTransform="rotate(90 -4399.026 -4307.64)"
                        gradientUnits="userSpaceOnUse">
                        <stop offset=".001" stop-color="#f88978" class="stopColorf88978 svgShape"></stop>
                        <stop offset=".361" stop-color="#f89f81" class="stopColorf89f81 svgShape"></stop>
                        <stop offset="1" stop-color="#f9d093" class="stopColorf9d093 svgShape"></stop>
                    </linearGradient>
                    <path fill="url(#u)"
                        d="M1622.472,762.332c-3.573,0-6.47-2.897-6.47-6.47V649.143c0-3.573,2.897-6.47,6.47-6.47
				s6.47,2.896,6.47,6.47v106.719C1628.942,759.435,1626.046,762.332,1622.472,762.332z"></path>
                    <linearGradient id="v" x1="2435.934" x2="2555.59" y1="-7779.456" y2="-7779.456"
                        gradientTransform="rotate(67.5 -4399.124 -4307.47)"
                        gradientUnits="userSpaceOnUse">
                        <stop offset=".001" stop-color="#f88978" class="stopColorf88978 svgShape"></stop>
                        <stop offset=".361" stop-color="#f89f81" class="stopColorf89f81 svgShape"></stop>
                        <stop offset="1" stop-color="#f9d093" class="stopColorf9d093 svgShape"></stop>
                    </linearGradient>
                    <path fill="url(#v)"
                        d="M1467.627,789.647c-2.539,0-4.948-1.504-5.98-3.996l-40.84-98.596
				c-1.367-3.301,0.2-7.086,3.502-8.453c3.3-1.368,7.086,0.2,8.453,3.502l40.84,98.596c1.367,3.301-0.2,7.086-3.502,8.453
				C1469.291,789.488,1468.452,789.647,1467.627,789.647z"></path>
                    <linearGradient id="w" x1="3201.952" x2="3321.613" y1="-4702.704" y2="-4702.704"
                        gradientTransform="rotate(45.001 -4398.986 -4307.652)"
                        gradientUnits="userSpaceOnUse">
                        <stop offset=".001" stop-color="#f88978" class="stopColorf88978 svgShape"></stop>
                        <stop offset=".361" stop-color="#f89f81" class="stopColorf89f81 svgShape"></stop>
                        <stop offset="1" stop-color="#f9d093" class="stopColorf9d093 svgShape"></stop>
                    </linearGradient>
                    <path fill="url(#w)"
                        d="M1335.016,874.137c-1.656,0-3.312-0.632-4.575-1.895l-75.462-75.462
				c-2.527-2.527-2.527-6.623,0-9.15c2.526-2.527,6.623-2.527,9.15,0l75.462,75.462c2.526,2.527,2.526,6.623,0,9.15
				C1338.327,873.505,1336.671,874.137,1335.016,874.137z"></path>
                    <linearGradient id="x" x1="2731.634" x2="2851.29" y1="-1567.292" y2="-1567.292"
                        gradientTransform="rotate(22.5 -4399.464 -4307.257)"
                        gradientUnits="userSpaceOnUse">
                        <stop offset=".001" stop-color="#f88978" class="stopColorf88978 svgShape"></stop>
                        <stop offset=".361" stop-color="#f89f81" class="stopColorf89f81 svgShape"></stop>
                        <stop offset="1" stop-color="#f9d093" class="stopColorf9d093 svgShape"></stop>
                    </linearGradient>
                    <path fill="url(#x)"
                        d="M1244.832,1002.946c-0.825,0-1.664-0.159-2.473-0.494l-98.596-40.84
				c-3.301-1.367-4.869-5.152-3.502-8.453c1.368-3.301,5.154-4.867,8.453-3.502l98.596,40.84c3.302,1.367,4.869,5.152,3.502,8.453
				C1249.78,1001.442,1247.371,1002.946,1244.832,1002.946z"></path>
                </g>
                <g>
                    <path fill="#ef879f"
                        d="M1499.339,1760.858c0,0-6.824-0.394-15.121,0.425c-10.591,1.047-23.581,4.071-27.838,12.421
					c-6.219,12.195-7.069,19.111-6.166,28.255c0.625,6.323,11.397,17.047,23.293,26.415c7.137,5.621,13.048,13.132,21.981,12.25
					c16.005-1.582,24.768-18.072,23.07-35.259c-1.14-11.538-6.931-23.373-18.051-31.191L1499.339,1760.858z"
                        class="coloref879f svgShape"></path>
                    <linearGradient id="y" x1="1571.338" x2="1587.77" y1="1815.939" y2="1795.517"
                        gradientTransform="rotate(-5.641 1272.12 2702.945)"
                        gradientUnits="userSpaceOnUse">
                        <stop offset="0" stop-color="#ef879f" class="stopColoref879f svgShape"></stop>
                        <stop offset="1" stop-color="#a25e87" class="stopColora25e87 svgShape"></stop>
                    </linearGradient>
                    <path fill="url(#y)"
                        d="M1516.605,1796.05c-2.701-8.314-7.976-16.166-16.097-21.877l-0.89-10.143
					c-1.166-1.177-2.235-2.261-3.217-3.259c-12.53-0.158-34.292,1.698-40.02,12.932c-1.074,2.106-1.984,4.051-2.756,5.88
					c9.017,5.228,21.272,9.985,28.819,14.961c12.757,8.411,14.272,11.799,23.78,10.152
					C1510.502,1803.956,1514.988,1801.048,1516.605,1796.05z"></path>
                    <path fill="#ef879f"
                        d="M1489.901,1665.337c0,0-1.613,0.064-4.288,0.328c-15.036,1.486-62.838,5.543-56.909,65.542
					c1.286,13.018,8.74,20.09,22.005,28.295c8.868,8.129,18.985,19.337,32.543,17.997c28.071-2.774,36.349-31.05,34.385-50.929
					c-1.64-16.601-9.972-33.628-25.971-44.877L1489.901,1665.337z"
                        class="coloref879f svgShape"></path>
                    <linearGradient id="z" x1="1566.76" x2="1587.907" y1="1739.973" y2="1690.973"
                        gradientTransform="rotate(-5.641 1272.12 2702.945)"
                        gradientUnits="userSpaceOnUse">
                        <stop offset="0" stop-color="#ef879f" class="stopColoref879f svgShape"></stop>
                        <stop offset="1" stop-color="#a25e87" class="stopColora25e87 svgShape"></stop>
                    </linearGradient>
                    <path fill="url(#z)"
                        d="M1432.132,1697.962c13.887,13.637,36.769,25.154,54.136,23.438
					c9.745-0.963,21.017-2.817,29.062-6.609c-3.709-12.563-11.46-24.516-23.665-33.098l-1.764-16.356
					C1460.541,1666.497,1440.237,1676.927,1432.132,1697.962z"></path>
                    <path fill="#ef879f"
                        d="M1481.853,1583.892c0,0-1.613,0.064-4.288,0.328c-15.036,1.486-62.838,5.543-56.909,65.542
				c1.286,13.018,8.739,20.09,22.004,28.295c8.868,8.129,18.985,19.337,32.543,17.997c28.071-2.774,36.349-31.05,34.385-50.929
				c-1.64-16.601-9.972-33.627-25.971-44.877L1481.853,1583.892z"
                        class="coloref879f svgShape"></path>
                    <linearGradient id="A" x1="1583.824" x2="1606.002" y1="1647.483" y2="1620.147"
                        gradientTransform="rotate(-5.641 1272.12 2702.945)"
                        gradientUnits="userSpaceOnUse">
                        <stop offset="0" stop-color="#ef879f" class="stopColoref879f svgShape"></stop>
                        <stop offset="1" stop-color="#a25e87" class="stopColora25e87 svgShape"></stop>
                    </linearGradient>
                    <path fill="url(#A)"
                        d="M1483.617,1600.248l-1.765-16.356c0,0-1.613,0.064-4.288,0.328
				c-7.854,0.776-24.646,2.254-38.052,12.038c-8.875,17.842,57.466,18.113,62.306,50.16c1.017,6.737,3.808,11.756,7.177,14.637
				C1512.832,1638.561,1503.634,1614.323,1483.617,1600.248z"></path>
                </g>
                <linearGradient id="B" x1="1818.248" x2="1564.774" y1="1709.751" y2="1857.753"
                    gradientUnits="userSpaceOnUse">
                    <stop offset="0" stop-color="#ef879f" class="stopColoref879f svgShape"></stop>
                    <stop offset="1" stop-color="#a25e87" class="stopColora25e87 svgShape"></stop>
                </linearGradient>
                <path fill="url(#B)"
                    d="M1811.863,1406.412c-16.25,0-61.669,24.739-61.02,120.669
			c0.253,37.471,4.591,58.921,1.641,150.805c-0.57,17.763-11.138,43.489-5.414,158.245c5.724,114.756,42.757,153.2,87.578,153.2
			c75.378,0,108.438-42.142,98.266-114.154c-23.272-164.75-81.604-226.355-106.613-392.943
			C1826.3,1453.215,1834.83,1406.412,1811.863,1406.412z"></path>
            </g>
            <g>
                <linearGradient id="C" x1="1361.539" x2="1194.257" y1="3294.945" y2="3539.264"
                    gradientTransform="rotate(-26.45 -1786.001 3157.233)"
                    gradientUnits="userSpaceOnUse">
                    <stop offset="0" stop-color="#f9c076" class="stopColorf9c076 svgShape"></stop>
                    <stop offset=".356" stop-color="#77908f" class="stopColor77908f svgShape"></stop>
                    <stop offset=".593" stop-color="#34769c" class="stopColor34769c svgShape"></stop>
                    <stop offset=".79" stop-color="#0967a3" class="stopColor0967a3 svgShape"></stop>
                    <stop offset=".968" stop-color="#0660a7" class="stopColor0660a7 svgShape"></stop>
                </linearGradient>
                <path fill="url(#C)"
                    d="M967.989,2063.135c31.686,45.636,92.871,62.342,144.087,36.861
				c55.742-27.733,78.748-95.027,51.956-150.988L967.989,2063.135z"></path>
                <ellipse cx="1066.304" cy="2006.663" fill="#eecb99" rx="113.385" ry="25.615"
                    transform="rotate(-30.658 1066.258 2006.64)" class="coloreecb99 svgShape"></ellipse>
                <g>
                    <linearGradient id="D" x1="-147.842" x2="-51.954" y1="2942.854" y2="3189.424"
                        gradientTransform="rotate(-18.702 -2977.012 -861.884)"
                        gradientUnits="userSpaceOnUse">
                        <stop offset="0" stop-color="#eecb99" class="stopColoreecb99 svgShape"></stop>
                        <stop offset=".404" stop-color="#ecac8c" class="stopColorecac8c svgShape"></stop>
                        <stop offset=".763" stop-color="#eb9784" class="stopColoreb9784 svgShape"></stop>
                        <stop offset="1" stop-color="#eb8f81" class="stopColoreb8f81 svgShape"></stop>
                    </linearGradient>
                    <path fill="url(#D)"
                        d="M1064.334,2010.041c-17.447-30.952-61.313-60.143-86.256-86.105
				c-30.562-31.809-60.402-64.311-89.491-97.472c-56.64-64.567-113.39-131.293-161.825-202.298
				c26.083,19.97,57.009,31.36,82.216,52.052c34.997,28.728,65.315,67.247,94.375,101.772
				C964.063,1850.118,1018.063,1927.897,1064.334,2010.041z"></path>
                    <linearGradient id="E" x1="-150.781" x2="-38.912" y1="3027.765" y2="3162.465"
                        gradientTransform="rotate(-18.702 -2977.012 -861.884)"
                        gradientUnits="userSpaceOnUse">
                        <stop offset="0" stop-color="#eecb99" class="stopColoreecb99 svgShape"></stop>
                        <stop offset=".404" stop-color="#ecac8c" class="stopColorecac8c svgShape"></stop>
                        <stop offset=".763" stop-color="#eb9784" class="stopColoreb9784 svgShape"></stop>
                        <stop offset="1" stop-color="#eb8f81" class="stopColoreb8f81 svgShape"></stop>
                    </linearGradient>
                    <path fill="url(#E)"
                        d="M742.99,1770.879c18.666,19.262,66.242,30.584,90.503,44.379
				c29.924,17.016,58.782,35.898,86.378,56.474c45.217,33.716,121.517,86.288,143.644,139.5
				C944.543,1961.947,831.644,1862.363,742.99,1770.879z"></path>
                    <linearGradient id="F" x1="-58.031" x2="12.534" y1="2995.164" y2="3142.175"
                        gradientTransform="rotate(-18.702 -2977.012 -861.884)"
                        gradientUnits="userSpaceOnUse">
                        <stop offset="0" stop-color="#eecb99" class="stopColoreecb99 svgShape"></stop>
                        <stop offset=".404" stop-color="#ecac8c" class="stopColorecac8c svgShape"></stop>
                        <stop offset=".763" stop-color="#eb9784" class="stopColoreb9784 svgShape"></stop>
                        <stop offset="1" stop-color="#eb8f81" class="stopColoreb8f81 svgShape"></stop>
                    </linearGradient>
                    <path fill="url(#F)"
                        d="M860.018,1571.271c-7.282,87.674,24.029,174.65,68.379,250.629
				c20.495,35.111,43.827,68.432,67.886,101.168c19.163,26.074,43.234,72.769,70.12,88.235
				c26.244-24.972-69.836-185.79-85.985-218.272c-19.007-38.229-38.711-76.11-59.102-113.62
				C909.515,1657.705,858.096,1594.405,860.018,1571.271z"></path>
                    <linearGradient id="G" x1="-641.399" x2="-540.086" y1="3111.05" y2="3216.834"
                        gradientTransform="rotate(-24.499 -2551.891 -1059.71)"
                        gradientUnits="userSpaceOnUse">
                        <stop offset="0" stop-color="#eecb99" class="stopColoreecb99 svgShape"></stop>
                        <stop offset=".404" stop-color="#ecac8c" class="stopColorecac8c svgShape"></stop>
                        <stop offset=".763" stop-color="#eb9784" class="stopColoreb9784 svgShape"></stop>
                        <stop offset="1" stop-color="#eb8f81" class="stopColoreb8f81 svgShape"></stop>
                    </linearGradient>
                    <path fill="url(#G)"
                        d="M893.254,1916.006c59.307,19.312,119.486,44.398,160.855,91.075
				c-62.224-21.49-124.448-42.979-186.672-64.468c-31.659-10.933-63.751-22.082-91.362-41.041
				c-15.624-10.728-48.788-35.514-67.447-48.844c11.117-2.299,46.709,14.909,56.533,19.245c13.415,5.921,27.13,11.137,40.957,16.008
				C834.901,1898.121,864.244,1906.559,893.254,1916.006z"></path>
                    <linearGradient id="H" x1="-29.835" x2="-102.485" y1="2989.409" y2="3299.988"
                        gradientTransform="rotate(-18.702 -2977.012 -861.884)"
                        gradientUnits="userSpaceOnUse">
                        <stop offset="0" stop-color="#eecb99" class="stopColoreecb99 svgShape"></stop>
                        <stop offset=".404" stop-color="#ecac8c" class="stopColorecac8c svgShape"></stop>
                        <stop offset=".763" stop-color="#eb9784" class="stopColoreb9784 svgShape"></stop>
                        <stop offset="1" stop-color="#eb8f81" class="stopColoreb8f81 svgShape"></stop>
                    </linearGradient>
                    <path fill="url(#H)"
                        d="M1066.188,1782.389c-3.535-72.594-13.198-146.524-45.527-211.618
				c4.454,8.967-3.985,38.567-4.701,49.212c-1.198,17.813-1.856,35.663-1.979,53.515c-0.25,36.395,1.729,72.803,5.898,108.959
				c7.69,66.695,18.776,147.274,50.107,207.433C1083.813,1985.394,1067.4,1807.26,1066.188,1782.389z"></path>
                    <linearGradient id="I" x1="500.232" x2="681.654" y1="2904.994" y2="2952.983"
                        gradientTransform="rotate(-9.782 -4632.499 -134.605)"
                        gradientUnits="userSpaceOnUse">
                        <stop offset="0" stop-color="#eecb99" class="stopColoreecb99 svgShape"></stop>
                        <stop offset=".404" stop-color="#ecac8c" class="stopColorecac8c svgShape"></stop>
                        <stop offset=".763" stop-color="#eb9784" class="stopColoreb9784 svgShape"></stop>
                        <stop offset="1" stop-color="#eb8f81" class="stopColoreb8f81 svgShape"></stop>
                    </linearGradient>
                    <path fill="url(#I)"
                        d="M808.521,1969.063c43.888,7.266,88.761,3.5,133.214,5.2
				c26.391,1.009,113.374,6.022,122.04,37.735c-40.641,3.198-87.265-7.892-127.403-14.717
				C893.33,1989.961,850.645,1980.545,808.521,1969.063z"></path>
                    <linearGradient id="J" x1="5.422" x2="-110.461" y1="3032.135" y2="3232.296"
                        gradientTransform="rotate(-18.702 -2977.012 -861.884)"
                        gradientUnits="userSpaceOnUse">
                        <stop offset="0" stop-color="#eecb99" class="stopColoreecb99 svgShape"></stop>
                        <stop offset=".404" stop-color="#ecac8c" class="stopColorecac8c svgShape"></stop>
                        <stop offset=".763" stop-color="#eb9784" class="stopColoreb9784 svgShape"></stop>
                        <stop offset="1" stop-color="#eb8f81" class="stopColoreb8f81 svgShape"></stop>
                    </linearGradient>
                    <path fill="url(#J)"
                        d="M1141.734,1657.01c-7.372,13.394,0.72,55.262-0.039,71.608
				c-1.107,23.852-3.303,47.654-6.567,71.307c-6.701,48.553-17.908,96.487-33.464,142.966c-3.314,9.903-15.322,59.225-26.501,59.622
				c-14.353,0.51-9.354-50.567-9.186-60.015c0.828-46.392,6.939-92.681,18.096-137.718
				C1096.822,1753.317,1116.166,1703.468,1141.734,1657.01z"></path>
                </g>
            </g>
            <g>
                <linearGradient id="K" x1="-2928.218" x2="-2841.406" y1="-1746.294" y2="-1523.063"
                    gradientTransform="scale(-1 1) rotate(23.111 -11214.02 1403.803)"
                    gradientUnits="userSpaceOnUse">
                    <stop offset="0" stop-color="#eecb99" class="stopColoreecb99 svgShape"></stop>
                    <stop offset=".404" stop-color="#ecac8c" class="stopColorecac8c svgShape"></stop>
                    <stop offset=".763" stop-color="#eb9784" class="stopColoreb9784 svgShape"></stop>
                    <stop offset="1" stop-color="#eb8f81" class="stopColoreb8f81 svgShape"></stop>
                </linearGradient>
                <path fill="url(#K)"
                    d="M2370.887,2092.714c-6.909-31.416,5.072-77.589,6.233-110.162
				c1.423-39.91,1.941-79.851,1.556-119.784c-0.751-77.753-2.731-157.03-12.905-234.175c-5.547,29.218-19.54,55.569-24.06,84.745
				c-6.276,40.508-3.485,84.797-2.256,125.634C2342.023,1924.284,2352.53,2009.359,2370.887,2092.714z"></path>
                <linearGradient id="L" x1="-2915.374" x2="-2804.514" y1="-1604.563" y2="-1471.079"
                    gradientTransform="scale(-1 1) rotate(24.697 -10761.693 1362.828)"
                    gradientUnits="userSpaceOnUse">
                    <stop offset="0" stop-color="#eecb99" class="stopColoreecb99 svgShape"></stop>
                    <stop offset=".404" stop-color="#ecac8c" class="stopColorecac8c svgShape"></stop>
                    <stop offset=".763" stop-color="#eb9784" class="stopColoreb9784 svgShape"></stop>
                    <stop offset="1" stop-color="#eb8f81" class="stopColoreb8f81 svgShape"></stop>
                </linearGradient>
                <path fill="url(#L)"
                    d="M2441.056,1701.48c-0.327,26.578-26.876,67.121-34.952,93.572
				c-9.962,32.625-17.887,65.869-23.748,99.473c-9.604,55.062-28.751,144.863-8.457,198.243
				C2426.01,1976.28,2439.504,1827.71,2441.056,1701.48z"></path>
                <linearGradient id="M" x1="2136.344" x2="2233.958" y1="1258.249" y2="1484.854"
                    gradientTransform="rotate(-.607 59985.818 -14124.458)"
                    gradientUnits="userSpaceOnUse">
                    <stop offset="0" stop-color="#eecb99" class="stopColoreecb99 svgShape"></stop>
                    <stop offset=".404" stop-color="#ecac8c" class="stopColorecac8c svgShape"></stop>
                    <stop offset=".763" stop-color="#eb9784" class="stopColoreb9784 svgShape"></stop>
                    <stop offset="1" stop-color="#eb8f81" class="stopColoreb8f81 svgShape"></stop>
                </linearGradient>
                <path fill="url(#M)"
                    d="M2259.255,1742.171c49.527,44.576,77.406,108.801,92.386,173.728
				c6.922,30.004,11.35,60.494,15.073,91.038c2.965,24.328,13.928,62.578,7.128,85.064c-27.438-0.15-57.925-138.723-65.879-165.021
				c-9.362-30.951-18.157-62.073-26.382-93.346C2276.822,1815.537,2272.323,1753.933,2259.255,1742.171z"></path>
                <linearGradient id="N" x1="-2818.626" x2="-2726.905" y1="-1527.854" y2="-1432.087"
                    gradientTransform="scale(-1 1) rotate(11.11 -20587.238 2145.316)"
                    gradientUnits="userSpaceOnUse">
                    <stop offset="0" stop-color="#eecb99" class="stopColoreecb99 svgShape"></stop>
                    <stop offset=".404" stop-color="#ecac8c" class="stopColorecac8c svgShape"></stop>
                    <stop offset=".763" stop-color="#eb9784" class="stopColoreb9784 svgShape"></stop>
                    <stop offset="1" stop-color="#eb8f81" class="stopColoreb8f81 svgShape"></stop>
                </linearGradient>
                <path fill="url(#N)"
                    d="M2446.383,1932.72c-33.471,45.477-64.54,95.663-70.383,151.826
				c34.47-48.617,68.94-97.234,103.41-145.851c17.538-24.736,35.281-49.858,45.609-78.367c5.844-16.132,17.188-51.857,23.895-71.504
				c-9.394,4.169-26.519,35.596-31.464,43.965c-6.753,11.429-14.097,22.498-21.706,33.372
				C2479.904,1888.796,2462.755,1910.475,2446.383,1932.72z"></path>
                <linearGradient id="O" x1="-2663.08" x2="-2728.847" y1="-1473.492" y2="-1192.337"
                    gradientTransform="scale(-1 1) rotate(16.911 -13790.62 1584.228)"
                    gradientUnits="userSpaceOnUse">
                    <stop offset="0" stop-color="#eecb99" class="stopColoreecb99 svgShape"></stop>
                    <stop offset=".404" stop-color="#ecac8c" class="stopColorecac8c svgShape"></stop>
                    <stop offset=".763" stop-color="#eb9784" class="stopColoreb9784 svgShape"></stop>
                    <stop offset="1" stop-color="#eb8f81" class="stopColoreb8f81 svgShape"></stop>
                </linearGradient>
                <path fill="url(#O)"
                    d="M2248.666,1925.536c-35.666-55.294-67.524-114.802-78.043-179.754
				c1.449,8.948,23.263,26.286,29.401,33.743c10.272,12.479,20.165,25.27,29.666,38.345c19.369,26.656,37.105,54.496,53.096,83.305
				c29.498,53.142,63.814,118.294,72.466,179.088C2342.706,2084.241,2260.885,1944.48,2248.666,1925.536z"></path>
                <linearGradient id="P" x1="-2785.491" x2="-2621.241" y1="-1033.172" y2="-989.726"
                    gradientTransform="scale(-1 1) rotate(25.83 -9257.358 1223.495)"
                    gradientUnits="userSpaceOnUse">
                    <stop offset="0" stop-color="#eecb99" class="stopColoreecb99 svgShape"></stop>
                    <stop offset=".404" stop-color="#ecac8c" class="stopColorecac8c svgShape"></stop>
                    <stop offset=".763" stop-color="#eb9784" class="stopColoreb9784 svgShape"></stop>
                    <stop offset="1" stop-color="#eb8f81" class="stopColoreb8f81 svgShape"></stop>
                </linearGradient>
                <path fill="url(#P)"
                    d="M2536.716,1927.105c-28.472,28.483-63.485,49.366-95.307,74.049
				c-18.893,14.654-80.27,64.196-69.932,92.105c31.599-19.07,60.069-51.809,86.013-77.99
				C2485.312,1987.192,2511.765,1957.761,2536.716,1927.105z"></path>
                <linearGradient id="Q" x1="-2577.214" x2="-2682.118" y1="-1484.927" y2="-1303.729"
                    gradientTransform="scale(-1 1) rotate(16.911 -13790.62 1584.228)"
                    gradientUnits="userSpaceOnUse">
                    <stop offset="0" stop-color="#eecb99" class="stopColoreecb99 svgShape"></stop>
                    <stop offset=".404" stop-color="#ecac8c" class="stopColorecac8c svgShape"></stop>
                    <stop offset=".763" stop-color="#eb9784" class="stopColoreb9784 svgShape"></stop>
                    <stop offset="1" stop-color="#eb8f81" class="stopColoreb8f81 svgShape"></stop>
                </linearGradient>
                <path fill="url(#Q)"
                    d="M2126.971,1873.078c12.486,5.973,28.601,41.053,37.776,52.684
				c13.388,16.972,27.551,33.333,42.422,49.022c30.526,32.203,64.042,61.576,99.993,87.586c7.659,5.542,42.497,35.514,50.935,29.913
				c10.833-7.191-19.771-42.149-24.876-49.014c-25.064-33.709-53.963-64.557-85.915-91.824
				C2210.794,1920.286,2170.279,1893.793,2126.971,1873.078z"></path>
                <g>
                    <path fill="#10b9d0"
                        d="M2327.57,2086.085c0,0,4.41-234.675,300.773-351.612
				C2628.343,1734.473,2634.453,2088.968,2327.57,2086.085z"
                        class="color10b9d0 svgShape"></path>
                    <path fill="#eecb99"
                        d="M2328.817,2087.648l-2.494-3.127c107.631-85.818,192.696-202.936,291.192-338.546l9.209-12.679
					l3.236,2.352l-9.209,12.678C2522.084,1884.172,2436.872,2001.492,2328.817,2087.648z"
                        class="coloreecb99 svgShape"></path>
                    <path fill="#eecb99"
                        d="M2523.592 1875.039c-8.129-25.66-13.537-52.268-16.073-79.085l3.982-.377c2.509 26.535 7.86 52.863 15.904 78.253L2523.592 1875.039zM2538.33 1948.208c-2.867 0-5.752-.094-8.648-.3-18.771-1.335-35.58-7.4-48.608-17.54l2.457-3.156c12.4 9.65 28.457 15.428 46.435 16.706 17.415 1.24 34.604-1.709 49.121-4.753l.821 3.914C2567.512 1945.68 2553.187 1948.208 2538.33 1948.208zM2427.225 1989.402c-20.998-19.96-34.401-48.536-36.774-78.401l3.987-.316c2.296 28.895 15.251 56.529 35.543 75.819L2427.225 1989.402z"
                        class="coloreecb99 svgShape"></path>
                </g>
                <g>
                    <path fill="#e35a63"
                        d="M2451.641,2091.165c77.324-81.363,221.662-33.264,204.929-122.334
				c-4.159-22.142-25.588-39.717-48.116-39.463c-23.831,0.268-72.14,19.293-95.642,15.34c-17.182-2.89-54.75-73.257-97.849-27.16
				c-32.293,34.539-15.177,62.395-55.026,88.99C2258.15,2057.189,2375.989,2170.769,2451.641,2091.165z"
                        class="colore35a63 svgShape"></path>
                    <path fill="#eecb99"
                        d="M2347.679,2104.035l-2.275-1.957c34.251-39.807,77.824-71.884,126.009-92.765
				c57.646-24.979,120.589-33.909,181.461-42.545l0.421,2.971c-60.675,8.607-123.414,17.508-180.689,42.326
				C2424.834,2032.767,2381.635,2064.57,2347.679,2104.035z"
                        class="coloreecb99 svgShape"></path>
                    <path fill="#eecb99"
                        d="M2449.648 2019.369c-6.024-38.568-7.48-77.854-4.327-116.763l2.99.242c-3.134 38.675-1.687 77.722 4.301 116.058L2449.648 2019.369zM2594.456 2032.476c-26.655-9.207-50.74-21.688-73.628-38.156l1.752-2.436c22.649 16.295 46.48 28.646 72.856 37.756L2594.456 2032.476z"
                        class="coloreecb99 svgShape"></path>
                </g>
                <linearGradient id="R" x1="2163.442" x2="2217.065" y1="1798.747" y2="1630.843"
                    gradientTransform="rotate(7.048 -651.436 3441.894)"
                    gradientUnits="userSpaceOnUse">
                    <stop offset="0" stop-color="#bc575c" class="stopColorbc575c svgShape"></stop>
                    <stop offset=".356" stop-color="#595c82" class="stopColor595c82 svgShape"></stop>
                    <stop offset=".771" stop-color="#075fa0" class="stopColor075fa0 svgShape"></stop>
                    <stop offset=".968" stop-color="#0660a7" class="stopColor0660a7 svgShape"></stop>
                </linearGradient>
                <path fill="url(#R)"
                    d="M2437.723,2117.882c2.047-8.59-27.117-22.9-65.14-31.962
			c-36.625-8.729-68.104-9.403-72.201-1.765l-0.119-0.029c-0.14,0.853-0.413,1.147-0.318,2.185
			c-4.409,33.479,15.638,66.323,48.947,76.896c37.042,11.758,76.573-8.44,88.847-45.171
			C2437.649,2118.014,2437.682,2118.052,2437.723,2117.882z"></path>
            </g>
        </svg>
    </g>
</svg>