<svg width="80" height="80" viewBox="0 0 80 80" fill="none" xmlns="http://www.w3.org/2000/svg">
<g clip-path="url(#clip0_420_2)">
<path d="M47.8759 24.9351C47.8743 24.8361 47.8356 24.7376 47.7601 24.6646C47.6847 24.5915 47.585 24.5559 47.486 24.5575L44.3912 24.6069C44.1808 24.6103 44.0103 24.7864 44.0136 24.9968L44.4907 54.8674C44.4988 54.9849 44.5312 55.0772 44.6004 55.1442C44.6696 55.2112 44.7629 55.2407 44.8806 55.245L47.9754 55.1955C48.0868 55.1938 48.1913 55.1488 48.2581 55.0672C48.3312 54.9917 48.3607 54.8984 48.3591 54.7994L47.8759 24.9351Z" fill="#000"/>
<path d="M9.09207 35.3544L5.44196 35.4128L5.60614 45.6804L9.25626 45.622L9.09207 35.3544Z" fill="#000"/>
<path d="M52.8489 40.5377C53.0501 40.7326 53.3119 40.8398 53.5966 40.8353L64.193 40.666C64.7748 40.6567 65.2377 40.1788 65.2284 39.597C65.2239 39.3123 65.1083 39.0541 64.9071 38.8592C64.7059 38.6643 64.4441 38.5571 64.1594 38.5616L53.563 38.7309C53.2783 38.7354 53.0201 38.851 52.8252 39.0522C52.6303 39.2534 52.523 39.5152 52.5276 39.7999C52.5321 40.0846 52.6477 40.3428 52.8489 40.5377ZM65.2871 54.1204C65.5466 53.7014 65.476 53.1577 65.1238 52.8167C65.0672 52.7618 65.0109 52.7194 64.9421 52.6772L54.2434 46.0564C54.0058 45.9116 53.7264 45.8604 53.455 45.9266C53.1837 45.9929 52.9511 46.1576 52.8063 46.3951C52.5467 46.8141 52.6173 47.3578 52.9695 47.6988C53.0198 47.7476 53.0825 47.7961 53.1513 47.8383L63.8623 54.4589C64.0999 54.6037 64.3793 54.6549 64.6507 54.5887C64.9096 54.5226 65.1423 54.3579 65.2871 54.1204ZM52.5831 33.1993C52.6275 33.2667 52.6717 33.3217 52.7283 33.3765C53.0805 33.7176 53.6322 33.7645 54.0366 33.498L64.5308 26.5388C64.7636 26.3865 64.9208 26.1487 64.9783 25.8754C65.0358 25.6021 64.9818 25.3181 64.8234 25.0916C64.7851 25.0179 64.7346 24.9568 64.678 24.902C64.3195 24.5548 63.7801 24.5077 63.3697 24.7805L52.8755 31.7397C52.6427 31.892 52.4855 32.1298 52.428 32.4031C52.3767 32.6826 52.4308 32.9665 52.5831 33.1993ZM42.6385 26.1146L10.5077 36.6388L10.6301 44.3014L19.1642 46.8025L18.2558 50.3954C18.1627 50.7684 18.2679 51.1506 18.5383 51.4125C18.664 51.5343 18.8263 51.6184 19.0191 51.671L29.481 54.3208C30.0344 54.4668 30.6048 54.1295 30.7568 53.5699L31.5548 50.4307L43.0808 53.8064L42.6385 26.1146ZM20.5447 49.8946L21.1734 47.3957L29.5395 49.8437L28.974 52.0382L20.5447 49.8946Z" fill="#000"/>
</g>
<defs>
<clipPath id="clip0_420_2">
<rect width="56.0282" height="56.0282" fill="white" transform="translate(39.3672 0.387161) rotate(44.0849)"/>
</clipPath>
</defs>
</svg>
