<svg width="18" height="18" viewBox="0 0 18 18" fill="none" xmlns="http://www.w3.org/2000/svg">
<g opacity="0.5">
<path d="M9.33467 15.9177L8.55244 15.1354L6.68564 13.2686L4.41807 11.0011L2.46865 9.05165C2.15225 8.73525 1.84111 8.41532 1.51943 8.10243L1.50537 8.08837V9.33114L2.2876 8.54892L4.15439 6.68212L6.42197 4.41454L8.37139 2.46513C8.68779 2.14872 9.00771 1.83583 9.32061 1.51591L9.33467 1.50185C9.49463 1.34189 9.59131 1.10634 9.59131 0.879581C9.59131 0.66337 9.49639 0.40673 9.33467 0.257316C9.16768 0.104386 8.94795 -0.00987177 8.7124 0.000675108C8.47861 0.011222 8.25889 0.0903236 8.09014 0.257316L7.30791 1.03954L5.44111 2.90634L3.17354 5.17392L1.22412 7.12333C0.907715 7.43974 0.587793 7.75263 0.274902 8.07255L0.26084 8.08661C-0.0749023 8.42235 -0.0749023 8.99364 0.26084 9.32939C0.522754 9.59306 0.784668 9.85321 1.04482 10.1151L2.91162 11.9819L5.1792 14.2495L7.12861 16.1989C7.44502 16.5153 7.75791 16.8352 8.07783 17.1481L8.0919 17.1622C8.25186 17.3222 8.4874 17.4188 8.71416 17.4188C8.93037 17.4188 9.18701 17.3239 9.33643 17.1622C9.48936 16.9952 9.60361 16.7755 9.59307 16.5399C9.58076 16.3061 9.50342 16.0864 9.33467 15.9177Z" fill="black"/>
<path d="M0.879582 9.58953H15.8772C16.0794 9.58953 16.2833 9.59128 16.4854 9.58953H16.5118C16.7368 9.58953 16.9741 9.49109 17.1341 9.33289C17.287 9.17996 17.4013 8.93035 17.3907 8.71062C17.3802 8.48386 17.3063 8.24832 17.1341 8.08835C16.9618 7.93015 16.7509 7.83171 16.5118 7.83171H1.51415C1.312 7.83171 1.1081 7.82996 0.905949 7.83171H0.879582C0.654581 7.83171 0.417277 7.93015 0.257316 8.08835C0.104386 8.24128 -0.00987177 8.49089 0.000675108 8.71062C0.011222 8.93738 0.0850501 9.17293 0.257316 9.33289C0.431339 9.48933 0.642277 9.58953 0.879582 9.58953Z" fill="black"/>
</g>
</svg>
