<svg width="17" height="17" viewBox="0 0 17 17" fill="none" xmlns="http://www.w3.org/2000/svg">
    <path
        d="M14.1667 1.66667H13.3333V0.833333C13.3333 0.333333 13 0 12.5 0C12 0 11.6667 0.333333 11.6667 0.833333V1.66667H5V0.833333C5 0.333333 4.66667 0 4.16667 0C3.66667 0 3.33333 0.333333 3.33333 0.833333V1.66667H2.5C1.08333 1.66667 0 2.75 0 4.16667V5H16.6667V4.16667C16.6667 2.75 15.5833 1.66667 14.1667 1.66667ZM0 14.1667C0 15.5833 1.08333 16.6667 2.5 16.6667H14.1667C15.5833 16.6667 16.6667 15.5833 16.6667 14.1667V6.66667H0V14.1667ZM12.5 8.33333C13 8.33333 13.3333 8.66667 13.3333 9.16667C13.3333 9.66667 13 10 12.5 10C12 10 11.6667 9.66667 11.6667 9.16667C11.6667 8.66667 12 8.33333 12.5 8.33333ZM12.5 11.6667C13 11.6667 13.3333 12 13.3333 12.5C13.3333 13 13 13.3333 12.5 13.3333C12 13.3333 11.6667 13 11.6667 12.5C11.6667 12 12 11.6667 12.5 11.6667ZM8.33333 8.33333C8.83333 8.33333 9.16667 8.66667 9.16667 9.16667C9.16667 9.66667 8.83333 10 8.33333 10C7.83333 10 7.5 9.66667 7.5 9.16667C7.5 8.66667 7.83333 8.33333 8.33333 8.33333ZM8.33333 11.6667C8.83333 11.6667 9.16667 12 9.16667 12.5C9.16667 13 8.83333 13.3333 8.33333 13.3333C7.83333 13.3333 7.5 13 7.5 12.5C7.5 12 7.83333 11.6667 8.33333 11.6667ZM4.16667 8.33333C4.66667 8.33333 5 8.66667 5 9.16667C5 9.66667 4.66667 10 4.16667 10C3.66667 10 3.33333 9.66667 3.33333 9.16667C3.33333 8.66667 3.66667 8.33333 4.16667 8.33333ZM4.16667 11.6667C4.66667 11.6667 5 12 5 12.5C5 13 4.66667 13.3333 4.16667 13.3333C3.66667 13.3333 3.33333 13 3.33333 12.5C3.33333 12 3.66667 11.6667 4.16667 11.6667Z"
        fill="#fff" fill-opacity="1" />
</svg>
    