<svg width="20" height="16" viewBox="0 0 20 16" fill="none" xmlns="http://www.w3.org/2000/svg">
<path d="M20 3.12458C20 3.48373 19.8796 3.789 19.6387 4.0404L10.2968 13.7912L8.54194 15.6229C8.30108 15.8743 8.0086 16 7.66452 16C7.32043 16 7.02796 15.8743 6.7871 15.6229L5.03226 13.7912L0.36129 8.91582C0.12043 8.66442 0 8.35915 0 8C0 7.64085 0.12043 7.33558 0.36129 7.08418L2.11613 5.25253C2.35699 5.00112 2.64946 4.87542 2.99355 4.87542C3.33763 4.87542 3.63011 5.00112 3.87097 5.25253L7.66452 9.22559L16.129 0.377104C16.3699 0.125701 16.6624 0 17.0065 0C17.3505 0 17.643 0.125701 17.8839 0.377104L19.6387 2.20875C19.8796 2.46016 20 2.76543 20 3.12458Z" fill="white"/>
</svg>
