<svg width="16" height="18" viewBox="0 0 16 18" fill="none" xmlns="http://www.w3.org/2000/svg">
<path d="M7.5917 0C6.98436 0 6.50717 0.477192 6.50717 1.08453V2.16906H4.88038C4.57671 2.16906 4.33811 2.40765 4.33811 2.71132V4.33811H10.8453V2.71132C10.8453 2.40765 10.6067 2.16906 10.303 2.16906H8.67622V1.08453C8.67622 0.477192 8.19903 0 7.5917 0ZM0.542264 2.16906C0.238596 2.16906 0 2.40765 0 2.71132V16.8102C0 17.1139 0.238596 17.3524 0.542264 17.3524H14.6411C14.9448 17.3524 15.1834 17.1139 15.1834 16.8102V2.71132C15.1834 2.40765 14.9448 2.16906 14.6411 2.16906H13.0143V6.50717H2.16906V2.16906H0.542264Z" fill="black" fill-opacity="0.5"/>
</svg>
