<svg id="SvgjsSvg1001" width="256" height="256" xmlns="http://www.w3.org/2000/svg" version="1.1"
    xmlns:xlink="http://www.w3.org/1999/xlink" xmlns:svgjs="http://svgjs.com/svgjs">
    <defs id="SvgjsDefs1002"></defs>
    <g id="SvgjsG1008">
        <svg xmlns="http://www.w3.org/2000/svg" enable-background="new 0 0 70 70"
            viewBox="0 0 70 70" width="256" height="256">
            <path
                d="M18.4 55.2c0 2.7 2.2 4.8 4.8 4.8h23.6c2.7 0 4.8-2.2 4.8-4.8V24.7H18.4V55.2zM41.9 28.4c0-.6.4-1 1-1s1 .4 1 1v23.8c0 .6-.4 1-1 1s-1-.4-1-1V28.4zM34 28.4c0-.6.4-1 1-1s1 .4 1 1v23.8c0 .6-.4 1-1 1s-1-.4-1-1V28.4zM26.1 28.4c0-.6.4-1 1-1s1 .4 1 1v23.8c0 .6-.4 1-1 1s-1-.4-1-1V28.4zM51 15.6h-8.5v-2.6c0-1.7-1.4-3.1-3.1-3.1h-8.9c-1.7 0-3.1 1.4-3.1 3.1v2.6H19c-2.1 0-3.7 1.7-3.7 3.7v2.3c0 .5.5 1 1 1h37.5c.5 0 1-.5 1-1v-2.3C54.8 17.3 53.1 15.6 51 15.6zM29.5 13.1c0-.6.5-1.1 1.1-1.1h8.9c.6 0 1.1.5 1.1 1.1v2.6h-11V13.1z"
                fill="#1c062d" class="color000 svgShape"></path>
        </svg>
    </g>
</svg>