<svg width="15" height="15" viewBox="0 0 15 15" fill="none" xmlns="http://www.w3.org/2000/svg">
<path d="M6.00213 6.00662e-05C5.90293 -0.0011124 5.80444 0.0148903 5.7124 0.0471388C5.62035 0.0793873 5.53658 0.127239 5.46595 0.187915C5.39532 0.248591 5.33923 0.320882 5.30095 0.40059C5.26267 0.480298 5.24296 0.565834 5.24296 0.652231H0.7596C0.660358 0.651009 0.561826 0.666975 0.469731 0.699201C0.377636 0.731428 0.293814 0.779271 0.223138 0.839952C0.152461 0.900633 0.0963388 0.972941 0.0580326 1.05267C0.0197264 1.13241 0 1.21797 0 1.3044C0 1.39083 0.0197264 1.4764 0.0580326 1.55613C0.0963388 1.63586 0.152461 1.70817 0.223138 1.76885C0.293814 1.82953 0.377636 1.87738 0.469731 1.9096C0.561826 1.94183 0.660358 1.9578 0.7596 1.95657H14.2404C14.3396 1.9578 14.4382 1.94183 14.5303 1.9096C14.6224 1.87738 14.7062 1.82953 14.7769 1.76885C14.8475 1.70817 14.9037 1.63586 14.942 1.55613C14.9803 1.4764 15 1.39083 15 1.3044C15 1.21797 14.9803 1.13241 14.942 1.05267C14.9037 0.972941 14.8475 0.900633 14.7769 0.839952C14.7062 0.779271 14.6224 0.731428 14.5303 0.699201C14.4382 0.666975 14.3396 0.651009 14.2404 0.652231H9.75704C9.75704 0.565834 9.73733 0.480298 9.69905 0.40059C9.66077 0.320882 9.60468 0.248591 9.53405 0.187915C9.46342 0.127239 9.37965 0.0793873 9.28761 0.0471388C9.19556 0.0148903 9.09707 -0.0011124 8.99787 6.00662e-05H6.00213ZM0.7596 3.26092V13.6957C0.7596 14.4163 1.4299 15 2.25747 15H12.7425C13.5701 15 14.2404 14.4163 14.2404 13.6957V3.26092H0.7596Z" fill="#1C062D"/>
</svg>
