<svg width="71" height="54" viewBox="0 0 71 54" fill="none" xmlns="http://www.w3.org/2000/svg">
<g clip-path="url(#clip0_230_145)">
<path d="M0 6.34669V4.5C0 3.30653 0.467521 2.16193 1.29971 1.31802C2.13191 0.474106 3.2606 0 4.4375 0L66.5625 0C67.7394 0 68.8681 0.474106 69.7003 1.31802C70.5325 2.16193 71 3.30653 71 4.5V6.34669L35.5 28.8467L0 6.34669ZM36.6759 33.4086C36.3232 33.6318 35.9158 33.7502 35.5 33.7502C35.0842 33.7502 34.6768 33.6318 34.3241 33.4086L0 11.6533V49.5C0 50.6935 0.467521 51.8381 1.29971 52.682C2.13191 53.5259 3.2606 54 4.4375 54H66.5625C67.7394 54 68.8681 53.5259 69.7003 52.682C70.5325 51.8381 71 50.6935 71 49.5V11.6533L36.6759 33.4086Z" fill="black"/>
</g>
<defs>
<clipPath id="clip0_230_145">
<rect width="71" height="54" fill="white"/>
</clipPath>
</defs>
</svg>
