<svg width="28" height="22" viewBox="0 0 28 22" fill="none" xmlns="http://www.w3.org/2000/svg">
<path d="M9.73913 6.62973V1.18919C9.73913 0.535135 10.2261 -1.19209e-07 10.8957 -1.19209e-07L26.7826 -1.19209e-07C27.4522 -1.19209e-07 28 0.535135 28 1.18919L28 20.8108C28 21.4649 27.4522 22 26.7826 22L10.8957 22C10.2261 22 9.73913 21.4649 9.73913 20.8108V15.3703C9.73913 14.7162 10.287 14.1811 10.9565 14.1811C11.6261 14.1811 12.1739 14.7162 12.1739 15.3703V19.6216H25.5652L25.5652 2.37838L12.1739 2.37838V6.62973C12.1739 7.28378 11.6261 7.81892 10.9565 7.81892C10.287 7.81892 9.73913 7.28378 9.73913 6.62973ZM0.365218 11.8919L5.11305 16.5892C5.6 17.0649 6.36087 17.0649 6.84783 16.5892C7.33478 16.1135 7.33478 15.3703 6.84783 14.8946L4.13913 12.2189L18.9 12.1892C19.5696 12.1892 20.1174 11.6541 20.1174 11C20.1174 10.3459 19.5696 9.81081 18.9 9.81081L4.13913 9.84054L6.84783 7.16486C7.33478 6.68919 7.30435 5.94595 6.84783 5.47027C6.60435 5.23243 6.3 5.11351 5.99565 5.11351C5.6913 5.11351 5.35652 5.23243 5.14348 5.47027L0.365218 10.1676C-0.121739 10.673 -0.121739 11.4162 0.365218 11.8919Z" fill="black"/>
</svg>
