<svg width="54" height="58" viewBox="0 0 54 58" fill="none" xmlns="http://www.w3.org/2000/svg">
<path d="M18.8822 54.468V45.5741C18.8821 43.3204 20.6782 41.4894 22.9029 41.4752H31.0716C33.3063 41.4752 35.1178 43.3104 35.1178 45.5741V54.4423C35.1178 56.397 36.6746 57.9856 38.6041 57.9999H44.1772C46.78 58.0067 49.2786 56.964 51.1214 55.102C52.9643 53.2399 54 50.7115 54 48.0747V22.8109C54 20.681 53.068 18.6606 51.4552 17.2941L32.5221 1.95538C29.2126 -0.727544 24.4858 -0.640875 21.2743 2.16161L2.74835 17.2941C1.05937 18.6204 0.0498855 20.6467 0 22.8109V48.049C0 53.5447 4.39782 57.9999 9.82281 57.9999H15.2686C16.1976 58.0067 17.091 57.6376 17.7503 56.9745C18.4096 56.3115 18.7804 55.4092 18.7804 54.468H18.8822Z" fill="#fff
"/>
</svg>
