<svg xmlns="http://www.w3.org/2000/svg" viewBox="0 0 64 64" width="256" height="256">
    <path fill="#1c062d"
        d="M32 6a26 26 0 1 0 26 26A26 26 0 0 0 32 6Zm-2.45 14.51a2.43 2.43 0 0 1 .37-.9 2.85 2.85 0 0 1 .31-.38 2.59 2.59 0 0 1 3.54 0A2.55 2.55 0 0 1 34.5 21a2.72 2.72 0 0 1 0 .49 2.43 2.43 0 0 1-.37.9 3.68 3.68 0 0 1-.31.38A2.5 2.5 0 0 1 29.5 21a2.72 2.72 0 0 1 .05-.49ZM35.2 45h-6.4a2 2 0 1 1 0-4H30V30h-1a2 2 0 0 1 0-4h3a2 2 0 0 1 2 2v13h1.2a2 2 0 0 1 0 4Z"
        class="color222 svgShape"></path>
</svg>