<svg width="21" height="21" viewBox="0 0 21 21" fill="none" xmlns="http://www.w3.org/2000/svg">
<path d="M14.8164 0C14.3617 0.0252624 13.907 0.0757873 13.4775 0.227362C12.7954 0.479986 12.1386 0.858923 11.5828 1.4147C11.4229 1.51607 11.2878 1.65209 11.1876 1.8127C11.0873 1.97332 11.0245 2.15442 11.0036 2.3426C10.9828 2.53079 11.0046 2.72125 11.0673 2.8999C11.13 3.07854 11.2321 3.24081 11.3659 3.37469C11.4998 3.50857 11.6621 3.61064 11.8407 3.67335C12.0194 3.73606 12.2098 3.75781 12.398 3.73698C12.5862 3.71616 12.7673 3.6533 12.9279 3.55305C13.0885 3.45279 13.2246 3.31772 13.3259 3.1578C13.6038 2.87992 13.9322 2.72834 14.2859 2.60203C15.1701 2.29888 16.2564 2.42519 16.9637 3.1578C17.949 4.14304 17.949 5.7851 16.9637 6.7956L13.1744 10.585C12.0628 11.6965 11.1534 11.7976 10.4965 11.7723C9.83972 11.747 9.46078 11.4439 9.46078 11.4439C9.31481 11.3609 9.15393 11.3076 8.98734 11.2868C8.82074 11.266 8.65168 11.2783 8.48982 11.3229C8.32796 11.3674 8.17646 11.4435 8.04397 11.5466C7.91149 11.6497 7.80061 11.7779 7.71767 11.9239C7.63474 12.0698 7.58136 12.2307 7.5606 12.3973C7.53983 12.5639 7.55209 12.733 7.59666 12.8948C7.64123 13.0567 7.71724 13.2082 7.82036 13.3407C7.92348 13.4732 8.05169 13.584 8.19766 13.667C8.19766 13.667 9.05658 14.2228 10.3197 14.2985C11.5828 14.3743 13.3512 13.8943 14.8922 12.3281L18.6816 8.5387C20.652 6.56823 20.652 3.38517 18.6816 1.43996C17.9742 0.732611 17.1406 0.303149 16.2311 0.10105C15.7764 0 15.2711 0 14.8164 0.0252624V0ZM9.76393 5.83562C8.50081 5.7851 6.7577 6.21456 5.26722 7.73031L1.47785 11.5197C-0.492617 13.4901 -0.492617 16.6732 1.47785 18.6184C2.89255 20.0331 4.91354 20.4373 6.68191 19.8058C7.364 19.5531 8.02082 19.1742 8.5766 18.6184C8.73651 18.517 8.87158 18.381 8.97184 18.2204C9.07209 18.0598 9.13495 17.8787 9.15578 17.6905C9.1766 17.5023 9.15485 17.3119 9.09214 17.1332C9.02943 16.9546 8.92736 16.7923 8.79348 16.6584C8.6596 16.5245 8.49734 16.4225 8.31869 16.3598C8.14004 16.2971 7.94958 16.2753 7.76139 16.2961C7.57321 16.317 7.39211 16.3798 7.2315 16.4801C7.07088 16.5803 6.93486 16.7154 6.83349 16.8753C6.5556 17.1532 6.22719 17.3048 5.87352 17.4311C4.98933 17.7342 3.90305 17.6079 3.1957 16.8753C2.21046 15.8901 2.21046 14.248 3.1957 13.2375L6.98506 9.44815C7.99556 8.43765 8.87975 8.31134 9.58709 8.33661C10.2944 8.36187 10.7744 8.56397 10.7744 8.56397C10.9224 8.67497 11.093 8.75211 11.2741 8.78993C11.4552 8.82774 11.6424 8.82531 11.8225 8.7828C12.0026 8.74029 12.1711 8.65875 12.3162 8.54393C12.4613 8.42912 12.5793 8.28384 12.6621 8.11835C12.7448 7.95287 12.7902 7.77124 12.795 7.58629C12.7998 7.40134 12.7639 7.21759 12.6899 7.04804C12.6159 6.87848 12.5055 6.72726 12.3666 6.60506C12.2277 6.48286 12.0636 6.39268 11.886 6.34087C11.886 6.34087 11.0271 5.83562 9.76393 5.7851V5.83562Z" fill="black" fill-opacity="0.5"/>
</svg>
