<svg width="51" height="64" viewBox="0 0 51 64" fill="none" xmlns="http://www.w3.org/2000/svg">
    <path
        d="M41.1667 22.1667V15.8333C41.1667 6.96667 34.2 0 25.3333 0C16.4667 0 9.5 6.96667 9.5 15.8333V22.1667C4.11667 22.1667 0 26.2833 0 31.6667V53.8333C0 59.2167 4.11667 63.3333 9.5 63.3333H41.1667C46.55 63.3333 50.6667 59.2167 50.6667 53.8333V31.6667C50.6667 26.2833 46.55 22.1667 41.1667 22.1667ZM15.8333 15.8333C15.8333 10.45 19.95 6.33333 25.3333 6.33333C30.7167 6.33333 34.8333 10.45 34.8333 15.8333V22.1667H15.8333V15.8333ZM28.8167 42.75L28.5 43.0667V47.5C28.5 49.4 27.2333 50.6667 25.3333 50.6667C23.4333 50.6667 22.1667 49.4 22.1667 47.5V43.0667C20.2667 41.1667 19.95 38.3167 21.85 36.4167C23.75 34.5167 26.6 34.2 28.5 36.1C30.4 37.6833 30.7167 40.85 28.8167 42.75Z"
        fill="#fff" />
</svg>