<svg width="13" height="13" viewBox="0 0 13 13" fill="none" xmlns="http://www.w3.org/2000/svg">
<path d="M6.11488 5.84997L7.61024 4.36148C7.67117 4.30105 7.71954 4.22916 7.75255 4.14995C7.78556 4.07075 7.80255 3.98579 7.80255 3.89998C7.80255 3.81417 7.78556 3.72922 7.75255 3.65001C7.71954 3.5708 7.67117 3.49891 7.61024 3.43848C7.5498 3.37756 7.47789 3.3292 7.39866 3.2962C7.31943 3.2632 7.23445 3.24622 7.14863 3.24622C7.0628 3.24622 6.97782 3.2632 6.89859 3.2962C6.81937 3.3292 6.74746 3.37756 6.68702 3.43848L4.08641 6.03847C4.02722 6.10029 3.98082 6.17318 3.94988 6.25297C3.88485 6.41122 3.88485 6.58872 3.94988 6.74697C3.98082 6.82675 4.02722 6.89965 4.08641 6.96147L6.68702 9.56145C6.74764 9.62206 6.8196 9.67013 6.89881 9.70293C6.97801 9.73573 7.0629 9.75261 7.14863 9.75261C7.23436 9.75261 7.31924 9.73573 7.39845 9.70293C7.47765 9.67013 7.54962 9.62206 7.61024 9.56145C7.67085 9.50085 7.71894 9.4289 7.75175 9.34972C7.78455 9.27053 7.80144 9.18566 7.80144 9.09996C7.80144 9.01425 7.78455 8.92938 7.75175 8.85019C7.71894 8.77101 7.67085 8.69906 7.61024 8.63846L6.11488 7.14996L12.3498 7.14996C12.5223 7.14996 12.6876 7.08148 12.8096 6.95958C12.9315 6.83769 13 6.67236 13 6.49997C13 6.32758 12.9315 6.16225 12.8096 6.04035C12.6876 5.91845 12.5223 5.84997 12.3498 5.84997L6.11488 5.84997ZM6.49847 12.9999C7.71355 13.0054 8.90583 12.6702 9.94008 12.0326C10.9743 11.395 11.8091 10.4803 12.3498 9.39245C12.4274 9.2373 12.4402 9.05769 12.3853 8.89313C12.3305 8.72856 12.2125 8.59253 12.0573 8.51496C11.9021 8.43738 11.7224 8.42462 11.5578 8.47947C11.3932 8.53433 11.2572 8.65231 11.1796 8.80746C10.7686 9.63729 10.1433 10.3423 9.36854 10.8498C8.59374 11.3572 7.69747 11.6485 6.77235 11.6937C5.84722 11.7389 4.92681 11.5363 4.10623 11.1068C3.28564 10.6773 2.59465 10.0366 2.10467 9.25076C1.61469 8.46493 1.34349 7.56255 1.3191 6.63687C1.29471 5.71118 1.51801 4.79578 1.96593 3.98525C2.41384 3.17473 3.07013 2.49849 3.86696 2.02641C4.66379 1.55434 5.57225 1.30356 6.49847 1.29999C7.46793 1.2958 8.41893 1.56496 9.24232 2.07658C10.0657 2.5882 10.7281 3.32156 11.1536 4.19248C11.2312 4.34763 11.3672 4.46561 11.5318 4.52046C11.6964 4.57532 11.8761 4.56255 12.0313 4.48498C12.1865 4.4074 12.3045 4.27137 12.3593 4.10681C12.4142 3.94225 12.4014 3.76263 12.3238 3.60748C11.8084 2.57041 11.0251 1.68984 10.0552 1.05687C9.08516 0.423891 7.96363 0.0614942 6.80657 0.00716001C5.64951 -0.0471742 4.49894 0.208527 3.47387 0.747816C2.4488 1.2871 1.58646 2.0904 0.976034 3.0746C0.365612 4.05881 0.0292801 5.18819 0.00182714 6.34592C-0.0256258 7.50365 0.256798 8.64769 0.819884 9.65971C1.38297 10.6717 2.20627 11.515 3.20463 12.1022C4.20298 12.6895 5.34014 12.9994 6.49847 12.9999Z" fill="white"/>
</svg>
