<svg width="342" height="384" viewBox="0 0 342 384" fill="none" xmlns="http://www.w3.org/2000/svg">
<path d="M170.667 0C159.351 0 148.498 4.49522 140.497 12.4968C132.495 20.4983 128 31.3508 128 42.6667V49.9413C78.2933 67.52 42.6667 114.944 42.6667 170.667V277.333H21.3333C15.6754 277.333 10.2492 279.581 6.24839 283.582C2.24762 287.582 0 293.009 0 298.667C0 304.325 2.24762 309.751 6.24839 313.752C10.2492 317.752 15.6754 320 21.3333 320H320C325.658 320 331.084 317.752 335.085 313.752C339.086 309.751 341.333 304.325 341.333 298.667C341.333 293.009 339.086 287.582 335.085 283.582C331.084 279.581 325.658 277.333 320 277.333H298.667V170.667C298.67 144.191 290.466 118.365 275.184 96.7443C259.902 75.124 238.293 58.7726 213.333 49.9413V42.6667C213.333 31.3508 208.838 20.4983 200.837 12.4968C192.835 4.49522 181.983 0 170.667 0ZM170.667 384C159.351 384 148.498 379.505 140.497 371.503C132.495 363.502 128 352.649 128 341.333H213.333C213.333 352.649 208.838 363.502 200.837 371.503C192.835 379.505 181.983 384 170.667 384Z" fill="#1C062D" />
</svg>
