<svg id="SvgjsSvg1001" width="256" height="256" xmlns="http://www.w3.org/2000/svg" version="1.1"
    xmlns:xlink="http://www.w3.org/1999/xlink" xmlns:svgjs="http://svgjs.com/svgjs">
    <defs id="SvgjsDefs1002"></defs>
    <g id="SvgjsG1008">
        <svg xmlns="http://www.w3.org/2000/svg" viewBox="0 0 64 64" width="256" height="256">
            <path
                d="M10.59048,46.6502V7.69062h-2.76a3.84348,3.84348,0,0,0-3.83,3.82992l.00006,36.67982C5.73664,46.502,8.34727,46.59222,10.59048,46.6502Z"
                fill="#1c062d" class="color000 svgShape"></path>
            <path
                d="M58.85,14.2805H12.59046V47.65019a.9965.9965,0,0,1-1,1h-3.53c-5.15291.10931-5.47791,7.41808-.22985,7.66L58.85,56.31015a1.14808,1.14808,0,0,0,1.15-1.14V15.43052A1.15018,1.15018,0,0,0,58.85,14.2805ZM37.01022,50.80019H28.78031a.9965.9965,0,0,1-1-1V42.20029h-9.74a.99028.99028,0,0,1-1-1V34.76036a1.00018,1.00018,0,0,1,2,.00006v5.43989h8.74v-5.44a.99646.99646,0,0,1,1-1H41.67015a1.0002,1.0002,0,0,1-.00006,2H29.78031V48.80021h7.22991A1.00011,1.00011,0,0,1,37.01022,50.80019Zm18.54982-1a1.003,1.003,0,0,1-1,1H41.67015a1.00014,1.00014,0,0,1,.00006-2H53.56006V35.76035H45.96015a1.00011,1.00011,0,0,1,.00006-2h7.59985v-3.3a1,1,0,0,1,2,0Zm0-23.62979a1.00016,1.00016,0,0,1-2-.00006v-5.4499H34.07024v9.7399a1.00015,1.00015,0,0,1-2-.00006V25.0204H19.04035v5.43995a1.00017,1.00017,0,0,1-2-.00006V24.02041a.99654.99654,0,0,1,1-1h14.0299V19.72046a1.00294,1.00294,0,0,1,1-1h21.4898a1.00294,1.00294,0,0,1,1,1Z"
                fill="#1c062d" class="color000 svgShape"></path>
        </svg>
    </g>
</svg>