<svg width="18" height="21" viewBox="0 0 18 21" fill="none" xmlns="http://www.w3.org/2000/svg">
<path d="M1.07906 8.88848V8.5001C1.07906 7.74852 1.70675 7.13765 2.48138 7.13765H2.74378C3.51844 7.13765 4.14822 7.74852 4.14822 8.5001C4.14791 8.61833 4.14928 8.95701 4.14665 9.00942C4.21129 9.75428 3.48659 10.7162 2.61356 10.7162C1.87491 10.7162 1.07906 10.0319 1.07906 8.88848ZM2.6136 10.2963C3.19993 10.2963 3.75198 9.6046 3.7302 9.07421C3.64697 8.9736 3.42943 8.73247 3.15944 8.61562C3.05658 8.57154 2.9327 8.603 2.85504 8.6891C2.54102 9.03953 1.90939 9.10079 1.50164 9.10236C1.538 9.68803 2.03477 10.2963 2.6136 10.2963ZM13.8513 1.36245C13.8513 0.610869 14.479 0 15.2536 0H15.516C16.2907 0 16.9204 0.610869 16.9204 1.36245V1.86209C16.9204 2.84691 16.1236 3.57852 15.3858 3.57852C14.4972 3.57852 13.7876 2.63691 13.8572 1.78161C13.8465 1.71088 13.8537 1.59379 13.8513 1.36245ZM15.3858 3.15865C15.9714 3.15865 16.524 2.46769 16.5024 1.93672C16.4191 1.83599 16.2012 1.59368 15.9317 1.47789C15.8288 1.4359 15.705 1.46527 15.6273 1.55137C15.3133 1.90184 14.6816 1.96306 14.2739 1.96463C14.3098 2.54369 14.8016 3.15865 15.3858 3.15865ZM8.86748 3.56885H9.12988C9.90455 3.56885 10.5322 4.17971 10.5322 4.9313V5.43094C10.333 6.67135 9.67108 7.14736 8.99904 7.14736C8.25536 7.14736 7.463 6.45782 7.463 5.31967V4.9313C7.46304 4.17971 8.09286 3.56885 8.86748 3.56885ZM8.99908 6.7275C9.58561 6.7275 10.1368 6.03591 10.1157 5.50619C10.0338 5.40589 9.8153 5.16276 9.54346 5.04677C9.44269 5.0027 9.31672 5.03415 9.23907 5.12026C8.92661 5.47088 8.29479 5.53198 7.88715 5.53352C7.92348 6.11926 8.42021 6.7275 8.99908 6.7275ZM-4.70162e-07 13.2026C-4.70162e-07 13.2401 0.106038 15.4812 0.107061 15.5034C0.121765 15.8015 0.340092 16.0429 0.623489 16.0975V13.213C0.623489 13.0976 0.717968 13.0031 0.833403 13.0031C0.948838 13.0031 1.04332 13.0976 1.04332 13.213V16.0366L1.354 19.4501C1.3792 19.8301 1.70251 20.1303 2.08667 20.1303C2.20006 20.1303 2.30921 20.1051 2.40369 20.059V16.2445C2.40369 16.1291 2.49816 16.0346 2.6136 16.0346C2.72907 16.0346 2.82351 16.1291 2.82351 16.2445V20.059C2.91799 20.1052 3.02505 20.1303 3.1384 20.1303C3.52469 20.1303 3.84587 19.8301 3.87316 19.4459L4.18388 16.0345V13.2152C4.18388 13.0976 4.27832 13.0052 4.3938 13.0052C4.50927 13.0052 4.60371 13.0976 4.60371 13.2152V16.0975C4.8829 16.0387 5.09285 15.81 5.11593 15.5244C5.11593 15.5233 5.18021 14.1938 5.2272 13.2131C5.2272 11.964 4.21954 10.9563 2.98094 10.9563H2.24827C1.00978 10.9563 -4.70162e-07 11.964 -4.70162e-07 13.2026ZM6.38611 9.63436C6.38611 9.67187 6.49214 11.913 6.49317 11.9352C6.50787 12.2333 6.7262 12.4747 7.0096 12.5293V9.64482C7.0096 9.52938 7.10407 9.43491 7.21951 9.43491C7.33498 9.43491 7.42942 9.52938 7.42942 9.64482V12.4684L7.74011 15.8819C7.76531 16.2619 8.08861 16.5621 8.47278 16.5621C8.58613 16.5621 8.69531 16.5369 8.78979 16.4907V12.6763C8.78979 12.5608 8.88427 12.4664 8.99971 12.4664C9.11514 12.4664 9.20962 12.5608 9.20962 12.6763V16.4907C9.3041 16.5369 9.41116 16.5621 9.52451 16.5621C9.9108 16.5621 10.232 16.2619 10.2593 15.8777L10.57 12.4663V9.64694C10.57 9.52938 10.6644 9.43703 10.7799 9.43703C10.8954 9.43703 10.9898 9.52942 10.9898 9.64694V12.5293C11.269 12.4705 11.479 12.2417 11.502 11.9562C11.502 11.955 11.5663 10.6256 11.6133 9.64486C11.6133 8.3958 10.6056 7.3881 9.36704 7.3881H8.63437C7.39589 7.38806 6.38611 8.39576 6.38611 9.63436ZM12.7728 6.06551C12.7728 6.10302 12.8788 8.34417 12.8799 8.36635C12.8946 8.66445 13.1129 8.90586 13.3963 8.96043V6.07597C13.3963 5.96054 13.4908 5.86606 13.6062 5.86606C13.7216 5.86606 13.8161 5.96054 13.8161 6.07597V8.89956L14.1268 12.3131C14.152 12.693 14.4753 12.9933 14.8595 12.9933C14.9729 12.9933 15.082 12.9681 15.1765 12.9219V9.10743C15.1765 8.992 15.271 8.89752 15.3864 8.89752C15.5019 8.89752 15.5963 8.992 15.5963 9.10743V12.9219C15.6908 12.9681 15.7979 12.9933 15.9112 12.9933C16.2975 12.9933 16.6187 12.693 16.646 12.3089L16.9567 8.89748V6.0781C16.9567 5.96054 17.0511 5.86818 17.1666 5.86818C17.2821 5.86818 17.3765 5.96058 17.3765 6.0781V8.96047C17.6557 8.90169 17.8657 8.6729 17.8887 8.38734C17.8887 8.37893 17.8887 8.37268 17.8908 8.36635V8.35585C17.8908 8.35585 17.8908 8.35585 17.8908 8.35377L18 6.07597C18 4.82691 16.9923 3.81922 15.7537 3.81922H15.0211C13.7826 3.81922 12.7728 4.82691 12.7728 6.06551Z" fill="black"/>
</svg>
