<svg width="26" height="26" viewBox="0 0 26 26" fill="none" xmlns="http://www.w3.org/2000/svg">
    <path
        d="M11.2038 0.0320109C5.02572 0.0320109 0 5.05773 0 11.2358C0 17.4139 5.02572 22.4397 11.2038 22.4397C13.0925 22.4397 14.9491 21.9915 16.5176 21.1272C16.6433 21.2784 16.7826 21.4177 16.9338 21.5434L20.1349 24.7444C20.4305 25.077 20.7909 25.3457 21.1941 25.534C21.5972 25.7222 22.0346 25.8261 22.4794 25.8392C22.9242 25.8523 23.3669 25.7743 23.7805 25.6101C24.194 25.4459 24.5696 25.1989 24.8843 24.8843C25.1989 24.5696 25.4459 24.194 25.6101 23.7805C25.7743 23.3669 25.8523 22.9242 25.8392 22.4794C25.8261 22.0346 25.7222 21.5972 25.534 21.1941C25.3457 20.7909 25.077 20.4305 24.7444 20.1349L21.5434 16.9338C21.3874 16.7778 21.2158 16.6383 21.0312 16.5176C21.8955 14.9491 22.4397 13.1245 22.4397 11.2038C22.4397 5.02572 17.4139 0 11.2358 0L11.2038 0.0320109ZM11.2038 3.2331C15.6533 3.2331 19.2066 6.78632 19.2066 11.2358C19.2066 13.3486 18.4383 15.3012 17.0938 16.7417C17.0618 16.7737 17.0298 16.8057 16.9978 16.8378C16.8466 16.9634 16.7073 17.1027 16.5817 17.2539C15.1732 18.5343 13.2525 19.2706 11.1718 19.2706C6.7223 19.2706 3.16908 15.7174 3.16908 11.2678C3.16908 6.81833 6.7223 3.26512 11.1718 3.26512L11.2038 3.2331Z"
        fill="white" fill-opacity="1" />
</svg>