<svg id="SvgjsSvg1012" width="256" height="256" xmlns="http://www.w3.org/2000/svg" version="1.1"
    xmlns:xlink="http://www.w3.org/1999/xlink" xmlns:svgjs="http://svgjs.com/svgjs">
    <defs id="SvgjsDefs1013"></defs>
    <g id="SvgjsG1014">
        <svg xmlns="http://www.w3.org/2000/svg" enable-background="new 0 0 60 60"
            viewBox="0 0 60 60" width="256" height="256">
            <path
                d="M25.5115967 9.243042c-.8727417-.0496826-1.7099609.2554321-2.3414917.8585815-.6314697.5960083-.9862671 1.4332275-.9862671 2.2988892v.6173096h-.078064c-2.1499023 0-3.9024658 1.7455444-3.9024658 3.8953857 0 .3973999.3192749.7095947.7095337.7095947h12.8640747c.3901978 0 .7095337-.3121948.7095337-.7095947 0-2.1498413-1.7526245-3.8953857-3.9025269-3.8953857h-.0780029v-.4753418C28.5059204 10.7756958 27.1932373 9.328186 25.5115967 9.243042zM25.3406982 40.770874c3.9450073 0 7.1508789-3.2058105 7.1508789-7.1508179s-3.2058716-7.1509399-7.1508789-7.1509399c-3.9367065 0-7.1425171 3.2059326-7.1425171 7.1509399S21.4039917 40.770874 25.3406982 40.770874zM21.0219727 33.1050415c.3322144-.3238525.8554688-.3238525 1.1793213 0l1.8521118 1.8521118 4.4349976-4.4349976c.3239136-.3239746.847168-.3239746 1.1710815 0 .3239136.3239136.3239136.8471069 0 1.1710205l-5.0164185 5.0247192c-.1660767.1661377-.3737183.2408447-.5896606.2408447s-.423584-.074707-.5897217-.2408447l-2.4417114-2.4417725C20.697998 33.9522095 20.697998 33.4290161 21.0219727 33.1050415z"
                fill="#fff" class="color000 svgShape"></path>
            <path
                d="M12.7498779 15.9296875c-.4567871 0-.8305054.3737793-.8305054.8305664v33.1713867c0 .4567261.3737183.8305054.8305054.8305054h25.1899414c.4567871 0 .8305664-.3737793.8305664-.8305054V16.7602539c0-.4567871-.3737793-.8305664-.8305664-.8305664h-3.87854c.0498047.3239136.0830078.6478882.0830078.9800415 0 1.3122559-1.0630493 2.3753662-2.3669434 2.3753662H18.9124146c-1.3039551 0-2.3670654-1.0631104-2.3670654-2.3753662 0-.3321533.0332642-.6644287.0831299-.9800415H12.7498779zM25.3406982 24.8081055c4.8585815 0 8.8119507 3.9533081 8.8119507 8.8119507 0 4.8585815-3.9533691 8.8118896-8.8119507 8.8118896s-8.8035889-3.9533081-8.8035889-8.8118896C16.5371094 28.7614136 20.4821167 24.8081055 25.3406982 24.8081055zM45.4976807 13.8450928c-.2824097-.5564575-1.2042847-.5564575-1.4866943 0L41.8125 18.2421265c1.821167 1.0250854 4.0629272 1.0256958 5.8845215.001709L45.4976807 13.8450928zM41.4364014 41.7650146h6.6442261V19.9137573c-1.0478516.5038452-2.1845703.7635498-3.3241577.7635498-1.1380005 0-2.2733154-.2590942-3.3200684-.7615356V41.7650146zM41.4364014 47.4400024c0 1.8355103 1.4866333 3.3221436 3.3220825 3.3221436 1.8272095 0 3.3221436-1.4866333 3.3221436-3.3221436v-4.013916h-6.6442261V47.4400024z"
                fill="#fff" class="color000 svgShape"></path>
        </svg>
    </g>
</svg>