<svg width="34" height="34" viewBox="0 0 34 34" fill="none" xmlns="http://www.w3.org/2000/svg">
<path d="M20.1586 12.8237C20.158 12.9163 20.1545 13.0088 20.1482 13.1012C20.145 13.1469 20.1402 13.1924 20.1354 13.2379C20.119 13.3923 20.1553 13.1107 20.1314 13.2633C20.1014 13.4548 20.0526 13.6429 19.9926 13.8269C19.9789 13.8689 19.9637 13.9104 19.9485 13.9518C19.9394 13.9764 19.8826 14.1154 19.9414 13.9762C19.9073 14.0569 19.8689 14.1356 19.8291 14.2136C19.7433 14.3814 19.6417 14.5408 19.5312 14.6934C19.4445 14.8132 19.6086 14.5977 19.5164 14.7132C19.4894 14.747 19.4612 14.7799 19.433 14.8127C19.3766 14.8784 19.3169 14.9411 19.256 15.0026C19.1952 15.0641 19.1312 15.1225 19.0661 15.1796C19.0336 15.2081 19.0001 15.2355 18.9666 15.263C18.9165 15.3027 18.9215 15.2991 18.9817 15.252C18.9586 15.2693 18.9353 15.2864 18.9118 15.3032C18.7708 15.4053 18.621 15.4947 18.467 15.5756C18.3895 15.6164 18.3099 15.6529 18.2297 15.688C18.3679 15.6276 18.23 15.6856 18.2053 15.695C18.1502 15.716 18.0943 15.7346 18.0383 15.7529C17.8681 15.8084 17.6931 15.848 17.5168 15.8779C17.3645 15.9037 17.6456 15.8636 17.4914 15.8819C17.446 15.8874 17.4003 15.891 17.3547 15.8947C17.2469 15.9035 17.1387 15.9055 17.0306 15.9048C16.9383 15.9042 16.8461 15.8985 16.754 15.891C16.7085 15.887 16.6631 15.8822 16.6178 15.8765C16.7725 15.8949 16.6204 15.875 16.5931 15.8703C16.4024 15.838 16.2152 15.787 16.0322 15.7249C15.9904 15.7107 15.9492 15.695 15.908 15.6793C15.7678 15.6259 16.0217 15.7304 15.8845 15.6704C15.8044 15.6353 15.7262 15.596 15.6488 15.5553C15.482 15.4676 15.3239 15.3641 15.1727 15.2519C15.2919 15.3405 15.1747 15.2521 15.1543 15.2355C15.121 15.2079 15.0881 15.1797 15.0557 15.151C14.9907 15.0939 14.9288 15.0334 14.868 14.9718C14.8071 14.9103 14.7496 14.8455 14.6932 14.7799C14.665 14.747 14.638 14.7132 14.611 14.6793C14.7076 14.8003 14.5896 14.6468 14.5727 14.6229C14.4723 14.4806 14.3846 14.3296 14.3054 14.1746C14.2856 14.1357 14.2671 14.096 14.2486 14.0564C14.2374 14.0323 14.1808 13.8945 14.2378 14.0339C14.1988 13.9385 14.1656 13.8408 14.1349 13.7425C14.0814 13.5714 14.0438 13.3956 14.016 13.2186C14.0402 13.3727 14.0171 13.22 14.0142 13.1925C14.0096 13.1469 14.0059 13.1011 14.0031 13.0554C13.9957 12.9473 13.995 12.8389 13.997 12.7307C13.9988 12.6386 14.0056 12.5467 14.0142 12.455C14.0167 12.4277 14.0383 12.2742 14.016 12.4289C14.0225 12.3842 14.0306 12.3397 14.0387 12.2953C14.0733 12.1053 14.1265 11.9191 14.1908 11.7371C14.2054 11.6956 14.2216 11.6546 14.2378 11.6136C14.1826 11.7534 14.2376 11.6156 14.2486 11.5911C14.2846 11.5115 14.3248 11.4338 14.3664 11.357C14.4079 11.2804 14.4534 11.2061 14.5002 11.1328C14.5235 11.0961 14.5481 11.0604 14.5727 11.0247C14.5892 11.0007 14.7063 10.8459 14.611 10.9682C14.7175 10.8316 14.8358 10.7046 14.9603 10.5845C15.0225 10.5244 15.0879 10.4676 15.1543 10.412C15.1743 10.3953 15.2912 10.3055 15.1727 10.3956C15.2187 10.3606 15.2662 10.3275 15.3138 10.2947C15.4574 10.1958 15.6095 10.1099 15.7655 10.0326C15.8048 10.0134 15.8445 9.99488 15.8846 9.9771C16.021 9.91547 15.7685 10.0233 15.908 9.9682C16.004 9.93028 16.1022 9.89827 16.201 9.86869C16.2866 9.84309 16.3735 9.82224 16.4606 9.80298C16.5046 9.79328 16.5489 9.78522 16.5931 9.77715C16.62 9.77223 16.7726 9.75062 16.6178 9.77094C16.8162 9.74487 17.0169 9.73876 17.2166 9.74501C17.3085 9.74786 17.4001 9.75586 17.4914 9.76556C17.6458 9.78196 17.3642 9.74564 17.5168 9.76958C17.5614 9.77655 17.6056 9.78518 17.6499 9.79382C17.8391 9.83074 18.0244 9.88612 18.2053 9.95249C18.2299 9.96152 18.3689 10.0184 18.2297 9.9595C18.2701 9.97657 18.3098 9.99509 18.3496 10.0136C18.4287 10.0505 18.5058 10.0917 18.5821 10.1341C18.6581 10.1765 18.7318 10.2228 18.8046 10.2704C18.8409 10.2942 18.8764 10.3193 18.9118 10.3443C18.933 10.3593 19.0502 10.4491 18.9328 10.3576C19.0693 10.464 19.1963 10.5824 19.3165 10.7068C19.3767 10.7691 19.4334 10.8345 19.489 10.9008C19.5057 10.9208 19.5955 11.0377 19.5054 10.9193C19.5317 10.9538 19.5567 10.9892 19.5817 11.0247C19.6821 11.1669 19.7698 11.3179 19.8489 11.4729C19.8689 11.5118 19.8874 11.5515 19.9059 11.5912C19.9171 11.6152 19.9736 11.7531 19.9166 11.6136C19.95 11.6954 19.9789 11.7789 20.0063 11.8628C20.0618 12.0329 20.1015 12.2079 20.1314 12.3842C20.1572 12.5366 20.1171 12.2555 20.1354 12.4097C20.1408 12.4551 20.1445 12.5007 20.1482 12.5463C20.1557 12.6386 20.158 12.7312 20.1586 12.8237C20.1606 13.1405 20.4214 13.4048 20.7396 13.4048C21.0549 13.4048 21.3227 13.1405 21.3207 12.8237C21.3105 11.194 20.3517 9.64898 18.8565 8.9736C17.2933 8.26753 15.4753 8.55819 14.2019 9.7037C12.977 10.8055 12.528 12.6249 13.0555 14.1777C13.311 14.9301 13.778 15.6151 14.3999 16.1117C15.0739 16.6498 15.8523 16.9579 16.7085 17.0488C17.8894 17.1743 19.079 16.7296 19.9526 15.9438C20.8267 15.1574 21.3133 13.9919 21.3206 12.8237C21.3226 12.507 21.0548 12.2427 20.7396 12.2427C20.4214 12.2427 20.1606 12.507 20.1586 12.8237Z" fill="black"/>
<path d="M21.2724 16.9212C21.3537 16.9731 21.4336 17.0271 21.512 17.0833C21.5275 17.0943 21.655 17.1923 21.5479 17.1086C21.5858 17.1383 21.6228 17.1691 21.6597 17.1999C21.8196 17.3334 21.9679 17.4803 22.1079 17.6345C22.1726 17.7057 22.2338 17.7799 22.2938 17.8551C22.2092 17.749 22.3078 17.8757 22.3191 17.8911C22.3473 17.9302 22.3749 17.9697 22.4019 18.0096C22.5202 18.1828 22.6234 18.3659 22.7164 18.5537C22.7377 18.5974 22.7584 18.6415 22.7783 18.6859C22.8457 18.834 22.7346 18.5755 22.7957 18.7268C22.8323 18.8177 22.8646 18.9104 22.8952 19.0035C22.9625 19.208 23.0115 19.418 23.0487 19.6299C23.0521 19.6497 23.0756 19.8159 23.0572 19.6747C23.0637 19.725 23.0686 19.7754 23.0734 19.8259C23.0832 19.9279 23.0878 20.0303 23.0907 20.1327C23.0922 20.1856 23.0918 20.2385 23.0918 20.2914V23.2538C23.0918 23.2914 23.0906 23.31 23.0888 23.3473C23.0813 23.5019 23.113 23.2236 23.086 23.3741C23.0781 23.4183 23.0659 23.4617 23.0538 23.5049C23.0466 23.5305 22.9928 23.6703 23.0511 23.5324C23.0169 23.6132 22.9716 23.6888 22.9232 23.7617C22.8419 23.8841 23.0023 23.67 22.9069 23.7813C22.8691 23.8253 22.8267 23.8652 22.7839 23.9042C22.6756 24.0031 22.8841 23.8356 22.7643 23.9206C22.7287 23.9459 22.6907 23.9678 22.6529 23.9897C22.6149 24.0117 22.5749 24.0301 22.535 24.0485C22.6694 23.9866 22.5344 24.0426 22.5075 24.0511C22.4646 24.0647 22.4206 24.074 22.3767 24.0834C22.2272 24.1153 22.5043 24.0737 22.35 24.0862C22.318 24.0888 22.2855 24.0892 22.2534 24.0892H11.898C11.8569 24.0892 11.8456 24.0882 11.8047 24.0862C11.6501 24.0786 11.9284 24.1104 11.778 24.0834C11.7338 24.0754 11.6904 24.0633 11.6472 24.0511C11.6188 24.0427 11.5907 24.0333 11.5628 24.0231C11.633 24.0547 11.6386 24.057 11.5797 24.0301C11.5002 23.9934 11.4261 23.9459 11.3549 23.8953C11.4733 23.9793 11.3597 23.8941 11.3387 23.8749C11.3065 23.8456 11.2772 23.8133 11.2479 23.7813C11.149 23.6729 11.3165 23.8814 11.2315 23.7616C11.2062 23.726 11.1843 23.6881 11.1624 23.6503C11.1404 23.6122 11.122 23.5722 11.1036 23.5323C11.1678 23.6717 11.0975 23.4927 11.0888 23.4618C11.0766 23.4183 11.0686 23.3738 11.0607 23.3294C11.0876 23.4795 11.0651 23.3309 11.0637 23.301C11.0627 23.2816 11.0629 23.2619 11.0629 23.2425V20.3941C11.0629 20.2382 11.0637 20.0828 11.0733 19.9271C11.0765 19.8762 11.0814 19.8253 11.0862 19.7746C11.0881 19.7549 11.1104 19.5871 11.0905 19.7281C11.1045 19.6288 11.1236 19.5302 11.1442 19.4321C11.1884 19.2224 11.2511 19.0169 11.3248 18.8158C11.3416 18.7698 11.36 18.7244 11.3783 18.679C11.3269 18.8063 11.3898 18.6564 11.3978 18.6389C11.4382 18.5504 11.4828 18.4639 11.5288 18.3782C11.6279 18.1935 11.7428 18.0177 11.8666 17.8487C11.9617 17.7188 11.7932 17.9395 11.8937 17.8139C11.9238 17.7763 11.9551 17.7396 11.9863 17.703C12.0489 17.6297 12.1148 17.5595 12.1818 17.4905C12.2489 17.4214 12.3192 17.3555 12.3905 17.2908C12.4263 17.2587 12.4626 17.2271 12.4995 17.1961C12.5179 17.1804 12.6797 17.0532 12.5702 17.1367C12.6598 17.0684 12.7529 17.0049 12.8473 16.9434C13.1122 16.7709 13.2216 16.4316 13.0557 16.1484C12.9015 15.8852 12.5264 15.767 12.2607 15.94C10.8072 16.8865 9.90076 18.5016 9.90076 20.2436V22.8133C9.90076 23.2997 9.91261 23.7461 10.1381 24.1983C10.4645 24.8527 11.1971 25.2514 11.9147 25.2514H22.25C23.0941 25.2514 23.8293 24.7185 24.1304 23.9395C24.2816 23.5481 24.254 23.1241 24.254 22.7128V20.2361C24.254 19.3364 24.0096 18.4463 23.5597 17.6682C23.1478 16.9559 22.5505 16.359 21.859 15.9178C21.5917 15.7472 21.2192 15.8611 21.064 16.1262C20.8992 16.4075 21.0059 16.7512 21.2724 16.9212ZM29.2929 16.0547C29.2921 16.1466 29.2869 16.2383 29.2773 16.3297C29.2935 16.1754 29.2758 16.3252 29.2707 16.3535C29.2627 16.3974 29.2522 16.4409 29.2417 16.4843C29.2209 16.5701 29.193 16.6542 29.1628 16.7371C29.1117 16.8773 29.215 16.6242 29.1539 16.7598C29.1301 16.8127 29.1029 16.8641 29.0752 16.915C29.034 16.9912 28.9865 17.0638 28.9373 17.135C28.8536 17.256 29.0157 17.0403 28.9236 17.1548C28.8966 17.1884 28.8677 17.2205 28.839 17.2526C28.7814 17.3168 28.7187 17.3761 28.6546 17.4337C28.6225 17.4625 28.5889 17.4895 28.5553 17.5165C28.6759 17.4195 28.5226 17.5351 28.4976 17.5518C28.4253 17.5998 28.3493 17.6419 28.2723 17.6819C28.2336 17.7019 28.1938 17.7199 28.154 17.7378C28.2913 17.6759 28.1556 17.7343 28.1299 17.7437C28.0466 17.774 27.961 17.7973 27.875 17.8181C27.8315 17.8285 27.7874 17.8366 27.7434 17.8447C27.6774 17.855 27.6842 17.8545 27.7637 17.8432C27.7335 17.8466 27.7033 17.8495 27.673 17.8519C27.581 17.8598 27.4884 17.8597 27.3962 17.8571C27.3504 17.8558 27.3047 17.8519 27.2591 17.8479C27.105 17.8347 27.3857 17.8694 27.2341 17.8447C27.1461 17.8303 27.0594 17.8085 26.9736 17.7844C26.9311 17.7724 26.8894 17.7581 26.8477 17.7437C26.8201 17.734 26.7926 17.7237 26.7654 17.7129C26.8367 17.7438 26.8428 17.7462 26.7837 17.7198C26.7044 17.6841 26.6281 17.6419 26.5533 17.5978C26.516 17.5758 26.4799 17.5518 26.4439 17.5278C26.422 17.5133 26.3043 17.4251 26.4222 17.5166C26.2745 17.402 26.1439 17.2666 26.0269 17.1212C26.1201 17.237 26.0309 17.1217 26.0156 17.0995C25.991 17.064 25.9683 17.0271 25.9457 16.9902C25.9001 16.9161 25.8607 16.8384 25.8236 16.7598C25.76 16.6253 25.8684 16.8764 25.8147 16.7371C25.7989 16.6961 25.7854 16.6541 25.7719 16.6122C25.7399 16.5133 25.7174 16.4116 25.6988 16.3094C25.6712 16.1583 25.7117 16.4382 25.6955 16.2845C25.6907 16.2389 25.6885 16.1931 25.6863 16.1473C25.6819 16.0551 25.6854 15.9626 25.6916 15.8706C25.6935 15.8428 25.7138 15.6897 25.6915 15.8446C25.6979 15.8002 25.7068 15.7561 25.7157 15.7121C25.7362 15.6107 25.7662 15.5115 25.7997 15.4137C25.8084 15.3884 25.8652 15.2505 25.8057 15.3895C25.8229 15.3495 25.8422 15.3104 25.8616 15.2713C25.9001 15.1935 25.9449 15.1191 25.9917 15.046C26.015 15.0096 26.0402 14.9745 26.0655 14.9394C25.9791 15.0595 26.064 14.9427 26.0816 14.9216C26.146 14.8444 26.2173 14.7732 26.2909 14.7047C26.3225 14.6753 26.3556 14.6477 26.3887 14.6201C26.4385 14.5801 26.4334 14.584 26.3734 14.6316C26.3966 14.6145 26.4201 14.5979 26.4439 14.5818C26.5272 14.5242 26.6154 14.4742 26.7052 14.4277C26.7439 14.4076 26.7837 14.3897 26.8235 14.3718C26.6805 14.4362 26.8603 14.3615 26.8893 14.3515C27.0016 14.313 27.1175 14.2862 27.2341 14.2649C27.3852 14.2373 27.1053 14.2778 27.2591 14.2616C27.3199 14.2552 27.3812 14.2529 27.4424 14.2511C27.5497 14.2481 27.6571 14.2552 27.7637 14.2664C27.6095 14.2502 27.7593 14.2678 27.7876 14.273C27.8461 14.2836 27.9038 14.2982 27.9613 14.3132C28.0182 14.3281 28.0742 14.3467 28.1299 14.3658C28.1575 14.3756 28.1849 14.3859 28.2121 14.3966C28.1408 14.3657 28.1348 14.3634 28.1939 14.3897C28.2863 14.4314 28.3748 14.4814 28.4611 14.5345C28.498 14.5571 28.5336 14.5817 28.5691 14.6064C28.6207 14.6442 28.616 14.6398 28.5553 14.593C28.5778 14.6109 28.6001 14.6291 28.622 14.6477C28.6992 14.7122 28.7705 14.7834 28.839 14.857C28.8781 14.8991 28.9146 14.9436 28.9506 14.9884C28.8536 14.8678 28.9692 15.021 28.9858 15.0461C29.042 15.1304 29.0903 15.2197 29.1353 15.3104C29.1473 15.3347 29.2038 15.4711 29.147 15.3315C29.1691 15.3859 29.1877 15.4416 29.2057 15.4974C29.2376 15.5963 29.2601 15.698 29.2788 15.8002C29.2892 15.8662 29.2886 15.8595 29.2773 15.7799C29.2808 15.8101 29.2836 15.8403 29.286 15.8706C29.2912 15.9318 29.2924 15.9933 29.2929 16.0547C29.296 16.3714 29.555 16.6358 29.874 16.6358C30.1885 16.6358 30.4581 16.3715 30.4551 16.0547C30.447 15.2084 30.0868 14.3826 29.4437 13.8259C28.7487 13.2242 27.87 13.0076 26.9697 13.137C26.1417 13.2559 25.4085 13.8027 24.9649 14.4959C24.505 15.2146 24.4044 16.1557 24.6649 16.9631C24.8819 17.636 25.337 18.1991 25.9299 18.5785C26.5512 18.976 27.2901 19.0756 28.0079 18.9725C29.4176 18.7699 30.4418 17.4413 30.4551 16.0547C30.4581 15.738 30.1885 15.4737 29.874 15.4737C29.555 15.4737 29.296 15.738 29.2929 16.0547Z" fill="black"/>
<path d="M30.1187 18.8982C30.159 18.924 30.1989 18.9506 30.2384 18.9777C30.2547 18.989 30.3809 19.0862 30.2737 19.0016C30.3486 19.0608 30.4192 19.1254 30.488 19.1915C30.5568 19.2576 30.6208 19.3286 30.6829 19.4011C30.6959 19.4163 30.7923 19.5425 30.7104 19.4335C30.7487 19.4845 30.7841 19.5377 30.819 19.5911C30.8716 19.6716 30.9182 19.7558 30.9626 19.8409C30.9849 19.8837 31.0051 19.9275 31.0253 19.9714C30.9676 19.846 31.033 19.9926 31.0404 20.012C31.0753 20.1034 31.1032 20.1972 31.1287 20.2916C31.1416 20.3392 31.1521 20.3875 31.1625 20.4357C31.1681 20.4613 31.2007 20.6718 31.1821 20.5272C31.2365 20.9485 31.2033 21.392 31.2033 21.8153V22.8478C31.2033 22.8784 31.2018 22.9089 31.1989 22.9393C31.2104 22.8594 31.2097 22.852 31.1968 22.9171C31.1903 22.9459 31.1372 23.08 31.197 22.9433C31.1796 22.983 31.1568 23.02 31.1341 23.0567C31.0587 23.1786 31.2147 22.9681 31.1184 23.0737C31.0988 23.0952 30.9891 23.184 31.1066 23.0954C31.0721 23.1214 31.0342 23.1424 30.9965 23.1633C30.8702 23.2334 31.1125 23.1253 30.974 23.1707C30.9445 23.1803 30.801 23.2033 30.9536 23.1845C30.9259 23.1879 30.8889 23.189 30.861 23.189H25.6929C25.3762 23.189 25.1119 23.4533 25.1119 23.77C25.1119 24.0868 25.3762 24.3511 25.6929 24.3511H30.5665C30.976 24.3511 31.3817 24.3339 31.7274 24.073C32.1189 23.7776 32.3655 23.344 32.3655 22.8449V20.9797C32.3655 20.2486 32.1823 19.5347 31.7695 18.9249C31.4881 18.5093 31.1272 18.1656 30.7054 17.8948C30.4385 17.7235 30.0653 17.8387 29.9104 18.1032C29.7452 18.3851 29.8527 18.7274 30.1187 18.8982ZM8.46992 16.0547C8.46908 16.1466 8.46385 16.2383 8.45425 16.3297C8.47048 16.1754 8.45285 16.3252 8.44767 16.3535C8.43967 16.3974 8.42914 16.4409 8.41869 16.4843C8.39793 16.5701 8.36998 16.6542 8.33976 16.7371C8.28866 16.8773 8.39199 16.6242 8.3309 16.7598C8.30706 16.8127 8.27986 16.8641 8.25224 16.915C8.21097 16.9912 8.16355 17.0638 8.11428 17.135C8.03057 17.256 8.1927 17.0403 8.1006 17.1548C8.07357 17.1884 8.04475 17.2205 8.01596 17.2526C7.95839 17.3168 7.8957 17.3761 7.83159 17.4337C7.79948 17.4624 7.76588 17.4895 7.73228 17.5165C7.85287 17.4195 7.69961 17.5351 7.67457 17.5518C7.60232 17.5998 7.52628 17.6419 7.44929 17.6819C7.41057 17.7019 7.37079 17.7199 7.33105 17.7378C7.46831 17.6759 7.33261 17.7343 7.30685 17.7437C7.22364 17.774 7.13804 17.7973 7.05201 17.8181C7.00848 17.8285 6.96442 17.8366 6.92039 17.8447C6.85439 17.855 6.86116 17.8545 6.94071 17.8432C6.91053 17.8466 6.88028 17.8495 6.85 17.8519C6.75796 17.8598 6.66543 17.8597 6.57322 17.8571C6.5274 17.8558 6.48171 17.8519 6.43606 17.8479C6.282 17.8347 6.56266 17.8694 6.41116 17.8447C6.3231 17.8303 6.23644 17.8085 6.15065 17.7844C6.10818 17.7724 6.06641 17.7581 6.02471 17.7437C5.9971 17.734 5.96968 17.7237 5.94246 17.7129C6.01372 17.7438 6.01983 17.7462 5.96069 17.7198C5.88137 17.6841 5.80517 17.6419 5.73033 17.5978C5.69304 17.5758 5.65698 17.5518 5.62099 17.5278C5.59908 17.5133 5.48134 17.4251 5.59928 17.5166C5.45152 17.402 5.32093 17.2666 5.20393 17.1212C5.29709 17.237 5.20801 17.1217 5.1927 17.0995C5.16807 17.064 5.14539 17.0271 5.12274 16.9902C5.07719 16.9161 5.03781 16.8384 5.00069 16.7598C4.93711 16.6253 5.04551 16.8764 4.99182 16.7371C4.97599 16.6961 4.96247 16.6541 4.94896 16.6122C4.91705 16.5133 4.89451 16.4116 4.87585 16.3094C4.84825 16.1583 4.88876 16.4382 4.87256 16.2845C4.86778 16.2389 4.86559 16.1931 4.86343 16.1473C4.85901 16.0551 4.86253 15.9626 4.86867 15.8706C4.87053 15.8428 4.89085 15.6897 4.86861 15.8446C4.87498 15.8002 4.88388 15.7561 4.89281 15.7121C4.9133 15.6107 4.94328 15.5115 4.97682 15.4137C4.98552 15.3884 5.04233 15.2505 4.98276 15.3895C4.99993 15.3495 5.01932 15.3104 5.03864 15.2713C5.07719 15.1935 5.12201 15.1191 5.16873 15.046C5.19204 15.0096 5.21731 14.9745 5.24254 14.9394C5.15618 15.0595 5.24105 14.9427 5.25864 14.9216C5.32309 14.8444 5.39438 14.7732 5.46796 14.7047C5.49953 14.6753 5.53264 14.6477 5.56574 14.6201C5.61561 14.5801 5.6105 14.584 5.55043 14.6316C5.57366 14.6146 5.59719 14.598 5.62102 14.5818C5.70426 14.5242 5.79252 14.4742 5.8823 14.4277C5.92101 14.4076 5.96079 14.3897 6.00054 14.3718C5.85756 14.4362 6.03736 14.3615 6.06634 14.3515C6.1786 14.313 6.29455 14.2862 6.41119 14.2649C6.5622 14.2373 6.28233 14.2778 6.43609 14.2616C6.49699 14.2552 6.55825 14.2529 6.61941 14.2511C6.72672 14.2481 6.83407 14.2552 6.94075 14.2664C6.78652 14.2502 6.9363 14.2678 6.96459 14.273C7.02309 14.2836 7.0808 14.2982 7.13831 14.3132C7.19528 14.3281 7.25123 14.3467 7.30691 14.3658C7.33452 14.3756 7.36194 14.3859 7.38916 14.3966C7.3179 14.3657 7.31179 14.3634 7.37093 14.3897C7.46343 14.4314 7.55188 14.4814 7.63818 14.5345C7.67503 14.5571 7.71063 14.5817 7.74619 14.6064C7.79772 14.6442 7.79311 14.6398 7.73234 14.593C7.75491 14.6109 7.77714 14.6291 7.79905 14.6477C7.87628 14.7122 7.94757 14.7834 8.01603 14.857C8.05521 14.8991 8.09167 14.9436 8.12773 14.9884C8.03071 14.8678 8.14629 15.021 8.16295 15.0461C8.2191 15.1304 8.26745 15.2197 8.31237 15.3104C8.32445 15.3347 8.38083 15.4711 8.32409 15.3315C8.3462 15.3859 8.36473 15.4416 8.38273 15.4974C8.41463 15.5963 8.43718 15.698 8.45584 15.8002C8.4662 15.8662 8.46567 15.8595 8.45435 15.7799C8.4578 15.8101 8.46069 15.8403 8.46301 15.8706C8.46816 15.9318 8.46932 15.9933 8.46992 16.0547C8.47294 16.3714 8.73196 16.6358 9.05097 16.6358C9.36544 16.6358 9.63505 16.3715 9.63203 16.0547C9.62396 15.2084 9.26377 14.3826 8.62073 13.8259C7.92572 13.2242 7.04693 13.0076 6.14666 13.137C5.31871 13.2559 4.58552 13.8027 4.14196 14.4959C3.68199 15.2146 3.58145 16.1557 3.8419 16.9631C4.05898 17.636 4.51403 18.1991 5.10694 18.5785C5.72817 18.976 6.46714 19.0756 7.18489 18.9725C8.5946 18.7699 9.61885 17.4413 9.63206 16.0547C9.63508 15.738 9.36547 15.4737 9.05101 15.4737C8.73192 15.4737 8.47294 15.738 8.46992 16.0547ZM8.46195 23.1889H3.31497C3.26646 23.1889 3.12418 23.1673 3.26669 23.192C3.22309 23.1844 3.18093 23.1706 3.13902 23.1569C3.27389 23.2011 3.15141 23.1594 3.12043 23.1423C3.0932 23.1272 2.98679 23.0402 3.09845 23.1328C3.07265 23.1114 2.95325 22.9706 3.04503 23.0921C3.01899 23.0576 2.99798 23.0198 2.97709 22.9821C2.907 22.8558 3.01511 23.098 2.96975 22.9596C2.96009 22.9301 2.93715 22.7866 2.95594 22.9392C2.95275 22.9133 2.95146 22.873 2.95146 22.847V20.8821C2.95146 20.7794 2.9576 20.6771 2.96733 20.575C2.9833 20.4072 2.94701 20.6947 2.9743 20.5297C2.98244 20.4804 2.9931 20.4316 3.00375 20.3828C3.02487 20.2862 3.05333 20.1913 3.08411 20.0974C3.09938 20.0508 3.11701 20.0051 3.13461 19.9593C3.08477 20.0888 3.16366 19.8985 3.17478 19.8755C3.21698 19.7883 3.26566 19.7044 3.31626 19.6219C3.3415 19.5808 3.36872 19.5409 3.39595 19.5011C3.40677 19.4852 3.50386 19.3574 3.42015 19.4642C3.54878 19.3001 3.69836 19.1534 3.85834 19.0202C3.98149 18.9176 3.76387 19.0883 3.89356 18.9939C3.93254 18.9656 3.97292 18.9391 4.01323 18.9127C4.27759 18.7395 4.38793 18.4015 4.22168 18.1177C4.06781 17.8551 3.69189 17.7355 3.4267 17.9093C2.6592 18.4122 2.09528 19.1763 1.88312 20.0739C1.76574 20.5703 1.78928 21.0812 1.78928 21.5867V22.8412C1.78928 23.6748 2.48137 24.351 3.31025 24.351H8.46185C8.77861 24.351 9.0429 24.0867 9.0429 23.7699C9.0429 23.4532 8.77867 23.1889 8.46195 23.1889Z" fill="black"/>
</svg>
