<svg id="visual" viewBox="0 0 960 540" width="960" height="540" xmlns="http://www.w3.org/2000/svg" xmlns:xlink="http://www.w3.org/1999/xlink" version="1.1"><rect x="0" y="0" width="960" height="540" fill="#2a2e34"></rect><path d="M0 445L20 441C40 437 80 429 120 422.7C160 416.3 200 411.7 240 415.5C280 419.3 320 431.7 360 434.5C400 437.3 440 430.7 480 425C520 419.3 560 414.7 600 416.7C640 418.7 680 427.3 720 432.2C760 437 800 438 840 436.3C880 434.7 920 430.3 940 428.2L960 426L960 541L940 541C920 541 880 541 840 541C800 541 760 541 720 541C680 541 640 541 600 541C560 541 520 541 480 541C440 541 400 541 360 541C320 541 280 541 240 541C200 541 160 541 120 541C80 541 40 541 20 541L0 541Z" fill="#535c91"></path><path d="M0 441L20 440C40 439 80 437 120 440.5C160 444 200 453 240 458.8C280 464.7 320 467.3 360 468.2C400 469 440 468 480 467.8C520 467.7 560 468.3 600 467.5C640 466.7 680 464.3 720 464.2C760 464 800 466 840 466.2C880 466.3 920 464.7 940 463.8L960 463L960 541L940 541C920 541 880 541 840 541C800 541 760 541 720 541C680 541 640 541 600 541C560 541 520 541 480 541C440 541 400 541 360 541C320 541 280 541 240 541C200 541 160 541 120 541C80 541 40 541 20 541L0 541Z" fill="#646da0"></path><path d="M0 470L20 469.8C40 469.7 80 469.3 120 468.5C160 467.7 200 466.3 240 468.2C280 470 320 475 360 480.2C400 485.3 440 490.7 480 489.2C520 487.7 560 479.3 600 478.5C640 477.7 680 484.3 720 485.7C760 487 800 483 840 481.3C880 479.7 920 480.3 940 480.7L960 481L960 541L940 541C920 541 880 541 840 541C800 541 760 541 720 541C680 541 640 541 600 541C560 541 520 541 480 541C440 541 400 541 360 541C320 541 280 541 240 541C200 541 160 541 120 541C80 541 40 541 20 541L0 541Z" fill="#767faf"></path><path d="M0 508L20 510.5C40 513 80 518 120 520.3C160 522.7 200 522.3 240 517.7C280 513 320 504 360 502.8C400 501.7 440 508.3 480 509.5C520 510.7 560 506.3 600 504.7C640 503 680 504 720 505.7C760 507.3 800 509.7 840 507.7C880 505.7 920 499.3 940 496.2L960 493L960 541L940 541C920 541 880 541 840 541C800 541 760 541 720 541C680 541 640 541 600 541C560 541 520 541 480 541C440 541 400 541 360 541C320 541 280 541 240 541C200 541 160 541 120 541C80 541 40 541 20 541L0 541Z" fill="#8890be"></path></svg>